<svg id="Layer_1" data-name="Layer 1" xmlns="http://www.w3.org/2000/svg" viewBox="0 0 21 21"><defs><style>.cls-1{fill:#44d5a7;}</style></defs><path class="cls-1" d="M18.34,14.77h-1a.5.5,0,0,1,0-1h1a.5.5,0,0,1,0,1Z"/><path class="cls-1" d="M7.71,14.77h-1a.5.5,0,1,1,0-1h1a.5.5,0,0,1,0,1Z"/><path class="cls-1" d="M12.53,12.27a2,2,0,1,1-2,2,2,2,0,0,1,2-2m0-1a3,3,0,1,0,3,3,3,3,0,0,0-3-3Z"/><path class="cls-1" d="M2.85,13.1H1.35A1.48,1.48,0,0,1,0,11.52V1.58A1.48,1.48,0,0,1,1.35,0H15.58a1.48,1.48,0,0,1,1.36,1.58V6.25a.51.51,0,0,1-.5.5.5.5,0,0,1-.5-.5V1.58c0-.33-.19-.58-.36-.58H1.35C1.19,1,1,1.25,1,1.58v9.94c0,.34.19.58.35.58h1.5a.51.51,0,0,1,.5.5A.5.5,0,0,1,2.85,13.1Z"/><path class="cls-1" d="M19.5,21H5.56a1.5,1.5,0,0,1-1.5-1.5V9a1.5,1.5,0,0,1,1.5-1.5H19.5A1.5,1.5,0,0,1,21,9V19.5A1.5,1.5,0,0,1,19.5,21ZM5.56,8.54a.5.5,0,0,0-.5.5V19.5a.5.5,0,0,0,.5.5H19.5a.5.5,0,0,0,.5-.5V9a.5.5,0,0,0-.5-.5Z"/></svg>