<svg id="Layer_1" data-name="Layer 1" xmlns="http://www.w3.org/2000/svg" viewBox="0 0 306.38 296.4"><defs><style>.cls-1{fill:#f5fafe;}.cls-2{fill:#dce2f3;}.cls-26,.cls-27,.cls-3{fill:none;}.cls-25,.cls-26,.cls-3,.cls-6,.cls-7{stroke:#cde8f9;}.cls-25,.cls-27,.cls-3,.cls-7,.cls-9{stroke-linecap:round;}.cls-25,.cls-26,.cls-27,.cls-3,.cls-6,.cls-7,.cls-9{stroke-miterlimit:10;}.cls-4{fill:#3ee5b1;}.cls-5{fill:#cde8f9;}.cls-10,.cls-17,.cls-18,.cls-25,.cls-6,.cls-7{fill:#fff;}.cls-7{stroke-width:0.5px;}.cls-8{fill:#f45a6d;}.cls-16,.cls-19,.cls-9{fill:#81c6ef;}.cls-10,.cls-27,.cls-9{stroke:#fff;}.cls-27,.cls-9{stroke-width:2px;}.cls-10{stroke-linejoin:round;stroke-width:0.25px;}.cls-11{fill:#e3c9c9;}.cls-12{fill:#182a62;}.cls-13{fill:#1e3596;}.cls-14{fill:#2659bf;}.cls-15{fill:#276bd8;}.cls-17,.cls-19{fill-rule:evenodd;}.cls-20{fill:#0b132c;}.cls-21{fill:#8a1d1d;}.cls-22{fill:#54afdd;}.cls-23{fill:#dadef2;}.cls-24{fill:#a9d9ed;}</style></defs><circle class="cls-1" cx="144.58" cy="144.46" r="135"/><ellipse class="cls-2" cx="153.19" cy="283.03" rx="150" ry="3"/><path class="cls-3" d="M68.3,184.63V87H220.75v97.65a3.44,3.44,0,0,1-3.44,3.43H71.73A3.44,3.44,0,0,1,68.3,184.63Z"/><path class="cls-3" d="M68.3,79.84a3.44,3.44,0,0,1,3.43-3.43H217.31a3.44,3.44,0,0,1,3.44,3.43V87H68.3Z"/><path class="cls-3" d="M211.15,82.47A1.87,1.87,0,1,1,213,84.34,1.87,1.87,0,0,1,211.15,82.47Z"/><path class="cls-3" d="M203.26,82.47a1.87,1.87,0,1,1,1.86,1.87A1.87,1.87,0,0,1,203.26,82.47Z"/><path class="cls-3" d="M195.31,82.47a1.86,1.86,0,1,1,1.86,1.87A1.86,1.86,0,0,1,195.31,82.47Z"/><path class="cls-3" d="M219.65,107c-12.52.24-17.3,5.29-21,11.88-.25.43-.48.87-.7,1.33-6.49,12.85-4.32,18.88-18.59,18.88a5.73,5.73,0,0,1-1.51-.2,4.26,4.26,0,0,1-.87-.3c-9.6-4.23-8.32-22.67-25.39-22.46A11.27,11.27,0,0,0,143,120c-.21.24-.41.47-.61.72-7.65,9.39-7.32,32.63-19.06,36.43-4.23,1.36-8-.49-11.66-3.56-.23-.2-.47-.39-.7-.61-7.81-6.78-23.67-20.68-35.72-17.84-.34.08-.69.18-1,.28l-.06,0a8.5,8.5,0,0,0-4.88,3.83"/><circle class="cls-4" cx="114.6" cy="105.59" r="7.71"/><path class="cls-5" d="M48.82,117.71a2.13,2.13,0,0,0-.82-1.32,2.44,2.44,0,0,0-1.51-.45l.29-.22a1.72,1.72,0,0,0,.28-.3,1.92,1.92,0,0,0,.32-1.73,2.36,2.36,0,0,0-1-1.44,2.26,2.26,0,0,0-1.14-.37,3.17,3.17,0,0,0-.44,0l-.26-1.15-1.59.36.24,1-1.07.24-.23-1-1.59.36.23,1-.44.1-1.29.29.38,1.71,1.3-.29,1.27,5.62-1.29.3.38,1.7,1.29-.29.45-.1.23,1,1.59-.36-.24-1,1.07-.24.23,1,1.59-.36-.25-1.07a2.9,2.9,0,0,0,1.71-1.23A2.43,2.43,0,0,0,48.82,117.71Zm-4-4c.28.07.46.31.55.71a.8.8,0,0,1-.23.88,3.42,3.42,0,0,1-1.21.46L43,116l-.44-2,1-.22A3.15,3.15,0,0,1,44.82,113.75Zm1.62,5.12a3.17,3.17,0,0,1-1.25.51l-1.38.31-.47-2.08,1.19-.27a3.93,3.93,0,0,1,1.51-.13.83.83,0,0,1,.65.72A.87.87,0,0,1,46.44,118.87Z"/><polygon class="cls-5" points="145.51 55.47 142.09 53.05 145.36 47.84 148.83 52.91 145.51 55.47"/><polygon class="cls-5" points="145.58 58.89 142.1 53.73 145.53 56.31 148.85 53.59 145.58 58.89"/><polygon class="cls-5" points="239.43 118.04 239.85 115.8 241.39 115.39 241.72 113.67 240.18 114.08 240.93 110.08 238.04 110.08 237.14 114.88 235.8 115.23 235.48 116.95 236.81 116.6 236.07 120.54 244.5 120.54 244.97 118.04 239.43 118.04"/><path class="cls-6" d="M32.92,251.89a.11.11,0,0,0,.09-.13.12.12,0,0,0-.14-.09c-1.6.32-2.78,3.52-3.5,9.48-.53,4.42-.61,8.79-.61,8.83a.11.11,0,0,0,.11.12h0A.11.11,0,0,0,29,270"/><path class="cls-6" d="M32,252.36s.27-15.66,7.29-6.55S32,252.36,32,252.36Z"/><path class="cls-6" d="M28.76,270a.11.11,0,0,1-.11.12h0a.11.11,0,0,1-.11-.11c0-.11-.32-10.75-3.92-11.2a.11.11,0,0,1-.1-.13.11.11,0,0,1,.13-.1"/><path class="cls-6" d="M25.55,259s-.74-11.59-7.29-4.07C13.49,260.44,25.55,259,25.55,259Z"/><path class="cls-7" d="M37.93,247.27l-6,5"/><path class="cls-7" d="M36.44,246.73,35.73,249"/><path class="cls-7" d="M34,250.63l2.79-.35"/><path class="cls-7" d="M25.55,259.15l-.06,0-5-3.59"/><path class="cls-7" d="M20.36,257.26H22.7"/><path class="cls-7" d="M24.22,258.14l-.29-2.06"/><path class="cls-6" d="M28.26,283h0a7.91,7.91,0,0,1-7.79-6.51l-1.9-10.65a1.17,1.17,0,0,1,.26-1,1.15,1.15,0,0,1,.91-.43h17a1.2,1.2,0,0,1,1.18,1.4l-1.91,10.65A7.91,7.91,0,0,1,28.26,283Z"/><circle class="cls-8" cx="179.36" cy="73.64" r="6.97"/><line class="cls-9" x1="177.66" y1="71.55" x2="181.78" y2="75.67"/><line class="cls-9" x1="181.56" y1="71.46" x2="177.44" y2="75.58"/><path class="cls-8" d="M263.54,280.88a1.94,1.94,0,0,0,1.92,1.59h10a2,2,0,0,0,1.92-1.58l1.69-8.75H261.92Z"/><circle class="cls-4" cx="270.64" cy="262.01" r="9.39"/><path class="cls-10" d="M272.91,254.06a7.84,7.84,0,0,0-1.72-1.49l-.07.13a8,8,0,0,1,1.69,1.46,10.8,10.8,0,0,1,2.42,4.88,12.08,12.08,0,0,1,.12,4.25c-.32,2.31-1.11,6.39-2.7,7.82l.1.11c1.62-1.46,2.42-5.58,2.75-7.91a12.13,12.13,0,0,0-.13-4.3A10.75,10.75,0,0,0,272.91,254.06Z"/><path class="cls-10" d="M266.64,265.25a14.78,14.78,0,0,1-.53-3.68H266a15.08,15.08,0,0,0,.53,3.71,10.94,10.94,0,0,0,4.11,6.18l.08-.12A10.76,10.76,0,0,1,266.64,265.25Z"/><rect class="cls-8" x="259.39" y="268.15" width="22.2" height="3.99" rx="0.74"/><path class="cls-10" d="M268.39,254.61a10,10,0,0,0-2.43,5.85h.15a9.86,9.86,0,0,1,2.39-5.75,10.7,10.7,0,0,1,2.18-2l-.08-.13A11.78,11.78,0,0,0,268.39,254.61Z"/><rect class="cls-10" x="270.86" y="253.88" width="0.15" height="6.3"/><rect class="cls-10" x="270.86" y="260.02" width="0.15" height="8.13"/><rect class="cls-10" x="266.86" y="252.44" width="0.15" height="1.63" transform="translate(-100.11 227.46) rotate(-39.47)"/><rect class="cls-10" x="275.34" y="253.75" width="1.72" height="0.15" transform="matrix(0.75, -0.66, 0.66, 0.75, -98.87, 247.92)"/><rect class="cls-10" x="262.51" y="255.86" width="0.15" height="1.51" transform="translate(-89.72 359.97) rotate(-60.69)"/><rect class="cls-10" x="278.16" y="257.28" width="1.59" height="0.15" transform="translate(-87.74 159.48) rotate(-27.75)"/><rect class="cls-10" x="260.36" y="261.5" width="1.92" height="0.15"/><rect class="cls-10" x="279.65" y="262.38" width="1.4" height="0.15"/><rect class="cls-10" x="261.66" y="266.24" width="1.4" height="0.15" transform="translate(-90.77 143.61) rotate(-26.27)"/><rect class="cls-10" x="278.88" y="266.05" width="0.15" height="1.57" transform="translate(-84.72 396.29) rotate(-63.32)"/><rect class="cls-10" x="266.86" y="256.29" width="0.15" height="1.32" transform="translate(-100.03 308.09) rotate(-51.84)"/><rect class="cls-10" x="274.3" y="257.65" width="1.37" height="0.15" transform="translate(-95.63 189.26) rotate(-32.68)"/><rect class="cls-10" x="265.44" y="263.34" width="1.51" height="0.15" transform="translate(-46.51 57.34) rotate(-11.31)"/><rect class="cls-10" x="275.23" y="262.89" width="0.15" height="1.87" transform="translate(-54.42 455.34) rotate(-73.93)"/><path class="cls-8" d="M56.46,160.83c1-1.72,2-2.37,1.29-7-2.32-15.36,11.41-11.76,12-7.72.15,1-.25,1.68-1.28.83-1.74-1.43-.2,4.82.59,6.3,1.23,2.3,2.53,5.07-3.36,11-5.32,5.37.15,5.74.22,7.65C66.11,176.8,51.58,169.34,56.46,160.83Z"/><path class="cls-11" d="M87.33,194.2c.32,3.23-9.61,82-9.61,82a3.14,3.14,0,0,1-3.69,0s-.56-18.27-2.34-35.55c-1.53-14.93-.67-29-1.8-30l.61-15.73C76.51,195.55,85.3,195,87.33,194.2Z"/><path class="cls-12" d="M81.79,279.71a6.74,6.74,0,0,1-3.32-.94c-.84-.68-.51-3.36-.31-4.21l-1.8-.07a10.3,10.3,0,0,1-2.64-.16,39.27,39.27,0,0,1-1,5.13,1.33,1.33,0,0,0,.06,1.24,2.58,2.58,0,0,0,2.3.79l7.69.32a.74.74,0,0,0,.85-.78C83.69,280.68,83.38,279.77,81.79,279.71Z"/><path class="cls-11" d="M118.79,141.71c.31,0,.38,1.38.24,1.65-.54.55-.86.56-1.37,1.1a8.7,8.7,0,0,0,.69-2.13C118.39,142,118.33,141.59,118.79,141.71Z"/><path class="cls-11" d="M78.12,160.05c3.35-1.17,14.77-2,20.16-3.45,6.62-1.77,5.49,3.47,3.66,4.66-4.81,3.11-19.51,9.37-21.39,7C79.74,167.29,77.51,160.26,78.12,160.05Z"/><path class="cls-13" d="M78.12,160.05c3.29-2.12,8.8-1.71,14.08-3.07a42.32,42.32,0,0,1,2,5.83c.19.72.83,2.87,1,3.6-5.92,2.61-13.38,3.45-14.63,1.89C79.74,167.29,77.58,160.39,78.12,160.05Z"/><path class="cls-11" d="M99.27,156.86c3-2.41,15.58-9.43,18.29-12.44a12.67,12.67,0,0,0,2.14,2.43c-4.55,4.86-17.26,15.68-19.64,14.48a2.59,2.59,0,0,1-1.27-3.92A2.2,2.2,0,0,1,99.27,156.86Z"/><path class="cls-11" d="M123.22,144l0,0c-1.32,1.17-3,2.44-3.56,2.85-1-.34-2.14-2.37-2.12-2.41.69-.52,1.55-1.46,2.15-1.93s2.39-1.68,2.51-1.76c.36-.2,1.21-.78,1.51-.9a.76.76,0,0,1,1,.18c.08.13.2.51-.65,1a16.67,16.67,0,0,0-1.61,1.09s.69.15.47.64c0,0,.62.07.42.63C123.28,143.47,123.6,143.68,123.22,144Z"/><path class="cls-11" d="M58.81,193.08c2,.95,14.76,4.12,20.8,4,0,0-.59,7.93-2,12.71-2.29,7.5-5.41,20-7,26.46-4,16.66-11,38.63-11,38.63-1.72.9-3.72-.7-3.75-.83s1.35-30.42,3-37.42C60.17,230.8,58.5,194.81,58.81,193.08Z"/><path class="cls-11" d="M74.06,149.42c.41.32,4.66,2.91,5.91,2.77,0,.34-1,4.11-.29,6.1-1.23,4.37-5.45,1.45-6.72-1.68C73.57,155.75,74.24,151.11,74.06,149.42Z"/><path class="cls-11" d="M73.8,144.54c1.93-1.23,4.13-1.82,5.61-.16.53.59,3.56,6.88.79,9.59-1.17,1.14-5.11.22-6.09-1.33l-1.36-2.14A4.17,4.17,0,0,1,73.8,144.54Z"/><path class="cls-14" d="M87.41,235.55c-2.12,4.67-34.2.27-33.37-5.58,2.76-19.46,6-60.9,6.49-62.52,1.61-5.27,3.33-8,7.24-9.15,1.31-.38,5.19-1.69,5.19-1.69s2.59,3.37,4.37,3.62c1.23.17,2.35-1.94,2.35-1.94s3.68,2.46,4.46,3.13c3,2.64,3.57,6.77,3.61,10.29.16,12.39.38,21,.55,27.15,0,1.61.1,3,.14,4.33C88.67,210.75,87.89,234.49,87.41,235.55Z"/><path class="cls-8" d="M68.73,146c1.49-4.25,7.57-3.91,7.57-3.91,3.82-1.21,5.81,4.26,4.63,5.86-1.28-4.14-4.46-4-4.46-4-4.72,2.48-2.33,8.63-2.22,10.23C74.25,154.2,66.49,152.39,68.73,146Z"/><path class="cls-11" d="M72.37,149.61a2.06,2.06,0,0,1,1.06-.18c.19.84.55,2.31.62,3a2.62,2.62,0,0,1-2.14-.95A1.56,1.56,0,0,1,72.37,149.61Z"/><path class="cls-14" d="M68,144.75a1.58,1.58,0,0,1,.68-.64,2,2,0,0,1,1.3-.05,8.09,8.09,0,0,0-1.63,3.2A1.69,1.69,0,0,1,68,144.75Z"/><path class="cls-12" d="M63.74,278.93a6.62,6.62,0,0,1-3.26-1.13c-.8-.72-.2-3.49.05-4.32l-1.9-.08a11.38,11.38,0,0,1-2.75-.31,43.55,43.55,0,0,1-1.13,5.07,1.33,1.33,0,0,0,0,1.24,2.62,2.62,0,0,0,2.25.92c1.34.13,5.75.59,7.67.77a.74.74,0,0,0,.89-.72C65.57,280,65.32,279.09,63.74,278.93Z"/><path class="cls-11" d="M89.49,189.64c.29-.2.55-.5.76-.08.16.26-.8,1.19-1.1,1.26-.76,0-.73-.49-1.45-.43A6.54,6.54,0,0,0,89.49,189.64Z"/><path class="cls-11" d="M86.62,189a16.83,16.83,0,0,1,2.25,0c.9,0,2.9.38,3,.4.4.09.39.18.67.34a1.77,1.77,0,0,1,.6.83.53.53,0,0,1-.3.5c.15.41-.95.57-.89.66.23.39.83.83-.73.54-.1,0-4.07,0-5.33-.08A16.06,16.06,0,0,1,86.62,189Z"/><path class="cls-11" d="M72.54,162.19c-.37,3.53-3.88,14-4.87,19.49-1.21,6.74-5.48,3.49-5.77,1.33-.77-5.69.17-20.74,2.13-22.13C65.08,160.13,72.6,161.55,72.54,162.19Z"/><path class="cls-15" d="M73.55,162.1c.6,2.43-2.2,8.69-3.22,14.05a18.62,18.62,0,0,1-9.81-1.32c.16-6.47,1.59-12.09,2.69-13.75C66.07,156.82,72.76,159,73.55,162.1Z"/><path class="cls-11" d="M65.27,181.26a2.29,2.29,0,0,1,.72.07c3.7,1,16.71,7.24,20.73,7.71a12.45,12.45,0,0,0-.73,3.15c-6.6-.9-22.78-5-23.18-7.62A2.59,2.59,0,0,1,65.27,181.26Z"/><rect class="cls-16" x="168.65" y="200.09" width="21.02" height="9.61"/><path class="cls-17" d="M145.51,202.07a4,4,0,0,1-3.92-4v-36.8a3.94,3.94,0,0,1,3.92-4h66.86a3.94,3.94,0,0,1,3.92,4v36.8a3.94,3.94,0,0,1-3.92,4Z"/><path class="cls-16" d="M212.37,157.85a3.45,3.45,0,0,1,3.42,3.46v36.8a3.45,3.45,0,0,1-3.42,3.46H145.51a3.45,3.45,0,0,1-3.42-3.46v-36.8a3.45,3.45,0,0,1,3.42-3.46h66.86m0-1H145.51a4.44,4.44,0,0,0-4.42,4.46v36.8a4.44,4.44,0,0,0,4.42,4.46h66.86a4.44,4.44,0,0,0,4.42-4.46v-36.8a4.44,4.44,0,0,0-4.42-4.46Z"/><rect class="cls-18" x="144.38" y="159.87" width="69.96" height="35.53"/><path class="cls-19" d="M195.61,208.32H161.47a1.34,1.34,0,0,0,0,2.68h34.14a1.34,1.34,0,0,0,0-2.68Z"/><path class="cls-5" d="M136.48,219.37V283h-2V219.37h2m1-1h-4V284h4V218.37Z"/><rect class="cls-18" x="159.21" y="218.87" width="2.95" height="64.62"/><path class="cls-5" d="M161.66,219.37V283h-1.95V219.37h1.95m1-1h-3.95V284h3.95V218.37Z"/><rect class="cls-18" x="253.49" y="218.87" width="2.95" height="64.62"/><path class="cls-5" d="M256,219.37V283h-2V219.37h2m1-1h-4V284h4V218.37Z"/><rect class="cls-18" x="122.67" y="210.5" width="43.81" height="8.25"/><path class="cls-5" d="M166,211v7.25H123.17V211H166m1-1H122.17v9.25H167V210Z"/><rect class="cls-18" x="165.49" y="210.5" width="105.51" height="8.25"/><path class="cls-5" d="M270.49,211v7.25H166V211h104.5m1-1H165v9.25h106.5V210Z"/><path class="cls-20" d="M195.6,244.85c11,18.55,19.12,31.34,19.12,31.34a3.73,3.73,0,0,1,4.15-1.49s-5.05-14.8-11.47-32.46C203.17,230.59,191.12,237.28,195.6,244.85Z"/><path class="cls-21" d="M187.78,206.26c-.34-.16-.65-.43-.81.05-.12.29,1,1.1,1.34,1.12.78-.17.68-.62,1.44-.67A6.72,6.72,0,0,1,187.78,206.26Z"/><path class="cls-21" d="M190.32,206.7a17.51,17.51,0,0,0-2.33.35c-.93.19-2.94.85-3.08.9a11.9,11.9,0,0,0-1.73.63,1.79,1.79,0,0,0-.48,1,.54.54,0,0,0,.38.47c-.08.45,1.08.44,1,.54-.18.44.36.82,1.92.26.1,0,4.21-.64,5.51-.94A17.16,17.16,0,0,0,190.32,206.7Z"/><path class="cls-21" d="M212.05,197.3a2.75,2.75,0,0,0-.76.12c-3.8,1.3-17,8.57-21.22,9.3a13.17,13.17,0,0,1,1,3.26c6.85-1.34,23.53-6.59,23.79-9.36C215.06,198.07,213.31,197.3,212.05,197.3Z"/><path class="cls-21" d="M220.28,177.55c-2.22,3-6.64,14.14-9.77,19.08-3.85,6.05,1.75,6.57,3.51,5.12,4.62-3.84,15.49-16.58,13.75-19.18C227,181.44,220.68,177,220.28,177.55Z"/><path class="cls-22" d="M219.57,175.43c-1.44,3.52-2.81,6.76-4.59,10.55a106.55,106.55,0,0,1-5.18,10.2,10.12,10.12,0,0,0-.69,1.22c-1.59.7-3.69,1.72-5.9,2.8-4.84,2.35-10.86,5.27-13.28,5.69l1.26,4.91c6-1.17,19.84-5.38,23.41-8.44,3.77-3.15,14.62-15.2,13.48-19.31C226.19,176.23,219.68,175.15,219.57,175.43Z"/><path class="cls-12" d="M221.3,219.37c-5.43.27-34,10.48-45.56,17.44-4.93,3-2.88,8.24,2.55,7.91,15.68-.95,36.45-.37,45.68-7C238.64,227.24,224.21,219.23,221.3,219.37Z"/><path class="cls-21" d="M190.91,274.68a6.74,6.74,0,0,1,.35,2.12,4.41,4.41,0,0,0,3.19,1.06,10.71,10.71,0,0,0,.07-3.37C194.32,274.5,192.33,273.37,190.91,274.68Z"/><path class="cls-12" d="M173.64,245c9.43,17,17.18,31.18,17.18,31.18a3.7,3.7,0,0,1,4-1.42s-5.47-16-11-32.16C180.15,231.88,169.8,238,173.64,245Z"/><path class="cls-21" d="M217.05,167.33c-.44.33-5,2.87-6.29,2.68,0,.36.89,4.17.06,6.22.37,1.91,5.65,1.91,7.1-1.33C217.31,174,216.79,169.09,217.05,167.33Z"/><path class="cls-21" d="M212.25,161c-2.4-.16-4.72.41-5.24,2.67-.19.81.18,8.12,4.09,9.22,1.65.46,4.81-2.37,4.93-4.29,0,0,.18-2.62.18-2.65C216.37,163.42,214.82,161.19,212.25,161Z"/><path class="cls-16" d="M235,225.21c-.81-17.85-5-40.76-5.24-41.52-.94-3.51-2.4-6.41-6.45-7.38-1.36-.32-5.37-1.41-5.37-1.41a5.38,5.38,0,0,1-3.23,1.62,6.72,6.72,0,0,1-3.87-.29s-4.63,1.43-5.48,1.92c-3.26,1.91-3.28,3.28-3.49,7.77-.1,2.08-.15,34.06-5.19,41.55l-.43.27c1.86,6.45,5.58,8.25,8.8,9.3,8.49,2.78,29.73-3.58,30.33-3.62C235.34,230.83,235.2,228.05,235,225.21Z"/><path class="cls-21" d="M170.94,206.58c-.19.26.75,1.31,1.05,1.4.8,0,.8-.45,1.55-.33a7.06,7.06,0,0,1-1.81-.93C171.44,206.49,171.2,206.16,170.94,206.58Z"/><path class="cls-21" d="M171.76,207.54c-.94,0-3.06.17-3.21.18a10.88,10.88,0,0,0-1.82.23,1.73,1.73,0,0,0-.68.82.52.52,0,0,0,.27.54c-.18.43,1,.67.88.77-.27.38.17.87,1.82.68.1,0,4.24.33,5.58.33a17.44,17.44,0,0,0-.49-3.37A16.33,16.33,0,0,0,171.76,207.54Z"/><path class="cls-21" d="M195.7,202.87a2.28,2.28,0,0,0-.75.14c-3.77,1.41-17.39,4-21.55,4.82a13.09,13.09,0,0,1,1,3.23c6.81-1.53,23.93-2.17,24.11-4.95C198.72,203.56,197,202.83,195.7,202.87Z"/><path class="cls-21" d="M203.36,182.89c-2.13,3.05-6.23,14.33-9.22,19.35-3.68,6.16,1.94,6.52,3.65,5,4.51-4,15-17,13.2-19.56C210.2,186.59,203.75,182.34,203.36,182.89Z"/><rect class="cls-23" x="149.16" y="165.73" width="1.07" height="1.17" rx="0.51"/><rect class="cls-23" x="149.16" y="168.06" width="1.07" height="1.17" rx="0.51"/><rect class="cls-23" x="150.72" y="165.73" width="4.93" height="1.17" rx="0.56"/><rect class="cls-23" x="150.72" y="168.06" width="5.57" height="1.17" rx="0.56"/><circle class="cls-14" cx="179.81" cy="178.66" r="12.14"/><path class="cls-16" d="M185.07,189.6A12.14,12.14,0,0,0,192,178.66H179.81Z"/><circle class="cls-18" cx="179.81" cy="178.66" r="6.07"/><path class="cls-20" d="M202.87,161c-.14,1.18.74,4.13,12,2.67a13,13,0,0,1,1.18,4.35.93.93,0,0,0,1.69.41c2.27-3.11,2.58-8.15-.39-11.31C212.75,152.23,203.51,155.7,202.87,161Z"/><path class="cls-8" d="M218.15,271.2a51.75,51.75,0,0,0,2.11,7,3.18,3.18,0,0,1,0,2.12c-.74,1-1.71.91-2.66,1-1.55.09-6.71-.24-9-.11a.87.87,0,0,1-1-.89c0-.41.32-1.48,2.16-1.59a7.63,7.63,0,0,0,3.86-1.17c1-.8-1.15-3.83-1.4-4.81"/><path class="cls-8" d="M194.53,271.76a44,44,0,0,0,1.92,6.47,1.56,1.56,0,0,1,0,1.45c-.74,1-.45,1.57-1.4,1.63-1.56.09-8-.12-10.25,0a.94.94,0,0,1-1-1c0-.41.31-1.48,2.15-1.59a7.63,7.63,0,0,0,3.86-1.17c1-.8-.85-4.07-1.1-5.05"/><path class="cls-24" d="M214,183.68a6.05,6.05,0,0,0-12-1.27c-1.13,3-2.26,5.81-3.67,9.06-1.69,3.87-5.37,11.18-5.55,11.58-1.57.75-16.34,3.42-18.75,3.91l.62,4.92c6-.52,20.28-.87,23.76-4s10.8-13.43,14.52-20.16A5.92,5.92,0,0,0,214,183.68Z"/><path class="cls-25" d="M244.05,283.26a1.46,1.46,0,0,1-.76-.84L227,235.77a.22.22,0,0,1,0-.16.22.22,0,0,1,.12-.11l2.4-.84a.21.21,0,0,1,.27.13l16.27,46.65a1.48,1.48,0,0,1-.06,1.13,1.51,1.51,0,0,1-.85.76,1.67,1.67,0,0,1-.49.08A1.43,1.43,0,0,1,244.05,283.26Z"/><path class="cls-3" d="M193.63,283.36h0a1.4,1.4,0,0,1-.86-1.78l15.14-43.39a.19.19,0,0,1,.11-.12.18.18,0,0,1,.16,0l2.23.78a.2.2,0,0,1,.13.26L195.4,282.5a1.39,1.39,0,0,1-1.31.93A1.47,1.47,0,0,1,193.63,283.36Zm.07-.2Z"/><path class="cls-18" d="M215.73,242.15c-11.88,0-24.19-2.88-25.63-4.68a.87.87,0,0,1-.2-.75c.27-1.18,2.74-1.28,9.85-1.42,10.4-.19,27.8-.52,33.77-7.54,5.1-6,6.39-17.57,7.34-26,.81-7.29,1.35-12.1,3.74-12.1.66,0,1,.73,1.1,1,2.22,4.79,3.45,31.9-6.24,44-5,6.23-15.65,7.53-23.73,7.53Z"/><path class="cls-16" d="M244.6,190.13h0c2.39.07,5,31-5.56,44.18-4.45,5.57-13.92,7.34-23.34,7.34-12.89,0-25.69-3.33-25.35-4.82.6-2.58,34.38,2,43.52-8.74s6.18-38,10.7-38m0-1c-2.84,0-3.37,4.72-4.24,12.54-.94,8.4-2.22,19.9-7.22,25.77-5.83,6.84-23.09,7.17-33.4,7.36-7.73.15-10,.26-10.33,1.81a1.35,1.35,0,0,0,.3,1.17c1.69,2.13,14.61,4.87,26,4.87,8.19,0,19-1.34,24.12-7.71,9.81-12.27,8.55-39.71,6.3-44.56-.37-.81-.88-1.23-1.49-1.25h-.06Z"/><path class="cls-26" d="M79.61,53.24A19.94,19.94,0,1,1,99.55,33.3,20,20,0,0,1,79.61,53.24Z"/><polyline class="cls-3" points="79.78 23.24 79.78 33.87 72.7 40.37"/><line class="cls-27" x1="111.06" y1="105.77" x2="118.13" y2="105.77"/><line class="cls-27" x1="114.6" y1="102.23" x2="114.6" y2="109.3"/></svg>