<svg id="Layer_1" data-name="Layer 1" xmlns="http://www.w3.org/2000/svg" viewBox="0 0 270 271.38"><defs><style>.cls-1,.cls-4{fill:#f5fafe;}.cls-11,.cls-12,.cls-13,.cls-17,.cls-2{fill:none;}.cls-17,.cls-2,.cls-6{stroke:#81c6ef;}.cls-11,.cls-12,.cls-13,.cls-17,.cls-2,.cls-4,.cls-6{stroke-miterlimit:10;}.cls-3{fill:#cde8f9;}.cls-11,.cls-12,.cls-4{stroke:#cde8f9;}.cls-11,.cls-12,.cls-13,.cls-17,.cls-4{stroke-linecap:round;}.cls-5{fill:#3ee5b1;}.cls-10,.cls-6{fill:#fff;}.cls-7{fill:#dadef2;}.cls-8{fill:#2659bf;}.cls-9{fill:#bbeafa;}.cls-12,.cls-13{stroke-width:3px;}.cls-13{stroke:#faa2ab;}.cls-14{fill:#56cbf2;}.cls-15{fill:#f45a6d;}.cls-16{fill:#dce2f3;}.cls-18{fill:#272f77;}.cls-19{fill:#1450af;}.cls-20{fill:#152557;}.cls-21{fill:#acc7fb;}.cls-22{fill:#4bb4dd;}.cls-23{fill:#8a1d1d;}.cls-24{fill:#81c6ef;}.cls-25{fill:#a9d9ed;}</style></defs><circle class="cls-1" cx="135" cy="135" r="135"/><path class="cls-2" d="M68.9,187.2V89.56H201.35V187.2a3.44,3.44,0,0,1-3.44,3.44H72.34A3.44,3.44,0,0,1,68.9,187.2Z"/><path class="cls-2" d="M68.9,82.42A3.44,3.44,0,0,1,72.34,79H197.91a3.44,3.44,0,0,1,3.44,3.43v7.14H68.9Z"/><path class="cls-2" d="M191.76,85.05a1.86,1.86,0,1,1,1.86,1.86A1.86,1.86,0,0,1,191.76,85.05Z"/><path class="cls-2" d="M183.86,85.05a1.87,1.87,0,1,1,1.87,1.86A1.87,1.87,0,0,1,183.86,85.05Z"/><path class="cls-2" d="M175.91,85.05a1.86,1.86,0,1,1,1.86,1.86A1.86,1.86,0,0,1,175.91,85.05Z"/><rect class="cls-3" x="206.05" y="7.14" width="0.84" height="40.04"/><path class="cls-3" d="M203.56,49.92h.84a2.07,2.07,0,0,1,4.13,0h.85a2.91,2.91,0,0,0-5.82,0Z"/><path class="cls-4" d="M201.17,71.43h10.59a7,7,0,0,0,6.76-8.92l-2-7.21a7,7,0,0,0-6.76-5.12H203.2a7,7,0,0,0-6.77,5.12l-2,7.21A7,7,0,0,0,201.17,71.43Z"/><rect class="cls-3" x="187.35" y="7.14" width="0.84" height="28.11"/><path class="cls-3" d="M184.86,38h.84a2.07,2.07,0,1,1,4.14,0h.84a2.91,2.91,0,0,0-5.82,0Z"/><path class="cls-4" d="M182.33,59.5h9.95c4.37,0,7.54-4.45,6.36-8.93l-1.91-7.2a6.65,6.65,0,0,0-6.35-5.13h-6.15a6.67,6.67,0,0,0-6.35,5.13l-1.9,7.2C174.8,55.05,178,59.5,182.33,59.5Z"/><path class="cls-4" d="M202.19,71.46a4.28,4.28,0,1,0,8.55,0Z"/><path class="cls-4" d="M187.77,64.12a4.59,4.59,0,0,0,4.28-4.62h-8.56A4.59,4.59,0,0,0,187.77,64.12Z"/><path class="cls-5" d="M88.69,106.85a7,7,0,0,1,10,0,7.34,7.34,0,0,1,0,10.32,6.82,6.82,0,0,1-10,0,7.44,7.44,0,0,1,0-10.32Zm2.84,7.37a3,3,0,0,0,2.19.91,2.82,2.82,0,0,0,2.12-.91,3,3,0,0,0,.91-2.19,3,3,0,0,0-.91-2.26,2.86,2.86,0,0,0-2.12-.88,3,3,0,0,0-2.19.88,3.13,3.13,0,0,0-.87,2.26A3.07,3.07,0,0,0,91.53,114.22Zm4.34,20.44h-.44a1.78,1.78,0,0,1-1.57-2.61l14-26.41a1.78,1.78,0,0,1,1.57-1h.47a1.78,1.78,0,0,1,1.57,2.61l-14,26.41A1.8,1.8,0,0,1,95.87,134.66Zm11-12.45a7,7,0,0,1,10,0,7.28,7.28,0,0,1,0,10.25,6.91,6.91,0,0,1-10,0,7.12,7.12,0,0,1-2-5.15A7.23,7.23,0,0,1,106.83,122.21Zm2.84,7.41a2.87,2.87,0,0,0,2.16.91,3.08,3.08,0,0,0,2.19-.91,3.12,3.12,0,0,0-2.19-5.36,3,3,0,0,0-2.16.87,3.22,3.22,0,0,0,0,4.49Z"/><path class="cls-6" d="M84.9,192.75V154h52.58v38.76a1.36,1.36,0,0,1-1.36,1.36H86.27A1.36,1.36,0,0,1,84.9,192.75Z"/><path class="cls-6" d="M84.9,151.15a1.36,1.36,0,0,1,1.37-1.36h49.85a1.36,1.36,0,0,1,1.36,1.36V154H84.9Z"/><rect class="cls-7" x="91.38" y="159.59" width="1.23" height="1.35" rx="0.62"/><rect class="cls-7" x="91.38" y="162.28" width="1.23" height="1.35" rx="0.62"/><rect class="cls-7" x="93.18" y="159.59" width="5.69" height="1.35" rx="0.68"/><rect class="cls-7" x="93.18" y="162.28" width="6.43" height="1.35" rx="0.68"/><circle class="cls-8" cx="112.31" cy="174.5" r="14.01"/><path class="cls-9" d="M118.39,187.13a14,14,0,0,0,7.94-12.63h-14Z"/><circle class="cls-10" cx="112.31" cy="174.5" r="7.01"/><line class="cls-11" x1="129.08" y1="102.36" x2="189.48" y2="102.36"/><line class="cls-11" x1="129.08" y1="112.69" x2="189.48" y2="112.69"/><line class="cls-11" x1="129.08" y1="123.03" x2="185.73" y2="123.03"/><line class="cls-11" x1="129.08" y1="133.37" x2="179.03" y2="133.37"/><line class="cls-12" x1="129.08" y1="102.36" x2="166.52" y2="102.36"/><line class="cls-13" x1="129.08" y1="112.69" x2="160.05" y2="112.69"/><line class="cls-12" x1="129.08" y1="123.03" x2="148.57" y2="123.03"/><line class="cls-12" x1="129.08" y1="133.37" x2="144.18" y2="133.37"/><circle class="cls-14" cx="166.52" cy="102.36" r="2.6"/><circle class="cls-15" cx="160.61" cy="112.69" r="2.6"/><circle class="cls-14" cx="148.94" cy="123.03" r="2.6"/><circle class="cls-14" cx="143.73" cy="133.37" r="2.6"/><ellipse class="cls-16" cx="205" cy="269.13" rx="62.3" ry="2.25"/><ellipse class="cls-16" cx="57.92" cy="267.58" rx="16.28" ry="1.5"/><path class="cls-11" d="M55.07,232s2.61-9.54-4-21.36S43,197.94,43,197.94s-2.44,13.65.68,21.57S55.07,232,55.07,232Z"/><path class="cls-3" d="M54.8,231.12a.13.13,0,0,1-.1.11.15.15,0,0,1-.19-.08l-10.6-28.39a.14.14,0,0,1,.09-.19.14.14,0,0,1,.19.09L54.79,231A.12.12,0,0,1,54.8,231.12Z"/><path class="cls-3" d="M48.74,215a.11.11,0,0,1,0,.08.15.15,0,0,1-.21,0l-4.64-4.15a.15.15,0,1,1,.2-.22l4.64,4.14A.15.15,0,0,1,48.74,215Z"/><path class="cls-3" d="M50.09,218.65a.15.15,0,0,1-.16.12.15.15,0,0,1-.13-.17l.67-7.07a.16.16,0,0,1,.17-.14.16.16,0,0,1,.13.17l-.67,7.07Z"/><path class="cls-3" d="M52.09,224.05a.11.11,0,0,1,0,.07.15.15,0,0,1-.21,0L46.69,220a.15.15,0,0,1,.18-.24L52,223.9A.15.15,0,0,1,52.09,224.05Z"/><path class="cls-11" d="M52.62,253.58c.68-1.11.87-.68,1.75-3.88,2.18-7.91,1.7-15.59.47-17.75"/><path class="cls-17" d="M60.88,227.1c-.56,1.17-.8.75-1.36,4-1.38,8.09-.14,15.68,1.3,17.7"/><path class="cls-5" d="M58.48,233.9s9.26-3.47,15-15.74S79,204.22,79,204.22s-12.5,6-17.08,13.19S58.48,233.9,58.48,233.9Z"/><path class="cls-10" d="M59.88,231.72a.12.12,0,0,1-.14,0,.15.15,0,0,1,0-.21l15.91-23.74a.16.16,0,0,1,.21,0,.15.15,0,0,1,0,.21L60,231.67A.18.18,0,0,1,59.88,231.72Z"/><path class="cls-10" d="M68.51,218.85a.11.11,0,0,1-.08,0,.15.15,0,0,1-.13-.16l.65-6.19a.14.14,0,0,1,.16-.13.16.16,0,0,1,.14.16l-.65,6.19A.16.16,0,0,1,68.51,218.85Z"/><path class="cls-10" d="M66.35,222.08a.16.16,0,0,1-.19-.06.16.16,0,0,1,0-.21l6.13-3.59a.15.15,0,0,1,.21.05.14.14,0,0,1-.06.2l-6.13,3.6Z"/><path class="cls-10" d="M63.14,226.86l-.07,0a.15.15,0,0,1-.14-.16l.31-6.6a.15.15,0,0,1,.15-.14.16.16,0,0,1,.15.16l-.31,6.59A.14.14,0,0,1,63.14,226.86Z"/><path class="cls-17" d="M55.4,238h0A19.43,19.43,0,0,1,57,244l.52,5.31"/><path class="cls-5" d="M56.55,239.6s-6.37.42-13.1-5.18-7.08-6.65-7.08-6.65,9,.09,13.63,3S56.55,239.6,56.55,239.6Z"/><path class="cls-10" d="M55.19,238.81h0l-15.85-9.53a.1.1,0,0,1,0-.13.09.09,0,0,1,.13,0l15.85,9.52a.09.09,0,0,1,0,.13A.11.11,0,0,1,55.19,238.81Z"/><path class="cls-10" d="M46.6,233.65a.09.09,0,0,1-.08-.05l-2.08-3.45a.09.09,0,0,1,0-.13.1.1,0,0,1,.13,0l2.08,3.45a.09.09,0,0,1,0,.13Z"/><path class="cls-10" d="M48.75,234.94h0l-4.57-.42a.1.1,0,0,1,0-.19l4.58.41a.1.1,0,0,1,0,.2Z"/><path class="cls-10" d="M52,236.86a.11.11,0,0,1-.09-.05l-2-3.78a.1.1,0,0,1,.17-.09l2,3.78a.11.11,0,0,1,0,.13Z"/><polygon class="cls-15" points="53.14 266.69 48.85 247.49 66.44 247.49 62.9 266.69 53.14 266.69"/><path class="cls-11" d="M155.91,267.27a1.34,1.34,0,0,1-.48-.08,1.46,1.46,0,0,1-.9-1.87l16.12-46.24a.22.22,0,0,1,.27-.12l2.38.83a.19.19,0,0,1,.12.1.22.22,0,0,1,0,.16L157.3,266.29a1.48,1.48,0,0,1-.75.84A1.42,1.42,0,0,1,155.91,267.27Z"/><path class="cls-11" d="M206.07,267.3a1.39,1.39,0,0,1-1.31-.93l-15-43a.21.21,0,0,1,.13-.27l2.21-.77a.22.22,0,0,1,.16,0,.22.22,0,0,1,.11.12l15,43a1.38,1.38,0,0,1-.85,1.76h0A1.42,1.42,0,0,1,206.07,267.3Zm.38-.28h0Z"/><path class="cls-4" d="M156,174.82c4.53-.13,1.57,27,10.64,37.62s42.54,6.1,43.13,8.66-37.82,10.57-48.26-2.49S153.61,174.88,156,174.82Z"/><path class="cls-18" d="M249.07,260.91c3.27,2.76,7.72,1.73,8.37,3.21a3.18,3.18,0,0,1-1.72,3.29,9.81,9.81,0,0,1-4.4.46c-1.16-.12-3.4-.56-4-.6-2.78-.18-2.16-3.23-2.67-4.17C242.62,259.43,248.21,260.18,249.07,260.91Z"/><path class="cls-18" d="M232.05,262c2.46,3.35,7,3.47,7.27,5,.12.77-1,2.37-2.51,2.62a10.06,10.06,0,0,1-4.36-.64c-1.1-.38-3.15-1.34-3.73-1.52-2.65-.84-1.44-3.48-1.52-4.49S231.41,261.15,232.05,262Z"/><path class="cls-19" d="M242,210.63a8.86,8.86,0,0,0-1.9-4.16,4.24,4.24,0,0,0-.46-.49,3.83,3.83,0,0,0-.29-.28l-.18-.16a7.27,7.27,0,0,0-3.94-1.67c-16-5-50-10.29-55.93-9-6.73,1.43-5.89,17.53,6.14,20.15,11.81,2.58,28.44,4.67,43.39,2.63,8.66,22.63,15.73,45.63,15.73,45.63a6,6,0,0,0,5.56-1.25S247.19,237.9,242,210.63Z"/><path class="cls-20" d="M192.07,126.11c4-3.15,10.33-.6,12.11,3.52,1.33,3.08,2.56.94,2.44.13.4,2-.47,3.81-4.42,3.51-.83-.06,1.84.77,1.84.77s-4.22,8.74-10.74,6.6a10.1,10.1,0,0,1-3.62-2.53s2.11.35,1-1.37C188.52,133.4,188.52,128.9,192.07,126.11Z"/><path class="cls-8" d="M233.38,214.68a4.87,4.87,0,0,0-1.39-2.42,7.3,7.3,0,0,0-3.24-2.17c-14.57-8.2-46.75-20.53-52.86-20.53-6.88,0-12.68,23.22.8,26.62,11.7,2.95,27.66,4.72,42.72,4.86,0,.26.05.5.09.76,3.77,24.12,7.7,41.18,7.7,41.18,1.88.3,4.29.32,5.62-.56,0,0,.45-16.57,1.09-44.32A9.38,9.38,0,0,0,233.38,214.68Z"/><path class="cls-21" d="M238.5,190c.1.35-1.33,1.09-1.69,1.07-.85-.31-.67-.81-1.52-1a7.84,7.84,0,0,0,2.31-.25C238,189.71,238.4,189.45,238.5,190Z"/><path class="cls-21" d="M234.66,190a18.63,18.63,0,0,1,2.58.74c1,.36,3.19,1.42,3.35,1.49a13.25,13.25,0,0,1,1.85,1,2,2,0,0,1,.4,1.16.62.62,0,0,1-.51.47c0,.52-1.28.33-1.25.45.14.52-.53.87-2.22,0-.1-.06-4.66-1.37-6.08-1.91A18.9,18.9,0,0,1,234.66,190Z"/><path class="cls-21" d="M196,156.94c1-1.16,8.87-5.21,9.24-4.54,2.05,3.72,5.34,17,8.13,23.07,3.43,7.44-3,7.17-4.75,5.26C204,175.68,193.62,159.62,196,156.94Z"/><path class="cls-21" d="M211.52,176a2.91,2.91,0,0,1,.83.25c4.11,2.05,18,12.29,22.58,13.76a15.24,15.24,0,0,0-1.58,3.53c-7.54-2.56-25.6-11-25.47-14.21C208,176.41,210.09,175.8,211.52,176Z"/><path class="cls-22" d="M195.46,156.29c1.07-1.17,8.22-4.9,9.77-4.65a1.06,1.06,0,0,1,.81.55c1,1.91,2.27,6.13,3.61,10.6a116.37,116.37,0,0,0,4,12.05c.22.51.4,1,.56,1.46,1.62,1,3.76,2.5,6,4,4.93,3.38,11.07,7.59,13.66,8.45L231.72,194c-6.44-2.29-20.93-9.19-24.36-13.15C203.75,176.77,192.27,159.8,195.46,156.29Z"/><path class="cls-23" d="M191.79,136.28a26.2,26.2,0,0,0,5.21,3.45c0,.41-.72,5.92.39,7-.56,2.15-6.57,1.79-8-2C190.17,143.75,191.4,138.35,191.79,136.28Z"/><path class="cls-24" d="M183.19,145.78c1.57-.27,6.22-1.21,6.22-1.21s2.62,3,5.32,3a4.85,4.85,0,0,0,2.66-.91s5.18,2,6.1,2.59a8.25,8.25,0,0,1,3.39,9.11c-2.46,10.31,6.84,39.12,3.65,40.38-4.35,1.72-35.38,6.37-42.88-.66,0,0,3.58-33.67,7.09-43.62C176.08,150.6,178.5,146.57,183.19,145.78Z"/><path class="cls-23" d="M192,134.53c.39-2.89,2.41-5.78,5.35-5.78,2.74,0,4.86,1.25,5.29,3.87.15.94-1.26,10.32-5.28,10.32-1.95,0-5.91-3.55-5.73-5.69C191.66,137.25,191.9,135.47,192,134.53Z"/><path class="cls-10" d="M206.68,201.08c-1,0-1.37-2.06-1.37-2.59V198h20.85l4.43-23.1a1,1,0,0,1,1-.87h22.12a1,1,0,0,1,.75.37,1.23,1.23,0,0,1,.23,1l-4.14,22.94a3.18,3.18,0,0,1-2.92,2.72Z"/><path class="cls-24" d="M253.69,174.51c.34,0,.58.4.49.81l-4.14,23a2.7,2.7,0,0,1-2.43,2.31H206.68c-.48,0-.87-1.49-.87-2.09h20.77l4.5-23.5a.54.54,0,0,1,.49-.47h22.12m0-1H231.57a1.53,1.53,0,0,0-1.47,1.25l-4.35,22.72H204.81v1h0v.06c0,.51.32,3.09,1.87,3.09h40.93a3.66,3.66,0,0,0,3.4-3.09l4.16-23a1.71,1.71,0,0,0-.34-1.42,1.44,1.44,0,0,0-1.14-.56Z"/><path class="cls-23" d="M219.88,191.59c.08.36-1.38,1-1.74,1-.84-.35-.63-.84-1.47-1.06a7.55,7.55,0,0,0,2.32-.15C219.39,191.26,219.8,191,219.88,191.59Z"/><path class="cls-23" d="M216,191.34a19.69,19.69,0,0,1,2.55.87c1,.41,3.12,1.57,3.27,1.65a13.73,13.73,0,0,1,1.81,1.07,2,2,0,0,1,.33,1.17.61.61,0,0,1-.52.45c0,.52-1.3.26-1.28.39.12.53-.57.84-2.21-.1-.1-.06-4.59-1.59-6-2.2A19.77,19.77,0,0,1,216,191.34Z"/><path class="cls-23" d="M193.6,176.3a2.71,2.71,0,0,1,.82.28c4,2.25,17.36,13.15,21.89,14.83a15.25,15.25,0,0,0-1.74,3.46c-7.41-2.92-25-12.26-24.76-15.42C190.07,176.54,192.19,176,193.6,176.3Z"/><ellipse class="cls-20" cx="200.75" cy="132.06" rx="2.5" ry="4.61" transform="translate(23.73 294.55) rotate(-75.89)"/><ellipse class="cls-20" cx="198.64" cy="130.03" rx="2.5" ry="4.5" transform="translate(24.1 290.97) rotate(-75.89)"/><ellipse class="cls-20" cx="193.75" cy="131.55" rx="2.5" ry="2.55" transform="translate(18.93 287.38) rotate(-75.89)"/><path class="cls-25" d="M202.67,181c-2.18-1.65-4.25-3.22-5.82-4.33a13.62,13.62,0,0,0-.49-1.49c-.86-2.22-3.54-12.8-5.24-18.86a10.59,10.59,0,0,0-1.24-4,.46.46,0,0,0,0-.1l0,0a5.93,5.93,0,0,0-5-3.26c-3.52,0-6.38,3.87-6.38,8.64,0,0,0,.07,0,.1a6.56,6.56,0,0,0,.09,1.36,11.16,11.16,0,0,0,.59,2.44c2.07,6.57,8.22,16.41,10.67,19.45,3.23,4.12,17.37,11.71,23.69,14.3l2.44-5.07C213.36,189.09,207.44,184.59,202.67,181Z"/></svg>