<svg width="124" height="20" viewBox="0 0 124 20" fill="none" xmlns="http://www.w3.org/2000/svg"><path d="M9.63.19H4.8L0 19.45h4.82l3-12.06h4.82l1.8-7.2h-4.8z" fill="#FF0201"/><path d="M19.27.19l-1.81 7.2-1.2 4.83h-4.82l-1.8 7.23H19.28l3-12.06 1.8-7.2h-4.82z" fill="#125BFF"/><path d="M50.13 1.33c0 .4-.13.69-.42.96-.27.23-.59.37-.9.37-.33 0-.65-.14-.91-.37a1.24 1.24 0 01-.43-.96c0-.4.13-.7.43-.96.26-.24.58-.37.9-.37.32 0 .64.13.9.37.3.27.43.59.43.96zM28.93.16h7.98c2.2 0 3.94.64 5.05 1.7.8.82 1.25 1.83 1.25 3.08V5c0 2.5-1.54 3.8-3.06 4.46 2.3.7 4.13 2.02 4.13 4.65v.05c0 3.3-2.8 5.27-7 5.27h-8.33L28.92.16zm7.6 8.6c2.61 0 4.45-1.19 4.45-3.45v-.05c0-1.91-1.52-3.13-4.29-3.13h-5.61v6.64h5.45zm.78 8.73c2.92 0 4.73-1.3 4.73-3.46v-.05c0-2.1-1.75-3.3-5.13-3.3h-5.86v6.8h6.26zM47.74 5.2h2.13v14.24h-2.13V5.21zm7.77 9.72V7.1h-3.22V5.23h3.22V.2h2.13v5.04h5.85V7.1h-5.85v7.57c0 1.91.9 3.13 2.63 3.1a8.06 8.06 0 003.03-.5v1.81c-.74.4-2.1.64-3.54.61-2.58-.05-4.25-1.86-4.25-4.76zM66.55.16h4.58l5.08 8.16L81.29.16h4.58v19.27h-4.23V6.86l-5.43 8.23h-.1l-5.4-8.15v12.49h-4.16V.16zm23.07 0h14.56v3.77H93.82v3.9h8.63v3.78h-8.6v4.04h10.49v3.78h-14.7V.16h-.02zm22.64 9.49L105.84.19h4.97l4.05 6.24L118.92.2h4.81l-6.44 9.4 6.71 9.86h-4.98l-4.33-6.61-4.37 6.61h-4.81l6.75-9.8z" fill="#000"/></svg>