<svg width="120" height="28" viewBox="0 0 120 28" fill="none" xmlns="http://www.w3.org/2000/svg"><g clip-path="url(#clip0)"><path d="M0 27.11h103.88V24.4H0v2.72z" fill="#159E49"/><path d="M111.08 27.11H120V24.4h-8.92v2.72z" fill="#159E49"/><path d="M20.24 20.27h3.72V6.25h-3.72v14.02zM19.88 2.2c0-.64.2-1.16.64-1.6.4-.4.96-.6 1.6-.6.68 0 1.2.2 1.6.6.4.4.64.92.64 1.6 0 .64-.2 1.16-.64 1.6-.4.4-.96.6-1.6.6-.64 0-1.16-.2-1.6-.6-.44-.4-.64-.96-.64-1.6z" fill="#333433"/><path d="M32.52 6.2h3.8v2.81h-3.8v6.73c0 .6.16 1.08.52 1.44.36.36.8.56 1.4.56.52 0 1.12-.08 1.76-.24l.48 2.77c-1.08.28-2.12.44-3.12.44a5.6 5.6 0 01-1.88-.32 4.38 4.38 0 01-1.48-.93c-.4-.4-.72-.88-.96-1.44a4.58 4.58 0 01-.32-1.84V9.09h-2.56V6.3h2.56V2.16h3.56v4.05h.04z" fill="#333433"/><path d="M38.52 10.1c0-.6.12-1.2.4-1.73.28-.52.64-.96 1.08-1.36a5.59 5.59 0 011.68-.88 7.4 7.4 0 012.16-.32c.8 0 1.64.08 2.48.24.84.16 1.72.4 2.6.72l-.8 2.64c-.68-.28-1.36-.48-2.04-.64a8.39 8.39 0 00-1.92-.24c-.64 0-1.16.12-1.56.4-.4.28-.56.64-.56 1.12 0 .44.2.76.56.96.36.2.8.4 1.36.56.56.16 1.12.32 1.76.45.64.16 1.24.4 1.76.72.56.32 1 .76 1.36 1.28.36.56.56 1.28.56 2.16 0 .64-.12 1.2-.4 1.76-.28.52-.64 1-1.12 1.4-.48.4-1.04.68-1.76.93-.68.2-1.44.32-2.24.32-1.72 0-3.56-.36-5.48-1.13l.76-2.6c1.64.68 3.12 1 4.44 1 .68 0 1.24-.16 1.64-.44.4-.28.6-.68.6-1.2 0-.44-.2-.76-.56-1-.36-.24-.8-.44-1.36-.6-.56-.16-1.12-.32-1.76-.48-.64-.16-1.2-.4-1.76-.72-.56-.32-1-.72-1.36-1.24a3.49 3.49 0 01-.52-2.09z" fill="#333433"/><path d="M56.88 6.2h3.8v2.81h-3.8v6.73c0 .6.16 1.08.52 1.44.36.36.8.56 1.4.56.52 0 1.12-.08 1.76-.24l.48 2.77c-1.08.28-2.12.44-3.12.44a5.6 5.6 0 01-1.88-.32 4.38 4.38 0 01-1.48-.93c-.44-.4-.72-.88-.96-1.44a4.58 4.58 0 01-.32-1.84V9.09h-2.56V6.3h2.56V2.16h3.56v4.05h.04z" fill="#333433"/><path d="M66.56 15.98c0 .56.24 1.04.68 1.44.48.4 1.04.6 1.72.6.96 0 1.72-.32 2.32-.92.6-.6.88-1.4.88-2.36v-.84a8.09 8.09 0 00-2.28-.28c-1.04 0-1.84.2-2.44.64-.56.4-.88 1-.88 1.72zm-3.48.2a4 4 0 011.68-3.44c1.12-.8 2.68-1.2 4.72-1.2a14.57 14.57 0 012.68.27v-.76a2.2 2.2 0 00-.76-1.76 3.1 3.1 0 00-2.08-.68c-1.4 0-2.92.32-4.56 1l-.92-2.56c2-.8 3.96-1.16 5.88-1.16a6.35 6.35 0 014.2 1.48c.52.44.92 1 1.2 1.64.28.64.44 1.36.44 2.12v5.73c0 .32.08.56.24.72.16.2.4.28.72.28.16 0 .28 0 .44-.04.12 0 .24-.04.28-.04l.24 2.69c-.32.04-.6.12-.92.16-.32.04-.64.04-1 .04a3.1 3.1 0 01-1.84-.52 2.8 2.8 0 01-1.12-1.4c-.6.6-1.32 1.07-2.08 1.4a6.51 6.51 0 01-4.48.16 4.36 4.36 0 01-2.96-4.13z" fill="#333433"/><path d="M79.56 6.17h2.88l.44 1.92a5.6 5.6 0 014.56-2.28c1.04 0 1.92.24 2.72.68a4.44 4.44 0 011.76 1.88 6.77 6.77 0 012.24-1.92 5.89 5.89 0 012.8-.64c.76 0 1.44.12 2.08.36.64.24 1.2.6 1.64 1.08.48.44.84 1 1.08 1.64.24.64.4 1.32.4 2.08v9.3h-3.64v-8.7c0-.8-.24-1.44-.76-1.96a2.78 2.78 0 00-1.96-.76c-.92 0-1.68.32-2.28.96-.6.64-.88 1.44-.88 2.49v7.97H89v-8.7c0-.8-.24-1.44-.72-1.96a2.62 2.62 0 00-1.92-.76c-.96 0-1.72.32-2.32.96-.6.64-.88 1.44-.88 2.49v7.97h-3.64V6.17h.04z" fill="#333433"/><path d="M116 13.18c0-.64-.08-1.25-.28-1.8a3.63 3.63 0 00-.76-1.4c-.32-.4-.68-.69-1.12-.93a2.93 2.93 0 00-1.44-.32c-.96 0-1.72.32-2.36 1-.6.64-.92 1.48-.92 2.53v1.88c0 .52.08 1 .24 1.4.16.44.4.8.68 1.12.28.32.64.56 1.04.72a3.52 3.52 0 002.76-.08c.44-.2.8-.52 1.12-.92a5.17 5.17 0 001.04-3.2zm-10.4-7.01h2.88l.44 1.8a5.58 5.58 0 011.88-1.6 6.13 6.13 0 015.08 0c.76.36 1.44.88 2 1.52s1 1.4 1.32 2.32c.32.88.48 1.89.48 2.97a8.7 8.7 0 01-.48 2.96 7.32 7.32 0 01-1.32 2.32 6 6 0 01-6.88 1.6 4.5 4.5 0 01-1.8-1.44v8.53h-3.6V6.17z" fill="#333433"/><path d="M12.24 16.66c-.56.56-1.32.8-2.28.8H5.48v-5.8h4.48c.92 0 1.68.28 2.28.8.56.52.84 1.24.84 2.08.04.88-.24 1.6-.84 2.12zM5.48 3.8H9.6c.84 0 1.52.25 2.08.77.56.48.8 1.16.8 1.96s-.28 1.44-.8 1.92c-.56.48-1.24.72-2.08.72H5.48V3.8zm10.44 8.22a4.93 4.93 0 00-2.4-1.8 4.45 4.45 0 002.6-4.13c0-.76-.16-1.44-.44-2.04a4.44 4.44 0 00-1.24-1.6 5.7 5.7 0 00-1.88-1.05 7.55 7.55 0 00-2.4-.36H0V3.6c1.56 0 2.8 1.29 2.8 2.85A2.82 2.82 0 010 9.29v2.32c1.56 0 2.8 1.29 2.8 2.85v.44A2.82 2.82 0 010 17.74v2.57h10.6a7 7 0 004.44-1.49c.56-.48 1-1.04 1.28-1.68.32-.64.48-1.36.48-2.16a4.9 4.9 0 00-.88-2.96z" fill="#333433"/></g><defs><clipPath id="clip0"><path fill="#fff" d="M0 0h120v27.23H0z"/></clipPath></defs></svg>