<svg width="104" height="34" viewBox="0 0 104 34" fill="none" xmlns="http://www.w3.org/2000/svg"><path fill-rule="evenodd" clip-rule="evenodd" d="M41.46 21.38v-4.26h2.81c1.48 0 2.44.86 2.44 2.18 0 1.3-.94 2.08-2.54 2.08h-2.71zm2.37-9.4c1.47 0 2.33.71 2.33 1.9 0 1.35-.86 2.21-2.18 2.21h-2.52v-4.12h2.37zm3.67 1.8c0-1.82-1.36-2.9-3.67-2.9h-3.67v11.6h4.01c2.44 0 3.88-1.19 3.88-3.18 0-1.39-.91-2.44-2.46-2.8 1.24-.37 1.9-1.33 1.9-2.72zm3.45 8.7h1.3v-11.6h-1.3v11.6zm4.1-10.5h3.28v10.5h1.3v-10.5h3.24v-1.1h-7.82v1.1zm9.71 0h3.28v10.5h1.3v-10.5h3.24v-1.1h-7.82v1.1zm15.44 5.85c1.55-.36 2.52-1.53 2.52-3.4 0-2.23-1.5-3.56-4.06-3.56H75.3v11.6h1.3v-4.49h2.51l2.52 4.5h1.55l-2.64-4.31-.35-.34zm7.14-.66h4.87v-1.04h-4.87v-4.16h5.39v-1.1h-6.7v11.6h6.75v-1.09h-5.44v-4.2zm13.1-.61l3.46-5.67h-1.58l-2.6 4.6-.1.45-.1-.45-2.59-4.6h-1.56l3.45 5.67-3.55 5.92h1.6l2.65-4.77.1-.45.1.45 2.68 4.77h1.6l-3.55-5.92zm-23.84.4v-4.99h2.3c1.58 0 2.5.91 2.5 2.46 0 1.68-1.04 2.52-2.59 2.52H76.6z" fill="#000"/><path fill-rule="evenodd" clip-rule="evenodd" d="M6.72 0v5.15h3.24V3.24h19.42v19.42H9.96V12.22H6.72V25.9h25.9V0H6.72zM0 7.28v25.9h25.9v-5.36h-3.24v2.13H3.24V10.52h19.42v10.23h3.23V7.28H0z" fill="#0082D7"/></svg>