<svg xmlns="http://www.w3.org/2000/svg" width="19.896" height="18.195" viewBox="0 0 19.896 18.195"><defs><style>.a{fill:#2e2e2e;}</style></defs><path class="a" d="M17.93,2.488,6.609,2.465A1.965,1.965,0,0,0,4.642,4.424V6.117l-2.676.006A1.965,1.965,0,0,0,0,8.082v6.985a1.965,1.965,0,0,0,1.966,1.959H3.979v3.3a.331.331,0,0,0,.212.308.336.336,0,0,0,.12.022.333.333,0,0,0,.245-.108l3.218-3.527L13.287,17a1.965,1.965,0,0,0,1.966-1.959v-.038L17,16.918a.332.332,0,0,0,.245.108.337.337,0,0,0,.12-.022.331.331,0,0,0,.212-.309v-3.3h.355A1.965,1.965,0,0,0,19.9,11.432V4.447A1.965,1.965,0,0,0,17.93,2.488ZM14.59,15.044a1.3,1.3,0,0,1-1.3,1.3l-5.66.023a.332.332,0,0,0-.244.108l-2.739,3V16.7a.331.331,0,0,0-.332-.33H1.966a1.3,1.3,0,0,1-1.3-1.3V8.082a1.3,1.3,0,0,1,1.3-1.3l3.007-.006h0l8.247-.017h.066a1.3,1.3,0,0,1,1.08.573,1.288,1.288,0,0,1,.223.726v6.985Zm4.642-3.611a1.3,1.3,0,0,1-1.3,1.3h-.686a.331.331,0,0,0-.332.33v2.78l-1.658-1.817V8.059a1.953,1.953,0,0,0-.04-.394q-.02-.1-.048-.188A1.969,1.969,0,0,0,13.287,6.1h-.034l-7.947.016V4.424a1.3,1.3,0,0,1,1.3-1.3l11.321.023h0a1.3,1.3,0,0,1,1.3,1.3Z" transform="translate(0 -2.465)"/></svg>