<svg width="335" height="325" viewBox="0 0 335 325" fill="none" xmlns="http://www.w3.org/2000/svg"><circle cx="65.5" cy="65.5" r="65.5" fill="#FBE5E5"></circle><mask id="mask0" mask-type="alpha" maskUnits="userSpaceOnUse" x="0" y="0" width="131" height="131"><circle cx="65.5" cy="65.5" r="65.5" fill="#FBE5E5"></circle></mask><g mask="url(#mask0)"><path d="M87.7795 113.301L44.3944 113.773C42.5864 113.877 40.8588 113.994 39.2071 114.126C5.43512 116.835 3.42109 125.849 -5.12109 150.617H135.409C125.889 126.506 125.693 117.306 94.8531 113.936C92.6557 113.696 90.3026 113.485 87.7795 113.301Z" fill="#FFF500"></path><path fill-rule="evenodd" clip-rule="evenodd" d="M87.8006 112.508L87.8338 112.51C90.3648 112.695 92.7275 112.906 94.9359 113.148C110.405 114.838 118.419 118.009 123.716 123.973C126.347 126.935 128.268 130.542 130.119 134.877C131.225 137.465 132.322 140.356 133.533 143.546C134.341 145.673 135.199 147.933 136.144 150.326L136.572 151.412H-6.23828L-5.87518 150.359C-5.60339 149.571 -5.33793 148.798 -5.07758 148.04C-3.29856 142.86 -1.75823 138.375 -0.0708145 134.529C1.86836 130.11 4.02582 126.476 7.02206 123.534C13.028 117.637 22.2255 114.693 39.1401 113.336C40.7985 113.203 42.5322 113.085 44.3456 112.982L44.3639 112.981L87.8006 112.508ZM44.4179 114.568C42.6219 114.671 40.9065 114.788 39.2671 114.919C22.4097 116.271 13.7141 119.188 8.13458 124.667C5.33804 127.413 3.27958 130.846 1.38326 135.167C-0.275651 138.948 -1.79208 143.363 -3.57483 148.553C-3.71858 148.972 -3.86407 149.395 -4.0115 149.824H134.24C133.444 147.787 132.716 145.869 132.029 144.059C130.83 140.9 129.755 138.068 128.659 135.501C126.832 131.224 124.992 127.8 122.529 125.027C117.638 119.521 110.134 116.406 94.7634 114.726C92.5864 114.488 90.2539 114.279 87.7513 114.096L44.4179 114.568Z" fill="black"></path><path fill-rule="evenodd" clip-rule="evenodd" d="M86.2242 120.574C80.7686 123.513 73.4564 126.555 66.2089 126.784C58.9221 127.014 52.053 123.998 47.0517 120.979C44.5424 119.465 42.4822 117.937 41.0484 116.786C40.3311 116.211 39.7694 115.729 39.3856 115.39C39.1937 115.221 39.0461 115.086 38.9457 114.994C38.8955 114.948 38.8571 114.912 38.8308 114.887L38.8005 114.859L38.7922 114.851L38.7891 114.848C38.7888 114.847 38.7886 114.847 39.3374 114.274C39.8862 113.7 39.8861 113.7 39.886 113.7L39.8872 113.701L39.8929 113.706L39.9178 113.73C39.9405 113.751 39.9752 113.783 40.0216 113.826C40.1144 113.912 40.2538 114.038 40.4372 114.2C40.804 114.525 41.3463 114.99 42.0419 115.548C43.434 116.664 45.4361 118.149 47.8723 119.62C52.7617 122.571 59.3159 125.413 66.1587 125.197C73.0409 124.98 80.0938 122.073 85.471 119.176C88.1502 117.732 90.3933 116.302 91.9657 115.233C92.7516 114.699 93.369 114.255 93.7887 113.947C93.9985 113.792 94.1589 113.672 94.266 113.59C94.3196 113.549 94.3599 113.518 94.3864 113.498L94.4158 113.475L94.4226 113.47L94.4241 113.469C94.4241 113.469 94.4242 113.469 94.9142 114.093C95.4041 114.718 95.4039 114.718 95.4037 114.718L95.4029 114.719L95.3913 114.728L95.3573 114.755C95.3277 114.777 95.2843 114.811 95.2274 114.854C95.1138 114.94 94.9467 115.066 94.7297 115.226C94.2957 115.545 93.6621 116 92.8584 116.546C91.2515 117.638 88.9614 119.099 86.2242 120.574Z" fill="black"></path><path d="M44.8633 113.618L46.9015 88.1523H83.0072L88.2483 113.618C70.1377 124.972 60.6451 124.898 44.8633 113.618Z" fill="#C18971"></path><path fill-rule="evenodd" clip-rule="evenodd" d="M46.1716 87.3555H83.6574L89.1402 113.995L88.6731 114.288C79.5846 119.986 72.5251 122.907 65.6844 122.897C58.8282 122.887 52.3436 119.935 44.4047 114.261L44.0391 114L46.1716 87.3555ZM47.6375 88.9434L45.6937 113.229C53.3628 118.659 59.4227 121.3 65.6867 121.309C71.9548 121.318 78.5738 118.692 87.3624 113.234L82.363 88.9434H47.6375Z" fill="black"></path><path d="M96.709 55.5584C96.0214 54.0266 95.9643 52.9092 93.1403 53.5806L94.1369 70.7371C97.2933 68.0622 96.9563 63.6781 96.709 55.5584Z" fill="#DAA48D"></path><path fill-rule="evenodd" clip-rule="evenodd" d="M93.9707 54.2272L94.8148 68.7574C95.3981 67.8021 95.7319 66.6259 95.9043 65.1171C96.1446 63.0136 96.0607 60.3793 95.9516 56.9536C95.9392 56.5635 95.9265 56.1632 95.9138 55.7523C95.8546 55.6157 95.8003 55.4845 95.7503 55.3638C95.7446 55.3501 95.739 55.3366 95.7334 55.3232C95.6599 55.1457 95.5969 54.9956 95.5329 54.86C95.403 54.5848 95.3001 54.4407 95.1987 54.3541C95.0786 54.2516 94.8068 54.1027 93.9707 54.2272ZM97.2215 54.7398C97.2901 54.9055 97.3571 55.0672 97.4318 55.2335L97.4952 55.3748L97.4999 55.5302C97.5141 55.9955 97.5287 56.4499 97.5429 56.8935C97.6515 60.2849 97.74 63.0482 97.4855 65.275C97.1933 67.8329 96.4359 69.8249 94.6435 71.3439L93.4294 72.3728L92.3025 52.9733L92.9609 52.8168C94.4198 52.4699 95.4849 52.4975 96.244 53.1455C96.5958 53.4458 96.8126 53.8263 96.975 54.1704C97.0572 54.3446 97.1336 54.5278 97.2058 54.702C97.211 54.7146 97.2163 54.7272 97.2215 54.7398Z" fill="black"></path><path d="M31.1355 56.4735C31.7335 54.8832 31.7064 53.7624 34.7016 54.1828L34.9917 71.4018C31.4949 69.0104 31.5066 64.603 31.1355 56.4735Z" fill="#DAA48D"></path><path fill-rule="evenodd" clip-rule="evenodd" d="M33.9215 54.9003L34.1689 69.5831C33.4445 68.6682 32.9862 67.4984 32.6797 65.9573C32.2669 63.8808 32.1504 61.2456 31.9987 57.8146C31.9815 57.4255 31.9638 57.0261 31.9452 56.6162C31.996 56.4754 32.0423 56.3404 32.0848 56.2161C32.0896 56.202 32.0944 56.1879 32.0992 56.174C32.1621 55.9903 32.2161 55.8349 32.2722 55.6939C32.3857 55.4091 32.4828 55.2524 32.5871 55.1518C32.7224 55.0214 33.0198 54.8469 33.9215 54.9003ZM30.5737 55.6808C30.5149 55.8524 30.4577 56.0197 30.3927 56.1924L30.3367 56.3413L30.344 56.5011C30.3653 56.967 30.3853 57.4221 30.4049 57.8664C30.5543 61.2616 30.6762 64.0312 31.1143 66.2347C31.6185 68.7705 32.5662 70.6976 34.5522 72.0558L35.8205 72.9231L35.4934 53.5038L34.8047 53.4072C33.2606 53.1905 32.1829 53.3159 31.4632 54.0097C31.1252 54.3355 30.9297 54.7309 30.7864 55.0904C30.7143 55.2716 30.6488 55.4614 30.5871 55.6417C30.5826 55.6547 30.5781 55.6678 30.5737 55.6808Z" fill="black"></path><path d="M40.1347 29.244C60.697 24.7106 67.6602 24.5752 88.9631 29.244C91.3975 48.9438 97.6922 69.1654 94.9177 81.9373C91.8339 96.1329 72.687 103.284 65.6437 103.284C58.6003 103.284 38.395 96.8702 34.5771 81.9373C30.905 67.5748 36.3233 46.4178 40.1347 29.244Z" fill="#DAA48D"></path><path fill-rule="evenodd" clip-rule="evenodd" d="M64.2663 24.9963C71.3306 24.9791 78.4668 26.1285 89.1301 28.4655L89.6791 28.5858L89.7481 29.1437C90.5459 35.5995 91.7553 42.0875 92.9281 48.3785C93.5414 51.6685 94.1447 54.9047 94.6738 58.0542C96.2036 67.1607 97.1142 75.5497 95.6906 82.1029C94.0812 89.5114 88.3057 95.0015 82.1653 98.6154C76.0302 102.226 69.3438 104.075 65.6407 104.075C61.9581 104.075 55.0165 102.423 48.5199 98.9059C42.02 95.3865 35.7923 89.9043 33.8049 82.131C31.9284 74.7916 32.3854 65.7828 33.7613 56.5253C34.9028 48.8447 36.6897 40.9202 38.3503 33.5553C38.6934 32.0336 39.0312 30.5358 39.3567 29.069L39.4664 28.5747L39.9608 28.4657C50.2509 26.197 57.2022 25.0134 64.2663 24.9963ZM40.7969 29.9077C40.5032 31.2264 40.2011 32.5664 39.8953 33.923C38.2349 41.2874 36.4639 49.1423 35.332 56.7587C33.9639 65.9638 33.5477 74.7146 35.3433 81.7377C37.1739 88.8974 42.9578 94.0886 49.2759 97.5095C55.5973 100.932 62.28 102.487 65.6407 102.487C68.981 102.487 75.3897 100.761 81.3599 97.247C87.3247 93.7364 92.6645 88.553 94.1389 81.7658C95.4898 75.5472 94.6403 67.4395 93.1078 58.3173C92.5885 55.226 91.9908 52.0186 91.3802 48.7421C90.2355 42.5999 89.0456 36.2148 88.2422 29.8969C77.909 27.6466 71.0349 26.5678 64.2702 26.5842C57.4974 26.6006 50.7946 27.7148 40.7969 29.9077Z" fill="black"></path><path fill-rule="evenodd" clip-rule="evenodd" d="M38.4292 29.244C30.6549 64.2738 34.8993 105.966 65.6391 103.284C96.3789 100.603 97.1565 70.8398 92.0161 29.244C91.8603 29.2098 91.705 29.1759 91.5503 29.1423C96.6056 67.5307 95.827 94.9946 65.5646 97.4699C35.3147 99.9442 31.1156 61.5085 38.7456 29.1744C38.6404 29.1975 38.5349 29.2207 38.4292 29.244ZM45.7403 27.7548C60.5671 25.1768 71.1678 25.2607 87.0098 28.2023C71.2289 25.1111 60.5489 25.0298 45.7403 27.7548Z" fill="#8B2A00" fill-opacity="0.19"></path><path d="M40.18 51.6302C40.2579 47.7183 40.3157 48.3964 42.2461 43.9248C42.4718 43.402 42.9585 43.0306 43.5238 42.9621L59.7513 40.9961C60.9256 41.0003 61.5293 41.0936 62.0281 41.444C62.2211 41.5797 62.3475 41.7868 62.4317 42.0072L62.7342 42.7992C62.8033 42.9801 62.839 43.1725 62.8377 43.3662C62.8225 45.5526 62.6353 47.1326 62.3039 51.1515L61.5026 56.0024C61.3106 57.1645 58.3679 57.8277 57.2414 57.4836C57.1392 57.4524 57.0063 57.3983 56.9162 57.3407C53.2646 55.0056 47.3468 53.1485 41.9873 53.3353C41.0144 53.3692 40.1606 52.6035 40.18 51.6302Z" fill="#C88467"></path><path d="M90.1518 51.1572C89.8214 46.8525 88.6598 45.972 86.7844 43.1452C86.5102 42.7319 86.0666 42.4583 85.5726 42.4146L69.5352 40.9961C68.1868 41.0008 67.6137 41.1243 67.0716 41.6724C66.8283 41.9294 66.7215 42.2039 66.63 42.656C66.575 42.9279 66.6078 43.2092 66.701 43.4705C67.39 45.4004 67.7128 47.0793 68.0256 51.0087L68.3617 55.9182C68.4223 56.803 71.2288 57.7022 72.0781 57.4464C72.1127 57.436 72.1592 57.425 72.195 57.4197C76.7 56.7542 83.0603 53.1492 88.3841 52.9378C89.3593 52.8991 90.2264 52.1303 90.1518 51.1572Z" fill="#C88467"></path><path fill-rule="evenodd" clip-rule="evenodd" d="M63.2763 42.6434C63.7111 42.7 64.0178 43.0983 63.9612 43.5331C63.4449 47.5035 63.2509 49.8468 62.993 52.9617C62.8519 54.6654 62.6917 56.6 62.4492 59.1579C62.4259 59.4037 62.2896 59.6247 62.0803 59.7558C61.8711 59.8869 61.6128 59.9132 61.3814 59.8269C60.0039 59.3134 59.1556 59.0613 58.6097 59.041C58.3603 59.0317 58.2491 59.0757 58.1977 59.1067C58.1515 59.1346 58.075 59.199 57.9908 59.3955L57.983 59.4131C57.632 60.181 57.5584 60.7118 57.6185 61.2132C57.6835 61.755 57.9095 62.3297 58.3043 63.2074C58.4599 63.5532 58.6171 63.7245 58.7393 63.8093C58.8501 63.8861 58.9806 63.9264 59.1698 63.9147C59.6106 63.8874 60.2731 63.5835 61.1808 62.8991C61.3625 62.7622 61.5942 62.7098 61.8171 62.7551C62.0401 62.8005 62.2328 62.9393 62.3465 63.1364C62.752 63.8394 63.1056 64.1972 63.5255 64.4208C63.971 64.6581 64.5794 64.7926 65.5991 64.8698C66.0363 64.9029 66.364 65.2842 66.3309 65.7214C66.2978 66.1586 65.9165 66.4863 65.4793 66.4532C64.4101 66.3722 63.5271 66.2207 62.7791 65.8224C62.2433 65.537 61.8185 65.1485 61.4445 64.6531C60.7189 65.1212 59.9803 65.4555 59.2678 65.4996C58.7661 65.5306 58.2727 65.418 57.8345 65.1141C57.4077 64.8182 57.0911 64.3812 56.8562 63.8588C56.47 63.0002 56.1397 62.2176 56.0419 61.4023C55.9396 60.549 56.0957 59.7251 56.5351 58.7611C56.7117 58.3526 56.9756 57.9899 57.3765 57.7477C57.7752 57.5068 58.2228 57.4375 58.6689 57.4542C59.2985 57.4777 60.0638 57.6816 60.9637 57.9893C61.1508 55.9615 61.2856 54.3347 61.407 52.8702C61.6673 49.7283 61.8658 47.3332 62.3866 43.3284C62.4431 42.8935 62.8415 42.5869 63.2763 42.6434Z" fill="black"></path><path fill-rule="evenodd" clip-rule="evenodd" d="M67.4732 41.8428C67.0363 41.8805 66.7127 42.2652 66.7503 42.702C67.0359 46.0138 67.2634 48.3546 67.4961 50.7421L67.507 50.8542C67.7361 53.2051 67.9711 55.6168 68.2727 59.0637C68.2948 59.3158 68.4357 59.5423 68.6521 59.6735C68.8686 59.8047 69.1345 59.8248 69.3682 59.7277C70.6264 59.2051 71.3751 58.9609 71.8416 58.9415C72.0446 58.9331 72.116 58.9727 72.14 58.9888C72.167 59.007 72.2391 59.0673 72.3206 59.2793L72.3271 59.2959C72.6491 60.0805 72.7208 60.6341 72.6639 61.1632C72.6033 61.7265 72.3932 62.3184 72.0352 63.2053C71.8898 63.5656 71.7448 63.7367 71.6436 63.8149C71.5601 63.8794 71.4723 63.909 71.3365 63.8997C70.9834 63.8753 70.4052 63.5926 69.5744 62.8946C69.3897 62.7395 69.1446 62.6767 68.9081 62.7239C68.6716 62.7712 68.4695 62.9234 68.3586 63.1375C67.9856 63.8579 67.6652 64.2126 67.3008 64.4288C66.9178 64.6561 66.3886 64.7898 65.4693 64.8674C65.0324 64.9042 64.708 65.2883 64.7449 65.7252C64.7817 66.1622 65.1658 66.4865 65.6028 66.4496C66.5824 66.367 67.409 66.211 68.1111 65.7944C68.5835 65.5141 68.9585 65.1411 69.2856 64.6762C69.9202 65.1184 70.5783 65.4391 71.2272 65.4838C71.7194 65.5178 72.1989 65.3925 72.6145 65.0714C73.0123 64.764 73.2981 64.3188 73.5077 63.7997C73.8596 62.9277 74.1553 62.1447 74.2427 61.3332C74.3334 60.4897 74.1963 59.671 73.7994 58.701C73.6438 58.2995 73.4062 57.9271 73.0268 57.6717C72.6416 57.4123 72.205 57.3371 71.7756 57.355C71.2095 57.3785 70.5351 57.5728 69.7608 57.8624C69.5025 54.9596 69.2924 52.8036 69.0875 50.7009L69.0765 50.5881C68.8439 48.2017 68.6171 45.8682 68.3324 42.5656C68.2947 42.1288 67.91 41.8052 67.4732 41.8428Z" fill="black"></path><path d="M35.4336 50.4252L35.9052 42.4084L44.3935 21.1875L91.5512 27.318L92.9659 37.6927C77.8164 36.2516 69.9485 34.0964 56.183 29.6759L43.4504 32.5053L35.4336 50.4252Z" fill="#76381D" fill-opacity="0.16"></path><path d="M94.1173 52.1653C89.7922 46.8282 88.9803 43.0362 87.7656 36.6832L92.1324 29.1406C92.5137 38.1194 92.681 43.4534 94.1173 52.1653Z" fill="#322416"></path><path fill-rule="evenodd" clip-rule="evenodd" d="M92.2257 28.7537C92.3971 28.7959 92.52 28.9461 92.5275 29.1224C92.5469 29.5779 92.5657 30.024 92.5841 30.4616C92.9291 38.6503 93.1483 43.8548 94.5075 52.0993C94.5368 52.277 94.4428 52.4522 94.2785 52.526C94.1142 52.5998 93.9208 52.5537 93.8074 52.4138C89.4183 46.9976 88.5919 43.1246 87.3743 36.7563C87.3563 36.6625 87.3728 36.5655 87.4206 36.4829L91.7874 28.9403C91.8758 28.7876 92.0544 28.7116 92.2257 28.7537ZM88.1819 36.7526C89.2833 42.5056 90.0637 46.0932 93.4793 50.6973C92.3294 43.2682 92.1145 38.1798 91.7918 30.5173L88.1819 36.7526Z" fill="black"></path><path d="M34.5713 42.6327L34.9683 31.0642C36.436 21.018 40.9229 16.3767 45.6867 14.3916C46.8776 4.46696 77.9017 3.43797 89.7511 18.7579L94.1178 30.3265C97.0809 33.3317 99.661 33.9669 105.63 33.8993C101.789 36.3644 99.6099 37.2155 95.7057 37.869C71.4796 40.4549 62.3627 34.9895 44.0987 28.3416C41.5704 39.1416 38.5198 44.5819 33.7773 53.7481C34.2249 48.3019 35.0779 45.7231 34.5713 42.6327Z" fill="#322416"></path><path fill-rule="evenodd" clip-rule="evenodd" d="M63.7582 6.31975C73.2685 6.74244 84.2572 10.3608 90.3801 18.2771C90.4284 18.3394 90.467 18.4087 90.4949 18.4824L94.8016 29.8919C96.1657 31.25 97.4137 32.0431 98.9749 32.5093C100.615 32.9989 102.65 33.1439 105.622 33.1102C105.976 33.1062 106.29 33.3372 106.392 33.6764C106.493 34.0156 106.358 34.3811 106.06 34.5723C102.138 37.089 99.8592 37.9839 95.8378 38.657C95.8223 38.6596 95.8067 38.6617 95.791 38.6634C83.5997 39.9646 75.1698 39.243 67.4771 37.3436C62.0121 35.9943 56.9095 34.0444 51.1316 31.8365C49.077 31.0513 46.937 30.2336 44.6649 29.3986C42.3281 39.0076 39.5234 44.4092 35.4362 52.2808C35.1261 52.8779 34.8087 53.4893 34.4835 54.1178C34.3096 54.4539 33.9228 54.6205 33.5592 54.5161C33.1955 54.4116 32.9561 54.065 32.9871 53.688C33.1481 51.7284 33.3632 50.1198 33.5463 48.7499C33.6194 48.2033 33.6874 47.6947 33.7448 47.217C33.9479 45.5283 34.0238 44.1996 33.7888 42.7661C33.7804 42.7146 33.777 42.6625 33.7788 42.6104L34.1758 31.0419C34.1768 31.0126 34.1794 30.9833 34.1837 30.9543C35.6438 20.9596 40.0695 16.0428 44.9739 13.8403C45.5222 11.1536 47.9511 9.21513 51.1241 7.99625C54.515 6.69364 58.9905 6.10785 63.7582 6.31975ZM51.6935 9.47855C48.5231 10.6964 46.7201 12.4562 46.476 14.4911C46.4418 14.7753 46.2573 15.0192 45.9931 15.1293C41.5377 16.986 37.2025 21.35 35.7613 31.1405L35.3684 42.5878C35.6243 44.2137 35.5267 45.6993 35.3214 47.4066C35.2601 47.916 35.1896 48.4432 35.115 49.0013C35.0886 49.1985 35.0617 49.3995 35.0345 49.605C38.681 42.547 41.1873 37.3042 43.3267 28.1655C43.3784 27.9444 43.5223 27.7561 43.722 27.6481C43.9217 27.5401 44.158 27.5227 44.3713 27.6004C47.0211 28.5649 49.4681 29.5 51.7895 30.3871C57.5248 32.5788 62.4934 34.4775 67.8578 35.802C75.3412 37.6497 83.5769 38.3681 95.5989 37.0869C98.5022 36.5995 100.402 36.008 102.834 34.6631C101.164 34.589 99.7646 34.4023 98.5205 34.0308C96.6033 33.4584 95.1062 32.4636 93.5535 30.8888C93.4756 30.8098 93.4152 30.7154 93.376 30.6117L89.0517 19.1555C83.3099 11.8153 72.9107 8.31602 63.6877 7.9061C59.0694 7.70083 54.8249 8.27566 51.6935 9.47855Z" fill="black"></path><path d="M75.0606 35.0916L67.1211 33.9007C68.312 36.2828 75.7903 37.2764 83.0002 37.8707L79.4274 35.8858L91.3367 37.0767L86.9699 35.0916H97.2913L93.7185 33.9007H98.8792L95.3065 32.313L89.7488 30.3281L90.5427 32.313L82.2062 30.3281L83.0002 33.9007C79.5597 33.3714 72.4406 32.154 71.4878 31.5189C70.5351 30.8837 73.4727 33.6361 75.0606 35.0916Z" fill="white" fill-opacity="0.08"></path><path fill-rule="evenodd" clip-rule="evenodd" d="M57.9946 60.0108C57.9936 60.0225 57.9927 60.0354 57.9923 60.0483C57.9921 60.0563 57.9919 60.0721 57.9933 60.0915C57.994 60.1012 57.9955 60.1172 57.9991 60.1367C58.0021 60.1524 58.0099 60.1906 58.031 60.235C58.0471 60.2689 58.1074 60.3851 58.2548 60.4385C58.2609 60.4407 58.267 60.4427 58.2729 60.4446C58.307 60.4929 58.3839 60.5795 58.5203 60.6083C58.6875 60.6435 58.8104 60.5655 58.8611 60.5234C58.9112 60.4819 58.9398 60.4376 58.9513 60.419C58.9894 60.3573 59.0123 60.2824 59.0211 60.2538C59.0215 60.2524 59.0219 60.2511 59.0223 60.25C59.0338 60.2125 59.0465 60.1674 59.0586 60.1241C59.0603 60.1181 59.062 60.1121 59.0637 60.1061C59.074 60.0694 59.0847 60.032 59.0958 59.9944C59.1046 59.9915 59.1132 59.9889 59.1217 59.9865C59.2248 59.9581 59.3391 59.959 59.5084 60.0391C59.7599 60.1581 59.8296 60.2904 60.0102 60.6333C60.0222 60.656 60.0346 60.6796 60.0476 60.7041C60.1134 60.882 60.1722 61.0736 60.2282 61.2962C60.2657 61.4452 60.2968 61.5601 60.3223 61.6455C60.3444 61.7196 60.3704 61.8002 60.4005 61.859C60.4078 61.8734 60.4273 61.9106 60.4606 61.9491C60.4766 61.9678 60.5124 62.0064 60.5695 62.0385C60.6306 62.0728 60.7428 62.1129 60.8767 62.0742C61.0053 62.037 61.0754 61.9494 61.1059 61.9001C61.1364 61.8507 61.1493 61.8058 61.1548 61.7837C61.1661 61.7383 61.1675 61.6998 61.1679 61.6842C61.1693 61.6214 61.1588 61.5476 61.1503 61.4953C61.1138 61.2698 61.0033 60.7998 60.847 60.5145C60.8202 60.4655 60.7941 60.4154 60.768 60.3645C60.6455 60.0456 60.5027 59.7633 60.3253 59.4486C60.2682 59.3472 60.1867 59.2796 60.1242 59.2371C60.058 59.1921 59.986 59.157 59.9177 59.1296C59.8589 59.1061 59.7963 59.0856 59.7322 59.0683C59.6595 58.9748 59.546 58.9146 59.4185 58.9146C59.3979 58.9146 59.3759 58.9145 59.353 58.9144C59.2617 58.9138 59.1553 58.9132 59.0579 58.9205C58.9292 58.9301 58.7788 58.9549 58.6298 59.0286C58.5933 59.0466 58.5587 59.0667 58.5258 59.0887C58.5184 59.0889 58.511 59.0893 58.5036 59.0899C58.4403 59.0951 58.3877 59.1142 58.348 59.135C58.2744 59.1734 58.2302 59.225 58.2106 59.2499C58.1701 59.3015 58.1472 59.3545 58.137 59.3791C58.1128 59.4375 58.0937 59.5053 58.0795 59.5609C58.0577 59.6461 58.0379 59.7423 58.023 59.8239C57.9986 59.8832 57.989 59.9474 57.9946 60.0108Z" fill="white" fill-opacity="0.29"></path><path fill-rule="evenodd" clip-rule="evenodd" d="M72.0309 59.3174C72.1347 59.4787 72.2141 59.6829 72.2755 59.9212C72.3303 60.1335 72.2025 60.35 71.9902 60.4047C71.9522 60.4145 71.914 60.4185 71.8767 60.4171C71.8039 60.5014 71.6962 60.5547 71.5761 60.5547C71.5182 60.5547 71.4469 60.5514 71.3871 60.5486C71.3605 60.5474 71.3363 60.5462 71.3164 60.5456C71.2371 60.5428 71.1739 60.5436 71.1193 60.5509C71.025 60.5635 70.9731 60.5907 70.9262 60.6609C70.9262 60.6609 70.9262 60.6609 70.9261 60.6609C70.9257 60.6617 70.9213 60.6687 70.9136 60.6847C70.9057 60.7011 70.8964 60.7228 70.8859 60.7498C70.8648 60.804 70.8428 60.8708 70.8213 60.9444C70.7781 61.0926 70.7428 61.2496 70.725 61.3543C70.7198 61.385 70.7155 61.4188 70.7121 61.4526C70.7098 61.5712 70.7069 61.6482 70.7041 61.6919C70.7033 61.7038 70.7022 61.7196 70.7003 61.7353L70.7003 61.7356C70.6996 61.7411 70.6973 61.7603 70.6919 61.7832C70.6919 61.7834 70.6918 61.7837 70.6918 61.784C70.69 61.7917 70.6813 61.8293 70.6598 61.872L70.6598 61.8721C70.6515 61.8886 70.6179 61.9556 70.5432 62.0116C70.5004 62.0438 70.4331 62.0804 70.344 62.0892C70.2512 62.0985 70.169 62.0741 70.1067 62.0382C70.0028 61.9785 69.9591 61.8908 69.9495 61.8716L69.9493 61.8712C69.9336 61.8398 69.9256 61.8131 69.9222 61.801C69.915 61.7752 69.912 61.7543 69.911 61.7471C69.9085 61.7295 69.9077 61.7149 69.9073 61.7091C69.9065 61.6949 69.9063 61.6808 69.9063 61.67C69.906 61.6186 69.909 61.5182 69.9189 61.4078C69.919 61.4014 69.9191 61.3948 69.9192 61.388C69.9256 61.0114 70.0094 60.6124 70.1347 60.2562C70.259 59.9028 70.4341 59.5629 70.643 59.3168C70.8267 59.1004 71.1657 58.8143 71.5827 58.9485C71.7812 59.0124 71.9267 59.1557 72.0309 59.3174ZM71.324 59.7514C71.3308 59.7516 71.3375 59.7519 71.344 59.7521C71.3519 59.7524 71.3596 59.7526 71.3669 59.7529C71.3657 59.751 71.3645 59.7491 71.3634 59.7473C71.359 59.7405 71.3549 59.7345 71.3511 59.7293C71.3434 59.735 71.3343 59.7423 71.324 59.7514ZM71.3875 59.7089C71.3875 59.7091 71.386 59.7096 71.3832 59.7101C71.3861 59.7089 71.3875 59.7087 71.3875 59.7089ZM71.323 59.6971C71.3225 59.6967 71.3222 59.6965 71.3222 59.6965Z" fill="white" fill-opacity="0.29"></path><path d="M39.3376 75.9831L34.1769 60.501C32.942 77.2569 30.8042 87.5301 44.1014 95.4349C53.771 102.438 58.9928 105.6 67.126 106.55C77.0499 104.418 80.582 101.288 86.1809 95.038C97.6291 86.1021 97.1916 77.0992 94.1204 59.707L88.9597 73.6012C87.9266 76.1948 86.9953 76.918 84.196 75.9831C78.6818 71.5775 75.3499 69.9226 69.1109 68.0435C67.3727 67.417 66.3868 66.9794 65.1411 70.0284C64.0611 68.177 63.1949 67.7415 61.1714 68.0435C53.8632 70.946 50.3486 73.2853 44.4983 77.968C41.2843 78.8022 40.563 77.8186 39.3376 75.9831Z" fill="#322416"></path><path fill-rule="evenodd" clip-rule="evenodd" d="M94.398 56.6914L94.9064 59.5701C96.4388 68.2484 97.3464 74.9797 96.3823 80.6772C95.4087 86.4305 92.5421 91.0688 86.7293 95.6213C83.9464 98.7255 81.6139 101.124 78.7113 103.005C75.7825 104.904 72.3196 106.248 67.2969 107.328L67.1684 107.355L67.0379 107.34C58.6929 106.364 53.329 103.095 43.6687 96.1C40.2869 94.0852 37.8454 91.8961 36.1228 89.4571C34.3929 87.0076 33.4142 84.3431 32.9113 81.4229C32.086 76.6318 32.5378 71.0647 33.065 64.569C33.1733 63.2336 33.2849 61.8589 33.3892 60.4437L34.9342 60.251L40.0611 75.6316C40.6657 76.5334 41.0351 77.0172 41.534 77.269C41.9925 77.5004 42.7057 77.5946 44.1409 77.2415C49.9557 72.5947 53.5395 70.223 60.8824 67.3067L60.9676 67.2729L61.0582 67.2594C62.1233 67.1004 63.0448 67.1067 63.8695 67.5195C64.3105 67.7402 64.6835 68.0573 65.0217 68.4537C65.4912 67.6454 66.024 67.1147 66.7088 66.9008C67.2042 66.7462 67.685 66.7897 68.1136 66.8877C68.4881 66.9733 68.8855 67.1172 69.2623 67.2537C69.2965 67.266 69.3306 67.2784 69.3644 67.2906C75.6417 69.1826 79.0597 70.875 84.5833 75.2742C85.8546 75.6823 86.4744 75.6319 86.8642 75.4194C87.3008 75.1813 87.7064 74.6117 88.2228 73.317L94.398 56.6914ZM93.8418 62.7494L89.7048 73.8875L89.7014 73.8961C89.1864 75.189 88.6105 76.2758 87.6243 76.8135C86.6036 77.37 85.3872 77.2177 83.9486 76.7372L83.8147 76.6925L83.7045 76.6045C78.272 72.2641 75.0312 70.6557 68.886 68.8048L68.8657 68.7987L68.8457 68.7915C68.8098 68.7786 68.7747 68.7659 68.7403 68.7535C68.3369 68.6078 68.0337 68.4983 67.7596 68.4356C67.4755 68.3706 67.3061 68.3778 67.182 68.4166C66.9403 68.492 66.4993 68.8144 65.8802 70.3298L65.271 71.8209L64.4594 70.4296C63.9406 69.5401 63.551 69.1358 63.1588 68.9395C62.7866 68.7532 62.2839 68.6907 61.3818 68.817C54.2239 71.6672 50.7813 73.9603 44.9985 78.5889L44.8661 78.6949L44.7019 78.7375C43.032 79.171 41.8136 79.1888 40.8186 78.6866C39.8722 78.209 39.2783 77.3192 38.6983 76.4504L38.6222 76.3363L34.6671 64.4709C34.6591 64.5698 34.6511 64.6685 34.6431 64.7668C34.1181 71.2606 33.6882 76.5788 34.4761 81.1534C34.9465 83.8842 35.8494 86.3174 37.4199 88.541C38.9924 90.7676 41.2604 92.8211 44.5111 94.7536L44.542 94.7719L44.5711 94.793C54.1787 101.751 59.2533 104.804 67.092 105.747C71.9217 104.699 75.1535 103.419 77.8475 101.673C80.5754 99.9046 82.7985 97.6294 85.5936 94.5093L85.6407 94.4567L85.6964 94.4132C91.2943 90.0438 93.9178 85.7239 94.8166 80.4122C95.6238 75.6422 95.052 70.0249 93.8418 62.7494Z" fill="black"></path><path d="M49.6602 77.1714C56.3275 76.0439 59.6795 74.929 65.5392 72.8047C69.3464 74.2869 72.4113 74.9994 80.6244 75.9805C79.4397 86.0422 73.8757 91.8596 70.303 91.8596C66.7302 91.8596 66.212 91.2186 64.7453 88.6838C64.3656 91.8351 63.9513 93.0505 59.5846 93.0505C55.2178 93.0505 50.0283 86.834 49.6602 77.1714Z" fill="#B47A61"></path><path fill-rule="evenodd" clip-rule="evenodd" d="M65.2657 72.0593C65.4466 71.9937 65.6451 71.996 65.8244 72.0658C69.5399 73.5123 72.5281 74.2151 80.7156 75.1931C81.1505 75.2451 81.4612 75.6394 81.4099 76.0743C80.8031 81.2281 79.071 85.3304 76.9969 88.1632C74.9587 90.947 72.468 92.6545 70.3 92.6545C68.5059 92.6545 67.277 92.5036 66.3091 91.8955C65.8691 91.6191 65.5073 91.2615 65.1754 90.836C65.168 90.8629 65.1605 90.8897 65.1529 90.9163C64.9698 91.5518 64.6935 92.1358 64.2189 92.6109C63.2739 93.5571 61.7731 93.8454 59.5817 93.8454C57.0278 93.8454 54.4279 92.0537 52.4647 89.1837C50.4811 86.2838 49.0529 82.1651 48.8639 77.2026C48.8487 76.8041 49.1316 76.4561 49.5248 76.3896C56.1265 75.2731 59.4287 74.1753 65.2657 72.0593ZM50.4859 77.8355C50.7649 82.2186 52.0694 85.7933 53.7753 88.2872C55.5906 90.941 57.7687 92.2575 59.5817 92.2575C61.7569 92.2575 62.6467 91.9382 63.0954 91.4888C63.3178 91.2662 63.4891 90.9555 63.627 90.4768C63.7678 89.9878 63.8591 89.3787 63.9541 88.5898C63.995 88.2506 64.2482 87.9756 64.5828 87.907C64.9175 87.8383 65.2585 87.9914 65.4296 88.2871C66.1848 89.5923 66.5903 90.1969 67.1538 90.5509C67.7048 90.8971 68.5214 91.0666 70.3 91.0666C71.7048 91.0666 73.7825 89.8654 75.7157 87.2251C77.5106 84.7736 79.0772 81.2069 79.7303 76.6735C72.2707 75.7605 69.1734 75.0494 65.5274 73.6533C60.0188 75.647 56.6606 76.7541 50.4859 77.8355Z" fill="black"></path><path fill-rule="evenodd" clip-rule="evenodd" d="M49.6057 5.17975C49.6903 5.32075 49.6446 5.50364 49.5036 5.58824C48.806 6.00678 48.0881 6.38463 47.3774 6.75521C47.3231 6.78356 47.2688 6.81186 47.2145 6.84013C46.557 7.18269 45.9076 7.52111 45.2761 7.88667C44.6129 8.27065 44.167 8.86721 43.7379 9.54666C43.6541 9.67925 43.5705 9.81608 43.4856 9.95496C43.147 10.509 42.7885 11.0955 42.3238 11.5739C42.2092 11.6918 42.0207 11.6945 41.9028 11.58C41.7848 11.4654 41.7821 11.2769 41.8967 11.1589C42.3105 10.733 42.6244 10.2202 42.9594 9.67308C43.0488 9.52705 43.1397 9.37857 43.2344 9.22865C43.6726 8.53501 44.1824 7.83185 44.9778 7.37134C45.6212 6.99881 46.2822 6.65445 46.9373 6.3131C46.9923 6.28445 47.0472 6.25583 47.1021 6.22721C47.8134 5.85634 48.5167 5.48592 49.1972 5.07763C49.3382 4.99303 49.5211 5.03875 49.6057 5.17975Z" fill="white" fill-opacity="0.23"></path><path fill-rule="evenodd" clip-rule="evenodd" d="M69.5142 42.1045C69.4648 41.2289 70.1346 40.479 71.0102 40.4297C75.8472 40.1568 79.4285 39.9681 82.0361 40.2325C84.7149 40.5041 86.7391 41.2893 88.0849 43.2611C88.5793 43.9854 88.393 44.9734 87.6686 45.4678C86.9443 45.9622 85.9563 45.7758 85.4619 45.0515C84.8666 44.1793 83.9437 43.618 81.7158 43.3921C79.4167 43.159 76.1317 43.3216 71.189 43.6004C70.3134 43.6498 69.5636 42.9801 69.5142 42.1045Z" fill="black"></path><path d="M74.2707 77.5883C66.2488 77.4541 61.9906 78.0745 54.4219 79.2742C54.4219 79.2742 54.4219 86.0613 64.0041 86.2985C74.2707 86.5527 74.2707 77.5883 74.2707 77.5883Z" fill="black"></path><path fill-rule="evenodd" clip-rule="evenodd" d="M54.8432 79.6077C54.8627 79.7725 54.8968 79.9906 54.9567 80.2465C55.0978 80.8496 55.3801 81.6564 55.9444 82.4696C57.059 84.0763 59.3276 85.7842 64.0124 85.9002C66.52 85.9623 68.3726 85.4613 69.7448 84.6965C71.1168 83.9318 72.031 82.8908 72.6427 81.8379C73.2558 80.7823 73.5643 79.7151 73.719 78.9088C73.792 78.5281 73.8303 78.2078 73.8503 77.9775C66.2531 77.8734 62.0508 78.4673 54.8432 79.6077ZM74.2693 77.5869H74.6662V77.1965L74.2759 77.1899C66.2195 77.0552 61.9347 77.6798 54.3583 78.8806L54.0234 78.9337V79.2727H54.4204C54.0234 79.2727 54.0234 79.273 54.0234 79.2733L54.0234 79.2741L54.0234 79.2761L54.0235 79.2821L54.0238 79.3012C54.0242 79.3172 54.0249 79.3394 54.0262 79.3676C54.0289 79.424 54.034 79.5041 54.0441 79.6045C54.0643 79.8054 54.1043 80.0885 54.1836 80.4273C54.342 81.1042 54.6585 82.009 55.292 82.9222C56.5729 84.7684 59.0955 86.5726 63.9928 86.6939C66.6186 86.7589 68.6159 86.2346 70.1313 85.3901C71.6467 84.5454 72.6575 83.3931 73.3292 82.2367C73.9994 81.0829 74.3325 79.9249 74.4987 79.0583C74.582 78.6242 74.6238 78.2607 74.6449 78.004C74.6554 77.8755 74.6607 77.7736 74.6634 77.7026C74.6648 77.6671 74.6655 77.6394 74.6659 77.6199L74.6662 77.597L74.6662 77.5903L74.6662 77.5882L74.6662 77.5874C74.6662 77.5871 74.6662 77.5869 74.2693 77.5869Z" fill="black"></path><path fill-rule="evenodd" clip-rule="evenodd" d="M60.6566 41.8059C60.7364 40.9325 60.0932 40.1599 59.2198 40.08C54.651 39.6625 51.2485 39.3644 48.7468 39.5506C46.1552 39.7435 44.1815 40.4809 42.8107 42.4015C42.3012 43.1153 42.4668 44.107 43.1806 44.6165C43.8944 45.126 44.8861 44.9603 45.3956 44.2465C46.0073 43.3895 46.8957 42.873 48.9825 42.7177C51.1593 42.5557 54.2517 42.8151 58.9308 43.2427C59.8041 43.3225 60.5768 42.6792 60.6566 41.8059Z" fill="black"></path><path d="M67.9164 69.0135C70.2655 67.9804 73.8711 71.7924 73.8711 71.7924L73.8395 71.7772C71.113 70.4713 69.574 69.7342 66.3285 70.2045C66.3285 70.2045 67.2069 69.3256 67.9164 69.0135Z" fill="white" fill-opacity="0.15"></path><path d="M83.5291 91.8753C84.7592 94.1274 81.2692 98.0456 81.2692 98.0456L81.2816 98.0128C82.3497 95.1847 82.9527 93.5883 82.2068 90.3949C82.2068 90.3949 83.1575 91.195 83.5291 91.8753Z" fill="white" fill-opacity="0.08"></path><path d="M44.7896 92.9921C42.981 95.7321 51.9723 97.6742 51.9723 97.6742L51.9333 97.6495C48.5715 95.5198 46.6738 94.3176 47.0858 90.9334C47.0858 90.9334 45.3359 92.1645 44.7896 92.9921Z" fill="white" fill-opacity="0.08"></path><path d="M82.209 52.9048C82.209 54.878 81.1426 56.4776 79.8272 56.4776C78.5117 56.4776 77.4453 54.878 77.4453 52.9048C77.4453 50.9316 78.5117 49.332 79.8272 49.332C81.1426 49.332 82.209 50.9316 82.209 52.9048Z" fill="black"></path><path d="M53.627 53.6939C53.627 55.6671 52.5606 57.2667 51.2451 57.2667C49.9297 57.2667 48.8633 55.6671 48.8633 53.6939C48.8633 51.7207 49.9297 50.1211 51.2451 50.1211C52.5606 50.1211 53.627 51.7207 53.627 53.6939Z" fill="black"></path></g><path fill-rule="evenodd" clip-rule="evenodd" d="M69.5453 323.336C60.9599 323.336 54 316.376 54 307.791V163.738C54 155.152 60.9599 148.192 69.5453 148.192H76.2826V100.001L124.474 148.192H318.27C326.855 148.192 333.815 155.152 333.815 163.738V307.791C333.815 316.376 326.855 323.336 318.27 323.336H69.5453Z" fill="white"></path><path d="M76.2826 148.192H77.2826V149.192H76.2826V148.192ZM76.2826 100.001H75.2826V97.5868L76.9897 99.2939L76.2826 100.001ZM124.474 148.192V149.192H124.06L123.767 148.9L124.474 148.192ZM55 307.791C55 315.824 61.5121 322.336 69.5453 322.336V324.336C60.4076 324.336 53 316.928 53 307.791H55ZM55 163.738V307.791H53V163.738H55ZM69.5453 149.192C61.5121 149.192 55 155.705 55 163.738H53C53 154.6 60.4076 147.192 69.5453 147.192V149.192ZM76.2826 149.192H69.5453V147.192H76.2826V149.192ZM77.2826 100.001V148.192H75.2826V100.001H77.2826ZM123.767 148.9L75.5755 100.708L76.9897 99.2939L125.181 147.485L123.767 148.9ZM318.27 149.192H124.474V147.192H318.27V149.192ZM332.815 163.738C332.815 155.705 326.303 149.192 318.27 149.192V147.192C327.407 147.192 334.815 154.6 334.815 163.738H332.815ZM332.815 307.791V163.738H334.815V307.791H332.815ZM318.27 322.336C326.303 322.336 332.815 315.824 332.815 307.791H334.815C334.815 316.928 327.407 324.336 318.27 324.336V322.336ZM69.5453 322.336H318.27V324.336H69.5453V322.336Z" fill="black"></path></svg>