<svg width="335" height="326" viewBox="0 0 335 326" fill="none" xmlns="http://www.w3.org/2000/svg"><ellipse cx="65.5363" cy="65.6345" rx="65.5363" ry="65.6345" fill="#FFF1AB"></ellipse><mask id="mask0" mask-type="alpha" maskUnits="userSpaceOnUse" x="0" y="0" width="132" height="132"><ellipse cx="65.5363" cy="65.6345" rx="65.5363" ry="65.6345" fill="#FBE5E5"></ellipse></mask><g mask="url(#mask0)"><path d="M90.4511 116.007L43.6238 115.954C41.6713 116.038 39.8055 116.136 38.0214 116.251C1.54258 118.605 -0.736185 127.802 -10.2441 153.035L141.418 154.77C131.425 129.986 131.321 120.572 98.0777 116.744C95.7089 116.471 93.1719 116.226 90.4511 116.007Z" fill="#E4E4E4"></path><path fill-rule="evenodd" clip-rule="evenodd" d="M90.4852 115.196L90.5173 115.199C93.2458 115.419 95.792 115.664 98.1713 115.938C114.836 117.858 123.428 121.195 129.065 127.351C131.869 130.413 133.901 134.128 135.849 138.587C137.012 141.249 138.163 144.221 139.433 147.5C140.28 149.686 141.179 152.008 142.171 154.468L142.627 155.598L-11.4111 153.835L-11.002 152.749C-10.6995 151.947 -10.404 151.159 -10.1142 150.387C-8.1338 145.109 -6.41866 140.539 -4.55221 136.625C-2.40662 132.125 -0.0353768 128.434 3.23022 125.464C9.76827 119.516 19.7077 116.621 37.9703 115.442C39.7608 115.327 41.6325 115.228 43.5902 115.144L43.6079 115.143L90.4852 115.196ZM43.6417 116.768C41.7008 116.851 39.8467 116.949 38.0746 117.064C19.8583 118.239 10.4189 121.119 4.3209 126.666C1.26845 129.443 -0.992661 132.93 -3.08841 137.325C-4.92236 141.171 -6.61 145.668 -8.59458 150.956C-8.75301 151.378 -8.91333 151.805 -9.07577 152.237L140.213 153.946C139.38 151.857 138.619 149.89 137.9 148.034C136.643 144.788 135.516 141.878 134.363 139.238C132.443 134.843 130.497 131.318 127.87 128.449C122.647 122.746 114.565 119.462 97.986 117.552C95.6371 117.282 93.12 117.039 90.419 116.82L43.6417 116.768Z" fill="black"></path><path fill-rule="evenodd" clip-rule="evenodd" d="M87.4738 123.417C81.8666 126.36 74.3616 129.387 66.9556 129.536C59.5094 129.687 52.5278 126.521 47.4542 123.374C44.9086 121.795 42.822 120.208 41.3707 119.014C40.6447 118.417 40.0766 117.918 39.6885 117.566C39.4944 117.391 39.3453 117.252 39.2438 117.156C39.1931 117.108 39.1542 117.071 39.1276 117.045L39.097 117.016L39.0887 117.008L39.0855 117.005C39.0852 117.004 39.085 117.004 39.6523 116.423C40.2196 115.843 40.2195 115.843 40.2194 115.843L40.2206 115.844L40.2263 115.849L40.2515 115.874C40.2745 115.896 40.3095 115.929 40.3564 115.974C40.4502 116.062 40.5912 116.194 40.7766 116.362C41.1475 116.698 41.696 117.18 42.4001 117.759C43.8091 118.917 45.8369 120.46 48.3083 121.993C53.2684 125.069 59.9303 128.053 66.9229 127.912C73.9556 127.77 81.1941 124.879 86.7207 121.978C89.4743 120.532 91.7824 119.095 93.401 118.02C94.21 117.483 94.846 117.037 95.2783 116.726C95.4944 116.57 95.6596 116.449 95.77 116.366C95.8252 116.325 95.8667 116.294 95.894 116.274L95.9243 116.251L95.9314 116.245L95.9329 116.244C95.9328 116.244 95.933 116.244 96.4262 116.889C96.9194 117.534 96.9192 117.534 96.919 117.534L96.9182 117.535L96.9062 117.544L96.8712 117.57C96.8407 117.593 96.7959 117.627 96.7374 117.671C96.6203 117.758 96.4481 117.884 96.2245 118.045C95.7775 118.367 95.125 118.825 94.2976 119.374C92.6435 120.473 90.287 121.94 87.4738 123.417Z" fill="black"></path><path d="M45.125 116.459L47.9638 86.8906L84.9003 90.4047L89.4458 116.459C70.9446 128.075 61.2472 127.999 45.125 116.459Z" fill="#8B5A44"></path><path fill-rule="evenodd" clip-rule="evenodd" d="M47.2345 86.0039L85.5934 89.6533L90.3392 116.856L89.8772 117.146C80.5927 122.975 73.3809 125.963 66.3927 125.954C59.3886 125.944 52.7641 122.924 44.6539 117.118L44.2734 116.846L47.2345 86.0039ZM48.6941 87.7747L45.9778 116.068C53.8089 121.619 59.9978 124.32 66.395 124.329C72.8019 124.338 79.5677 121.649 88.5534 116.058L84.2084 91.1535L48.6941 87.7747Z" fill="black"></path><path d="M98.8677 59.4205C98.4043 57.7643 98.5233 56.6256 95.5136 56.8629L93.8113 74.3654C97.4811 72.1543 97.8314 67.6689 98.8677 59.4205Z" fill="#B47D65"></path><path fill-rule="evenodd" clip-rule="evenodd" d="M96.2606 57.6348L94.8151 72.4975C95.5825 71.6186 96.1206 70.4723 96.5428 68.9548C97.124 66.8664 97.4563 64.1906 97.8887 60.7095C97.9379 60.3137 97.9884 59.9074 98.0406 59.4903C98.0015 59.3432 97.9665 59.2023 97.9344 59.0726C97.9307 59.0579 97.9271 59.0433 97.9235 59.0289C97.8761 58.8379 97.8353 58.6763 97.7911 58.5293C97.7014 58.2312 97.6182 58.068 97.526 57.9625C97.4128 57.8333 97.148 57.639 96.2606 57.6348ZM99.5211 58.6561C99.5653 58.8344 99.6085 59.0083 99.6588 59.1882L99.7017 59.3416L99.6818 59.5006C99.6224 59.9734 99.5651 60.4351 99.5092 60.8859C99.0819 64.3316 98.7335 67.1401 98.1179 69.3527C97.4103 71.8955 96.3138 73.7926 94.2299 75.0482L92.8477 75.881L94.7705 56.111L95.4681 56.056C97.0217 55.9335 98.1013 56.1285 98.7716 56.8943C99.0837 57.251 99.2458 57.6681 99.3583 58.0419C99.4151 58.2309 99.4645 58.4281 99.511 58.6154C99.5144 58.629 99.5178 58.6426 99.5211 58.6561Z" fill="black"></path><path d="M32.085 60.3103C32.3068 58.6738 32.0716 57.5587 34.7652 57.7227L38.2681 74.8652C34.7648 72.7788 33.9432 68.3836 32.085 60.3103Z" fill="#B47D65"></path><path fill-rule="evenodd" clip-rule="evenodd" d="M34.0949 58.5114L36.9968 72.7121C36.3454 71.9051 35.8145 70.8807 35.3317 69.5746C34.5759 67.5299 33.9746 64.9026 33.1954 61.4977C33.1055 61.1052 33.0133 60.7024 32.9183 60.2889C32.9367 60.1403 32.9519 59.9979 32.966 59.867C32.9675 59.8525 32.9691 59.8381 32.9706 59.8239C32.9908 59.6353 33.0087 59.4752 33.0311 59.3294C33.0775 59.0286 33.1329 58.8759 33.1917 58.7868C33.2346 58.7218 33.3699 58.5392 34.0949 58.5114ZM31.3342 59.6584C31.3153 59.8344 31.2968 60.0064 31.2727 60.1844L31.2535 60.3263L31.2859 60.467C31.3924 60.9297 31.4957 61.3815 31.5965 61.8224C32.3684 65.1973 32.9952 67.9381 33.7899 70.0881C34.6985 72.5461 35.8717 74.3655 37.8551 75.5467L39.4338 76.4869L35.4435 56.9594L34.7976 56.92C33.3981 56.8348 32.3649 57.0479 31.807 57.8928C31.5602 58.2665 31.4644 58.6892 31.4083 59.0526C31.3796 59.2389 31.3583 59.4332 31.3385 59.6181C31.337 59.6316 31.3356 59.645 31.3342 59.6584Z" fill="black"></path><path d="M34.8865 32.2026C56.9667 27.7441 72.5128 27.611 95.3882 32.2026C95.3882 55.1814 96.0512 72.8696 90.5154 86.1517C86.2629 96.3548 73.1878 103.54 66.5585 103.54C59.9292 103.54 46.0538 94.3982 40.9774 84.3019C34.1422 70.7077 34.1875 54.4561 34.8865 32.2026Z" fill="#B47D65"></path><path fill-rule="evenodd" clip-rule="evenodd" d="M34.7296 31.41C56.9139 26.9305 72.5688 26.7968 95.5509 31.4098L96.2026 31.5406V32.2063C96.2026 34.4701 96.2091 36.6848 96.2154 38.8505C96.2412 47.6555 96.2645 55.6528 95.8407 62.8648C95.3124 71.8555 94.0866 79.7037 91.2672 86.4683C89.0588 91.767 84.5907 96.2266 79.8796 99.3527C75.1858 102.467 70.1015 104.356 66.5618 104.356C64.7432 104.356 62.5139 103.736 60.1564 102.701C57.7841 101.66 55.2203 100.172 52.7158 98.3704C47.7196 94.7769 42.8729 89.8751 40.2563 84.671C33.312 70.8598 33.3816 54.3892 34.0792 32.1807L34.0994 31.5372L34.7296 31.41ZM35.6804 32.8761C35.0003 54.8398 35.044 70.6922 41.7051 83.9403C44.1649 88.8325 48.7941 93.5495 53.662 97.0508C56.0896 98.7968 58.555 100.225 60.8074 101.213C63.0747 102.208 65.0658 102.731 66.5618 102.731C69.6515 102.731 74.4194 101.027 78.9836 97.9984C83.5305 94.9813 87.7262 90.7469 89.7703 85.8425C92.4867 79.325 93.6973 71.688 94.2214 62.7694C94.642 55.6124 94.6189 47.6801 94.5932 38.8809C94.5875 36.9215 94.5817 34.9192 94.5806 32.8728C72.3845 28.4784 57.1137 28.6046 35.6804 32.8761Z" fill="black"></path><path d="M43.0975 32.0603C42.9495 40.866 40.9427 46.182 34.581 56.8352C31.4813 53.9191 28.7772 15.1824 40.4526 19.0081C46.0594 5.18941 66.6095 4.58354 83.0336 14.945C92.3376 18.9468 96.0804 21.8724 96.2231 30.0295C100.723 40.9695 99.1983 46.2493 96.2231 55.6168C90.6275 43.4268 88.8722 36.5208 91.3567 32.0603C83.657 38.1834 60.822 34.2934 43.0975 32.0603Z" fill="#0D0D0D"></path><path fill-rule="evenodd" clip-rule="evenodd" d="M83.4105 14.2235C88.0307 16.2134 91.4183 17.9951 93.653 20.372C95.9177 22.7809 96.934 25.7249 97.0296 29.8612C99.2668 35.3384 100.031 39.4777 99.8351 43.4528C99.6384 47.434 98.4769 51.1958 96.9946 55.8628C96.8931 56.1825 96.6059 56.4068 96.2716 56.4274C95.9373 56.448 95.6247 56.2607 95.4848 55.9559C92.6821 49.8504 90.8132 45.0104 89.9659 41.1126C89.3662 38.3536 89.2656 36.0091 89.7463 33.9968C87.905 34.8765 85.6604 35.4337 83.1648 35.7627C79.5933 36.2335 75.4069 36.2491 70.9407 36.0048C63.9599 35.6228 56.2051 34.5988 48.9318 33.6384C47.2173 33.4119 45.5294 33.1891 43.8849 32.979C43.7531 37.0409 43.1908 40.428 41.9335 44.0233C40.59 47.8647 38.4632 51.9142 35.2757 57.2519C35.1497 57.4629 34.935 57.6054 34.6919 57.6395C34.4487 57.6735 34.2033 57.5954 34.0243 57.4271C33.7038 57.1255 33.4583 56.6744 33.2595 56.2042C33.0518 55.7126 32.858 55.1083 32.6784 54.4211C32.3188 53.045 31.999 51.2704 31.7429 49.2591C31.2305 45.2341 30.9644 40.1925 31.1643 35.3597C31.3634 30.548 32.0273 25.8532 33.4265 22.5751C34.1259 20.9364 35.0456 19.564 36.267 18.7413C37.3461 18.0144 38.5966 17.7602 39.982 18.0434C43.0756 11.1973 49.7767 7.67919 57.6254 7.09872C65.6972 6.50175 75.0878 8.98779 83.4105 14.2235ZM57.7449 8.71889C50.0588 9.28733 43.8557 12.7746 41.2026 19.3137C41.0422 19.709 40.6038 19.9126 40.199 19.7799C38.9548 19.3723 37.9837 19.5428 37.1723 20.0893C36.3189 20.6642 35.5586 21.7132 34.9181 23.2136C33.6375 26.2138 32.982 30.6682 32.7851 35.4269C32.5891 40.1646 32.8506 45.1148 33.3521 49.0536C33.6029 51.0241 33.9118 52.7244 34.2477 54.0098C34.3672 54.467 34.488 54.8635 34.6077 55.1961C37.3747 50.4888 39.2157 46.8797 40.4025 43.4863C41.6837 39.8226 42.2122 36.3809 42.2851 32.0464C42.289 31.8157 42.3906 31.5976 42.5646 31.4464C42.7387 31.2953 42.9687 31.2253 43.1973 31.2541C45.1437 31.4994 47.1474 31.7639 49.1829 32.0327C56.4477 32.9918 64.1171 34.0044 71.0292 34.3826C75.4498 34.6245 79.5236 34.6041 82.9531 34.152C86.4002 33.6975 89.0969 32.8188 90.8509 31.424C91.1541 31.1828 91.5853 31.19 91.8804 31.441C92.1755 31.6921 92.2522 32.1171 92.0636 32.4558C90.9582 34.4403 90.7433 37.0516 91.551 40.767C92.2715 44.082 93.7859 48.1842 96.0855 53.3474C97.2451 49.6083 98.0577 46.5534 98.2149 43.3725C98.3981 39.665 97.69 35.7313 95.4718 30.3388C95.4332 30.245 95.4125 30.1449 95.4108 30.0436C95.3418 26.1038 94.4123 23.5495 92.4719 21.4857C90.4829 19.37 87.3661 17.693 82.7121 15.6912C82.6732 15.6744 82.6357 15.6547 82.5999 15.6321C74.5118 10.5296 65.4384 8.1499 57.7449 8.71889Z" fill="black"></path><path fill-rule="evenodd" clip-rule="evenodd" d="M51.6367 95.0591C56.0628 97.8689 61.4016 99.1511 67.751 98.5016C77.2639 97.5286 84.0974 93.9967 88.8784 88.2227C84.2322 97.5305 77.4834 103.023 68.3167 103.514C61.7255 103.867 56.1488 100.711 51.6367 95.0591Z" fill="#481600" fill-opacity="0.3"></path><path d="M40.2971 57.3165C40.3811 52.6043 40.4141 53.55 42.5204 48.1797C42.7083 47.7004 43.1109 47.3316 43.6065 47.1947L51.1419 45.1132C51.2824 45.0744 51.4275 45.0547 51.5733 45.0547H60.5836C61.8213 45.0596 62.4473 45.169 62.9694 45.5838C63.1514 45.7284 63.2686 45.9362 63.3452 46.1559L63.595 46.8724C63.7168 47.2219 63.7093 47.6012 63.6132 47.9586C63.0286 50.1328 63.5601 52.1856 63.229 56.584L62.7943 59.4665C62.5352 61.1845 61.9081 60.4461 60.3204 59.7458C60.1704 59.6796 60.0674 59.6267 59.9301 59.537C56.0567 57.0039 48.0683 58.0862 42.152 58.9568C41.1615 59.1026 40.2793 58.3191 40.2971 57.3165Z" fill="#481600" fill-opacity="0.3"></path><path d="M91.324 57.3165C91.24 52.6043 91.207 53.55 89.1007 48.1797C88.9127 47.7004 88.5102 47.3316 88.0146 47.1947L80.4792 45.1132C80.3387 45.0744 80.1936 45.0547 80.0478 45.0547H71.0375C69.7998 45.0596 69.1738 45.169 68.6517 45.5838C68.4697 45.7284 68.3525 45.9362 68.2759 46.1559L68.0261 46.8724C67.9043 47.2219 67.9118 47.6012 68.0079 47.9586C68.5925 50.1328 68.061 52.1856 68.3921 56.584L68.8268 59.4665C69.0859 61.1845 69.713 60.4461 71.3007 59.7458C71.4507 59.6796 71.5537 59.6267 71.691 59.537C75.5644 57.0039 83.5528 58.0862 89.4691 58.9568C90.4596 59.1026 91.3418 58.3191 91.324 57.3165Z" fill="#481600" fill-opacity="0.3"></path><path d="M77.9271 83.9928C71.0368 85.0171 65.0999 85.4403 55.052 82.7832C55.052 82.7832 58.3814 89.115 66.3606 89.537C75.6696 90.0292 77.9271 83.9928 77.9271 83.9928Z" fill="black"></path><path fill-rule="evenodd" clip-rule="evenodd" d="M78.3049 84.1342L77.9251 83.9917C78.3049 84.1342 78.3048 84.1344 78.3047 84.1347L78.3044 84.1355L78.3037 84.1373L78.3017 84.1427L78.2949 84.1598C78.2892 84.1741 78.2811 84.1939 78.2705 84.2189C78.2491 84.2689 78.2175 84.3397 78.1745 84.4282C78.0884 84.605 77.9562 84.8527 77.7684 85.1463C77.3929 85.7334 76.7936 86.5055 75.893 87.2599C74.0834 88.7758 71.0902 90.1928 66.3372 89.9414C62.236 89.7246 59.3245 87.9865 57.4421 86.3037C56.5019 85.4632 55.8175 84.636 55.3672 84.0172C55.1419 83.7076 54.9747 83.4496 54.863 83.2674C54.8072 83.1763 54.7651 83.104 54.7366 83.0537C54.7224 83.0285 54.7115 83.0088 54.7039 82.995L54.6951 82.9786L54.6925 82.9738L54.6917 82.9722L54.6914 82.9717C54.6913 82.9715 54.6912 82.9713 55.05 82.782L54.6912 82.9713C54.6162 82.8287 54.6325 82.6552 54.7327 82.5292C54.8328 82.4031 54.998 82.3482 55.1535 82.3894C65.1343 85.0288 71.0132 84.6086 77.8656 83.59C78.0076 83.5689 78.1502 83.6245 78.2405 83.7364C78.3308 83.8482 78.3553 83.9995 78.3049 84.1342ZM55.9461 83.4324C55.9707 83.467 55.9962 83.5025 56.0226 83.5388C56.4459 84.1204 57.0926 84.9025 57.9822 85.6977C59.7592 87.2863 62.5021 88.9252 66.38 89.1303C70.9361 89.3712 73.7261 88.0161 75.3726 86.6368C76.2 85.9437 76.7468 85.2375 77.0855 84.7081C77.1306 84.6376 77.172 84.5702 77.2099 84.5065C70.8307 85.4182 65.0942 85.728 55.9461 83.4324Z" fill="black"></path><path fill-rule="evenodd" clip-rule="evenodd" d="M67.0177 49.1265C66.5748 49.1937 66.2702 49.6078 66.3374 50.0514C67.2612 56.1528 67.873 61.8943 67.873 68.305C67.873 68.5909 68.0231 68.8557 68.2682 69.0024C68.5133 69.149 68.8172 69.1558 69.0686 69.0202C69.7887 68.632 70.4364 68.5704 70.8892 68.6692C71.3218 68.7636 71.5323 68.9823 71.6058 69.1843C71.6562 69.4585 71.7048 69.699 71.7456 69.9013C71.7652 69.9984 71.783 70.0867 71.7985 70.1658C71.8506 70.433 71.8782 70.6091 71.8868 70.7688C71.9023 71.0584 71.861 71.3711 71.6198 72.1469C71.3169 73.1208 70.057 73.4457 69.2815 72.6001C69.0929 72.3944 68.812 72.3002 68.5377 72.3506C68.2635 72.401 68.0343 72.5889 67.9309 72.8482C67.664 73.5174 67.4461 73.8092 67.2382 73.9693C67.0351 74.1257 66.7394 74.2358 66.1239 74.3032C65.6786 74.352 65.357 74.753 65.4057 75.199C65.4544 75.6449 65.8548 75.9669 66.3001 75.9182C67.0154 75.8399 67.6698 75.6864 68.2271 75.2571C68.5324 75.0219 68.7768 74.7286 68.9858 74.3841C70.5639 75.1815 72.5943 74.4764 73.1685 72.63C73.4248 71.8059 73.5381 71.2678 73.5066 70.6814C73.4916 70.403 73.4452 70.1347 73.3905 69.8544C73.3716 69.7574 73.3519 69.6597 73.3312 69.5571C73.2892 69.3494 73.2432 69.1217 73.192 68.8401C73.1867 68.8112 73.1799 68.7827 73.1716 68.7547C72.9018 67.8432 72.1191 67.2748 71.2345 67.0818C70.695 66.9641 70.0989 66.9767 69.4884 67.1265C69.4185 61.077 68.8158 55.5839 67.9412 49.8078C67.8741 49.3643 67.4606 49.0592 67.0177 49.1265Z" fill="black"></path><path fill-rule="evenodd" clip-rule="evenodd" d="M64.317 49.1283C64.7589 49.2016 65.0577 49.6199 64.9845 50.0625C63.9747 56.1619 63.3064 61.8994 63.3064 68.305C63.3064 68.5857 63.1618 68.8464 62.9239 68.9947C62.6859 69.143 62.3884 69.1577 62.137 69.0337C61.3309 68.6362 60.5888 68.5655 60.0543 68.6722C59.5359 68.7756 59.3003 69.0146 59.223 69.2029C59.1681 69.4755 59.1152 69.7154 59.0708 69.9166C59.0494 70.0135 59.03 70.1014 59.0133 70.1797C58.9564 70.4465 58.9271 70.6186 58.9181 70.7728C58.9019 71.0486 58.9433 71.3514 59.2069 72.1266C59.5315 73.0812 61.0012 73.4933 61.923 72.574C62.1128 72.3847 62.3837 72.3015 62.6468 72.3516C62.91 72.4017 63.1314 72.5786 63.2386 72.8245C63.4479 73.3043 63.83 73.6334 64.3684 73.8688C64.9219 74.1107 65.5956 74.2324 66.2955 74.3025C66.7412 74.3471 67.0664 74.7451 67.0218 75.1915C66.9773 75.6379 66.5798 75.9636 66.1341 75.919C65.3791 75.8434 64.5057 75.7014 63.7195 75.3577C63.1864 75.1246 62.6758 74.7904 62.2713 74.3118C60.5923 75.1982 58.3235 74.5684 57.6713 72.6503C57.3909 71.8256 57.2634 71.2777 57.2987 70.6773C57.3154 70.3936 57.367 70.1212 57.4269 69.8405C57.4477 69.7427 57.4694 69.6447 57.4921 69.5419C57.5379 69.3345 57.588 69.108 57.6438 68.827C57.65 68.7959 57.658 68.7652 57.6677 68.7351C57.9686 67.8056 58.8213 67.2617 59.7373 67.0789C60.3346 66.9597 61.0033 66.9787 61.6914 67.1485C61.7665 61.0853 62.4264 55.582 63.3841 49.7968C63.4574 49.3542 63.875 49.0549 64.317 49.1283Z" fill="black"></path><path d="M86.0834 58.8633C81.0025 59.2757 78.1813 59.4408 73.5117 58.8633L76.756 64.1432H83.2447L86.0834 58.8633Z" fill="#B47D65"></path><path d="M45.9361 58.8633C51.017 59.2757 53.8382 59.4408 58.5078 58.8633L55.2635 64.1432H48.7749L45.9361 58.8633Z" fill="#B47D65"></path><path fill-rule="evenodd" clip-rule="evenodd" d="M59.3228 70.1416C59.3217 70.1536 59.3208 70.1668 59.3205 70.18C59.3203 70.1882 59.32 70.2044 59.3215 70.2242C59.3222 70.2341 59.3237 70.2505 59.3274 70.2704C59.3304 70.2865 59.3384 70.3255 59.36 70.371C59.3764 70.4057 59.438 70.5245 59.5886 70.5791C59.5948 70.5814 59.601 70.5835 59.6071 70.5854C59.6419 70.6348 59.7204 70.7235 59.8598 70.7529C60.0306 70.7889 60.1561 70.7091 60.2079 70.6661C60.2591 70.6236 60.2884 70.5783 60.3002 70.5592C60.339 70.4961 60.3624 70.4195 60.3714 70.3902C60.3718 70.3888 60.3722 70.3875 60.3726 70.3863C60.3844 70.348 60.3973 70.3018 60.4098 70.2576C60.4115 70.2514 60.4132 70.2452 60.4149 70.2391C60.4255 70.2016 60.4364 70.1633 60.4478 70.1248C60.4567 70.1219 60.4655 70.1192 60.4742 70.1168C60.5795 70.0876 60.6963 70.0886 60.8692 70.1706C61.1261 70.2923 61.1973 70.4277 61.3819 70.7785C61.3941 70.8017 61.4068 70.8258 61.42 70.8509C61.4873 71.0329 61.5473 71.2289 61.6045 71.4567C61.6428 71.6091 61.6747 71.7267 61.7007 71.8141C61.7233 71.8899 61.7498 71.9723 61.7806 72.0325C61.7881 72.0472 61.808 72.0853 61.8419 72.1247C61.8583 72.1438 61.8949 72.1833 61.9533 72.2161C62.0157 72.2512 62.1302 72.2923 62.2671 72.2526C62.3984 72.2146 62.47 72.125 62.5012 72.0745C62.5324 72.024 62.5455 71.978 62.5512 71.9555C62.5627 71.909 62.5641 71.8696 62.5645 71.8536C62.566 71.7894 62.5552 71.7139 62.5466 71.6604C62.5093 71.4297 62.3964 70.9488 62.2367 70.657C62.2093 70.6068 62.1827 70.5555 62.156 70.5035C62.0309 70.1772 61.885 69.8884 61.7038 69.5664C61.6454 69.4627 61.5622 69.3935 61.4984 69.3501C61.4307 69.304 61.3571 69.2681 61.2873 69.2401C61.2273 69.216 61.1634 69.195 61.0978 69.1773C61.0236 69.0817 60.9077 69.0201 60.7774 69.0201C60.7563 69.0201 60.7339 69.02 60.7105 69.0198C60.6172 69.0193 60.5085 69.0186 60.409 69.0261C60.2776 69.0359 60.1239 69.0613 59.9717 69.1367C59.9344 69.1552 59.899 69.1757 59.8654 69.1982C59.8579 69.1984 59.8503 69.1988 59.8427 69.1994C59.7781 69.2047 59.7244 69.2243 59.6838 69.2455C59.6086 69.2849 59.5634 69.3376 59.5434 69.3632C59.5021 69.4159 59.4787 69.4702 59.4683 69.4953C59.4436 69.5551 59.424 69.6244 59.4095 69.6813C59.3873 69.7685 59.367 69.8669 59.3518 69.9504C59.3269 70.011 59.3171 70.0767 59.3228 70.1416Z" fill="white" fill-opacity="0.29"></path><path fill-rule="evenodd" clip-rule="evenodd" d="M71.2251 69.4322C71.3312 69.5972 71.4123 69.8061 71.4751 70.0499C71.531 70.2672 71.4005 70.4886 71.1836 70.5446C71.1448 70.5547 71.1058 70.5587 71.0676 70.5573C70.9932 70.6435 70.8833 70.6981 70.7606 70.6981C70.7014 70.6981 70.6286 70.6947 70.5674 70.6918C70.5403 70.6906 70.5155 70.6894 70.4953 70.6887C70.4142 70.6859 70.3497 70.6867 70.2939 70.6942C70.1976 70.7071 70.1445 70.7349 70.0966 70.8067C70.0966 70.8067 70.0966 70.8067 70.0966 70.8068C70.0961 70.8075 70.0916 70.8147 70.0838 70.831C70.0757 70.8479 70.0662 70.87 70.0555 70.8976C70.034 70.9531 70.0114 71.0214 69.9895 71.0968C69.9454 71.2484 69.9093 71.409 69.8911 71.5161C69.8858 71.5476 69.8814 71.5821 69.8779 71.6167C69.8755 71.7381 69.8726 71.8168 69.8698 71.8615C69.869 71.8737 69.8678 71.8899 69.8659 71.9059L69.8658 71.9062C69.8652 71.9118 69.8628 71.9316 69.8573 71.955C69.8573 71.9552 69.8572 71.9554 69.8571 71.9557C69.8553 71.9636 69.8464 72.0021 69.8245 72.0458L69.8245 72.0459C69.816 72.0627 69.7817 72.1313 69.7054 72.1887C69.6616 72.2216 69.5929 72.259 69.5019 72.2681C69.407 72.2775 69.3231 72.2526 69.2594 72.2159C69.1533 72.1547 69.1087 72.065 69.0989 72.0454L69.0987 72.045C69.0827 72.0128 69.0745 71.9856 69.071 71.9732C69.0636 71.9468 69.0605 71.9253 69.0595 71.918C69.057 71.9 69.0561 71.8851 69.0558 71.8792C69.055 71.8646 69.0548 71.8501 69.0547 71.8392C69.0544 71.7865 69.0575 71.6838 69.0676 71.5709C69.0677 71.5643 69.0678 71.5576 69.0679 71.5507C69.0744 71.1653 69.16 70.7571 69.288 70.3927C69.415 70.0311 69.594 69.6834 69.8073 69.4316C69.995 69.2102 70.3413 68.9175 70.7673 69.0548C70.97 69.1201 71.1187 69.2667 71.2251 69.4322ZM70.5031 69.8762C70.51 69.8765 70.5168 69.8767 70.5235 69.8769C70.5316 69.8772 70.5393 69.8775 70.5469 69.8778C70.5456 69.8758 70.5444 69.8739 70.5432 69.872C70.5387 69.865 70.5346 69.8589 70.5307 69.8536C70.5228 69.8594 70.5136 69.8669 70.5031 69.8762ZM70.5679 69.8327C70.5679 69.8329 70.5664 69.8335 70.5635 69.8339C70.5664 69.8328 70.5679 69.8325 70.5679 69.8327ZM70.502 69.8206C70.5015 69.8202 70.5012 69.82 70.5012 69.82Z" fill="white" fill-opacity="0.29"></path><path fill-rule="evenodd" clip-rule="evenodd" d="M49.9379 7.54637C50.0243 7.69063 49.9776 7.87774 49.8335 7.96429C49.1209 8.3925 48.3876 8.77909 47.6615 9.15822C47.606 9.18723 47.5505 9.21618 47.4951 9.24511C46.8234 9.59558 46.16 9.94181 45.5149 10.3158C44.8374 10.7087 44.3819 11.319 43.9434 12.0142C43.8579 12.1498 43.7724 12.2898 43.6857 12.4319C43.3398 12.9987 42.9736 13.5987 42.4989 14.0882C42.3818 14.2088 42.1893 14.2116 42.0688 14.0944C41.9483 13.9772 41.9455 13.7844 42.0626 13.6637C42.4853 13.2279 42.806 12.7032 43.1482 12.1435C43.2395 11.9941 43.3324 11.8422 43.4291 11.6888C43.8768 10.9791 44.3975 10.2597 45.2101 9.78858C45.8675 9.40745 46.5426 9.05514 47.2119 8.7059C47.2681 8.67659 47.3242 8.64731 47.3803 8.61803C48.1069 8.23859 48.8254 7.85961 49.5206 7.44189C49.6646 7.35534 49.8514 7.40212 49.9379 7.54637Z" fill="white" fill-opacity="0.23"></path><path fill-rule="evenodd" clip-rule="evenodd" d="M69.2014 46.6119C69.2058 45.254 70.2883 44.119 71.6194 44.0768C72.2978 44.0553 73.0651 44.018 73.8845 43.9782C75.6027 43.8947 77.5504 43.8001 79.3896 43.8161C82.1164 43.8399 85.1097 44.093 87.517 45.1595C88.7222 45.6935 89.2413 47.1391 88.6763 48.3883C88.1114 49.6374 86.6764 50.2172 85.4711 49.6831C83.9743 49.0199 81.7898 48.7583 79.183 48.7356C77.4696 48.7206 75.7908 48.803 74.1551 48.8833C73.2922 48.9257 72.4414 48.9675 71.6037 48.994C70.2727 49.0363 69.1971 47.9698 69.2014 46.6119Z" fill="black"></path><path fill-rule="evenodd" clip-rule="evenodd" d="M53.164 47.2609C56.0171 47.015 58.8642 47.3691 60.4071 48.0925C61.6334 48.6674 63.0481 48.1361 63.5669 46.9057C64.0857 45.6753 63.5123 44.2118 62.286 43.6369C59.6345 42.3937 55.8197 42.0812 52.5828 42.3602C50.9205 42.5035 49.2658 42.8137 47.8438 43.3185C46.5003 43.7954 45.0117 44.5682 44.1194 45.8779C43.3729 46.9737 43.6616 48.5123 44.7642 49.3147C45.8667 50.117 47.3657 49.8791 48.1122 48.7834C48.1734 48.6936 48.5411 48.3375 49.5768 47.9699C50.5339 47.6302 51.7812 47.3801 53.164 47.2609Z" fill="black"></path><path d="M56.3508 63.698C57.047 64.5329 57.196 65.5572 56.6835 65.9858C56.1711 66.4144 55.1912 66.085 54.495 65.2501C53.7988 64.4151 53.6498 63.3908 54.1622 62.9622C54.6747 62.5336 55.6545 62.863 56.3508 63.698Z" fill="#A16C55"></path><path d="M82.2258 56.7763C82.2258 59.0194 81.1365 60.8378 79.7926 60.8378C78.4488 60.8378 77.3594 59.0194 77.3594 56.7763C77.3594 54.5332 78.4488 52.7148 79.7926 52.7148C81.1365 52.7148 82.2258 54.5332 82.2258 56.7763Z" fill="black"></path><path d="M56.2688 56.7763C56.2688 59.0194 55.1794 60.8378 53.8356 60.8378C52.4917 60.8378 51.4023 59.0194 51.4023 56.7763C51.4023 54.5332 52.4917 52.7148 53.8356 52.7148C55.1794 52.7148 56.2688 54.5332 56.2688 56.7763Z" fill="black"></path></g><path fill-rule="evenodd" clip-rule="evenodd" d="M69.5812 324C60.9911 324 54.0273 317.026 54.0273 308.423V164.074C54.0273 155.471 60.9911 148.497 69.5812 148.497H76.3203V100.205L124.54 148.497H318.443C327.034 148.497 333.997 155.471 333.997 164.074V308.423C333.997 317.026 327.034 324 318.443 324H69.5812Z" fill="white"></path><path d="M76.3203 148.497H77.3203V149.497H76.3203V148.497ZM76.3203 100.205H75.3203V97.7878L77.028 99.498L76.3203 100.205ZM124.54 148.497V149.497H124.125L123.832 149.203L124.54 148.497ZM55.0273 308.423C55.0273 316.475 61.5448 323 69.5812 323V325C60.4374 325 53.0273 317.577 53.0273 308.423H55.0273ZM55.0273 164.074V308.423H53.0273V164.074H55.0273ZM69.5812 149.497C61.5448 149.497 55.0273 156.022 55.0273 164.074H53.0273C53.0273 154.92 60.4374 147.497 69.5812 147.497V149.497ZM76.3203 149.497H69.5812V147.497H76.3203V149.497ZM77.3203 100.205V148.497H75.3203V100.205H77.3203ZM123.832 149.203L75.6127 100.911L77.028 99.498L125.248 147.79L123.832 149.203ZM318.443 149.497H124.54V147.497H318.443V149.497ZM332.997 164.074C332.997 156.022 326.48 149.497 318.443 149.497V147.497C327.587 147.497 334.997 154.92 334.997 164.074H332.997ZM332.997 308.423V164.074H334.997V308.423H332.997ZM318.443 323C326.48 323 332.997 316.475 332.997 308.423H334.997C334.997 317.577 327.587 325 318.443 325V323ZM69.5812 323H318.443V325H69.5812V323Z" fill="black"></path></svg>