<svg width="335" height="325" viewBox="0 0 335 325" fill="none" xmlns="http://www.w3.org/2000/svg"><circle cx="65.5" cy="65.5" r="65.5" fill="#DAEBD0"></circle><mask id="mask0" mask-type="alpha" maskUnits="userSpaceOnUse" x="0" y="0" width="131" height="131"><circle cx="65.5" cy="65.5" r="65.5" fill="#FBE5E5"></circle></mask><g mask="url(#mask0)"><path d="M34.479 53.0342C33.4162 50.8139 34.0919 49.2581 35.648 46.4102L41.4927 30.4346C47.2075 29.0059 58.7152 26.1484 59.0269 26.1484C59.3386 26.1484 78.1197 28.4863 87.4712 29.6553L94.0953 35.5C97.2849 38.7963 97.3124 38.5382 95.654 42.9033C97.0484 44.1175 98.4263 47.1966 97.6021 49.1377C98.2157 53.3611 98.447 55.69 96.4332 58.8789C98.1945 61.0171 98.7432 62.2191 97.6021 64.334C99.4665 66.8783 100.16 68.249 97.6021 70.1787C99.7897 71.6318 101.089 72.3791 100.33 76.4131C101.801 80.1948 101.673 81.8175 99.5503 83.4268C101.543 86.345 101.895 88.011 101.109 90.8301C102.654 93.5746 102.402 95.0072 101.109 97.4541C104.115 100.025 104.362 101.468 103.447 104.078C105.105 106.983 105.878 108.606 104.616 111.481C108.166 114.676 108.604 116.873 107.733 121.223L28.2446 117.716C26.5001 114.545 26.2628 112.865 29.4136 110.313C28.6577 107.264 29.1816 105.946 31.3618 104.078C29.8002 100.886 30.1069 99.0876 31.3618 95.8956C29.319 93.6107 29.6945 92.338 31.3618 90.0508C30.8054 86.9851 31.4233 85.6505 32.9204 83.4268C31.4196 80.8238 31.3266 79.3103 32.9204 76.4131C31.008 70.459 31.7962 67.8089 34.479 63.5547C32.3581 59.5884 32.2965 57.2768 34.479 53.0342Z" fill="#452915"></path><path fill-rule="evenodd" clip-rule="evenodd" d="M58.8322 25.3865C58.8543 25.3825 58.9398 25.3672 59.0248 25.3672C59.079 25.3672 59.1481 25.3741 59.1784 25.3772L59.1842 25.3777C59.2336 25.3826 59.2993 25.3897 59.3788 25.3985C59.5385 25.4162 59.7629 25.4421 60.0442 25.4753C60.6074 25.5417 61.4043 25.6377 62.3799 25.7565C64.3313 25.994 67.0011 26.3228 69.9528 26.6882C75.8564 27.4188 82.8899 28.2955 87.5658 28.88L87.8045 28.9099L94.6319 34.934L94.6532 34.9561C94.7922 35.0997 94.9264 35.2378 95.0556 35.3708C95.6524 35.9849 96.1442 36.4909 96.513 36.9312C96.9682 37.4745 97.3122 38.0028 97.4514 38.63C97.5912 39.2596 97.502 39.8855 97.3066 40.5781C97.1434 41.1569 96.8847 41.8507 96.5614 42.7023C97.2253 43.4232 97.8166 44.433 98.1919 45.4839C98.6105 46.6561 98.8161 48.0389 98.4005 49.2254C98.6903 51.2324 98.8988 52.897 98.7778 54.4546C98.6622 55.9435 98.2491 57.3129 97.381 58.8124C98.0903 59.7095 98.632 60.5403 98.8586 61.4185C99.1019 62.3618 98.9642 63.2685 98.5087 64.2575C98.8627 64.7518 99.1784 65.221 99.4273 65.6686C99.7397 66.2303 99.9762 66.8085 100.034 67.4104C100.131 68.4234 99.7134 69.2864 98.8874 70.1008C99.621 70.6097 100.299 71.1653 100.744 71.9367C101.363 73.0099 101.478 74.3699 101.133 76.3352C101.821 78.1372 102.19 79.5794 102.06 80.8141C101.942 81.9424 101.421 82.8099 100.584 83.5767C101.379 84.8121 101.899 85.8941 102.132 87.003C102.387 88.2104 102.287 89.3807 101.941 90.7273C102.643 92.0367 102.985 93.1487 102.95 94.276C102.918 95.291 102.582 96.2398 102.077 97.2668C103.336 98.4036 104.137 99.4166 104.488 100.511C104.856 101.66 104.69 102.775 104.295 103.995C105.035 105.302 105.634 106.45 105.886 107.625C106.138 108.794 106.041 109.942 105.54 111.273C107.125 112.765 108.112 114.133 108.577 115.694C109.078 117.374 108.937 119.166 108.495 121.374L108.364 122.029L27.7709 118.473L27.5598 118.09C26.691 116.511 26.0723 115.103 26.2161 113.701C26.3529 112.367 27.1509 111.221 28.5437 110.02C28.2494 108.663 28.2061 107.541 28.544 106.508C28.8688 105.516 29.5154 104.702 30.4073 103.879C29.7685 102.447 29.486 101.219 29.5246 99.9609C29.5634 98.6985 29.9255 97.4665 30.4647 96.0474C29.5958 94.9913 29.1336 94.0056 29.1903 92.9311C29.2459 91.877 29.8013 90.8959 30.5365 89.8588C30.3038 88.4143 30.3264 87.2794 30.6173 86.2155C30.8883 85.2247 31.3794 84.3475 32.0058 83.39C31.3731 82.2217 30.991 81.1677 30.9787 80.0368C30.9658 78.8572 31.3561 77.6952 32.0759 76.3317C31.1806 73.4557 30.8964 71.2598 31.2039 69.2279C31.5031 67.251 32.3516 65.5081 33.5793 63.5191C32.6262 61.6646 32.0919 60.0702 32.0839 58.3999C32.0757 56.7058 32.6093 55.0265 33.6142 53.0109C33.1517 51.895 33.0736 50.8729 33.3192 49.7842C33.5744 48.6524 34.1767 47.4736 34.934 46.0858L40.9008 29.7768L41.3016 29.6766C44.1596 28.9621 48.4662 27.8903 52.0978 26.997C53.9133 26.5505 55.5614 26.1482 56.7758 25.8574C57.3826 25.7121 57.8834 25.5941 58.2434 25.5122C58.4229 25.4713 58.5711 25.4386 58.6814 25.4158C58.736 25.4045 58.7863 25.3946 58.8288 25.3871L58.8322 25.3865ZM42.0805 31.0885L36.3577 46.7307L36.3298 46.7819C35.5442 48.2198 35.0424 49.2277 34.8396 50.127C34.6499 50.968 34.7193 51.7336 35.1799 52.6958L35.3469 53.0447L35.1699 53.3887C34.1018 55.465 33.6356 56.9715 33.6425 58.3924C33.6493 59.8108 34.1279 61.2474 35.1642 63.1853L35.3779 63.585L35.1361 63.9684C33.8096 66.072 33.0135 67.6865 32.745 69.4611C32.477 71.2321 32.7221 73.2519 33.6603 76.1729L33.763 76.4926L33.6012 76.7868C32.8289 78.1907 32.5277 79.1521 32.5372 80.0198C32.5466 80.8856 32.8662 81.7742 33.5935 83.0356L33.8363 83.4568L33.5648 83.8601C32.8208 84.9652 32.3565 85.7642 32.1207 86.6267C31.8892 87.473 31.8612 88.4477 32.1265 89.9097L32.1862 90.2382L31.9895 90.5079C31.1517 91.6572 30.7802 92.3785 30.7467 93.0132C30.716 93.595 30.9684 94.2866 31.9407 95.3742L32.2607 95.732L32.085 96.1787C31.4622 97.7631 31.1164 98.9043 31.0825 100.009C31.0492 101.091 31.3149 102.211 32.0598 103.734L32.3248 104.276L31.8668 104.668C30.8093 105.574 30.2666 106.256 30.0252 106.993C29.784 107.73 29.8027 108.65 30.1679 110.123L30.2872 110.604L29.9021 110.916C28.3774 112.151 27.8508 113.039 27.7666 113.86C27.6848 114.657 27.9912 115.579 28.7184 116.955L107.09 120.412C107.407 118.616 107.431 117.306 107.083 116.139C106.698 114.844 105.82 113.613 104.092 112.059L103.674 111.682L103.9 111.166C104.479 109.847 104.564 108.89 104.363 107.953C104.149 106.961 103.607 105.932 102.768 104.463L102.592 104.154L102.709 103.818C103.149 102.563 103.248 101.75 103.004 100.987C102.75 100.194 102.079 99.3085 100.6 98.0445L100.127 97.6392L100.418 97.088C101.053 95.8862 101.367 95.0482 101.392 94.2275C101.417 93.4205 101.166 92.5217 100.428 91.2104L100.27 90.9294L100.356 90.6189C100.73 89.2789 100.811 88.2925 100.607 87.3243C100.4 86.3392 99.8808 85.2934 98.9048 83.8644L98.4865 83.252L99.0774 82.8039C100.033 82.0793 100.427 81.4462 100.51 80.6512C100.603 79.7737 100.334 78.5765 99.6013 76.6937L99.5205 76.486L99.5618 76.2669C99.9289 74.3175 99.759 73.3481 99.3941 72.7155C99.009 72.048 98.3427 71.6055 97.2266 70.8643L96.2525 70.2173L97.1307 69.5547C98.3296 68.6501 98.5303 68.0568 98.4826 67.5594C98.4537 67.2594 98.3272 66.8972 98.0652 66.4261C97.8036 65.9557 97.4362 65.4269 96.9715 64.7927L96.6804 64.3954L96.9142 63.962C97.4261 63.0133 97.4995 62.3895 97.3494 61.8079C97.1824 61.1608 96.7125 60.4442 95.8296 59.3725L95.4713 58.9374L95.7722 58.4609C96.7177 56.9637 97.1174 55.705 97.2239 54.3339C97.3333 52.9259 97.1377 51.3735 96.8288 49.2478L96.7975 49.032L96.8827 48.8312C97.1838 48.1221 97.1114 47.0927 96.7241 46.0081C96.3414 44.9366 95.7131 43.988 95.1402 43.4891L94.7306 43.1324L94.9917 42.4452C95.3765 41.4328 95.6468 40.7215 95.8066 40.1551C95.9728 39.5654 95.9883 39.2314 95.9298 38.9678C95.8708 38.7018 95.7135 38.4039 95.3182 37.9321C94.9898 37.54 94.5496 37.0869 93.9548 36.4746C93.8285 36.3446 93.6952 36.2074 93.5546 36.0621L87.1339 30.3968C82.46 29.8126 75.5645 28.9532 69.7613 28.2349C66.8099 27.8697 64.1414 27.541 62.1915 27.3036C61.2164 27.1849 60.4219 27.0892 59.8617 27.0232C59.5814 26.9901 59.3613 26.9647 59.207 26.9476C59.1425 26.9404 59.091 26.9349 59.0522 26.9309C59.0368 26.934 59.0185 26.9376 58.9973 26.942C58.902 26.9618 58.7654 26.9918 58.5892 27.0319C58.2379 27.1119 57.7439 27.2282 57.1387 27.3732C55.9291 27.6628 54.2847 28.0642 52.47 28.5105C49.0071 29.3623 44.9289 30.3768 42.0805 31.0885ZM59.1166 26.9194C59.1164 26.9195 59.1128 26.92 59.1067 26.9208C59.1137 26.9197 59.1168 26.9193 59.1166 26.9194Z" fill="black"></path><path d="M85.3129 113.654L48.0236 113.692C46.4687 113.776 44.9827 113.874 43.5618 113.988C14.5087 116.315 12.6768 125.141 5.05811 149.367L125.826 150.747C117.915 126.989 117.85 117.958 91.3846 114.347C89.4989 114.09 87.4791 113.86 85.3129 113.654Z" fill="#A8A7CF"></path><path fill-rule="evenodd" clip-rule="evenodd" d="M85.3507 112.874L85.3879 112.877C87.5629 113.084 89.5935 113.315 91.4913 113.574C104.794 115.389 111.683 118.592 116.185 124.519C118.413 127.453 120.022 131.01 121.563 135.278C122.484 137.829 123.393 140.674 124.398 143.816C125.068 145.911 125.781 148.139 126.566 150.499L126.912 151.537L4.00123 150.133L4.31606 149.132C4.5585 148.361 4.79533 147.605 5.02757 146.863C6.61462 141.796 7.98773 137.412 9.47998 133.657C11.1936 129.345 13.0869 125.8 15.6977 122.939C20.9484 117.184 28.929 114.377 43.5009 113.21C44.9293 113.095 46.4221 112.997 47.983 112.912L48.0036 112.911L85.3507 112.874ZM48.0463 114.47C46.5049 114.553 45.0325 114.651 43.6253 114.763C29.1441 115.923 21.6823 118.692 16.849 123.989C14.4179 126.654 12.6089 130.004 10.9284 134.232C9.45939 137.929 8.10581 142.25 6.51568 147.327C6.38454 147.745 6.25178 148.169 6.11722 148.598L124.744 149.954C124.079 147.937 123.472 146.037 122.899 144.245C121.904 141.131 121.011 138.339 120.097 135.807C118.574 131.588 117.029 128.207 114.944 125.462C110.819 120.031 104.443 116.914 91.2806 115.118C89.4178 114.864 87.421 114.636 85.2777 114.432L48.0463 114.47Z" fill="black"></path><path fill-rule="evenodd" clip-rule="evenodd" d="M84.747 121.477C79.8767 124.678 73.3237 128 66.8383 128.182C60.3025 128.365 54.2121 124.917 49.8215 121.524C47.6135 119.818 45.8054 118.103 44.5491 116.814C43.9204 116.169 43.4288 115.629 43.093 115.25C42.9251 115.06 42.7961 114.91 42.7083 114.806C42.6645 114.755 42.6309 114.715 42.6079 114.687L42.5815 114.655L42.5743 114.646L42.5716 114.643C42.5714 114.643 42.5712 114.643 43.1747 114.149C43.7782 113.656 43.7781 113.656 43.778 113.656L43.7791 113.658L43.7841 113.664L43.806 113.69C43.8258 113.714 43.8562 113.75 43.8968 113.798C43.978 113.894 44.1 114.036 44.2605 114.217C44.5815 114.58 45.0561 115.101 45.6652 115.726C46.8844 116.977 48.638 118.64 50.7745 120.291C55.0731 123.613 60.8036 126.792 66.7946 126.624C72.8359 126.454 79.0879 123.331 83.891 120.175C86.2796 118.605 88.2829 117.045 89.6887 115.878C90.3912 115.294 90.9435 114.81 91.319 114.472C91.5067 114.304 91.6501 114.172 91.746 114.083C91.7939 114.038 91.8299 114.004 91.8536 113.982L91.8799 113.957L91.8872 113.95C91.8872 113.95 91.8873 113.95 92.4265 114.513C92.9657 115.075 92.9656 115.075 92.9653 115.076L92.9623 115.078L92.9541 115.086L92.9236 115.115C92.8971 115.14 92.8581 115.177 92.8071 115.224C92.7052 115.319 92.5553 115.457 92.3608 115.632C91.9719 115.981 91.4041 116.479 90.6844 117.077C89.2455 118.271 87.1951 119.868 84.747 121.477Z" fill="black"></path><path d="M49.6758 115.245V86.543L81.627 89.6602L84.7442 115.245C70.1053 126.368 62.4323 126.295 49.6758 115.245Z" fill="#CA8D73"></path><path fill-rule="evenodd" clip-rule="evenodd" d="M48.8945 85.6836L82.323 88.9449L85.5699 115.594L85.2137 115.865C77.8713 121.444 72.1159 124.348 66.5008 124.339C60.8671 124.329 55.577 121.389 49.1636 115.833L48.8945 115.6V85.6836ZM50.4531 87.4016V114.887C56.6669 120.224 61.5235 122.771 66.5035 122.78C71.4908 122.788 76.7978 120.253 83.9144 114.893L80.9271 90.3747L50.4531 87.4016Z" fill="black"></path><path d="M92.9213 54.2756C92.484 52.6866 92.5963 51.5942 89.7562 51.8219L88.1499 68.6134C91.6128 66.4921 91.9434 62.1889 92.9213 54.2756Z" fill="#D09982"></path><path fill-rule="evenodd" clip-rule="evenodd" d="M90.4715 52.5661L89.1111 66.7873C89.8202 65.9481 90.3203 64.8573 90.7139 63.4195C91.2625 61.4151 91.5762 58.8473 91.9842 55.5079C92.0306 55.1277 92.0783 54.7375 92.1277 54.337C92.0907 54.1956 92.0576 54.0602 92.0272 53.9356C92.0238 53.9215 92.0204 53.9075 92.017 53.8937C91.9723 53.7104 91.9337 53.5554 91.892 53.4144C91.8073 53.1279 91.729 52.9726 91.6436 52.8735C91.5425 52.756 91.3012 52.5709 90.4715 52.5661ZM93.5479 53.551C93.5897 53.722 93.6304 53.8888 93.6779 54.0614L93.7182 54.208L93.6995 54.3594C93.6435 54.8129 93.5894 55.2558 93.5367 55.6883C93.1334 58.9942 92.8048 61.6879 92.224 63.8099C91.5569 66.2472 90.5235 68.0659 88.557 69.2705L87.225 70.0864L89.0414 51.0997L89.7036 51.0466C91.1706 50.929 92.1997 51.1154 92.8389 51.8579C93.1351 52.202 93.2883 52.6035 93.3942 52.9617C93.4479 53.1429 93.4945 53.3321 93.5384 53.5119C93.5416 53.525 93.5448 53.538 93.5479 53.551Z" fill="black"></path><path d="M36.0321 54.3241C36.4476 52.7281 36.3159 51.6374 39.1897 51.8197L41.0924 68.5867C37.5577 66.5206 37.152 62.2224 36.0321 54.3241Z" fill="#D09982"></path><path fill-rule="evenodd" clip-rule="evenodd" d="M38.4834 52.5763L40.0974 66.7989C39.358 65.9687 38.8299 64.8807 38.4053 63.4387C37.8177 61.4433 37.458 58.8807 36.9901 55.5474C36.9368 55.1682 36.8822 54.7789 36.8257 54.3793C36.8606 54.2375 36.8918 54.1016 36.9204 53.9766C36.9236 53.9624 36.9268 53.9484 36.93 53.9345C36.9722 53.7506 37.0086 53.5949 37.0484 53.4531C37.1292 53.1655 37.2058 53.0082 37.2914 52.9065C37.3948 52.7837 37.6404 52.5939 38.4834 52.5763ZM35.3908 53.6081C35.3515 53.7798 35.3131 53.9473 35.268 54.1207L35.2296 54.2681L35.2511 54.4198C35.3153 54.8725 35.3773 55.3146 35.4378 55.7463C35.9003 59.0459 36.2773 61.7349 36.8996 63.8481C37.6146 66.276 38.6898 68.079 40.6969 69.2521L42.0405 70.0375L39.8903 51.0903L39.2227 51.048C37.7388 50.9538 36.7079 51.157 36.0781 51.9053C35.7854 52.253 35.6375 52.6562 35.5363 53.0164C35.4851 53.1985 35.4412 53.3884 35.3998 53.5689C35.3968 53.582 35.3938 53.5951 35.3908 53.6081Z" fill="black"></path><path d="M39.348 34.2636C56.5471 29.9863 71.4046 27.5206 89.2232 31.9257C89.2232 53.9711 90.6304 72.9546 86.3183 85.6972C83.0059 95.4859 74.5198 101.673 66.6233 101.673C58.7269 101.673 48.356 93.0455 44.4017 83.3593C39.0775 70.3173 38.8035 55.6132 39.348 34.2636Z" fill="#D09982"></path><path fill-rule="evenodd" clip-rule="evenodd" d="M39.1583 33.5054C56.3932 29.2191 71.402 26.7155 89.4086 31.1671L90.0009 31.3135V31.9236C90.0009 36.4053 90.0595 40.7767 90.1162 44.9999C90.1982 51.1211 90.2762 56.931 90.1653 62.314C89.9778 71.4229 89.2512 79.4547 87.0549 85.945C83.654 95.995 74.9071 102.45 66.6218 102.45C62.4177 102.45 57.6789 100.171 53.5361 96.7471C49.3771 93.3092 45.7109 88.6299 43.6787 83.6519C38.2838 70.4366 38.0234 55.5712 38.5674 34.2418L38.5825 33.6486L39.1583 33.5054ZM40.1105 34.8751C39.5862 55.9211 39.917 70.3135 45.1217 83.0628C47.0437 87.7709 50.54 92.2484 54.5292 95.5457C58.5346 98.8566 62.9294 100.892 66.6218 100.892C74.1294 100.892 82.3546 94.9727 85.5786 85.4454C87.6943 79.1931 88.4202 71.3618 88.6071 62.2819C88.7176 56.9138 88.6402 51.16 88.5582 45.0691C88.5039 41.0346 88.4476 36.8522 88.4427 32.5361C71.2708 28.4234 56.836 30.7432 40.1105 34.8751Z" fill="black"></path><path fill-rule="evenodd" clip-rule="evenodd" d="M51.0391 93.5731C55.2996 96.1258 60.4387 97.2906 66.5506 96.7006C75.7071 95.8167 82.2846 92.6083 86.8868 87.3633C82.4144 95.8186 75.9182 100.808 67.0949 101.254C60.7504 101.575 55.3823 98.7078 51.0391 93.5731Z" fill="#5B1B00" fill-opacity="0.26"></path><path d="M44.8282 57.6751C44.8808 52.7015 44.8292 51.2852 46.4697 46.0964C46.6551 45.5099 47.1744 45.0887 47.7861 45.0247L53.5752 44.4186C53.7353 44.4019 53.897 44.41 54.0546 44.4427L61.1644 45.92C61.2663 45.9412 61.3705 45.9518 61.4746 45.9535C62.4568 45.97 62.9353 46.1036 63.3607 46.5648C63.4343 46.6446 63.4923 46.7372 63.5416 46.8339L64.0006 47.7322C64.1834 48.09 64.2163 48.5036 64.1208 48.894C63.621 50.9387 63.733 52.8484 63.4674 57.0129L63.1041 59.8574C62.9231 61.2744 62.3665 60.6891 61.0935 60.0409C60.965 59.9755 60.8967 59.9307 60.7825 59.8428C57.7013 57.4691 51.424 58.4112 46.6532 59.2349C45.6912 59.401 44.8179 58.6512 44.8282 57.6751Z" fill="#B27860"></path><path d="M87.2211 57.7313C87.5242 53.1716 87.0463 50.7606 86.1896 46.1461C86.0793 45.552 85.6362 45.0731 85.0518 44.9193L77.6091 42.9614C77.2926 42.8782 76.9578 42.8967 76.6523 43.0143L70.1998 45.5001C70.0234 45.568 69.8358 45.6018 69.6469 45.6077C68.8497 45.6327 68.4124 45.7567 68.0406 46.1231C67.8979 46.2637 67.8122 46.4499 67.7576 46.6428L67.523 47.4715C67.4437 47.7513 67.4479 48.0469 67.5135 48.3302C68.0123 50.4864 67.5741 52.481 67.8402 56.834L68.196 59.739C68.3656 61.1238 68.9202 60.5583 70.154 59.9071C70.2803 59.8405 70.3424 59.7969 70.4541 59.708C73.5207 57.2668 80.5772 58.2782 85.4218 59.1216C86.3184 59.2777 87.1608 58.6394 87.2211 57.7313Z" fill="#B27860"></path><path fill-rule="evenodd" clip-rule="evenodd" d="M60.1806 71.1772C60.1102 71.1323 60.0721 71.0762 60.0552 71.0478C60.0345 71.013 60.0237 70.9824 60.0185 70.9658C60.008 70.9326 60.0044 70.9054 60.0031 70.8955C60.0015 70.8824 60.0008 70.8716 60.0005 70.8651C59.9999 70.852 60 70.8412 60.0001 70.8354C60.0003 70.8217 60.0012 70.8072 60.0021 70.7946C59.9977 70.7454 60.0027 70.6953 60.0173 70.6473C60.0269 70.5668 60.0401 70.4696 60.0546 70.3847C60.0636 70.3316 60.0751 70.2712 60.0891 70.2206C60.0946 70.2004 60.1076 70.1548 60.1319 70.1084C60.139 70.0948 60.1498 70.0759 60.1649 70.0551C60.1791 70.0355 60.2043 70.0044 60.2427 69.9743C60.2735 69.9501 60.3217 69.9199 60.3861 69.903C60.4002 69.8906 60.4149 69.8788 60.4301 69.8676C60.5584 69.7723 60.6929 69.7388 60.8032 69.7264C60.8817 69.7176 60.9698 69.7185 61.029 69.7191C61.0419 69.7192 61.0534 69.7194 61.0632 69.7194C61.2042 69.7194 61.3277 69.7943 61.3961 69.9064C61.4297 69.922 61.4625 69.9392 61.494 69.9581C61.5928 70.0175 61.7301 70.1247 61.795 70.2977C61.9115 70.6078 62.0044 70.8838 62.0838 71.1956C62.1014 71.246 62.1188 71.2956 62.1362 71.3433C62.2336 71.61 62.3041 72.0569 62.3274 72.2728C62.333 72.3247 62.3386 72.3864 62.3378 72.4347C62.3376 72.4464 62.337 72.4734 62.3317 72.5051C62.3293 72.5194 62.3231 72.5533 62.3067 72.5932L62.3064 72.5938C62.297 72.6166 62.246 72.7405 62.1003 72.8037C61.9057 72.8882 61.7476 72.7902 61.6925 72.7438C61.6399 72.6994 61.6122 72.6519 61.604 72.6376C61.5832 72.6015 61.5719 72.5685 61.5682 72.5577C61.5409 72.4777 61.5065 72.2994 61.4607 72.0263C61.4225 71.7989 61.3824 71.6037 61.3374 71.4228C61.3297 71.4005 61.3223 71.3791 61.3152 71.3585C61.2712 71.231 61.2372 71.1328 61.1941 71.0379C61.1365 70.9111 61.0827 70.8419 61.0076 70.7886C60.9971 70.7812 60.988 70.7754 60.9803 70.7708C60.9757 70.7948 60.9711 70.8189 60.9666 70.8428C60.9568 70.8947 60.9472 70.9459 60.9373 70.9937C60.9371 70.9947 60.9369 70.9958 60.9367 70.9969C60.931 71.0249 60.9181 71.0877 60.8968 71.1395C60.8915 71.1525 60.8732 71.1967 60.8363 71.2426C60.8163 71.2676 60.661 71.4508 60.4116 71.372C60.3099 71.3398 60.2494 71.2761 60.2208 71.2397C60.203 71.2169 60.1899 71.1951 60.1806 71.1772Z" fill="white" fill-opacity="0.29"></path><path fill-rule="evenodd" clip-rule="evenodd" d="M69.8784 70.1146C69.9803 70.273 70.0582 70.4734 70.1185 70.7073C70.1722 70.9157 70.0469 71.1282 69.8385 71.1819C69.8012 71.1915 69.7637 71.1954 69.727 71.1941C69.6556 71.2768 69.5499 71.3291 69.432 71.3291C69.3752 71.3291 69.3052 71.3259 69.2464 71.3231C69.2204 71.3219 69.1966 71.3208 69.1771 71.3201C69.0992 71.3174 69.0372 71.3182 68.9836 71.3254C68.8911 71.3378 68.8401 71.3645 68.7941 71.4333C68.7941 71.4333 68.7941 71.4333 68.794 71.4334C68.7936 71.4341 68.7893 71.441 68.7818 71.4567C68.774 71.4728 68.7648 71.4941 68.7545 71.5206C68.7339 71.5738 68.7122 71.6393 68.6911 71.7116C68.6487 71.857 68.6141 72.0111 68.5966 72.1139C68.5915 72.1441 68.5873 72.1772 68.584 72.2104C68.5817 72.3268 68.5789 72.4024 68.5761 72.4453C68.5753 72.457 68.5742 72.4725 68.5724 72.4879L68.5723 72.4882C68.5717 72.4936 68.5694 72.5125 68.5641 72.535C68.5641 72.5352 68.564 72.5354 68.564 72.5357C68.5622 72.5433 68.5537 72.5801 68.5326 72.6221L68.5326 72.6222C68.5245 72.6383 68.4915 72.7041 68.4182 72.7591C68.3761 72.7907 68.3101 72.8266 68.2226 72.8353C68.1315 72.8444 68.0508 72.8204 67.9897 72.7853C67.8877 72.7266 67.8448 72.6406 67.8355 72.6217L67.8352 72.6213C67.8199 72.5904 67.812 72.5643 67.8087 72.5524C67.8015 72.5271 67.7986 72.5065 67.7976 72.4995C67.7952 72.4822 67.7943 72.4679 67.794 72.4622C67.7932 72.4482 67.793 72.4344 67.793 72.4238C67.7927 72.3733 67.7957 72.2748 67.8053 72.1665C67.8055 72.1602 67.8056 72.1537 67.8057 72.1471C67.8119 71.7773 67.8942 71.3858 68.0172 71.0361C68.1392 70.6892 68.3111 70.3556 68.5161 70.1141C68.6964 69.9017 69.0292 69.6209 69.4385 69.7526C69.6333 69.8153 69.7761 69.9559 69.8784 70.1146ZM69.1846 70.5407C69.1912 70.5409 69.1978 70.5411 69.2042 70.5413C69.212 70.5416 69.2195 70.5418 69.2267 70.5421C69.2255 70.5402 69.2243 70.5384 69.2232 70.5366C69.2189 70.5299 69.2148 70.524 69.2112 70.5189C69.2035 70.5245 69.1947 70.5317 69.1846 70.5407ZM69.2469 70.4989C69.2469 70.4991 69.2454 70.4996 69.2426 70.5001C69.2455 70.499 69.2469 70.4987 69.2469 70.4989ZM69.1836 70.4873C69.1831 70.4869 69.1828 70.4867 69.1828 70.4867Z" fill="white" fill-opacity="0.29"></path><path fill-rule="evenodd" clip-rule="evenodd" d="M50.4032 9.64583C50.4863 9.78423 50.4414 9.96374 50.303 10.0468C49.6183 10.4576 48.9137 10.8285 48.2161 11.1922C48.1628 11.22 48.1094 11.2478 48.0562 11.2756C47.4109 11.6118 46.7734 11.944 46.1536 12.3028C45.5026 12.6797 45.065 13.2652 44.6437 13.9321C44.5615 14.0623 44.4794 14.1966 44.3961 14.3329C44.0637 14.8767 43.7119 15.4523 43.2558 15.9219C43.1433 16.0377 42.9583 16.0403 42.8425 15.9279C42.7267 15.8154 42.7241 15.6304 42.8365 15.5146C43.2427 15.0966 43.5509 14.5932 43.8796 14.0562C43.9674 13.9129 44.0566 13.7671 44.1496 13.62C44.5796 12.9392 45.08 12.249 45.8608 11.797C46.4923 11.4313 47.1411 11.0933 47.7841 10.7583C47.8381 10.7301 47.892 10.702 47.9459 10.674C48.644 10.3099 49.3344 9.94635 50.0023 9.5456C50.1407 9.46256 50.3202 9.50744 50.4032 9.64583Z" fill="white" fill-opacity="0.23"></path><path fill-rule="evenodd" clip-rule="evenodd" d="M50.9077 44.8585C53.4829 44.4874 56.241 44.6635 58.0453 45.4101C58.4397 45.5733 58.9069 45.3862 59.0889 44.9923C59.2708 44.5983 59.0986 44.1466 58.7042 43.9834C56.554 43.0938 53.4834 42.9355 50.7399 43.3308C49.3575 43.53 48.0183 43.875 46.883 44.3647C45.7619 44.8483 44.7612 45.5069 44.1581 46.3787C43.9097 46.7378 43.9971 47.2153 44.3533 47.4452C44.7096 47.6751 45.1998 47.5703 45.4482 47.2112C45.8022 46.6995 46.4821 46.1996 47.4673 45.7746C48.4382 45.3559 49.6308 45.0425 50.9077 44.8585Z" fill="black"></path><path d="M38.4067 49.5254C35.7877 50.4776 34.0158 47.209 35.2895 44.46V34.3291L68.7993 20.6914L93.7368 34.3291C94.6005 37.9294 94.3077 39.4329 91.0092 40.1738C90.7904 42.5355 90.3721 43.4432 87.8921 42.5117C85.2209 43.7425 84.3645 42.806 83.2163 40.1738C79.9126 41.0236 79.2242 39.914 78.9301 36.667C75.9174 36.1949 75.1435 35.1981 75.0337 32.3809L64.9028 30.8223C64.6936 33.758 63.8249 34.8814 60.227 35.4981C58.9256 38.3236 57.767 39.2939 54.3823 39.0049C53.6205 42.5571 52.37 43.8388 48.1479 44.46C47.8675 47.8754 47.1987 49.2156 43.0825 48.3565C41.7688 50.8823 40.7825 51.2482 38.4067 49.5254Z" fill="#3D1200" fill-opacity="0.32"></path><path d="M39.2466 51.7134C36.6156 52.8508 34.8356 48.9464 36.1151 45.6626C32.7233 41.313 28.9935 38.8488 33.9636 33.5611C33.6208 28.1453 34.1062 27.6866 38.6583 28.3752C37.997 22.4172 39.0696 20.2925 45.3126 23.2553C44.9165 16.2405 46.5977 12.8452 53.1413 18.6009C53.8258 12.7672 54.727 9.12282 61.1667 11.6193C61.6864 6.38072 65.8023 8.19681 69.9748 8.82724C74.7775 6.51639 79.796 7.88776 79.9555 14.4135C85.6944 12.9538 85.1858 13.6091 85.2389 18.6009C91.0334 18.6639 92.5549 22.3836 92.0898 26.9807C97.7178 26.7382 94.5182 29.1966 94.8299 33.5611C95.6975 37.8618 95.4034 39.6577 92.0898 40.5427C91.87 43.3638 91.4498 44.448 88.9584 43.3354C86.275 44.8055 85.4147 43.6869 84.2612 40.5427C80.9424 41.5578 80.2509 40.2324 79.9555 36.3538C76.9289 35.7898 76.1514 34.5991 76.0411 31.2339C70.8478 33.5901 68.6941 33.1283 65.8639 29.3721C65.6538 32.8789 64.7811 34.2208 61.1667 34.9574C59.8593 38.3326 58.6954 39.4916 55.2953 39.1464C54.53 43.3896 53.2738 44.9206 49.0324 45.6626C48.7506 49.7423 48.0788 51.3433 43.9437 50.317C42.6241 53.3342 41.6333 53.7712 39.2466 51.7134Z" fill="#452915"></path><path fill-rule="evenodd" clip-rule="evenodd" d="M80.6766 13.4304C81.6738 13.1906 82.4831 13.0279 83.1294 12.9719C83.9401 12.9017 84.7303 12.9752 85.2863 13.5391C85.8053 14.0655 85.9282 14.8425 85.9775 15.5818C86.0126 16.1067 86.0137 16.7548 86.0149 17.497C86.0151 17.6124 86.0153 17.7301 86.0156 17.8499C88.6736 18.0323 90.5295 19.0195 91.6545 20.6454C92.7064 22.1655 93.031 24.1216 92.9327 26.1837C93.9096 26.1929 94.6696 26.3117 95.217 26.6035C95.6023 26.8088 95.8915 27.1035 96.062 27.4874C96.2237 27.8514 96.2514 28.2348 96.2337 28.5812C96.2162 28.9273 96.1494 29.2952 96.0749 29.654C96.0398 29.8227 96.0054 29.9793 95.9707 30.1371C95.9243 30.3481 95.8773 30.5614 95.8278 30.8088C95.6684 31.6055 95.5426 32.4837 95.6059 33.4556C96.0287 35.5632 96.2204 37.272 95.7663 38.5857C95.3174 39.8846 94.3068 40.6511 92.8223 41.1374C92.7734 41.6382 92.711 42.0962 92.6201 42.4966C92.5002 43.0244 92.311 43.5477 91.9525 43.939C91.5572 44.3705 91.035 44.5585 90.4485 44.5425C90.0028 44.5303 89.5174 44.4017 88.9957 44.1946C87.7297 44.8235 86.5829 45.0042 85.5896 44.3051C85.1017 43.9617 84.7324 43.4545 84.4217 42.8827C84.1996 42.4741 83.9913 42.0014 83.7849 41.4776C82.3992 41.7984 81.2228 41.714 80.3991 40.805C79.9611 40.3217 79.7026 39.6793 79.5307 38.969C79.3927 38.3987 79.2997 37.7369 79.2298 36.9955C77.9408 36.6908 76.9478 36.204 76.2813 35.3076C75.7133 34.5436 75.4511 33.5685 75.3345 32.389C73.2058 33.2654 71.4773 33.652 69.924 33.3593C68.5913 33.1082 67.4894 32.3789 66.4315 31.2624C66.2489 32.2111 65.9391 33.0212 65.4012 33.6902C64.5975 34.6899 63.3876 35.2506 61.7402 35.6294C61.1292 37.1374 60.4734 38.3178 59.4894 39.0658C58.5335 39.7924 57.376 40.036 55.9305 39.9728C55.5516 41.7881 55.019 43.1988 54.0388 44.2478C53.0305 45.3269 51.6404 45.928 49.7657 46.3151C49.6984 47.1026 49.6065 47.8142 49.4603 48.4328C49.2785 49.2022 48.997 49.9001 48.5083 50.4308C47.5759 51.4433 46.1803 51.5733 44.3917 51.2146C44.1424 51.7345 43.8894 52.1859 43.6204 52.5549C43.2554 53.0555 42.8115 53.473 42.2363 53.6584C41.6433 53.8496 41.0499 53.7502 40.4851 53.4971C40.0382 53.2969 39.5747 52.9858 39.0863 52.5916C38.3945 52.7759 37.7216 52.7041 37.122 52.4055C36.4114 52.0516 35.8766 51.417 35.5175 50.6891C34.8578 49.3519 34.6986 47.5244 35.2398 45.8075C34.8307 45.2957 34.4329 44.8259 34.0412 44.3632C33.7059 43.9671 33.3751 43.5763 33.0454 43.169C32.2874 42.2326 31.5962 41.277 31.183 40.2537C30.7593 39.2043 30.6289 38.0865 30.9784 36.8564C31.3003 35.7237 32.0134 34.5507 33.1674 33.2754C33.0966 32.0743 33.0701 31.0873 33.1379 30.3006C33.2107 29.4561 33.4015 28.6971 33.9032 28.1504C34.427 27.5796 35.1485 27.3883 35.9229 27.3532C36.455 27.3292 37.0777 27.3763 37.7888 27.4648C37.6985 26.3685 37.68 25.3928 37.7682 24.5612C37.8808 23.4999 38.1803 22.5421 38.8653 21.8998C39.5789 21.2307 40.5467 21.0515 41.6474 21.1929C42.4592 21.2972 43.402 21.5812 44.4869 22.0311C44.461 20.7591 44.5172 19.6092 44.682 18.6285C44.8954 17.3586 45.3141 16.2275 46.1231 15.5427C46.9976 14.8024 48.1289 14.7376 49.3651 15.1777C50.297 15.5094 51.3535 16.1451 52.5492 17.0876C52.678 16.1616 52.8278 15.292 53.0245 14.5068C53.3175 13.3374 53.7321 12.2798 54.4011 11.4834C55.0954 10.6568 56.0267 10.1566 57.2308 10.0582C58.1789 9.98077 59.2743 10.1535 60.5426 10.5663C60.743 9.6357 61.0926 8.8979 61.6101 8.34841C62.3092 7.60611 63.213 7.31395 64.1442 7.24364C65.0582 7.17462 66.0639 7.31396 67.0518 7.4923C67.436 7.56166 67.8128 7.63584 68.1882 7.70972C68.7432 7.81897 69.2947 7.92753 69.8614 8.01883C72.3249 6.89009 74.9412 6.62622 77.0362 7.59805C79.0401 8.52757 80.3768 10.4945 80.6766 13.4304ZM76.3804 9.01193C74.7889 8.27367 72.5897 8.43318 70.3147 9.52782L70.098 9.63205L69.8603 9.59613C69.185 9.49409 68.4887 9.35736 67.83 9.22801C67.4632 9.15599 67.1082 9.08627 66.7749 9.0261C65.8012 8.85032 64.9632 8.74483 64.2616 8.79781C63.5773 8.84948 63.094 9.04612 62.7448 9.41695C62.3831 9.801 62.0649 10.4778 61.9442 11.6945L61.843 12.7148L60.887 12.3442C59.3289 11.7402 58.1918 11.5435 57.3577 11.6116C56.5602 11.6768 56.0159 11.9842 55.5945 12.4859C55.1477 13.0177 54.8061 13.809 54.5364 14.8856C54.2682 15.9557 54.0881 17.2338 53.9173 18.69L53.7441 20.1656L52.6286 19.1844C51.0192 17.7687 49.7755 16.9782 48.8424 16.646C47.9355 16.3231 47.4442 16.4664 47.1301 16.7323C46.7503 17.0537 46.414 17.727 46.2191 18.8868C46.0287 20.0197 45.9951 21.4818 46.0927 23.2097L46.1667 24.5206L44.9805 23.9577C43.4464 23.2296 42.296 22.8476 41.4488 22.7388C40.6132 22.6314 40.1836 22.8003 39.9314 23.0368C39.6506 23.3001 39.4157 23.8053 39.3181 24.7256C39.222 25.6317 39.2714 26.8151 39.4348 28.2875L39.5467 29.2957L38.5438 29.144C37.4023 28.9714 36.5881 28.8833 35.9934 28.9102C35.4071 28.9368 35.1752 29.0695 35.0515 29.2043C34.9057 29.3632 34.7548 29.6913 34.6908 30.4344C34.6279 31.1639 34.6575 32.1553 34.7433 33.5102L34.7646 33.8472L34.5334 34.0932C33.3385 35.3645 32.7274 36.4034 32.4776 37.2824C32.2347 38.1374 32.3168 38.8989 32.6282 39.6702C32.9502 40.4676 33.5168 41.2741 34.2568 42.1884C34.5362 42.5336 34.8527 42.9081 35.1854 43.3019C35.6877 43.8963 36.227 44.5346 36.7316 45.1817L37.0041 45.5311L36.8432 45.9439C36.2792 47.3913 36.4025 48.9601 36.9153 49.9995C37.1701 50.516 37.4937 50.8494 37.8168 51.0103C38.1154 51.159 38.479 51.1954 38.9393 50.9964L39.3876 50.8026L39.7574 51.1215C40.3333 51.618 40.7755 51.9193 41.1225 52.0748C41.456 52.2243 41.6403 52.213 41.7582 52.175C41.8941 52.1312 42.0944 52.0023 42.361 51.6367C42.6267 51.2722 42.9093 50.7402 43.2317 50.0031L43.4953 49.4006L44.1335 49.559C46.1739 50.0654 46.9615 49.8097 47.3618 49.375C47.5931 49.1238 47.7908 48.7206 47.9435 48.0745C48.0955 47.4312 48.1871 46.6184 48.2569 45.6073L48.2989 44.9985L48.9001 44.8933C50.9612 44.5327 52.1327 44.0048 52.9 43.1837C53.6787 42.3503 54.1532 41.0978 54.5303 39.0064L54.6584 38.2966L55.376 38.3694C56.992 38.5335 57.8953 38.3198 58.5462 37.825C59.2372 37.2997 59.7916 36.3535 60.442 34.6743L60.5958 34.2772L61.0131 34.1922C62.7662 33.8349 63.6641 33.3634 64.1866 32.7136C64.7202 32.0499 64.9844 31.0536 65.088 29.3239L65.2146 27.2111L66.4883 28.9015C67.8706 30.736 68.9651 31.5926 70.2126 31.8276C71.4988 32.07 73.1414 31.693 75.7212 30.5226L76.7838 30.0405L76.822 31.2067C76.8766 32.873 77.0997 33.7961 77.5321 34.3777C77.941 34.9277 78.6499 35.3158 80.1002 35.586L80.689 35.6957L80.7345 36.2929C80.8075 37.2509 80.9024 38.0108 81.0456 38.6024C81.1901 39.1997 81.3673 39.5524 81.554 39.7584C81.843 40.0773 82.4083 40.2935 84.0353 39.7959L84.7407 39.5801L84.9948 40.2727C85.2802 41.0506 85.5345 41.6663 85.7911 42.1385C86.05 42.6149 86.2797 42.8849 86.4866 43.0305C86.7946 43.2472 87.3033 43.353 88.5859 42.6503L88.9251 42.4645L89.2782 42.6222C89.8667 42.885 90.2495 42.9779 90.4911 42.9845C90.691 42.9899 90.7547 42.9392 90.8033 42.8861C90.8888 42.7928 91.0016 42.5856 91.1002 42.1514C91.1962 41.7287 91.2604 41.1792 91.3149 40.4805L91.3577 39.9305L91.8907 39.7882C93.4295 39.3772 94.0352 38.8231 94.2933 38.0765C94.5941 37.2062 94.5057 35.8835 94.0679 33.7136L94.0581 33.6647L94.0545 33.6149C93.9695 32.4238 94.1252 31.374 94.2995 30.5029C94.3484 30.259 94.4048 30.0013 94.4561 29.7669C94.4906 29.6092 94.5228 29.4621 94.5489 29.3369C94.621 28.9899 94.666 28.7209 94.6772 28.502C94.6883 28.2835 94.6615 28.1739 94.6376 28.1201C94.6225 28.0861 94.5949 28.0381 94.4839 27.9789C94.1923 27.8234 93.5316 27.697 92.1254 27.7576L91.2259 27.7964L91.3165 26.9006C91.541 24.6816 91.2664 22.8236 90.3729 21.5323C89.5099 20.2852 87.956 19.4081 85.2324 19.3785L84.4698 19.3702L84.4617 18.6075C84.4571 18.1754 84.4565 17.7847 84.4559 17.4295C84.4549 16.7246 84.454 16.1592 84.4224 15.6857C84.3729 14.9438 84.2542 14.7123 84.1764 14.6334C84.1356 14.5919 83.9735 14.4633 83.2639 14.5247C82.5764 14.5843 81.5914 14.8004 80.1495 15.1671L79.2023 15.4081L79.1784 14.4309C79.1037 11.3765 77.9147 9.72367 76.3804 9.01193Z" fill="black"></path><path fill-rule="evenodd" clip-rule="evenodd" d="M66.7349 45.6335C66.307 45.6798 65.9976 46.0642 66.044 46.4921C66.8211 53.6722 67.3382 61.8265 67.3382 69.3975C67.3382 69.6931 67.5054 69.9632 67.7699 70.095C68.0344 70.2269 68.3507 70.1977 68.5867 70.0197C69.2658 69.5075 69.823 69.2872 70.1553 69.2706C70.3023 69.2633 70.3509 69.2975 70.3611 69.3053C70.37 69.3121 70.4268 69.3574 70.4683 69.5328C70.5315 70.0146 70.5888 70.3567 70.6325 70.6168L70.6365 70.6407C70.6831 70.9187 70.7056 71.0622 70.7127 71.1952C70.7257 71.4384 70.6909 71.6833 70.4758 72.651C70.3083 73.4045 69.9253 73.7177 69.6718 73.7922C69.4689 73.8518 69.1205 73.8239 68.7692 73.2879C68.602 73.0329 68.3014 72.8989 68 72.9448C67.6986 72.9908 67.4516 73.2083 67.368 73.5016C67.1336 74.3237 66.9336 74.7046 66.7463 74.9064C66.5946 75.0699 66.3929 75.179 65.9211 75.2513C65.4957 75.3164 65.2037 75.7141 65.2688 76.1395C65.334 76.565 65.7317 76.857 66.1571 76.7919C66.8041 76.6928 67.4012 76.4919 67.8887 75.9667C68.114 75.7239 68.2965 75.4316 68.4535 75.0923C68.96 75.3761 69.5353 75.4569 70.1114 75.2875C71.0653 75.0071 71.7465 74.1172 71.9972 72.9893C72.2004 72.0755 72.2956 71.6096 72.2691 71.1121C72.2566 70.8778 72.2178 70.6466 72.1753 70.3932L72.1698 70.3605C72.1258 70.0979 72.0706 69.7686 72.0093 69.2971C72.0066 69.2767 72.0032 69.2563 71.9989 69.2362C71.901 68.7734 71.6846 68.3562 71.3097 68.0686C70.9357 67.7817 70.4941 67.6932 70.0776 67.7139C69.6921 67.7332 69.2906 67.8465 68.8912 68.0246C68.8336 60.7852 68.329 53.1195 67.5935 46.3244C67.5472 45.8965 67.1628 45.5872 66.7349 45.6335Z" fill="black"></path><path fill-rule="evenodd" clip-rule="evenodd" d="M64.3774 45.6347C64.8046 45.6867 65.1088 46.0752 65.0568 46.5024C64.1831 53.6797 63.602 61.8305 63.602 69.3976C63.602 69.6853 63.4434 69.9497 63.1895 70.0852C62.9356 70.2206 62.6277 70.2051 62.3886 70.0448C61.5651 69.4924 60.8643 69.0895 60.3696 68.9545C60.2234 68.9146 60.1396 68.9109 60.0998 68.9127C60.0943 68.9261 60.0877 68.9449 60.0806 68.9706C60.0259 69.3427 59.9781 69.636 59.9383 69.88C59.8662 70.3222 59.8205 70.6028 59.8077 70.8977C59.7904 71.2986 59.8412 71.7112 60.0712 72.6311C60.2501 73.3466 60.6688 73.6929 61.0247 73.7859C61.3582 73.8731 61.8041 73.7836 62.1955 73.2528C62.3691 73.0173 62.6601 72.8989 62.9488 72.9462C63.2376 72.9936 63.4755 73.1987 63.5648 73.4773C63.9612 74.7138 64.9627 75.0885 66.1442 75.2494C66.5707 75.3075 66.8693 75.7003 66.8112 76.1267C66.7531 76.5532 66.3603 76.8518 65.9339 76.7938C64.8494 76.6461 63.4357 76.2734 62.5762 74.993C61.9798 75.3586 61.2949 75.4675 60.6305 75.2938C59.6287 75.0319 58.8506 74.1751 58.5591 73.0092C58.3187 72.0476 58.2234 71.4598 58.2506 70.8304C58.2673 70.4437 58.3348 70.0268 58.419 69.5071C58.4583 69.2648 58.5012 69.0001 58.5442 68.7056C58.5475 68.6829 58.5519 68.6603 58.5572 68.6379C58.6757 68.14 58.9561 67.6987 59.458 67.4825C59.9112 67.2873 60.3932 67.3453 60.78 67.4509C61.1799 67.56 61.613 67.7592 62.0498 68.0011C62.1156 60.7647 62.683 53.1047 63.5096 46.3141C63.5616 45.8869 63.9501 45.5827 64.3774 45.6347ZM60.1156 68.8837C60.1158 68.8841 60.1142 68.8868 60.1104 68.8907C60.1136 68.8853 60.1154 68.8834 60.1156 68.8837Z" fill="black"></path><path d="M77.7285 79.1406C69.7736 84.1364 64.9691 84.8594 55.1289 81.4017C55.1289 81.4017 55.1289 90.5048 66.0391 90.823C77.7285 91.1639 77.7285 79.1406 77.7285 79.1406Z" fill="black"></path><path fill-rule="evenodd" clip-rule="evenodd" d="M78.1211 79.1384H77.7315C78.1211 79.1384 78.1211 79.1386 78.1211 79.1389L78.1211 79.1397L78.1211 79.1421L78.1211 79.1501L78.1207 79.179C78.1203 79.2038 78.1196 79.2398 78.1181 79.286C78.1151 79.3784 78.1091 79.5123 78.0973 79.6814C78.0738 80.0196 78.0269 80.5 77.9334 81.0743C77.7467 82.2211 77.3725 83.7533 76.6197 85.2798C75.8663 86.8077 74.729 88.3389 73.0138 89.4649C71.2956 90.593 69.0233 91.2975 66.0306 91.2102C60.4442 91.0473 57.5929 88.6217 56.1599 86.1886C55.4502 84.9836 55.0967 83.7918 54.9201 82.9027C54.8317 82.4576 54.7873 82.0863 54.7649 81.8244C54.7537 81.6934 54.748 81.5896 54.7452 81.5174C54.7437 81.4812 54.743 81.453 54.7426 81.4332L54.7422 81.4098L54.7422 81.403L54.7422 81.4008L54.7422 81.4001C54.7422 81.3998 54.7422 81.3995 55.1318 81.3995H54.7422V80.8496L55.261 81.0319C60.1586 82.7528 63.7553 83.4155 67.0964 83.0516C70.4359 82.688 73.5665 81.294 77.5242 78.8084L78.1211 78.4336V79.1384ZM55.5614 81.9608C55.5853 82.1756 55.6235 82.4437 55.6845 82.7509C55.8489 83.5787 56.1773 84.6825 56.8314 85.7931C58.1259 87.991 60.7297 90.276 66.0534 90.4313C68.9055 90.5145 71.0166 89.8439 72.5861 88.8135C74.1586 87.7811 75.2131 86.3704 75.9208 84.9351C76.6293 83.4984 76.9856 82.0461 77.1642 80.9491C77.2332 80.5254 77.2754 80.1563 77.3012 79.8636C73.5919 82.1329 70.5039 83.4645 67.1808 83.8264C63.8044 84.194 60.2283 83.5559 55.5614 81.9608Z" fill="black"></path><path fill-rule="evenodd" clip-rule="evenodd" d="M85.9987 47.2831C83.2895 43.9054 78.3568 43.1811 74.6277 43.9469C74.2086 44.033 73.7806 43.763 73.6717 43.344C73.5629 42.925 73.8144 42.5155 74.2335 42.4295C78.2494 41.6048 83.9448 42.2915 87.2082 46.3601C87.4838 46.7037 87.4364 47.1888 87.1024 47.4437C86.7684 47.6986 86.2743 47.6267 85.9987 47.2831Z" fill="black"></path><path fill-rule="evenodd" clip-rule="evenodd" d="M96.6199 84.7895C97.0048 84.597 97.4729 84.753 97.6654 85.138C97.9528 85.7128 98.2547 86.3448 98.3721 87.0184C98.4964 87.7314 98.4121 88.4645 97.9985 89.24C97.9499 89.3312 97.9096 89.4145 97.8642 89.5082C97.8474 89.543 97.8299 89.5792 97.8109 89.6178C97.7469 89.7485 97.6676 89.905 97.5668 90.0566C97.343 90.3931 97.028 90.6833 96.5299 90.8493C96.1215 90.9854 95.6802 90.7648 95.5441 90.3565C95.408 89.9482 95.6287 89.5068 96.037 89.3707C96.1611 89.3294 96.2096 89.2828 96.2689 89.1936C96.3096 89.1324 96.3517 89.0538 96.4113 88.9322C96.4235 88.9071 96.4369 88.8794 96.4512 88.8498C96.4996 88.7498 96.5588 88.6274 96.6233 88.5066C96.8683 88.047 96.9031 87.6675 96.8366 87.2861C96.7633 86.8654 96.5646 86.4214 96.2714 85.835C96.0789 85.4501 96.2349 84.982 96.6199 84.7895Z" fill="white" fill-opacity="0.1"></path><path fill-rule="evenodd" clip-rule="evenodd" d="M94.1091 94.9896C94.5345 94.9242 94.9324 95.216 94.9979 95.6414C95.0116 95.7307 95.0311 95.8377 95.0529 95.9568C95.1257 96.3557 95.2233 96.8906 95.212 97.3561C95.2039 97.686 95.1456 98.0566 94.9619 98.4083C94.7715 98.7728 94.4713 99.0684 94.0624 99.2729C93.987 99.3106 93.9085 99.3507 93.8272 99.3922C93.3078 99.6576 92.6723 99.9823 91.9831 100.12C91.561 100.205 91.1505 99.9308 91.0661 99.5088C90.9817 99.0868 91.2554 98.6762 91.6774 98.5918C92.139 98.4995 92.5618 98.2853 93.0949 98.0152C93.1819 97.9712 93.2718 97.9256 93.3654 97.8788C93.4964 97.8133 93.5495 97.7458 93.5805 97.6866C93.6181 97.6146 93.6494 97.5008 93.6538 97.3181C93.661 97.0262 93.6082 96.7363 93.5443 96.3849C93.5161 96.2299 93.4858 96.0628 93.4574 95.8784C93.3919 95.453 93.6837 95.0551 94.1091 94.9896Z" fill="white" fill-opacity="0.1"></path><path fill-rule="evenodd" clip-rule="evenodd" d="M90.9581 72.585C91.2725 72.2911 91.7656 72.3077 92.0595 72.6221C92.1923 72.7642 92.335 72.9128 92.4832 73.0672C92.9974 73.6028 93.5788 74.2084 94.05 74.8552C94.6722 75.7093 95.1807 76.7316 95.1807 77.9586C95.1807 78.5213 95.0006 79.0234 94.8094 79.4353C94.7129 79.6431 94.6067 79.8422 94.5095 80.0215C94.4925 80.0528 94.4759 80.0833 94.4596 80.1132C94.3793 80.2609 94.3076 80.3928 94.2422 80.5237C94.0497 80.9087 93.5816 81.0647 93.1966 80.8723C92.8117 80.6798 92.6556 80.2117 92.8481 79.8267C92.9267 79.6695 93.0136 79.5097 93.0939 79.3621C93.1093 79.3338 93.1245 79.3059 93.1393 79.2786C93.235 79.1022 93.3212 78.9396 93.3957 78.7791C93.5464 78.4544 93.6221 78.1929 93.6221 77.9586C93.6221 77.1861 93.3074 76.4828 92.7903 75.7729C92.3875 75.2201 91.9085 74.7206 91.4084 74.1992C91.2475 74.0314 91.0844 73.8613 90.9209 73.6865C90.627 73.3721 90.6437 72.8789 90.9581 72.585Z" fill="white" fill-opacity="0.1"></path><path fill-rule="evenodd" clip-rule="evenodd" d="M94.5957 106.135C94.8244 105.77 95.3054 105.66 95.67 105.889C96.6908 106.529 97.2697 107.213 97.54 108.085C97.7562 108.782 97.7525 109.563 97.7487 110.349C97.7482 110.452 97.7477 110.556 97.7477 110.659C97.7477 111.089 97.3988 111.438 96.9684 111.438C96.538 111.438 96.1891 111.089 96.1891 110.659C96.1891 110.558 96.1893 110.461 96.1894 110.369C96.191 109.521 96.1919 109 96.0514 108.547C95.9212 108.127 95.6439 107.712 94.8419 107.209C94.4773 106.98 94.3671 106.5 94.5957 106.135Z" fill="white" fill-opacity="0.1"></path><path fill-rule="evenodd" clip-rule="evenodd" d="M37.0236 103.618C37.4129 103.801 37.5797 104.265 37.3962 104.655C36.9166 105.672 36.6672 106.535 36.7223 107.258C36.7728 107.919 37.0846 108.557 37.9798 109.154C38.3379 109.393 38.4347 109.876 38.1959 110.234C37.9572 110.593 37.4734 110.689 37.1153 110.451C35.8721 109.622 35.2595 108.573 35.1683 107.377C35.0817 106.242 35.4735 105.078 35.9864 103.99C36.17 103.601 36.6343 103.434 37.0236 103.618Z" fill="white" fill-opacity="0.1"></path><path fill-rule="evenodd" clip-rule="evenodd" d="M37.0881 93.7834C37.5174 93.815 37.8397 94.1886 37.8081 94.6178C37.7169 95.8562 37.6924 97.3048 38.0515 98.4209C38.227 98.9663 38.4783 99.3802 38.8104 99.6574C39.1309 99.925 39.5883 100.117 40.2845 100.117C40.7149 100.117 41.0638 100.466 41.0638 100.897C41.0638 101.327 40.7149 101.676 40.2845 101.676C39.2747 101.676 38.4495 101.386 37.8116 100.854C37.1852 100.331 36.8021 99.6264 36.5678 98.8982C36.1074 97.467 36.1621 95.7477 36.2537 94.5034C36.2853 94.0741 36.6589 93.7518 37.0881 93.7834Z" fill="white" fill-opacity="0.1"></path><path fill-rule="evenodd" clip-rule="evenodd" d="M36.9315 84.1982C37.3582 84.142 37.7497 84.4423 37.8059 84.869C37.8372 85.1062 37.8637 85.3436 37.8902 85.5798C37.9689 86.2829 38.0463 86.9748 38.2419 87.6146C38.4911 88.4301 38.8735 88.9473 39.5325 89.1557C40.048 89.3188 40.6243 89.3288 41.3143 89.3288C41.7447 89.3288 42.0936 89.6777 42.0936 90.1081C42.0936 90.5384 41.7447 90.8874 41.3143 90.8874H41.3031C40.6502 90.8874 39.8389 90.8874 39.0625 90.6418C37.7111 90.2143 37.0748 89.1289 36.7513 88.0701C36.5089 87.277 36.4089 86.3756 36.3281 85.6474C36.305 85.4395 36.2835 85.2457 36.2607 85.0726C36.2045 84.6459 36.5048 84.2544 36.9315 84.1982Z" fill="white" fill-opacity="0.1"></path><path fill-rule="evenodd" clip-rule="evenodd" d="M43.5849 93.956C44.0094 93.8853 44.411 94.1721 44.4817 94.5966C44.5244 94.8527 44.5652 95.122 44.6073 95.3999C44.7611 96.4157 44.9325 97.5475 45.2786 98.5757C45.7205 99.8888 46.356 100.747 47.3269 100.99C47.7444 101.094 47.9983 101.517 47.8939 101.935C47.7895 102.352 47.3664 102.606 46.9488 102.502C45.1826 102.06 44.2936 100.535 43.8014 99.0729C43.4067 97.9003 43.2085 96.5839 43.0542 95.5599C43.0156 95.3036 42.9798 95.0657 42.9443 94.8528C42.8736 94.4283 43.1604 94.0268 43.5849 93.956Z" fill="white" fill-opacity="0.1"></path><path fill-rule="evenodd" clip-rule="evenodd" d="M36.8526 68.1106C37.2738 68.1993 37.5433 68.6126 37.4547 69.0337C37.2385 70.0607 37.1289 70.9318 37.1289 71.9556C37.1289 72.8539 37.4483 73.3266 38.0694 74.2457C38.1099 74.3056 38.1517 74.3675 38.1948 74.4315C38.4351 74.7886 38.3405 75.2729 37.9834 75.5132C37.6264 75.7535 37.1421 75.6589 36.9018 75.3018C36.8494 75.224 36.7969 75.1468 36.7444 75.0699C36.1482 74.1948 35.5703 73.3467 35.5703 71.9556C35.5703 70.803 35.6958 69.8226 35.9295 68.7127C36.0182 68.2915 36.4315 68.022 36.8526 68.1106Z" fill="white" fill-opacity="0.1"></path><path fill-rule="evenodd" clip-rule="evenodd" d="M89.9606 88.1556C90.3785 88.2585 90.6339 88.6806 90.5311 89.0986C90.4576 89.3971 90.4077 89.7758 90.3465 90.2415C90.3388 90.2996 90.331 90.359 90.3229 90.4198C90.2538 90.9407 90.1687 91.5392 90.0162 92.0978C89.8655 92.6502 89.6295 93.241 89.2101 93.7014C88.7634 94.1916 88.1509 94.4864 87.377 94.4864C86.9466 94.4864 86.5977 94.1375 86.5977 93.7071C86.5977 93.2767 86.9466 92.9278 87.377 92.9278C87.7127 92.9278 87.9069 92.8175 88.058 92.6517C88.2364 92.4559 88.3893 92.1395 88.5126 91.6875C88.6342 91.2418 88.7084 90.7387 88.7779 90.2149C88.7857 90.156 88.7935 90.0963 88.8014 90.0362C88.8598 89.5892 88.9218 89.1152 89.0176 88.726C89.1205 88.3081 89.5427 88.0527 89.9606 88.1556Z" fill="white" fill-opacity="0.1"></path><path fill-rule="evenodd" clip-rule="evenodd" d="M47.7457 37.1077C48.1728 37.161 48.4757 37.5505 48.4223 37.9776C48.2396 39.4394 47.0028 40.0267 45.9927 40.2897C45.4654 40.4269 44.9105 40.5022 44.419 40.5577C44.2534 40.5764 44.0988 40.5926 43.954 40.6077C43.6461 40.6399 43.3823 40.6675 43.15 40.7051C42.7252 40.7739 42.325 40.4852 42.2562 40.0604C42.1875 39.6355 42.4761 39.2353 42.901 39.1666C43.1782 39.1217 43.5132 39.0866 43.845 39.0518C43.9799 39.0377 44.1143 39.0236 44.2441 39.009C44.7194 38.9553 45.1842 38.8896 45.6001 38.7813C46.4764 38.5532 46.8199 38.2315 46.8758 37.7843C46.9292 37.3572 47.3186 37.0543 47.7457 37.1077Z" fill="white" fill-opacity="0.1"></path><path d="M56.4941 54.1494C56.4941 56.5166 55.6219 58.4356 54.5459 58.4356C53.4699 58.4356 52.5977 56.5166 52.5977 54.1494C52.5977 51.7822 53.4699 49.8633 54.5459 49.8633C55.6219 49.8633 56.4941 51.7822 56.4941 54.1494Z" fill="black"></path><path d="M77.5332 54.1494C77.5332 56.5166 76.6609 58.4356 75.585 58.4356C74.509 58.4356 73.6367 56.5166 73.6367 54.1494C73.6367 51.7822 74.509 49.8633 75.585 49.8633C76.6609 49.8633 77.5332 51.7822 77.5332 54.1494Z" fill="black"></path></g><path fill-rule="evenodd" clip-rule="evenodd" d="M69.5453 323.336C60.9599 323.336 54 316.376 54 307.791V163.738C54 155.152 60.9599 148.192 69.5453 148.192H76.2826V100.001L124.474 148.192H318.27C326.855 148.192 333.815 155.152 333.815 163.738V307.791C333.815 316.376 326.855 323.336 318.27 323.336H69.5453Z" fill="white"></path><path d="M76.2826 148.192H77.2826V149.192H76.2826V148.192ZM76.2826 100.001H75.2826V97.5868L76.9897 99.2939L76.2826 100.001ZM124.474 148.192V149.192H124.06L123.767 148.9L124.474 148.192ZM55 307.791C55 315.824 61.5121 322.336 69.5453 322.336V324.336C60.4076 324.336 53 316.928 53 307.791H55ZM55 163.738V307.791H53V163.738H55ZM69.5453 149.192C61.5121 149.192 55 155.705 55 163.738H53C53 154.6 60.4076 147.192 69.5453 147.192V149.192ZM76.2826 149.192H69.5453V147.192H76.2826V149.192ZM77.2826 100.001V148.192H75.2826V100.001H77.2826ZM123.767 148.9L75.5755 100.708L76.9897 99.2939L125.181 147.485L123.767 148.9ZM318.27 149.192H124.474V147.192H318.27V149.192ZM332.815 163.738C332.815 155.705 326.303 149.192 318.27 149.192V147.192C327.407 147.192 334.815 154.6 334.815 163.738H332.815ZM332.815 307.791V163.738H334.815V307.791H332.815ZM318.27 322.336C326.303 322.336 332.815 315.824 332.815 307.791H334.815C334.815 316.928 327.407 324.336 318.27 324.336V322.336ZM69.5453 322.336H318.27V324.336H69.5453V322.336Z" fill="black"></path></svg>