<svg id="Layer_1" data-name="Layer 1" xmlns="http://www.w3.org/2000/svg" viewBox="0 0 270 270"><defs><style>.cls-1,.cls-10{fill:#f5fafe;}.cls-2,.cls-5,.cls-7,.cls-8{fill:none;}.cls-2,.cls-21{stroke:#81c6ef;}.cls-10,.cls-18,.cls-2,.cls-21,.cls-5,.cls-7,.cls-8{stroke-miterlimit:10;}.cls-18,.cls-3{fill:#81c6ef;}.cls-21,.cls-4{fill:#fff;}.cls-5{stroke:#f45a6d;}.cls-6{fill:#bbeafa;}.cls-10,.cls-7,.cls-8{stroke:#cde8f9;}.cls-10,.cls-18,.cls-8{stroke-linecap:round;}.cls-9{fill:#dce2f3;}.cls-11{fill:#8a1d1d;}.cls-12{fill:#2c3c9b;}.cls-13{fill:#fddee2;}.cls-14{fill:#66b2d8;}.cls-15{fill:#3a50ce;}.cls-16{fill:#9ce3ff;}.cls-17{fill:#3ee5b1;}.cls-18{stroke:#ecfff7;stroke-width:3px;}.cls-19{fill:#1d2867;}.cls-20{fill:#f45a6d;}.cls-22{fill:#b2f5e0;}.cls-23{fill:#2a4aae;}</style></defs><circle class="cls-1" cx="135" cy="135" r="135"/><path class="cls-2" d="M66.52,181.86V84.21H199v97.65a3.44,3.44,0,0,1-3.43,3.44H70A3.45,3.45,0,0,1,66.52,181.86Z"/><path class="cls-2" d="M66.52,77.08A3.44,3.44,0,0,1,70,73.64H195.54A3.44,3.44,0,0,1,199,77.08v7.13H66.52Z"/><path class="cls-2" d="M189.38,79.71a1.86,1.86,0,1,1,1.86,1.86A1.86,1.86,0,0,1,189.38,79.71Z"/><path class="cls-2" d="M181.49,79.71a1.86,1.86,0,1,1,1.86,1.86A1.86,1.86,0,0,1,181.49,79.71Z"/><path class="cls-2" d="M173.53,79.71a1.87,1.87,0,1,1,1.86,1.86A1.86,1.86,0,0,1,173.53,79.71Z"/><circle class="cls-3" cx="198" cy="124.94" r="9"/><path class="cls-4" d="M197,129.47a1.23,1.23,0,0,1-.85-.35L193,126a1.2,1.2,0,0,1,1.69-1.69l2.19,2.19,4.24-5.58a1.2,1.2,0,1,1,1.91,1.45L198,129a1.23,1.23,0,0,1-.87.47Z"/><circle class="cls-5" cx="179.5" cy="101.5" r="6"/><path class="cls-6" d="M148.71,122.47c-1.87,0-3.39.46-3.39,1V131c0,.58,1.52,1,3.39,1a11.63,11.63,0,0,0,1.22-.07h0l.4,0,.08,0,.32-.07h.06l.32-.09.06,0,.25-.1h0l.22-.12.05,0a.83.83,0,0,0,.15-.11v0a.45.45,0,0,0,.11-.13v0a.28.28,0,0,0,0-.15v-7.45h0C152.09,122.93,150.58,122.47,148.71,122.47Z"/><path class="cls-6" d="M157.75,117.92c-1.87,0-3.39.47-3.39,1v12c0,.58,1.52,1,3.39,1a11.63,11.63,0,0,0,1.22-.07h0l.4,0,.08,0,.31-.07h.07l.32-.09.06,0,.25-.1h0l.22-.12.05,0a.83.83,0,0,0,.15-.11v0a.45.45,0,0,0,.11-.13v0a.28.28,0,0,0,0-.15V119h0C161.13,118.39,159.62,117.92,157.75,117.92Z"/><path class="cls-6" d="M170.17,114.42c0-.58-1.51-1-3.38-1s-3.39.46-3.39,1h0V131c0,.58,1.52,1,3.39,1a9.9,9.9,0,0,0,2-.2h0a3.72,3.72,0,0,0,.61-.18h0l.22-.1,0,0,.18-.1h0a.77.77,0,0,0,.13-.12l0,0a.24.24,0,0,0,.06-.09l0,0a.28.28,0,0,0,0-.13V114.42Z"/><path class="cls-7" d="M56,57.88A19.94,19.94,0,1,1,75.94,37.94,20,20,0,0,1,56,57.88Z"/><polyline class="cls-8" points="56.17 27.88 56.17 38.5 49.09 45"/><ellipse class="cls-9" cx="63.87" cy="267.68" rx="53.52" ry="2.25"/><path class="cls-8" d="M20.72,266.66a1.41,1.41,0,0,1-.49-.09,1.46,1.46,0,0,1-.9-1.87l16.13-46.24a.2.2,0,0,1,.26-.12l2.38.83a.18.18,0,0,1,.12.1.18.18,0,0,1,0,.16L22.1,265.67a1.43,1.43,0,0,1-.74.84A1.46,1.46,0,0,1,20.72,266.66Z"/><path class="cls-8" d="M70.87,266.68a1.38,1.38,0,0,1-1.3-.93l-15-43a.22.22,0,0,1,.12-.27l2.22-.77a.22.22,0,0,1,.16,0,.17.17,0,0,1,.1.12l15,43a1.38,1.38,0,0,1-.85,1.76h0A1.44,1.44,0,0,1,70.87,266.68Zm.39-.27Z"/><path class="cls-10" d="M20.77,174.2c4.53-.13,1.58,27,10.64,37.62s42.54,6.11,43.14,8.67S36.73,231.05,26.29,218,18.41,174.27,20.77,174.2Z"/><path class="cls-11" d="M112.39,117.32c-1.09-1.55-2.91-1.56-4.25-2.74a5.16,5.16,0,0,1-1.65-3c-.2-1.22.36-2.44-.2-3.62-.72-1.52-2.6-1.7-4.08-1.53-2.3.27-3.5-2.18-5.52-2.77-3.17-.93-7.39-.24-9.35,2.64-.55.79-.89,2.17-1.66,2.76-1.23.94-3.35,1.19-4.12,2.81-1.72,3.68,1.18,5.65-.2,9.38-.93,2.5-2.85,2.91-4.51,4.79a5.27,5.27,0,0,0-.8,6.5c.58.94,2.71,2.67,1.11,3.62a5.5,5.5,0,0,1-1.12.46,10.91,10.91,0,0,0-7.22,6.45c-2.85,8.11,4.92,13.66,11.83,15.49,5.53,1.47,14.52,1.73,19.6-.83,7.53-3.8,13.71-11.53,12.42-21.15-.31-2.34-2.39-4.55-1.74-7a46.23,46.23,0,0,1,2-4.45,9.82,9.82,0,0,0,.54-5.06A6.76,6.76,0,0,0,112.39,117.32Z"/><path class="cls-12" d="M89.83,172.43s-.82,12.59,0,17.44c.27,1.63,1,16.63,3.3,33.08,2.72,19.06,4.14,39.26,4.14,39.26a3.46,3.46,0,0,0,4.09-.12s7.56-87.63,7.06-91.18C106.21,171.88,96.51,172.87,89.83,172.43Z"/><path class="cls-13" d="M133.93,115.62c-.43-.07-.21.49-.06.85a6.66,6.66,0,0,1,.47,2.1c.55-.34.81-.1,1-.92A5,5,0,0,0,133.93,115.62Z"/><path class="cls-13" d="M139.18,115.29c-.12,0,.13-1-.35-1a.53.53,0,0,0-.4-.43,1.05,1.05,0,0,0-1.08.14c-.24.21-.76,1-1,1.27a27.5,27.5,0,0,0-1.55,2.31,11.1,11.1,0,0,0-.83,1.84,21.22,21.22,0,0,0,3,1.83c.57-1,2-4.24,2.08-4.31C139.94,115.79,139.66,115.25,139.18,115.29Z"/><path class="cls-13" d="M119.16,136.86c-6.14.68-18.8-.32-22.66.4-.7.13.56,8.21,1.28,9.45,1.67,2.87,18.81-1.53,24.61-4.14C124.59,141.58,126.7,136,119.16,136.86Z"/><path class="cls-14" d="M115.5,135.75c-6-1-12.63-3.55-15.45-3.75-.73-.05-4.93,10.05-2.1,12,1.83,1.25,8.31,3.39,15.66,3.3.25-.84.73-3.45.91-4.31A52.24,52.24,0,0,0,115.5,135.75Z"/><path class="cls-13" d="M119.29,138.27a2.29,2.29,0,0,0-.31.74c-.33,1.29,0,3.28,2.69,3.69,2.92.44,12.26-14.9,15.37-21.58-.87-.33-1.61-1.41-2.79-2.27C132.43,123,121.6,134.69,119.29,138.27Z"/><path class="cls-15" d="M75.36,170.91c-.27,1.93,1.75,44.64,2.64,51.16.75,5.49-1,38.56-1,38.56s2.31,1.83,4.18.77c0,0,7.8-24.2,10.52-43.26,1-7.31,3.08-16.12,4.7-24.55,1.87-9.67,3.57-19.21,3.57-19.21C93.32,174.82,77.58,171.88,75.36,170.91Z"/><path class="cls-13" d="M91.78,121.91c.27,1.86-.26,7-.9,8,1.54,3.42,7.13,3.4,7.52,1.39-.9-2.17,0-6.2,0-6.59C97.07,124.92,92.25,122.25,91.78,121.91Z"/><path class="cls-13" d="M96.84,115.22c-2.72.18-4.36,2.55-4.17,5.24,0,0,.19,2.8.19,2.8.14,2,3.49,5,5.23,4.52,4.13-1.17,4.5-8.9,4.29-9.76C101.82,115.63,99.37,115,96.84,115.22Z"/><path class="cls-3" d="M104.19,133.3c-.89-.51-5.79-2-5.79-2a3.59,3.59,0,0,1-2.52,1.37c-2-.15-5-2.76-5-2.76s-4.24,1.17-5.67,1.51c-4.28,1-6.07,3.29-7.62,7.55-.48,1.31-2.25,27.16-4.46,42.8-.66,4.7,35,7.2,37.19,3.41.87-1.55-.39-15.65-2.41-43.67C107.71,138.7,107.65,135.31,104.19,133.3Z"/><path class="cls-13" d="M91.33,121a2.44,2.44,0,0,0,1.39,1.92c.3-.73.92-2.19,1.18-3.11a2.28,2.28,0,0,0-1.13-.39C92.06,119.37,91.36,120.28,91.33,121Z"/><path class="cls-13" d="M113.93,173.09a7.33,7.33,0,0,1-2.14.09c.77.21.57.66,1.34,1,.33,0,1.7-.56,1.63-.89C114.7,172.78,114.31,173,113.93,173.09Z"/><path class="cls-13" d="M116.55,175.44c-.14-.08-2.08-1.19-3-1.58a17,17,0,0,0-2.34-.86,17,17,0,0,0-1.95,3c1.28.58,5.41,2.08,5.5,2.14,1.51.9,2.15.62,2,.13,0-.12,1.18.15,1.19-.34a.57.57,0,0,0,.5-.4,2,2,0,0,0-.29-1.09A12.81,12.81,0,0,0,116.55,175.44Z"/><path class="cls-13" d="M92,136.4c-.15-.7-8.19.82-9.41,1.58-2.81,1.75,2.12,18.75,4.9,24.47,1.06,2.17,6.68,4.11,5.61-3.41C92.25,152.92,92.86,140.24,92,136.4Z"/><path class="cls-16" d="M80.8,138.92c-.59,2.13-.14,8.54,1.94,15.41a20.67,20.67,0,0,0,10.78-2c-.79-6,0-13.56-1.5-15.91C90.1,133.37,82.32,133.44,80.8,138.92Z"/><path class="cls-13" d="M90.69,158.65c-1.31-.27-3.28.16-3.57,2.85-.32,2.93,15.84,11.91,22.65,14.74a14.26,14.26,0,0,1,1.69-3.17c-4.18-1.64-16.35-12-20-14.14A3.18,3.18,0,0,0,90.69,158.65Z"/><circle class="cls-17" cx="137.04" cy="106.01" r="11.5"/><line class="cls-18" x1="132.62" y1="105.55" x2="142.23" y2="105.55"/><line class="cls-18" x1="137.06" y1="100.89" x2="137.06" y2="110.51"/><path class="cls-19" d="M85.69,266A7.24,7.24,0,0,1,82,264.88c-.92-.76-.38-5.65-.14-6.58a46,46,0,0,1-5.2-1c-.15,1.44-.75,7.6-1,8.2a1.48,1.48,0,0,0,0,1.38c.7.92,1.62.86,2.53.91l8.51.53a.82.82,0,0,0,1-.84C87.77,267.12,87.45,266.1,85.69,266Z"/><path class="cls-19" d="M105.69,266a7.24,7.24,0,0,1-3.66-1.11c-.92-.76-.38-5.65-.14-6.58a46,46,0,0,1-5.2-1c-.15,1.44-.75,7.6-1,8.2a1.48,1.48,0,0,0,0,1.38c.7.92,1.62.86,2.53.91l8.51.53a.82.82,0,0,0,1-.84C107.77,267.12,107.45,266.1,105.69,266Z"/><ellipse class="cls-9" cx="202.44" cy="267.68" rx="33.45" ry="2.25"/><path class="cls-2" d="M190.18,250.62a.12.12,0,0,1-.12.12h0a.12.12,0,0,1-.11-.12c0-.2.05-19.94.66-24.1.28-1.83,2.76-6,2.87-6.22a.11.11,0,0,1,.19.11"/><path class="cls-2" d="M193.79,250.53a.11.11,0,0,1-.11.11h0a.11.11,0,0,1-.12-.11c0-.05.08-4.42.61-8.83.72-6,1.9-9.16,3.51-9.49a.12.12,0,0,1,0,.23"/><path class="cls-17" d="M193,221.39s-1.38-12.43,5.12-8.59S193,221.39,193,221.39Z"/><path class="cls-17" d="M196.78,232.9s.27-15.66,7.28-6.55S196.78,232.9,196.78,232.9Z"/><path class="cls-2" d="M201.7,239.1a.11.11,0,0,1,.13.1.11.11,0,0,1-.1.13c-3.6.45-3.92,11.09-3.92,11.2a.11.11,0,0,1-.11.11h0a.11.11,0,0,1-.11-.12"/><path class="cls-17" d="M200.79,239.58s.27-9.74,7.29-4.08S200.79,239.58,200.79,239.58Z"/><path class="cls-4" d="M196.78,233a.15.15,0,0,1-.09,0,.11.11,0,0,1,0-.16l5.9-5a.12.12,0,0,1,.16,0,.14.14,0,0,1,0,.17l-5.9,5A.11.11,0,0,1,196.78,233Z"/><path class="cls-4" d="M200.79,229.61h0a.12.12,0,0,1-.11-.12l.1-3a.13.13,0,0,1,.12-.11h0a.1.1,0,0,1,.11.12l-.1,3A.11.11,0,0,1,200.79,229.61Z"/><path class="cls-4" d="M202.32,231.91h0l-3.38-.74A.11.11,0,0,1,199,231l3.37.73a.11.11,0,0,1,.09.14A.11.11,0,0,1,202.32,231.91Z"/><path class="cls-4" d="M193,221.5a.07.07,0,0,1-.06,0,.11.11,0,0,1,0-.15l3.9-6.61a.12.12,0,0,1,.2.12l-3.9,6.6A.11.11,0,0,1,193,221.5Z"/><path class="cls-4" d="M194.26,219.34a.12.12,0,0,1-.11-.09l-.4-2.51a.11.11,0,0,1,.09-.13.12.12,0,0,1,.14.1l.4,2.5a.12.12,0,0,1-.1.13Z"/><path class="cls-4" d="M200.79,239.69a.12.12,0,0,1-.09-.05.11.11,0,0,1,0-.16l4.61-2.82a.11.11,0,0,1,.16,0,.11.11,0,0,1,0,.16l-4.61,2.81S200.81,239.69,200.79,239.69Z"/><path class="cls-4" d="M206.88,237.8h-3a.11.11,0,0,1-.12-.11.12.12,0,0,1,.12-.12h3a.11.11,0,0,1,.11.12A.11.11,0,0,1,206.88,237.8Z"/><path class="cls-4" d="M202,238.94h0a.13.13,0,0,1-.1-.13l.3-2.07a.11.11,0,0,1,.13-.1.11.11,0,0,1,.09.13l-.29,2.07A.12.12,0,0,1,202,238.94Z"/><path class="cls-2" d="M182.75,232.44a.12.12,0,0,1,.05-.23c1.6.33,2.78,3.52,3.5,9.49.54,4.41.61,8.78.61,8.83a.11.11,0,0,1-.11.11h0a.11.11,0,0,1-.12-.11"/><path class="cls-17" d="M183.7,232.9s-.27-15.66-7.28-6.55S183.7,232.9,183.7,232.9Z"/><path class="cls-2" d="M182.9,250.52a.12.12,0,0,1-.12.12h0a.11.11,0,0,1-.11-.11c0-.11-.32-10.75-3.93-11.2a.13.13,0,0,1-.1-.13.12.12,0,0,1,.13-.1"/><path class="cls-17" d="M179.68,239.58s-.27-9.74-7.28-4.08S179.68,239.58,179.68,239.58Z"/><path class="cls-4" d="M183.7,233a.13.13,0,0,1-.08,0l-5.89-5a.12.12,0,0,1,0-.17.12.12,0,0,1,.16,0l5.89,5a.11.11,0,0,1,0,.16A.18.18,0,0,1,183.7,233Z"/><path class="cls-4" d="M179.68,229.61a.11.11,0,0,1-.11-.11l-.11-3a.12.12,0,1,1,.23,0l.11,3a.12.12,0,0,1-.11.12Z"/><path class="cls-4" d="M178.16,231.91a.12.12,0,0,1-.12-.09.13.13,0,0,1,.09-.14l3.37-.73a.11.11,0,1,1,.05.22l-3.37.74Z"/><path class="cls-4" d="M179.68,239.69a.07.07,0,0,1-.06,0L175,236.86a.13.13,0,0,1,0-.16.12.12,0,0,1,.16,0l4.61,2.82a.11.11,0,0,1,0,.16A.12.12,0,0,1,179.68,239.69Z"/><path class="cls-4" d="M176.59,237.8h-3a.11.11,0,0,1-.12-.11.12.12,0,0,1,.12-.12h3a.12.12,0,0,1,.12.12A.12.12,0,0,1,176.59,237.8Z"/><path class="cls-4" d="M178.45,238.94a.12.12,0,0,1-.12-.1l-.29-2.07a.12.12,0,1,1,.23,0l.29,2.07a.11.11,0,0,1-.1.13Z"/><path class="cls-4" d="M195.35,217.37a.12.12,0,0,1-.11-.07.12.12,0,0,1,.07-.15l2.85-1.06a.11.11,0,0,1,.15.06.11.11,0,0,1-.06.15l-2.86,1.06Z"/><path class="cls-20" d="M203.83,256.65c-.3,4-2,8.77-7.94,10.55a18.65,18.65,0,0,1-5.43.72c-17.4,0-14.45-17.39-14.45-17.39h27.36A21.14,21.14,0,0,1,203.83,256.65Z"/><path class="cls-8" d="M216.22,210a.05.05,0,0,1,0-.05,5.77,5.77,0,0,0-.18-3.66,5.83,5.83,0,0,0-4.59-3.66,0,0,0,0,1,0-.05,3.67,3.67,0,1,0-6.92.22,3.6,3.6,0,0,0,1.62,1.87,5.84,5.84,0,0,0,1.38,8.67,0,0,0,0,1,0,0,7.77,7.77,0,1,0,8.73-3.39Z"/><path class="cls-8" d="M210.89,224.77a7.95,7.95,0,0,1-3.62-11.34,6,6,0,0,1-1.44-8.69,3.88,3.88,0,0,1-1.52-1.85,3.84,3.84,0,1,1,7.21-2.64,3.76,3.76,0,0,1,.07,2.25,6,6,0,0,1,4.58,3.75,6,6,0,0,1,.22,3.64,7.95,7.95,0,1,1-5.5,14.88ZM216.22,210Zm-4.67-7.37Z"/><path class="cls-8" d="M216.75,224.81a.17.17,0,0,0,.16.11H217a.17.17,0,0,0,.1-.22l-9.7-25"/><line class="cls-8" x1="208.61" y1="203.03" x2="205.9" y2="201.81"/><path class="cls-8" d="M212,212.23a.17.17,0,0,0,.17-.16.16.16,0,0,0-.15-.19l-4.46-.5a.17.17,0,0,0-.19.15.18.18,0,0,0,.15.19l4.46.5Z"/><path class="cls-8" d="M214,217.39a.2.2,0,0,0,.14-.06l3.45-4.5a.17.17,0,1,0-.27-.21l-3.46,4.5a.18.18,0,0,0,0,.24A.23.23,0,0,0,214,217.39Z"/><path class="cls-8" d="M215.56,221.44a.16.16,0,0,0,.17-.14.17.17,0,0,0-.15-.2l-6-.78a.16.16,0,0,0-.19.14.17.17,0,0,0,.14.2l6,.78Z"/><path class="cls-10" d="M209.61,213.53a11.15,11.15,0,0,1,4.39-8.92,8.42,8.42,0,0,1-1.62-5,8.52,8.52,0,0,1,4.19-7.32,5.42,5.42,0,0,1,4.49-8.68,5.41,5.41,0,0,1,4.12,8.68,8.5,8.5,0,0,1,2.58,12.3,11.27,11.27,0,1,1-18.15,8.92Zm4.48-9Z"/><path class="cls-8" d="M220.88,224.8a.17.17,0,0,0,.17-.17V186.35"/><path class="cls-8" d="M221,198.41a.16.16,0,0,0-.05-.23l-4.52-2.9"/><line class="cls-8" x1="223.74" y1="188.48" x2="221.36" y2="190.81"/><line class="cls-8" x1="226.36" y1="201.81" x2="221.36" y2="204.81"/><path class="cls-8" d="M221,213.2A.17.17,0,0,0,221,213l-6.92-4.2"/><path class="cls-8" d="M220.88,219.48l.08,0,7.51-4.12a.17.17,0,0,0,.07-.24.16.16,0,0,0-.23-.06l-7.52,4.12a.18.18,0,0,0-.07.23A.18.18,0,0,0,220.88,219.48Z"/><path class="cls-10" d="M225.25,224.91a7.95,7.95,0,0,1,.58-15,6,6,0,0,1,.22-3.64,6,6,0,0,1,4.58-3.75,3.76,3.76,0,0,1,.07-2.25,3.84,3.84,0,1,1,7.21,2.64,3.88,3.88,0,0,1-1.52,1.85,6,6,0,0,1-1.44,8.69,7.95,7.95,0,0,1-9.7,11.48Z"/><path class="cls-8" d="M234.85,199.68l-9.7,25a.17.17,0,0,0,.1.22h.06"/><line class="cls-8" x1="231.36" y1="207.81" x2="229.9" y2="204.43"/><line class="cls-8" x1="236.32" y1="201.81" x2="233.61" y2="203.03"/><line class="cls-8" x1="234.68" y1="211.38" x2="230.22" y2="211.88"/><line class="cls-8" x1="228.19" y1="216.6" x2="224.91" y2="212.62"/><path class="cls-8" d="M232.59,220.32l-6,.78a.17.17,0,0,0-.15.2"/><path class="cls-7" d="M216.32,265.55l-2.53-34.15-.39-5.28a.39.39,0,0,1,.39-.42H228a.39.39,0,0,1,.28.13.41.41,0,0,1,.11.29l-.4,5.28-2.53,34.15a.39.39,0,0,1-.39.37h-8.33A.39.39,0,0,1,216.32,265.55Z"/><path class="cls-7" d="M213.79,231.4l-.08-1.08a.15.15,0,0,1,0-.13.16.16,0,0,1,.13-.06h14a.16.16,0,0,1,.13.06.15.15,0,0,1,0,.13L228,231.4a16.17,16.17,0,0,1-.17,2.16H214A16.17,16.17,0,0,1,213.79,231.4Z"/><path class="cls-21" d="M128.4,188.88v-43.2H187v43.2a1.52,1.52,0,0,1-1.52,1.52H129.92A1.52,1.52,0,0,1,128.4,188.88Z"/><path class="cls-21" d="M128.4,142.52a1.52,1.52,0,0,1,1.52-1.52h55.56a1.52,1.52,0,0,1,1.52,1.52v3.16H128.4Z"/><path class="cls-22" d="M137.68,170.69a1.81,1.81,0,1,1-1.81-1.81A1.81,1.81,0,0,1,137.68,170.69Z"/><path class="cls-22" d="M149.32,161.6a1.82,1.82,0,1,1-1.81-1.81A1.81,1.81,0,0,1,149.32,161.6Z"/><path class="cls-22" d="M160.4,153.43a1.82,1.82,0,1,1-1.82-1.81A1.81,1.81,0,0,1,160.4,153.43Z"/><path class="cls-22" d="M171.76,161.17a1.82,1.82,0,1,1-1.82-1.82A1.82,1.82,0,0,1,171.76,161.17Z"/><path class="cls-22" d="M183.11,152.52a1.81,1.81,0,1,1-1.81-1.82A1.81,1.81,0,0,1,183.11,152.52Z"/><polygon class="cls-22" points="136.17 171.09 135.56 170.29 158.57 152.81 169.93 160.8 181.29 152.12 181.9 152.91 169.96 162.04 158.6 154.05 136.17 171.09"/><path class="cls-23" d="M145.36,180.1a1.43,1.43,0,1,1-1.43-1.43A1.43,1.43,0,0,1,145.36,180.1Z"/><path class="cls-23" d="M154.39,171.07a1.43,1.43,0,1,1-1.43-1.43A1.43,1.43,0,0,1,154.39,171.07Z"/><path class="cls-23" d="M161.67,178.36a1.43,1.43,0,1,1-1.43-1.43A1.43,1.43,0,0,1,161.67,178.36Z"/><path class="cls-23" d="M169.15,170.88a1.43,1.43,0,1,1-1.43-1.43A1.43,1.43,0,0,1,169.15,170.88Z"/><polygon class="cls-23" points="144.22 180.4 143.63 179.81 153.05 170.39 160.45 177.79 167.54 170.7 168.13 171.29 160.45 178.97 153.05 171.57 144.22 180.4"/></svg>