<svg xmlns="http://www.w3.org/2000/svg" xmlns:xlink="http://www.w3.org/1999/xlink" width="34.313" height="32.192" viewBox="0 0 34.313 32.192"><defs><style>.a{fill:none;}.b{clip-path:url(#a);}.c{fill:#000000;}</style><clipPath id="a"><rect class="a" width="34.314" height="32.192"/></clipPath></defs><g class="b"><g transform="translate(0 10.483)"><path class="c" d="M190.653,1252.529h-32.27a1.227,1.227,0,0,1,0-2.42h32.27a1.227,1.227,0,0,1,0,2.42Z" transform="translate(-157.361 -1250.109)"/></g><g transform="translate(0 0)"><path class="c" d="M158.571,1089.692a1.21,1.21,0,0,1-.882-2.037l9.835-10.483a1.21,1.21,0,1,1,1.764,1.655l-9.835,10.484A1.206,1.206,0,0,1,158.571,1089.692Z" transform="translate(-157.361 -1076.789)"/></g><g transform="translate(0 19.289)"><g transform="translate(0 0)"><path class="c" d="M190.653,1398.107h-32.27a1.227,1.227,0,0,1,0-2.419h32.27a1.227,1.227,0,0,1,0,2.419Z" transform="translate(-157.361 -1395.688)"/></g><g transform="translate(22.059 0)"><path class="c" d="M627.447,1408.59a1.21,1.21,0,0,1-.882-2.037l9.835-10.483a1.21,1.21,0,1,1,1.764,1.655l-9.835,10.484A1.206,1.206,0,0,1,627.447,1408.59Z" transform="translate(-626.237 -1395.687)"/></g></g></g></svg>