<svg fill="none" height="134" viewBox="0 0 168 134" width="168" xmlns="http://www.w3.org/2000/svg" xmlns:xlink="http://www.w3.org/1999/xlink"><clipPath id="a"><path d="m0 0h168v134h-168z"></path></clipPath><g clip-path="url(#a)"><ellipse cx="108.931" cy="60.8101" fill="#e5f1fb" rx="58.993" ry="60.8082"></ellipse><path d="m53.7988 127.564h34.3425v-34.3426h-12.0199v13.7366l-35.201-35.2007-8.5856 8.5856 35.201 35.2011h-13.737z" fill="#f47878"></path><path d="m86.5938 29.1924h13.7372l-35.2013 35.201 8.5856 8.5856 35.2007-35.201v13.737h12.02v-34.3425h-34.3422z" fill="#3abf57"></path><g stroke="#000" stroke-width="2.5"><path d="m55.0308 126.332v-9.556h12.505 2.9742l-2.1031-2.103-34.3299-34.3301 6.8434-6.8434 34.3299 34.3295 2.1031 2.103v-2.974-12.5047h9.556v31.8787z"></path><path d="m108.045 36.9069-34.3297 34.3299-6.8434-6.8434 34.3301-34.3299 2.103-2.103h-2.974-12.5053v-9.556h31.8783v31.8786h-9.556v-12.5051-2.9741z"></path></g></g></svg>