<svg fill="none" height="134" viewBox="0 0 169 134" width="169" xmlns="http://www.w3.org/2000/svg"><ellipse cx="109.227" cy="66.8082" fill="#e5f1fb" rx="58.993" ry="60.8082"></ellipse><path d="m99.3263 65.9004c-17.6979 29.9503-35.8496 44.9256-75.7833 52.6396l1.3613 4.538h74.422z" fill="#b8fb9d"></path><path d="m127.91 122.39c-3.104-1.156-6.956-3.132-9.343-5.224l1.592 4.423h-19.814v-60.0318l-2.2979 4.5337c-17.2258 34.0011-53.3329 50.0961-73.0036 50.5581v-88.3206l4.3517 1.582c-2.0817-2.3999-4.0468-6.2707-5.197-9.3909-1.1514 3.1202-3.1165 6.991-5.1982 9.3909l3.6145-1.3135v95.4341h97.2425l-1.29 3.584c2.387-2.092 6.239-4.068 9.343-5.225zm-29.9941-.801h-6.0727v-40.2832c0-.1868-.0486-.3589-.1227-.5163 2.2154-2.9419 4.2971-6.0499 6.1954-9.3445zm-8.5018-37.865v37.865h-6.0727v-30.5175c0-.1722-.0364-.3345-.1008-.4822 2.1388-2.1594 4.2011-4.4507 6.1735-6.8653zm-49.7961 37.865h-6.0727v-3.462c1.9518-.373 3.9837-.856 6.0776-1.448 0 .01-.0049.018-.0049.027zm2.1983-5.56c2.0575-.644 4.1623-1.384 6.3035-2.233v7.793h-6.0727v-4.883c0-.256-.0972-.481-.2308-.677zm8.6864-3.216c1.6263-.694 3.2659-1.449 4.914-2.26 0 .017-.0097.031-.0097.05v10.986h-4.8581v-8.545c0-.082-.0316-.154-.0462-.231zm6.782-3.206c2.2056-1.143 4.4185-2.379 6.6241-3.733v15.715h-6.0727v-10.986c0-.423-.2271-.777-.5514-.996zm9.0252-5.251c2.0526-1.336 4.0894-2.778 6.1007-4.303v21.536h-6.0727v-17.09c0-.05-.0231-.093-.028-.143zm8.4885-6.1666c2.0793-1.6736 4.1245-3.4448 6.1139-5.3259v28.7255h-6.0726v-23.1933c0-.0732-.0292-.1367-.0413-.2063zm-49.7549 20.9006c1.8874-.042 3.9206-.226 6.0727-.549v3.048h-6.0727z" fill="#000"></path><path d="m25.3555 51.3789h93.4815" stroke="#000" stroke-linecap="round" stroke-width="2"></path></svg>