<svg fill="none" height="134" viewBox="0 0 169 134" width="169" xmlns="http://www.w3.org/2000/svg"><ellipse cx="108.259" cy="60.8082" fill="#e5f1fb" rx="58.993" ry="60.8082"></ellipse><path d="m22.1668 80.0987-20.90118-23.8292h56.21688l-21.6219 23.8292v27.4393l-13.6938 6.499z" fill="#5fb5f4"></path><path d="m80.3633 48.744v-15.1639h13.6938v15.1639l-7.2073 5.0547z" fill="#ffdf3a"></path><path d="m48.0887 84.3936v7.943m13.6845-15.886v15.886m13.6845-7.943v7.943m13.6846-15.886v15.886m13.6847-7.943v7.943m12.964-15.886v15.886m13.685-7.943v7.943m-81.3873-49.8244h33.1309m0 0v-9.3872h13.6846v9.3872m-13.6846 0v6.4988l7.2024 5.0547 6.4822-5.0547v-6.4988m0 0h34.5718m-128.476 13.3024 21.6072 24.5512v33.2162l13.6845-6.499v-26.7172l21.6072-24.5512z" stroke="#000" stroke-linejoin="round" stroke-width="2"></path></svg>