<svg fill="none" height="134" viewBox="0 0 168 134" width="168" xmlns="http://www.w3.org/2000/svg"><ellipse cx="108.759" cy="60.8082" fill="#e5f1fb" rx="58.993" ry="60.8082"></ellipse><path d="m87.8444 33.6455s2.4389 1.1552 2.5672 2.5672c.1418 1.5596-2.5672 3.0807-2.5672 3.0807h-18.9976s-2.709-1.5211-2.5672-3.0807c.1284-1.412 2.5672-2.5672 2.5672-2.5672h1.539c-6.4232-7.239-13.7981-13.5926-11.2958-15.4035 6.8906-1.8368 11.5941.6761 19.511 3.0807 10.188-3.7803 14.7124-4.8152 20.0244-3.5941 2.4386.8491-1.4092 5.248-12.3227 15.9169z" fill="#e8d5b1"></path><path d="m70.3858 33.6455h-1.539s-2.4388 1.1552-2.5672 2.5672c-.1418 1.5596 2.5672 3.0807 2.5672 3.0807h18.9976s2.709-1.5211 2.5672-3.0807c-.1283-1.412-2.5672-2.5672-2.5672-2.5672h-1.5417m-15.9169 0c-6.4232-7.239-13.7981-13.5926-11.2958-15.4035 6.8906-1.8368 11.5941.6761 19.511 3.0807 10.188-3.7803 14.7124-4.8152 20.0244-3.5941 2.4386.8491-1.4092 5.248-12.3227 15.9169m-15.9169 0h15.9169" stroke="#000" stroke-linejoin="round" stroke-width="2.5"></path><path d="m42.6748 85.5325c.8156 5.8643 2.3692 14.9135-6.6748 22.0785 33.1711 1.705 51.322 1.479 84.719 0-6.793-6.6-5.135-12.8364-5.135-22.0785 0-26.1858-7.086-34.9023-27.2124-46.2102h-19.511c-19.0386 11.5294-29.0431 25.6657-26.1858 46.2102z" fill="#e8d5b1" stroke="#000" stroke-linejoin="round" stroke-width="2.5"></path><path clip-rule="evenodd" d="m75.3881 53.5469h4.591v3.8863h.6911v-3.8863h4.5911v4.0982c1.836.2793 3.432.7898 4.6385 1.6717l.0053.0039c1.849 1.3792 2.7993 3.2142 2.7993 5.5754 0 1.8198-.6747 3.3565-1.7274 4.5932-.6453.7581-1.4282 1.353-2.3084 1.8212 1.202.4223 2.2467 1.0869 3.1218 2.0007 1.3338 1.3929 1.9944 3.0761 1.9944 5.2499 0 2.8211-1.0372 5.1551-3.0049 6.8016-1.4405 1.2516-3.2937 2.0186-5.5186 2.3378v3.9649h-4.5911v-3.8863h-.6911v3.8863h-4.591v-3.8863h-7.9233v-6.0247h3.1959c.5771 0 1.0059-.431 1.0059-1.0621v-16.1723c0-.6311-.4288-1.0621-1.0059-1.0621h-3.1959v-6.0247h7.9233zm2.521 8.5249h3.6307v.1275c1.4188.0316 2.7416.4105 3.5011 1.1804.7901.6777 1.0608 1.655 1.0608 2.6447 0 1.1337-.2788 2.0791-1.0341 2.8679l-.2397.2504-.0219.0228-.0234.0204c-.8596.7481-1.9816 1.1672-3.4375 1.1672v-.6931c0-.693 0 0 0 .6931h-3.436zm0 11.7845h4.0363c1.1224 0 2.0876.128 2.9469.5767l.016.0084c.229.1194.5345.2789.8389.5833 1.0262.7874 1.4349 1.8911 1.4349 3.2856 0 1.2745-.4115 2.5227-1.4788 3.3189l-.0431.0322-.0476.0248c-.0548.0286-.1243.0803-.2568.184-.0053.0042-.0108.0086-.0165.013-.1081.0848-.271.2125-.447.3045-.8105.4231-1.7552.7021-2.9469.7021h-4.0363z" fill="#000" fill-rule="evenodd"></path></svg>