<svg fill="none" height="134" viewBox="0 0 168 134" width="168" xmlns="http://www.w3.org/2000/svg"><ellipse cx="108.598" cy="60.8082" fill="#e5f1fb" rx="58.993" ry="60.8082"></ellipse><path d="m76.3798 93.4814c-13.6138 0-40.2939-12.5151-43.1103-20.8745 12.2794-14.6441 21.7554-19.4637 43.1103-22.2358 20.3822 4.8642 31.3212 8.1614 43.1102 22.2358-11.21 11.741-29.4964 20.8745-43.1102 20.8745z" fill="#fff"></path><g clip-rule="evenodd" fill-rule="evenodd"><path d="m58.2325 54.4518c-4.3714 5.0273 2.3189 25.5108 17.6979 25.4124 14.9711-2.8973 18.2415-9.0431 18.1517-25.4124-14.3861-4.6737-22.1477-4.9458-35.8496 0zm17.6969 13.6142c2.7568 0 4.9917-2.2349 4.9917-4.9917 0-2.7569-2.2349-4.9918-4.9917-4.9918-2.7569 0-4.9917 2.2349-4.9917 4.9918 0 2.7568 2.2348 4.9917 4.9917 4.9917z" fill="#858585"></path><path d="m46.9141 32.7235c-.2018.0076-.3982.0685-.5699.1767s-.3128.2599-.4094.4403-.1454.3833-.1416.5887.06.4063.1632.5829l5.9809 10.5742c.1546.2711.4085.4689.7062.55.2976.081.6147.0388.8818-.1176.2671-.1563.4624-.4139.5431-.7164s.0402-.6253-.1125-.8975l-5.981-10.5742c-.1045-.1909-.259-.3487-.4462-.4558-.1872-.1072-.4-.1595-.6146-.1513z" fill="#000"></path><path d="m61.1804 27.6387c-.1724.0017-.3422.0424-.4973.119-.1551.0765-.2915.1872-.3994.3239-.1079.1368-.1846.2962-.2246.4668s-.0422.3481-.0066.5196l2.1037 10.8679c.0269.1551.0839.3032.1678.4356.0838.1324.1928.2465.3205.3355.1277.0891.2716.1514.4233.1832.1516.0317.308.0324.4599.002.1519-.0305.2963-.0914.4248-.1793.1284-.0879.2384-.201.3234-.3327.085-.1316.1433-.2792.1715-.4341s.0258-.3139-.0071-.4678l-2.1037-10.8679c-.0492-.2746-.1922-.5227-.4038-.7005-.2115-.1777-.478-.2738-.7524-.2712z" fill="#000"></path><path d="m90.8023 27.6387c-.2683.003-.5273.1002-.7333.2751s-.3463.4168-.3971.6848l-2.2274 10.9099c-.0353.1538-.0399.3131-.0137.4688.0262.1556.0827.3044.1662.4375.0836.1331.1924.2478.3202.3375s.2719.1524.4238.1846c.152.0322.3088.0331.4611.0027.1523-.0303.2972-.0914.426-.1795s.2389-.2015.324-.3336.1433-.2802.1713-.4355l2.2274-10.9099c.0383-.1742.0373-.3549-.0028-.5287s-.1183-.3361-.2287-.4748c-.1105-.1387-.2503-.2502-.4091-.3262s-.3324-.1145-.5079-.1127z" fill="#000"></path><path d="m104.643 33.4746c-.208-.0014-.414.0541-.594.1609s-.329.261-.43.4463l-5.7752 10.1965c-.0778.1348-.1286.284-.1494.4389-.0209.1548-.0114.3123.0279.4635.0393.1511.1076.2928.201.417.0934.1241.21.2282.3432.3063.1331.078.2801.1285.4325.1485s.3072.009.4554-.0321c.1483-.0412.287-.1118.4083-.2078s.2227-.2155.2984-.3516l5.7749-10.1964c.105-.1792.161-.3834.163-.592.003-.2085-.049-.4139-.15-.5955-.1-.1816-.246-.333-.423-.4388s-.378-.1622-.583-.1637z" fill="#000"></path><path d="m120.237 39.6919c-.302.009-.589.1374-.8.358l-10.395 10.5742c-.217.2223-.339.5234-.339.8372.001.3137.123.6145.341.8362.219.2218.514.3464.823.3466.308.0002.604-.124.822-.3455l10.395-10.5742c.168-.1665.283-.3806.329-.6145.047-.2339.022-.4767-.069-.6964-.092-.2196-.246-.4061-.444-.5349-.197-.1287-.428-.1938-.663-.1867z" fill="#000"></path><path d="m32.2 39.8145c-.2315-.0025-.4585.0653-.6519.1947s-.3446.3145-.4341.5317c-.0895.2171-.1134.4565-.0685.6875.0449.2311.1565.4432.3205.6094l10.4357 10.8679c.106.1147.2334.2068.3748.2708s.2939.0987.4486.102c.1548.0034.3086-.0247.4525-.0825.144-.0579.2751-.1443.3858-.2543s.1988-.2413.259-.3864c.0602-.145.0914-.3008.0917-.4582.0004-.1575-.0301-.3133-.0897-.4586s-.1471-.2771-.2573-.3876l-10.4357-10.8679c-.1073-.1149-.2362-.2066-.379-.2699s-.2967-.0969-.4524-.0986z" fill="#000"></path><path d="m75.9821 24.5783c-.3085.0049-.6024.1342-.8173.3594-.2148.2252-.333.5279-.3286.8417v13.0498c-.0032.1576.0246.3142.0816.4607.0571.1465.1423.28.2507.3925.1084.1126.2378.202.3806.2631.1428.061.2962.0925.4511.0925s.3082-.0315.451-.0925c.1428-.0611.2722-.1505.3806-.2631.1084-.1125.1936-.246.2507-.3925s.0848-.3031.0816-.4607v-13.0498c.0023-.1585-.0268-.3158-.0854-.4626-.0587-.1468-.1457-.2803-.2559-.3923s-.2414-.2003-.3858-.2598c-.1445-.0595-.2991-.0889-.4549-.0864z" fill="#000"></path><path d="m41.7941 70.5313c-.2413.0006-.4764.0774-.6729.2199-.1964.1424-.3445.3435-.4238.5753-.0792.2318-.0857.483-.0186.7187s.2046.4444.3934.5972c5.8771 4.8839 8.9617 7.1074 13.648 9.5762.136.0754.2856.1224.4397.1383.1542.0158.31.0002.4581-.0459.1482-.0462.2858-.1221.4048-.223.119-.101.217-.2252.2882-.3652s.1143-.293.1266-.4502c.0123-.1571-.0064-.3152-.0549-.4649s-.1259-.2881-.2277-.407-.2258-.2159-.3649-.2854c-4.5533-2.3987-7.4085-4.4564-13.2458-9.3074-.2103-.1793-.4759-.2772-.7502-.2766z" fill="#000"></path><path d="m60.7256 82.5827c-.2713-.009-.5371.0786-.7516.2479-.2144.1692-.364.4094-.4229.6789-.0588.2696-.0233.5516.1006.7973.1238.2457.3281.4396.5776.5483.7095.3208 1.4533.6986 2.3047 1.0883.1396.0651.2904.1015.4438.107.1535.0055.3065-.0199.4502-.0748.1437-.0548.2754-.138.3874-.2449.112-.1068.2023-.2351.2652-.3775.063-.1424.0978-.2961.1022-.4522.0045-.1561-.0215-.3116-.0763-.4574-.0548-.1459-.1375-.2792-.2432-.3924-.1058-.1133-.2325-.2042-.3728-.2674-.7985-.3656-1.5397-.7418-2.3151-1.0923-.1413-.0665-.2942-.1035-.4498-.1088z" fill="#000"></path><path d="m76.0058 56.2344c-3.4873 0-6.3613 2.9237-6.3613 6.4712 0 3.5474 2.874 6.4711 6.3613 6.4711 3.4871 0 6.3611-2.9237 6.3611-6.4711 0-3.5475-2.874-6.4712-6.3611-6.4712zm0 2.3682c2.2049 0 4.0332 1.8598 4.0332 4.103 0 2.2431-1.8283 4.1029-4.0332 4.1029-2.2051 0-4.0333-1.8598-4.0333-4.1029 0-2.2432 1.8282-4.103 4.0333-4.103z" fill="#000"></path><path d="m75.0028 49.6757c-14.9606.1338-29.4539 7.5047-43.4722 21.4642-.798.8473-.6001 1.4568-.0361 2.0354 14.0296 13.9828 28.5351 21.3672 43.5086 21.5011 14.903.1332 30.0819-6.8892 45.5099-21.2421.925-.919.989-1.4454.181-2.2944-15.493-14.4748-30.7255-21.598-45.6909-21.4642zm.036 2.3684c5.6184-.0502 11.298.9824 17.0616 3.1086.6636 1.8779 1.0186 3.8614 1.0186 5.9582 0 9.5979-7.6225 17.3934-17.098 17.3934-9.4753 0-17.1342-7.7955-17.1342-17.3934 0-2.2498.4143-4.3579 1.1641-6.3282 4.9616-1.7516 9.9572-2.6936 14.9879-2.7386zm-17.7526 3.7747c-.4586 1.6861-.7276 3.4472-.7276 5.2921 0 10.8791 8.7265 19.7619 19.4624 19.7619 10.7361 0 19.4262-8.8828 19.4262-19.7619 0-1.6834-.2313-3.3172-.6185-4.8849 7.7183 3.3003 15.5363 8.6334 23.5363 15.9871-14.937 13.7222-29.3382 20.2199-43.3262 20.0949-13.9917-.1252-27.6986-6.8921-41.2168-20.1319 7.7598-7.6004 15.5597-13.0599 23.4642-16.3573z" fill="#000"></path></g></svg>