<svg xmlns="http://www.w3.org/2000/svg" fill="#fff" width="16" height="16" viewBox="0 0 16 16"><defs><style>.a{fill:#fff;}</style></defs><path class="a" d="M9,17a8,8,0,1,1,8-8A8.009,8.009,0,0,1,9,17ZM9,2.455A6.545,6.545,0,1,0,15.545,9,6.553,6.553,0,0,0,9,2.455Z" transform="translate(-1 -1)"/><g transform="translate(7.227 7.102)"><path class="a" d="M11.773,15.636A.773.773,0,0,1,11,14.864V11.773a.773.773,0,1,1,1.545,0v3.091A.773.773,0,0,1,11.773,15.636Z" transform="translate(-11 -11)"/></g><g transform="translate(7.227 4.339)"><path class="a" d="M11.773,8.546a.769.769,0,0,1-.294-.062.8.8,0,0,1-.255-.162A.813.813,0,0,1,11,7.773a.947.947,0,0,1,.015-.147.466.466,0,0,1,.046-.147.585.585,0,0,1,.07-.139,1.218,1.218,0,0,1,.093-.116.8.8,0,0,1,.255-.162.786.786,0,0,1,.842.162,1.218,1.218,0,0,1,.093.116.585.585,0,0,1,.07.139.466.466,0,0,1,.046.147.947.947,0,0,1,.015.147.813.813,0,0,1-.224.549l-.116.093a.585.585,0,0,1-.139.07.491.491,0,0,1-.139.046A1.161,1.161,0,0,1,11.773,8.546Z" transform="translate(-11 -7.003)"/></g></svg>