<?xml version="1.0" standalone="no"?>
<!DOCTYPE svg PUBLIC "-//W3C//DTD SVG 20010904//EN"
 "http://www.w3.org/TR/2001/REC-SVG-20010904/DTD/svg10.dtd">
<svg version="1.0" xmlns="http://www.w3.org/2000/svg"
 width="1080.000000pt" height="1080.000000pt" viewBox="0 0 1080.000000 1080.000000"
 preserveAspectRatio="xMidYMid meet">

<g transform="translate(0.000000,1080.000000) scale(0.100000,-0.100000)"
fill="#000000" stroke="none">
<path d="M4120 6677 l0 -123 213 -84 c116 -46 248 -98 292 -116 44 -19 233
-94 420 -168 l340 -135 3 120 c3 137 5 133 -81 163 -29 10 -305 119 -614 242
-310 123 -565 224 -568 224 -3 0 -5 -55 -5 -123z"/>
<path d="M4122 6158 l3 -122 60 -23 c33 -13 80 -32 105 -43 25 -10 99 -40 165
-65 66 -25 129 -50 140 -55 11 -5 101 -41 200 -80 99 -39 234 -93 300 -120 66
-27 161 -65 211 -84 l91 -36 229 91 c126 50 254 100 284 111 30 11 73 29 95
38 22 10 117 48 210 85 223 87 365 144 390 155 11 5 32 14 48 20 l27 10 0 120
c0 96 -3 120 -14 120 -8 0 -47 -14 -87 -31 -41 -16 -90 -36 -109 -43 -19 -8
-269 -107 -554 -220 l-519 -207 -186 74 c-102 41 -341 136 -531 211 -190 75
-361 144 -380 152 -51 23 -161 64 -171 64 -6 0 -8 -53 -7 -122z"/>
<path d="M4110 5650 c0 -86 4 -130 11 -130 6 0 38 -11 72 -24 168 -65 704
-278 722 -286 11 -5 56 -24 100 -41 233 -91 303 -119 338 -133 l38 -17 212 85
c117 46 400 159 629 250 229 91 421 166 427 166 7 0 11 42 11 125 0 75 -4 125
-10 125 -10 0 -217 -79 -275 -105 -16 -7 -106 -43 -200 -80 -93 -36 -224 -88
-290 -115 -388 -158 -504 -200 -527 -190 -13 5 -81 32 -153 60 -71 28 -161 64
-200 80 -60 24 -228 91 -747 296 -48 19 -103 41 -123 50 l-35 14 0 -130z"/>
<path d="M4111 5155 c-2 -112 6 -139 41 -151 13 -4 46 -17 75 -30 28 -13 54
-24 58 -24 5 0 794 -312 865 -342 14 -5 74 -30 135 -54 l109 -44 201 80 c110
44 396 158 635 253 l435 173 3 122 c2 75 -1 122 -7 122 -6 0 -20 -4 -33 -10
-13 -5 -93 -37 -178 -70 -85 -33 -164 -65 -175 -70 -11 -5 -164 -66 -340 -135
-176 -70 -369 -147 -429 -171 l-109 -45 -351 139 c-193 77 -477 190 -630 251
-154 61 -285 111 -291 111 -8 0 -12 -35 -14 -105z"/>
<path d="M6340 4620 c-179 -71 -463 -185 -632 -252 l-308 -122 0 -123 c0 -68
3 -123 6 -123 6 0 794 311 849 335 17 7 107 43 200 80 94 36 180 71 193 77 21
11 22 17 22 135 0 68 -1 123 -2 123 -2 0 -149 -59 -328 -130z"/>
</g>
</svg>
