<?xml version="1.0" standalone="no"?>
<!DOCTYPE svg PUBLIC "-//W3C//DTD SVG 20010904//EN"
 "http://www.w3.org/TR/2001/REC-SVG-20010904/DTD/svg10.dtd">
<svg version="1.0" xmlns="http://www.w3.org/2000/svg"
 width="1080.000000pt" height="1080.000000pt" viewBox="0 0 1080.000000 1080.000000"
 preserveAspectRatio="xMidYMid meet">

<g transform="translate(0.000000,1080.000000) scale(0.100000,-0.100000)"
fill="rgba(29, 78, 216, 1)" stroke="none">
<path d="M2670 5975 c0 -30 5 -55 10 -55 6 0 130 -48 277 -106 147 -59 273
-109 280 -111 10 -4 13 9 13 49 l0 54 -152 61 c-332 132 -411 163 -419 163 -5
0 -9 -25 -9 -55z"/>
<path d="M3745 5765 c-44 -19 -172 -70 -284 -115 l-204 -80 -66 26 c-36 14
-133 53 -216 85 -82 33 -159 64 -170 69 -48 22 -99 40 -114 40 -13 0 -15 -9
-12 -51 2 -40 7 -52 25 -59 11 -5 141 -57 287 -114 l266 -105 291 116 292 115
0 54 c0 30 -3 54 -7 53 -5 -1 -44 -16 -88 -34z"/>
<path d="M4160 5395 l0 -286 73 3 72 3 3 110 3 110 94 -3 95 -3 0 -110 0 -109
70 0 70 0 0 285 0 285 -70 0 -69 0 -3 -101 -3 -101 -93 -1 -92 -2 0 103 0 102
-75 0 -75 0 0 -285z"/>
<path d="M4962 5618 c-36 -75 -78 -166 -162 -348 -34 -74 -67 -141 -73 -148
-8 -10 5 -12 68 -10 l78 3 12 35 12 35 125 3 126 3 16 -41 16 -40 70 0 c38 0
70 2 70 5 0 5 -86 190 -215 463 -47 98 -50 102 -80 102 -30 0 -35 -5 -63 -62z
m93 -233 c14 -31 25 -60 25 -65 0 -10 -102 -14 -112 -5 -5 6 49 125 57 125 2
0 16 -25 30 -55z"/>
<path d="M5380 5610 l0 -70 110 0 c82 0 110 -3 110 -13 0 -6 -24 -53 -53 -102
-29 -50 -77 -133 -107 -185 -29 -52 -60 -103 -68 -112 -14 -17 -3 -18 226 -18
l242 0 0 75 0 75 -110 0 c-60 0 -110 2 -110 4 0 5 204 357 228 394 l14 22
-241 0 -241 0 0 -70z"/>
<path d="M5950 5395 l0 -285 75 0 75 0 0 151 0 151 74 -66 c41 -36 77 -66 81
-66 5 0 59 48 122 109 27 26 33 -8 31 -147 l-3 -132 73 0 72 0 0 285 0 285
-32 0 c-25 0 -49 -16 -122 -82 -50 -46 -95 -88 -99 -95 -4 -7 -17 -17 -28 -23
-19 -11 -44 9 -233 182 -11 10 -35 18 -53 18 l-33 0 0 -285z"/>
<path d="M6670 5395 l0 -285 75 0 75 0 0 285 0 285 -75 0 -75 0 0 -285z"/>
<path d="M7110 5663 c-61 -22 -142 -104 -163 -167 -49 -144 5 -274 146 -355
34 -19 57 -24 117 -25 65 0 82 4 128 28 77 43 78 46 23 100 l-49 48 -32 -17
c-42 -22 -116 -16 -153 11 -73 53 -68 180 9 230 30 20 128 24 146 6 20 -20 34
-14 81 35 l45 46 -27 22 c-65 54 -180 70 -271 38z"/>
<path d="M7532 5398 l3 -283 73 -3 72 -3 0 81 c0 82 10 120 33 120 6 0 57 -45
112 -100 l101 -101 99 3 99 3 -154 153 -153 154 129 129 129 129 -100 0 -100
0 -97 -97 -98 -98 0 98 0 97 -75 0 -75 0 2 -282z"/>
<path d="M2670 5516 l0 -55 58 -21 c31 -12 86 -34 122 -49 36 -16 142 -58 235
-95 l171 -66 64 25 c36 14 74 30 85 35 11 5 108 44 215 86 107 42 199 79 203
84 14 13 17 112 4 107 -7 -3 -138 -55 -292 -116 l-280 -111 -255 99 c-140 55
-272 107 -292 116 l-38 15 0 -54z"/>
<path d="M3575 5234 c-143 -57 -274 -109 -292 -114 -28 -10 -51 -3 -225 65
-106 42 -231 92 -276 110 -112 47 -114 46 -110 -16 l3 -52 120 -47 c66 -26
197 -77 292 -114 l172 -68 78 32 c76 31 147 60 378 150 61 24 114 46 118 50 5
4 7 30 5 58 l-3 50 -260 -104z"/>
<path d="M3760 5074 c-36 -14 -101 -41 -145 -59 -44 -18 -142 -57 -217 -86
l-138 -53 0 -53 c0 -29 1 -53 3 -53 1 0 49 18 107 41 58 23 119 46 135 53 17
6 99 38 182 71 l153 60 0 53 c0 28 -3 52 -7 52 -5 0 -37 -12 -73 -26z"/>
</g>
</svg>
