<svg id="Layer_1" data-name="Layer 1" xmlns="http://www.w3.org/2000/svg" viewBox="0 0 479.6 478.15"><defs><style>.cls-1,.cls-14,.cls-8{fill:#f5fafe;}.cls-2{fill:#bbeafa;}.cls-15,.cls-3,.cls-7,.cls-9{fill:none;}.cls-14,.cls-16,.cls-17,.cls-3{stroke:#81c6ef;}.cls-10,.cls-14,.cls-15,.cls-17,.cls-27,.cls-3,.cls-7,.cls-8,.cls-9{stroke-miterlimit:10;}.cls-4{fill:#cde8f9;}.cls-5{fill:#1d2867;}.cls-10,.cls-16,.cls-17,.cls-19,.cls-6{fill:#fff;}.cls-10,.cls-7,.cls-8,.cls-9{stroke:#cde8f9;}.cls-10,.cls-15,.cls-16,.cls-27,.cls-7,.cls-8{stroke-linecap:round;}.cls-11{fill:#dce2f3;}.cls-12{fill:#3ee5b1;}.cls-13{fill:#f45a6d;}.cls-15,.cls-27{stroke:#ecfff7;stroke-width:3px;}.cls-16{stroke-linejoin:round;}.cls-18,.cls-27{fill:#81c6ef;}.cls-19{fill-rule:evenodd;}.cls-20{fill:#272063;}.cls-21{fill:#2b69cc;}.cls-22{fill:#e3c9c9;}.cls-23{fill:#2659bf;}.cls-24{fill:#b95763;}.cls-25{fill:#b2f5e0;}.cls-26{fill:#2a4aae;}</style></defs><circle class="cls-1" cx="238.39" cy="241.53" r="232.59"/><path class="cls-2" d="M224.53,206.06c-4.33,0-7.84,1.08-7.84,2.4v17.26c0,1.32,3.51,2.4,7.84,2.4a23.07,23.07,0,0,0,2.84-.17s0,0,0,0h.07c.31,0,.62-.08.91-.13l.18,0c.26-.05.51-.1.74-.16l.15,0,.74-.21.15,0c.2-.07.4-.14.57-.22l.09,0q.28-.14.51-.27l.11-.07a3.75,3.75,0,0,0,.36-.27l0,0a1.36,1.36,0,0,0,.24-.31s0,0,0-.08a.8.8,0,0,0,.08-.33V208.46h0C232.36,207.14,228.85,206.06,224.53,206.06Z"/><path class="cls-2" d="M245.45,195.54c-4.33,0-7.84,1.08-7.84,2.4v27.78c0,1.32,3.51,2.4,7.84,2.4a23.07,23.07,0,0,0,2.84-.17s0,0,0,0h.07c.31,0,.62-.08.92-.13l.17,0c.26-.05.51-.1.74-.16l.15,0,.74-.21.15,0c.2-.07.4-.14.57-.22l.09,0q.28-.14.51-.27l.11-.07a2.81,2.81,0,0,0,.36-.27l0,0a1.13,1.13,0,0,0,.24-.31.3.3,0,0,0,0-.08.8.8,0,0,0,.08-.33V197.94h0C253.28,196.62,249.78,195.54,245.45,195.54Z"/><path class="cls-2" d="M274.21,187.42c0-1.32-3.51-2.4-7.84-2.4s-7.84,1.08-7.84,2.4h0v38.3c0,1.32,3.51,2.4,7.84,2.4a21.85,21.85,0,0,0,4.65-.47l.06,0a10.08,10.08,0,0,0,1.42-.42l0,0a4.68,4.68,0,0,0,.5-.22l.09,0a3.89,3.89,0,0,0,.42-.25h0a2.21,2.21,0,0,0,.32-.28l.06-.07a1.43,1.43,0,0,0,.15-.22l0-.08a.82.82,0,0,0,.07-.3v-38.3Z"/><path class="cls-3" d="M165.63,263.25V167.19h150v96.06a3.38,3.38,0,0,1-3.38,3.38H169A3.38,3.38,0,0,1,165.63,263.25Z"/><path class="cls-3" d="M165.63,160.17a3.38,3.38,0,0,1,3.38-3.38H312.23a3.38,3.38,0,0,1,3.38,3.38v7h-150Z"/><path class="cls-3" d="M306.17,162.75a1.84,1.84,0,1,1,1.84,1.84A1.83,1.83,0,0,1,306.17,162.75Z"/><path class="cls-3" d="M298.41,162.75a1.83,1.83,0,1,1,1.83,1.84A1.83,1.83,0,0,1,298.41,162.75Z"/><path class="cls-3" d="M290.58,162.75a1.84,1.84,0,1,1,1.83,1.84A1.83,1.83,0,0,1,290.58,162.75Z"/><path class="cls-4" d="M192.3,248.18a3.67,3.67,0,0,0-.08-2.64,4.16,4.16,0,0,0-1.84-1.95l.61-.08a4.36,4.36,0,0,0,.66-.21,3.25,3.25,0,0,0,2-2.27,4.09,4.09,0,0,0-.2-2.95,3.93,3.93,0,0,0-1.36-1.51,6.4,6.4,0,0,0-.64-.4l.59-1.91-2.64-.82-.54,1.73-1.77-.55.54-1.73-2.64-.83-.54,1.73-.74-.22-2.15-.68-.88,2.85,2.15.67-2.92,9.36-2.15-.67-.88,2.84,2.15.67.74.23-.54,1.73,2.64.83.54-1.73,1.77.55L183.6,252l2.64.82.56-1.8a4.94,4.94,0,0,0,3.56-.35A4.19,4.19,0,0,0,192.3,248.18Zm-2.53-9.25a1.41,1.41,0,0,1,.21,1.52c-.2.67-.57,1-1.08,1.09a5.64,5.64,0,0,1-2.17-.34l-1.59-.5,1-3.25,1.61.5A5.29,5.29,0,0,1,189.77,238.93Zm-2,8.92a5.27,5.27,0,0,1-2.27-.32l-2.31-.71,1.08-3.47,2,.62a6.91,6.91,0,0,1,2.34,1.09,1.43,1.43,0,0,1,.34,1.62A1.47,1.47,0,0,1,187.81,247.85Z"/><circle class="cls-5" cx="287.95" cy="211.34" r="5.5"/><path class="cls-6" d="M287.36,214.11a.7.7,0,0,1-.51-.22L284.92,212a.73.73,0,1,1,1-1l1.34,1.34,2.59-3.41a.74.74,0,1,1,1.17.89l-3.1,4.07a.77.77,0,0,1-.54.29Z"/><g id="Group_242" data-name="Group 242"><g id="Group_227" data-name="Group 227"><g id="Group_220" data-name="Group 220"><path id="Path_142" data-name="Path 142" class="cls-7" d="M422.52,369.8a21.06,21.06,0,0,0-8.25-16.8,16,16,0,0,0-4.86-23.14,10.16,10.16,0,1,0-16.19,0,16,16,0,0,0-7.88,13.78,15.83,15.83,0,0,0,3,9.36,21.21,21.21,0,1,0,34.15,16.8Z"/></g><g id="Group_221" data-name="Group 221"><path id="Path_143" data-name="Path 143" class="cls-7" d="M401.32,391a.33.33,0,0,1-.33-.33h0v-72"/></g><g id="Group_222" data-name="Group 222"><path id="Path_144" data-name="Path 144" class="cls-7" d="M401,341.35a.32.32,0,0,1,.1-.44l8.5-5.45"/></g><g id="Group_223" data-name="Group 223"><line id="Line_14" data-name="Line 14" class="cls-7" x1="395.92" y1="322.65" x2="400.4" y2="327.04"/></g><g id="Group_224" data-name="Group 224"><line id="Line_15" data-name="Line 15" class="cls-7" x1="391" y1="347.74" x2="400.41" y2="353.38"/></g><g id="Group_225" data-name="Group 225"><path id="Path_146" data-name="Path 146" class="cls-7" d="M401,369.17a.34.34,0,0,1,.11-.45l13-7.9"/></g><g id="Group_226" data-name="Group 226"><path id="Path_147" data-name="Path 147" class="cls-7" d="M401.32,381a.24.24,0,0,1-.15,0L387,373.19a.31.31,0,0,1-.13-.43.32.32,0,0,1,.44-.13l14.14,7.75a.32.32,0,0,1,.13.43.31.31,0,0,1-.29.17Z"/></g></g><g id="Group_235" data-name="Group 235"><g id="Group_228" data-name="Group 228"><path id="Path_148" data-name="Path 148" class="cls-8" d="M393.09,391.21A15,15,0,0,0,392,362.94a11.23,11.23,0,0,0-.42-6.85,11.35,11.35,0,0,0-8.61-7,7.22,7.22,0,1,0-10.84,4.21,11.31,11.31,0,0,0-1.61,11,11.11,11.11,0,0,0,4.32,5.34,14.95,14.95,0,0,0,18.25,21.61Z"/></g><g id="Group_229" data-name="Group 229"><path id="Path_149" data-name="Path 149" class="cls-7" d="M375,343.74l18.25,47.05a.33.33,0,0,1-.18.42h0l-.12,0"/></g><g id="Group_230" data-name="Group 230"><line id="Line_16" data-name="Line 16" class="cls-7" x1="381.59" y1="359.03" x2="384.34" y2="352.66"/></g><g id="Group_231" data-name="Group 231"><line id="Line_17" data-name="Line 17" class="cls-7" x1="372.25" y1="347.74" x2="377.36" y2="350.03"/></g><g id="Group_232" data-name="Group 232"><line id="Line_18" data-name="Line 18" class="cls-7" x1="375.34" y1="365.74" x2="383.74" y2="366.69"/></g><g id="Group_233" data-name="Group 233"><line id="Line_19" data-name="Line 19" class="cls-7" x1="387.56" y1="375.57" x2="393.73" y2="368.08"/></g><g id="Group_234" data-name="Group 234"><path id="Path_150" data-name="Path 150" class="cls-7" d="M379.27,382.56l11.2,1.48a.32.32,0,0,1,.28.36h0"/></g></g><g id="Group_241" data-name="Group 241"><g id="Group_240" data-name="Group 240"><g id="Group_237" data-name="Group 237"><g id="Group_236" data-name="Group 236"><path id="Path_151" data-name="Path 151" class="cls-9" d="M409.9,467.69l4.76-64.28.73-9.92a.74.74,0,0,0-.68-.79H388a.74.74,0,0,0-.74.74v.05l.74,9.92,4.76,64.28a.73.73,0,0,0,.73.68h15.69A.74.74,0,0,0,409.9,467.69Z"/></g></g><g id="Group_239" data-name="Group 239"><g id="Group_238" data-name="Group 238"><path id="Path_152" data-name="Path 152" class="cls-9" d="M414.66,403.41l.14-2a.31.31,0,0,0-.08-.24.31.31,0,0,0-.24-.1H388.14a.29.29,0,0,0-.23.1.28.28,0,0,0-.09.24l.15,2a32.66,32.66,0,0,0,.32,4.07h26A34.71,34.71,0,0,0,414.66,403.41Z"/></g></g></g></g><g id="Group_219" data-name="Group 219"><g id="Group_213" data-name="Group 213"><path id="Path_137" data-name="Path 137" class="cls-10" d="M420.11,391a15,15,0,0,0,7.65-19.72,16.72,16.72,0,0,0-.84-1.63,11.15,11.15,0,0,0,4.31-5.34,11.33,11.33,0,0,0-1.6-11,7.22,7.22,0,0,0-7.76-12.18,7.21,7.21,0,0,0-3.09,8,11.32,11.32,0,0,0-8.6,7,11.19,11.19,0,0,0-.43,6.86,15,15,0,0,0,8.62,28.65,15.86,15.86,0,0,0,1.74-.65Zm-10-27.76,8.78-13.87"/></g><g id="Group_214" data-name="Group 214"><path id="Path_138" data-name="Path 138" class="cls-7" d="M409.08,391a.31.31,0,0,1-.29.21l-.12,0a.31.31,0,0,1-.18-.42l18.25-47.05"/></g><g id="Group_215" data-name="Group 215"><line id="Line_13" data-name="Line 13" class="cls-7" x1="423.79" y1="351.5" x2="428.9" y2="349.22"/></g><g id="Group_216" data-name="Group 216"><path id="Path_139" data-name="Path 139" class="cls-7" d="M417.72,367a.32.32,0,0,1,.29-.33l8.4-.95"/></g><g id="Group_217" data-name="Group 217"><path id="Path_140" data-name="Path 140" class="cls-7" d="M408,368.08l6.15,8"/></g><g id="Group_218" data-name="Group 218"><path id="Path_141" data-name="Path 141" class="cls-7" d="M411,384.36a.32.32,0,0,1,.28-.32l11.2-1.48"/></g></g></g><ellipse class="cls-11" cx="236.13" cy="468.34" rx="192.33" ry="2.41"/><rect class="cls-7" x="356.81" y="326.9" width="7.3" height="140.2"/><rect class="cls-7" x="305.9" y="326.9" width="7.3" height="140.2"/><rect class="cls-7" x="116.2" y="326.9" width="7.3" height="140.2"/><rect class="cls-8" x="291.92" y="312.4" width="77.43" height="14.5"/><rect class="cls-8" x="102.91" y="312.4" width="189.01" height="14.5"/><path class="cls-3" d="M75.41,441.86a.18.18,0,0,0,.18.18h0a.18.18,0,0,0,.18-.18c0-.31-.08-31.18-1-37.69-.43-2.86-4.31-9.45-4.48-9.73a.18.18,0,0,0-.31.18"/><path class="cls-3" d="M69.75,441.72a.18.18,0,0,0,.18.18h0a.19.19,0,0,0,.18-.19c0-.06-.12-6.91-1-13.8-1.13-9.34-3-14.33-5.48-14.84a.17.17,0,0,0-.21.14.17.17,0,0,0,.14.21"/><path class="cls-12" d="M65.09,414.15s-.42-24.49-11.39-10.25S65.09,414.15,65.09,414.15Z"/><path class="cls-3" d="M57.38,423.85a.17.17,0,0,0-.2.15.18.18,0,0,0,.16.2c5.63.71,6.13,17.35,6.13,17.52a.18.18,0,0,0,.18.18h0a.19.19,0,0,0,.18-.19"/><path class="cls-12" d="M58.8,424.59s-.42-15.22-11.39-6.37S58.8,424.59,58.8,424.59Z"/><path class="cls-6" d="M65.09,414.33a.16.16,0,0,0,.13-.06.17.17,0,0,0,0-.25L56,406.19a.19.19,0,0,0-.26,0,.18.18,0,0,0,0,.25L65,414.29A.16.16,0,0,0,65.09,414.33Z"/><path class="cls-6" d="M58.8,409h0a.17.17,0,0,0,.17-.19l-.16-4.72a.18.18,0,0,0-.18-.17h0a.18.18,0,0,0-.17.19l.16,4.72A.19.19,0,0,0,58.8,409Z"/><path class="cls-6" d="M56.42,412.6h0l5.27-1.15a.18.18,0,0,0,.14-.22.18.18,0,0,0-.22-.13l-5.27,1.15a.18.18,0,0,0,0,.35Z"/><path class="cls-6" d="M58.8,424.77a.19.19,0,0,0,.16-.09.18.18,0,0,0-.06-.24L51.69,420a.18.18,0,0,0-.25.06.19.19,0,0,0,.06.25l7.21,4.4Z"/><path class="cls-6" d="M49.29,421.81H54a.18.18,0,1,0,0-.36H49.29a.18.18,0,0,0,0,.36Z"/><path class="cls-6" d="M56.87,423.59h0a.18.18,0,0,0,.15-.21l-.45-3.22a.2.2,0,0,0-.21-.16.19.19,0,0,0-.15.21l.46,3.23A.17.17,0,0,0,56.87,423.59Z"/><path class="cls-3" d="M87,413.42a.18.18,0,0,0-.07-.35c-2.51.51-4.36,5.5-5.48,14.84-.84,6.89-1,13.74-1,13.8a.17.17,0,0,0,.17.19h0a.19.19,0,0,0,.18-.18"/><path class="cls-12" d="M85.54,414.15S86,389.66,96.93,403.9,85.54,414.15,85.54,414.15Z"/><path class="cls-3" d="M86.8,441.71a.18.18,0,0,0,.17.19h0a.19.19,0,0,0,.18-.18c0-.17.5-16.81,6.13-17.52a.18.18,0,1,0-.05-.35"/><path class="cls-12" d="M91.82,424.59s.42-15.22,11.39-6.37S91.82,424.59,91.82,424.59Z"/><path class="cls-6" d="M85.54,414.33a.19.19,0,0,0,.12,0l9.21-7.83a.17.17,0,0,0,0-.25.17.17,0,0,0-.25,0L85.42,414a.19.19,0,0,0,0,.25A.2.2,0,0,0,85.54,414.33Z"/><path class="cls-6" d="M91.82,409a.18.18,0,0,0,.18-.17l.17-4.72a.19.19,0,0,0-.18-.19.17.17,0,0,0-.18.17l-.17,4.72a.19.19,0,0,0,.18.19Z"/><path class="cls-6" d="M94.21,412.6a.16.16,0,0,0,.17-.14.17.17,0,0,0-.13-.21L89,411.1a.17.17,0,0,0-.21.13.18.18,0,0,0,.14.22l5.27,1.15Z"/><path class="cls-6" d="M91.82,424.77a.19.19,0,0,0,.1,0l7.21-4.4a.19.19,0,0,0,.06-.25.18.18,0,0,0-.25-.06l-7.21,4.41a.17.17,0,0,0-.06.24A.16.16,0,0,0,91.82,424.77Z"/><path class="cls-6" d="M96.66,421.81h4.68a.18.18,0,1,0,0-.36H96.66a.18.18,0,0,0,0,.36Z"/><path class="cls-6" d="M93.75,423.59a.17.17,0,0,0,.18-.15l.46-3.23a.2.2,0,0,0-.16-.21.18.18,0,0,0-.2.16l-.46,3.22a.2.2,0,0,0,.16.21Z"/><path class="cls-12" d="M75.33,410.18S90.78,384,72.53,386,75.33,410.18,75.33,410.18Z"/><path class="cls-6" d="M75.16,410.22a.26.26,0,0,0,.15,0,.3.3,0,0,0,.25-.31l-2-18.32a.3.3,0,0,0-.31-.25.28.28,0,0,0-.25.31L75,410A.3.3,0,0,0,75.16,410.22Z"/><path class="cls-6" d="M74.54,404.38a.27.27,0,0,0,.35-.1l3.39-5.15a.29.29,0,0,0-.08-.39.28.28,0,0,0-.39.08L74.43,404a.28.28,0,0,0,.08.39Z"/><path class="cls-6" d="M73.88,398.87a.3.3,0,0,0,.31-.06.28.28,0,0,0,0-.4l-5.28-5.2a.27.27,0,0,0-.39,0,.28.28,0,0,0,0,.4l5.27,5.2Z"/><path class="cls-13" d="M54.05,451.29c.47,6.24,3.11,13.73,12.42,16.51a29.61,29.61,0,0,0,8.5,1.11c27.21,0,22.6-27.19,22.6-27.19H54.78A32.89,32.89,0,0,0,54.05,451.29Z"/><path class="cls-14" d="M210.2,146.93H150.12a1.58,1.58,0,0,0-1.65,1.51v46a1.58,1.58,0,0,0,1.65,1.51H210.2a1.58,1.58,0,0,0,1.65-1.51v-46A1.58,1.58,0,0,0,210.2,146.93Z"/><g id="Group_241-2" data-name="Group 241"><circle id="Ellipse_6" data-name="Ellipse 6" class="cls-12" cx="180.16" cy="171.44" r="12.11"/><g id="Group_131" data-name="Group 131"><line id="Line_1" data-name="Line 1" class="cls-15" x1="175.5" y1="170.95" x2="185.63" y2="170.95"/><line id="Line_2" data-name="Line 2" class="cls-15" x1="180.18" y1="166.05" x2="180.18" y2="176.18"/></g></g><g id="Path_165" data-name="Path 165"><path class="cls-16" d="M191.57,187.46l-.33-.8-3.55-8.49-.36-.86.86.36,8.48,3.55.8.34-.79.36-2.37,1.1,2.3,2.3.62.66-.27.27-.73.73-.27.27-.62-.66-2.3-2.3-1.1,2.38Z"/></g><path class="cls-9" d="M258.73,119.44l-.12-5.62-5-.32a15.53,15.53,0,0,0-2.09-5.07l3.26-4-4.06-3.89L247,103.84a15.3,15.3,0,0,0-5.06-2.11l-.54-5.15-5.63.12-.31,5a15.21,15.21,0,0,0-5.07,2.08l-4-3.26-3.9,4.07,3.33,3.76a15.23,15.23,0,0,0-2.12,5.06l-5.14.54.12,5.62,5,.32A15.3,15.3,0,0,0,225.7,125l-3.26,4,4.06,3.89,3.77-3.32a15.21,15.21,0,0,0,5.06,2.11l.53,5.15,5.63-.12.32-5a15.16,15.16,0,0,0,5.06-2.08l4,3.26,3.9-4.07L251.47,125a15.52,15.52,0,0,0,2.11-5.06Zm-20,4.69a7.44,7.44,0,1,1,7.28-7.59A7.43,7.43,0,0,1,238.76,124.13Z"/><path id="Path_144-2" data-name="Path 144" class="cls-4" d="M149.74,230.66a3.68,3.68,0,0,0-.2-2.63,4.1,4.1,0,0,0-1.91-1.88c.29-.05.5-.08.61-.11a5,5,0,0,0,.65-.23,3.24,3.24,0,0,0,1.87-2.35,4.08,4.08,0,0,0-.32-2.93,4,4,0,0,0-1.41-1.46,6.29,6.29,0,0,0-.67-.37l.52-1.94-2.67-.72-.47,1.75-1.79-.48.47-1.75-2.67-.71-.47,1.75-2.93-.79-.77,2.88,2.18.58-2.54,9.48-2.18-.58-.77,2.87,2.92.79-.47,1.75,2.68.71.47-1.75,1.79.48-.47,1.75,2.67.72.49-1.82a4.91,4.91,0,0,0,3.54-.49A4.28,4.28,0,0,0,149.74,230.66Zm-2.9-9.14a1.4,1.4,0,0,1,.27,1.51,1.34,1.34,0,0,1-1,1.14,5.73,5.73,0,0,1-2.18-.26l-1.61-.43.88-3.3,1.63.44A5.32,5.32,0,0,1,146.84,221.52Zm-1.61,9a5.17,5.17,0,0,1-2.28-.22l-2.33-.63.94-3.51,2,.54a6.86,6.86,0,0,1,2.38,1,1.39,1.39,0,0,1,.4,1.6,1.45,1.45,0,0,1-1.11,1.22Z"/><path class="cls-17" d="M148.47,148.53a1.63,1.63,0,0,1,1.65-1.6H210.2a1.63,1.63,0,0,1,1.65,1.6v3.33H148.47Z"/><rect class="cls-6" x="276" y="296.7" width="28.63" height="13.63"/><path class="cls-18" d="M304.14,297.2v12.63H276.5V297.2h27.64m1-1H275.5v14.63h29.64V296.2Z"/><rect class="cls-6" x="241.08" y="241.06" width="99.01" height="58.48" rx="4.35"/><path class="cls-18" d="M335.74,241.56a3.86,3.86,0,0,1,3.84,3.85v49.78a3.86,3.86,0,0,1-3.84,3.85H245.42a3.86,3.86,0,0,1-3.84-3.85V245.41a3.86,3.86,0,0,1,3.84-3.85h90.32m0-1H245.42a4.85,4.85,0,0,0-4.84,4.85v49.78a4.85,4.85,0,0,0,4.84,4.85h90.32a4.85,4.85,0,0,0,4.84-4.85V245.41a4.85,4.85,0,0,0-4.84-4.85Z"/><path class="cls-19" d="M267.06,312a2.26,2.26,0,1,1,0-4.51h44.88a2.26,2.26,0,1,1,0,4.51Z"/><path class="cls-18" d="M311.94,308a1.76,1.76,0,1,1,0,3.51H267.06a1.76,1.76,0,0,1,0-3.51h44.88m0-1H267.06a2.76,2.76,0,0,0,0,5.51h44.88a2.76,2.76,0,1,0,0-5.51Z"/><path class="cls-20" d="M181,331.67c11.38.55,76.66,23,100.9,37.58,10.32,6.19,6,17.24-5.32,16.55-32.81-2-81.84-1.87-101.15-15.7C144.71,348.12,174.9,331.37,181,331.67Z"/><path class="cls-20" d="M286.54,386.42c-20.9,38.19-38.85,70.05-38.85,70.05a7,7,0,0,0-8-3.17s12.12-35.89,24.35-72.26C272.12,357.07,295.07,370.85,286.54,386.42Z"/><path class="cls-20" d="M230.49,392.33c-20.91,38.19-34.42,65.75-34.42,65.75-1.32-2.45-7.26-5.5-10.55-4.54,0,0,10.26-30.23,22.49-66.59C216.07,363,239,376.75,230.49,392.33Z"/><path class="cls-21" d="M195.78,457.15c-1.13-1.11-5.47-3.31-5.47-3.31s-5.65-3.44-7,3.72c0,0-1.83,6.88-.58,8.57.71,1,8.55,2.3,10.57,3.23,1.61.75,4.12.65,6.94.23s6.16-2.29,6-4C205.92,462.3,198,459.28,195.78,457.15Z"/><path class="cls-21" d="M250.76,456.2c-1.13-1.11-5.47-3.31-5.47-3.31s-5.65-3.43-7,3.72c0,0-1.83,6.89-.58,8.57.71,1,8.56,2.3,10.57,3.23,1.61.75,4.12.65,6.95.24s6.15-2.29,6-4C260.9,461.36,253,458.34,250.76,456.2Z"/><path class="cls-22" d="M189.87,222.81c.92.68,10.44,6,13.16,5.6,0,.75-1.88,8.73-.13,13-.77,4-11.82,4-14.85-2.78C189.32,236.72,190.4,226.49,189.87,222.81Z"/><path class="cls-22" d="M199.92,209.61c5-.33,9.85.85,11,5.58.39,1.7-.38,17-8.55,19.28-3.45,1-10.07-4.95-10.33-9,0,0-.36-5.48-.36-5.54C191.28,214.64,194.53,210,199.92,209.61Z"/><path class="cls-23" d="M219.63,360.85c8.77-2.32,12.6-11.49,13-12.11-10.62-15.46-10.72-82.68-10.93-87.06-.44-9.38-.47-12.26-7.3-16.25-1.76-1-11.46-4-11.46-4a14.09,14.09,0,0,1-8.1.61c-5.11-1.09-6.75-3.39-6.75-3.39s-8.4,2.28-11.23,2.95c-8.48,2-11.53,8.08-13.5,15.43-.46,1.73-11,59-11.23,97.11,1.26.1,2.7.25,4.3.45l6.33.89c16.51,2.53,32.26,10.66,52.81,6.25"/><path class="cls-24" d="M207.64,218.41l2.85-4.29c.95-3.32.8-4.7.68-5.29-1.84-8.84-16.13-10.75-22.39-5.28s-7.78,15-4,21.53c1.94,3.36.65,2.83.65,2.83s2.94,3.69,6.32,4.93c11.39,4.18,14.16-8,14.16-8S203.26,217.13,207.64,218.41Z"/><path class="cls-22" d="M283.23,304.42c.37.56-1.7,2.65-2.34,2.82-1.67-.06-1.63-1-3.2-.86a14.35,14.35,0,0,0,3.87-1.75C282.19,304.18,282.74,303.51,283.23,304.42Z"/><path class="cls-22" d="M281.42,306.33c2,.05,6.37.67,6.68.71a25.86,25.86,0,0,1,3.79.66,3.8,3.8,0,0,1,1.34,1.8,1.14,1.14,0,0,1-.62,1.1c.34.91-2.06,1.3-1.93,1.5.54.83-.44,1.82-3.86,1.25-.21,0-8.91.25-11.69.11a34.71,34.71,0,0,1,1.36-7A34.85,34.85,0,0,1,281.42,306.33Z"/><path class="cls-21" d="M217,247.2c7.24,3.27,7.47,14.66,10.57,22.86s6.35,16.79,9.17,22.1a28.61,28.61,0,0,1,1.25,2.66c3.19,1.72,33.78,8.8,38.76,10.07L275,315.1c-12.41-1.69-42.28-3.87-49.22-10.83-7.35-7.17-28.05-34.06-25-42.44C205.79,247.91,215.8,246.65,217,247.2Z"/><path class="cls-6" d="M145.56,468.05a3.67,3.67,0,0,1-1.14-.18,3.41,3.41,0,0,1-2-1.69,3.21,3.21,0,0,1-.15-2.56l32.6-88.95a.92.92,0,0,1,.87-.6,1,1,0,0,1,.3.05l4.81,1.6a.88.88,0,0,1,.53.45.92.92,0,0,1,0,.71l-32.6,88.95a3.34,3.34,0,0,1-1.78,1.89A3.48,3.48,0,0,1,145.56,468.05Z"/><path class="cls-18" d="M175.75,374.57l.14,0,4.81,1.6a.42.42,0,0,1,.24.21.35.35,0,0,1,0,.3l-32.6,89a2.87,2.87,0,0,1-1.51,1.61,3.06,3.06,0,0,1-1.29.28,3,3,0,0,1-1-.16,2.93,2.93,0,0,1-1.7-1.44,2.71,2.71,0,0,1-.13-2.16l32.6-89a.43.43,0,0,1,.4-.27m0-1h0a1.43,1.43,0,0,0-1.34.93l-32.6,88.95a3.68,3.68,0,0,0,.18,3,3.89,3.89,0,0,0,2.27,1.93,4.11,4.11,0,0,0,1.3.21,4,4,0,0,0,1.7-.37,3.89,3.89,0,0,0,2-2.18l32.6-88.95a1.39,1.39,0,0,0-.07-1.11,1.43,1.43,0,0,0-.81-.7l-4.82-1.59a1.38,1.38,0,0,0-.45-.08Z"/><path class="cls-6" d="M260.6,468.1a3.31,3.31,0,0,1-3.11-2.11l-30.32-82.75a.87.87,0,0,1,0-.69.9.9,0,0,1,.54-.47l4.48-1.49a.92.92,0,0,1,.29,0,1,1,0,0,1,.39.08,1,1,0,0,1,.48.51l30.33,82.75a3,3,0,0,1-.12,2.37,3.21,3.21,0,0,1-1.91,1.66A3.31,3.31,0,0,1,260.6,468.1Z"/><path class="cls-18" d="M232.51,381.05a.37.37,0,0,1,.18,0,.4.4,0,0,1,.22.22l30.33,82.76a2.64,2.64,0,0,1-1.72,3.38,2.91,2.91,0,0,1-.92.15,2.81,2.81,0,0,1-2.64-1.78l-30.32-82.76a.4.4,0,0,1,.26-.51l4.47-1.48a.34.34,0,0,1,.14,0m28.87,86h0m-28.87-87a1.37,1.37,0,0,0-.45.07l-4.48,1.49a1.41,1.41,0,0,0-.83.72,1.4,1.4,0,0,0-.05,1.08L257,466.16a3.81,3.81,0,0,0,3.58,2.44,3.91,3.91,0,0,0,1.23-.2,3.73,3.73,0,0,0,2.21-1.92,3.49,3.49,0,0,0,.13-2.76L233.85,381a1.4,1.4,0,0,0-.74-.79,1.35,1.35,0,0,0-.6-.13Z"/><path class="cls-6" d="M168,390.82a9.9,9.9,0,0,1-9.72-8L139.8,312.11c-2.21-11.84-1.16-20.63,3.13-26.18,3.31-4.29,8.61-6.72,15.74-7.22.78,0,1.57-.08,2.35-.08,17.58,0,33.52,14.3,37.08,33.26l11.32,47c1.86,9.91,12.61,18,24,18H257a6.93,6.93,0,1,1,0,13.85l-89,.1Z"/><path class="cls-18" d="M161,279.13c18.43,0,33.33,15.47,36.58,32.85l11.33,47c2,10.64,13.65,18.35,24.47,18.35H257a6.43,6.43,0,1,1,0,12.85l-89,.1h0a9.4,9.4,0,0,1-9.24-7.62L140.29,312c-3.39-18.1.36-31.5,18.41-32.77.78,0,1.55-.08,2.32-.08m0-1v0h0c-.8,0-1.6,0-2.39.08-7.28.51-12.69,3-16.1,7.41-4.38,5.67-5.46,14.6-3.23,26.54v.07l18.48,70.69a10.41,10.41,0,0,0,10.21,8.4l89-.1a7.43,7.43,0,1,0,0-14.85H233.4c-9.75,0-21.52-7.05-23.48-17.53v0l-11.33-47c-3.6-19.18-19.75-33.64-37.56-33.64Z"/><path class="cls-25" d="M268.79,275.88a2.21,2.21,0,1,1-2.21-2.22A2.21,2.21,0,0,1,268.79,275.88Z"/><path class="cls-25" d="M283,264.8a2.22,2.22,0,1,1-2.21-2.22A2.21,2.21,0,0,1,283,264.8Z"/><path class="cls-25" d="M296.49,254.83a2.21,2.21,0,1,1-2.21-2.21A2.21,2.21,0,0,1,296.49,254.83Z"/><path class="cls-25" d="M310.34,264.26a2.21,2.21,0,1,1-2.21-2.21A2.21,2.21,0,0,1,310.34,264.26Z"/><path class="cls-25" d="M324.19,253.72A2.21,2.21,0,1,1,322,251.5,2.21,2.21,0,0,1,324.19,253.72Z"/><polygon class="cls-25" points="266.95 276.36 266.21 275.39 294.27 254.08 308.12 263.81 321.97 253.23 322.71 254.2 308.15 265.32 294.3 255.59 266.95 276.36"/><path class="cls-26" d="M278.15,287.35a1.74,1.74,0,1,1-1.74-1.74A1.74,1.74,0,0,1,278.15,287.35Z"/><path class="cls-26" d="M289.16,276.34a1.74,1.74,0,1,1-1.74-1.74A1.74,1.74,0,0,1,289.16,276.34Z"/><path class="cls-26" d="M298.05,285.23a1.75,1.75,0,1,1-1.74-1.74A1.74,1.74,0,0,1,298.05,285.23Z"/><path class="cls-26" d="M307.17,276.11a1.75,1.75,0,1,1-1.75-1.74A1.74,1.74,0,0,1,307.17,276.11Z"/><polygon class="cls-26" points="276.77 287.71 276.05 286.99 287.54 275.5 296.56 284.53 305.2 275.89 305.92 276.61 296.56 285.97 287.54 276.95 276.77 287.71"/><circle class="cls-13" cx="263.39" cy="139.74" r="6.92"/><line class="cls-27" x1="266.09" y1="139.96" x2="260.41" y2="139.96"/><rect class="cls-7" x="245.45" y="245.75" width="89.85" height="49.27" rx="3"/></svg>