<svg width="136" height="22" viewBox="0 0 136 22" fill="none" xmlns="http://www.w3.org/2000/svg"><path d="M12.7.03A13.64 13.64 0 0127.15 13.5v5.7c0 .22 0 .47-.05.7a2.02 2.02 0 01-1.09 1.33 1.94 1.94 0 01-2.74-1.72v-5.3c.02-.5.02-1.05-.25-1.48a1.94 1.94 0 00-3.63.9v5.38c0 .34.02.68-.1 1-.17.63-.7 1.13-1.33 1.31-.84.23-1.8-.13-2.2-.9-.3-.46-.27-1.02-.25-1.54v-5.36a1.96 1.96 0 00-1.65-1.83 1.94 1.94 0 00-2.22 1.93v5.19c0 .43.04.88-.12 1.29-.25.75-1 1.3-1.8 1.27a1.92 1.92 0 01-1.85-1.27c-.14-.39-.11-.77-.11-1.18v-5.37c0-.89-.7-1.7-1.57-1.86-.8-.16-1.65.22-2.06.95-.16.3-.25.63-.25.97v5.83c0 .57-.25 1.14-.68 1.5-.66.57-1.73.61-2.4.09-.5-.34-.8-.93-.8-1.54v-5.9A13.56 13.56 0 015.13 3C7.23 1.23 9.93.2 12.7.03z" fill="#5741D9"/><path d="M65.7 6.86h-2.95c.11-2.07.54-3.93 2.43-5.1A9.72 9.72 0 0171.28.5c1.15.09 2.31.34 3.38.84a4.49 4.49 0 012.8 4.4V16.7c0 1.34.28 1.59 1.62 1.45l.43-.07c.02.07.02.14.02.18v2.23a5.4 5.4 0 01-3.22.18c-.8-.23-1.3-.8-1.56-1.55-.14-.38-.23-.79-.34-1.22-.12.14-.2.25-.32.36-2.34 2.36-5.1 3.36-8.37 2.52a5.37 5.37 0 01-3.97-5.1c-.02-.77.05-1.54.23-2.3.43-1.72 1.65-2.76 3.2-3.46 1.09-.5 2.26-.64 3.44-.8 1.39-.18 2.75-.34 4.13-.54.93-.14 1.4-.64 1.54-1.57.3-1.88-.54-3.12-2.36-3.58a7.76 7.76 0 00-3.3-.11c-1.64.3-2.55 1.22-2.86 2.83.02.23-.03.46-.07.7zm8.68 3.62c-1.36.73-2.67.91-4.01 1.12-1.11.18-2.25.34-3.33.68-1.43.47-2.09 1.65-1.95 3.24a2.8 2.8 0 002.42 2.6 6.1 6.1 0 005.7-1.88c.45-.47.81-1.15.9-1.79.2-1.27.18-2.56.27-3.97zm42.03 3.81c-.07.32-.12.6-.19.84-1.27 3.88-3.85 5.54-6.98 5.9-5.42.59-8.53-2.95-9.32-6.71-.64-3-.55-5.97.77-8.78 1.25-2.65 3.24-4.4 6.21-4.92 3.56-.64 8.6 1.13 9.44 6.69.22 1.43.27 2.9.4 4.4h-13.78c.11 2.04.43 3.94 1.93 5.42.6.61 1.4.9 2.26 1.07 2.8.5 5.1-.84 6.01-3.54.1-.3.23-.39.53-.37h2.72zm-13.34-5.21h10.32a8.46 8.46 0 00-.88-3.36 4.24 4.24 0 00-2.43-2.08 5.34 5.34 0 00-7 5.44zm20.75 11.3h-3.13V.9h2.97v2.73l.5-.57C126.3.64 128.97 0 132.01.76c2.1.52 3.29 2.01 3.7 4.1.15.86.27 1.75.27 2.6.02 4.18.02 8.35.02 12.53l-.02.36h-3.2v-.52c0-3.9.02-7.8-.02-11.7 0-.87-.14-1.75-.39-2.59-.4-1.36-1.5-2.09-2.92-2.15-2.61-.1-4.68 1.29-5.31 3.6-.23.84-.3 1.73-.3 2.61-.02 3.42-.02 6.83-.02 10.2v.57zM82.57.9h3.02v8.26c.18-.18.3-.27.4-.39 2.48-2.51 4.95-5.05 7.42-7.57.2-.23.4-.32.73-.32 1.15.02 2.33 0 3.6 0l-.38.41c-2.18 2.18-4.33 4.38-6.53 6.53-.25.25-.25.4-.1.68 2.39 3.79 4.74 7.58 7.1 11.36.1.14.16.28.28.48-.16.02-.28.02-.41.02h-3.25c-.3 0-.43-.11-.59-.34l-5.44-9.14-.27-.43c-.84.84-1.66 1.63-2.47 2.47-.12.12-.14.32-.14.48v6.94H83.8c-.41 0-.98.11-1.2-.11-.21-.19-.1-.78-.1-1.18V1.44c.07-.12.07-.3.07-.53zM47.76.9l-7.23 7.2c2.58 4.12 5.1 8.15 7.66 12.28l-.48.02h-3.15c-.3 0-.47-.1-.63-.36l-5.45-9.14c-.06-.13-.15-.25-.27-.43-.45.48-.86 1-1.36 1.36-1.02.77-1.31 1.73-1.25 3 .12 1.65.03 3.33.03 4.99v.54h-3V.9h3v8.12l.18.14c.09-.14.13-.3.23-.4 2.44-2.53 4.92-5.02 7.37-7.56.22-.23.43-.34.77-.32 1.02.02 2.04 0 3.06 0h.52zm5.99 3.24C55.27 1.91 56.88.05 59.87.6v3.33c-.8.05-1.59.02-2.34.18-1.83.39-3.26 2.07-3.56 4.1-.04.41-.09.82-.09 1.23V20.4H50.8V.96h2.95v3.17z" fill="#5741D9"/></svg>