<?xml version="1.0" encoding="UTF-8"?>
<svg width="131px" height="35px" viewBox="0 0 131 35" version="1.1" xmlns="http://www.w3.org/2000/svg" xmlns:xlink="http://www.w3.org/1999/xlink">
    <title>Light</title>
    <g id="Page-1-Copy" stroke="none" stroke-width="1" fill="none" fill-rule="evenodd">
        <g id="Branding-Final" transform="translate(-356.000000, -1094.000000)" fill="#FFFFFF" fill-rule="nonzero">
            <g id="Branding" transform="translate(48.000000, 642.000000)">
                <g id="Logos" transform="translate(2.000000, 95.000000)">
                    <g id="Group-13" transform="translate(0.000000, 272.000000)">
                        <g id="Group-40" transform="translate(0.000000, 30.000000)">
                            <g id="Light" transform="translate(306.000000, 55.000000)">
                                <path d="M12.2391516,32.1930992 C10.4936785,32.1261591 10.1830458,31.954224 9.72989409,31.7366686 C9.52849334,31.6362584 9.39422617,31.435438 9.32709259,31.1342074 C9.19282542,30.5986864 9.12569183,28.874978 9.12569183,25.9630823 L9.12569183,17.4282155 C9.12569183,15.135516 9.22639221,12.6838337 9.42779296,10.0731686 L8.82359071,9.74683544 C7.29630167,10.3660317 5.88649641,10.8262451 4.59417492,11.1274757 C3.30185343,11.4287062 2.53429279,11.7132018 0,11.9809623 L0,13.8887561 C1.94687393,13.9054911 1.94239836,14.0226363 2.27806628,14.2401918 C2.42911684,14.340602 2.53820892,14.5581574 2.6053425,14.892858 C2.74723848,15.5688519 2.82248636,18.2385277 2.83108611,22.9018852 L2.83154593,24.2632015 C2.82533906,27.8249661 2.74154621,30.0483612 2.58016741,30.933387 C2.51303382,31.3684979 2.34519986,31.6655447 2.07666553,31.8245275 C1.80813119,31.9835103 1.87974035,32.1299419 0,32.2638221 L0,34.1214108 C1.84617356,34.0544706 2.83191835,34.0210006 5.24872737,34.0210006 C8.05155449,34.0210006 9.85590942,33.9540604 12.2391516,34.0210006 L12.2391516,32.1930992 Z M41.1714605,32.1885145 C40.5169081,32.1215744 40.046973,32.0797368 39.7616553,32.0630017 C38.9896191,32.0127966 38.490313,31.8914676 38.2637372,31.6990148 C38.0371613,31.5065619 37.8861108,31.0756348 37.8105855,30.4062335 C37.7350602,29.7368322 37.6889059,27.9880212 37.6721225,25.1598007 L37.6469474,22.5742381 C37.6469474,22.2897426 37.6553391,22.0470846 37.6721225,21.8462642 C37.7056893,21.3274782 37.7224727,20.1141883 37.7224727,18.2063945 C37.7224727,16.5161562 37.5965972,15.27358 37.3448463,14.478666 C37.0930953,13.6837519 36.656727,12.9223079 36.0357414,12.194334 C35.4147557,11.4663601 34.6553071,10.9015527 33.7573954,10.4999119 C32.8594837,10.0982711 31.5126162,9.89745074 29.7167928,9.89745074 C29.045457,9.89745074 28.9587148,9.89692777 28.1433494,10.0104122 C27.3279841,10.1238967 25.359047,10.7321802 23.9768714,11.8653511 C23.2158246,12.4741019 22.6116224,13.2238779 22.1642646,14.114679 L22.1642646,10.0731686 L21.4845371,9.77193799 C20.2761326,10.3241941 19.1936035,10.7258349 18.2369499,10.9768604 C17.2802964,11.2278858 15.2746806,11.6127916 12.2201025,12.1315776 L12.2201025,14.0644739 C13.7977417,14.114679 14.7460036,14.1983542 15.0648881,14.3154994 C15.2662889,14.3824395 15.4131436,14.4870335 15.5054523,14.6292813 C15.5977609,14.7715291 15.6690904,15.378174 15.7194406,16.4492161 C15.8201409,18.5745653 15.8704911,20.3819488 15.8704911,21.8713667 L15.8702394,25.4673069 C15.8687289,26.3634679 15.8604211,27.0224098 15.845316,27.4441327 L15.7446156,29.6782596 C15.7278323,30.5652163 15.6355236,31.1676775 15.4676896,31.4856431 C15.3502058,31.6864635 15.1739802,31.8287113 14.9390126,31.9123864 C14.4355108,32.0964718 13.5292074,32.1885145 12.2201025,32.1885145 L12.2201025,34.0210006 C13.9152255,33.9540604 16.2984677,34.0210006 19.3698292,34.0210006 L20.0242068,34.0216979 C22.3921808,34.0268114 24.4146383,34.060049 26.0915793,34.1214108 L26.0915793,32.1885145 C24.8831748,32.0881043 24.1782721,32.0211642 23.9768714,31.9876941 C23.3894525,31.8705489 22.9950427,31.7450361 22.793642,31.6111558 C22.6593748,31.5274807 22.5502827,31.3936004 22.4663657,31.2095151 C22.348882,30.9584896 22.2817484,30.4397036 22.264965,29.653157 C22.1978314,27.8792435 22.1642646,26.3814581 22.1642646,25.1598007 L22.1642646,20.9425724 C22.1474812,18.5996678 22.1978314,17.2608652 22.3153152,16.9261645 C22.5167159,16.3571734 23.0034344,15.7923661 23.7754706,15.2317425 C24.5475068,14.6711189 25.5209438,14.3908071 26.6957815,14.3908071 C27.8706192,14.3908071 28.8104894,14.6711189 29.515392,15.2317425 C30.2202947,15.7923661 30.6860339,16.5328913 30.9126098,17.4533181 C31.1391856,18.3737449 31.2524735,20.2982736 31.2524735,23.2269044 L31.2524735,25.2100058 L31.1265981,29.3268239 C30.9419807,31.8705489 30.8328886,33.3181292 30.7993218,33.6695649 L31.2524735,34.1214108 C32.4776614,34.0042655 33.9210335,33.9456929 35.5825897,33.9456929 C37.0259617,33.9456929 38.8889187,34.0042655 41.1714605,34.1214108 L41.1714605,32.1885145 Z M53.6936642,34.3222312 C54.1300325,33.3348642 54.8517185,31.5609508 55.8587222,29.0004907 C56.3790075,27.6784231 56.8573343,26.5320734 57.2937026,25.5614415 L57.2937026,25.5614415 L58.3007064,23.3524171 L60.6671652,18.0306767 C61.7748693,15.5538918 62.504947,14.0477389 62.8573984,13.5122178 C63.0420157,13.2109872 63.2476123,13.0101668 63.4741882,12.9097566 C63.700764,12.8093465 64.4434293,12.6838337 65.702184,12.5332184 L65.702184,12.5332184 L65.702184,10.5250145 C63.7049599,10.5752196 61.9846618,10.6003221 60.5412897,10.6003221 C59.0307841,10.6003221 57.4111864,10.5752196 55.6824966,10.5250145 L55.6824966,10.5250145 L55.6824966,12.4830133 C57.3608362,12.5499534 58.3258814,12.6545474 58.5776324,12.7967952 C58.8293833,12.939043 58.9552588,13.1440471 58.9552588,13.4118076 C58.9552588,13.6795682 58.8713418,14.1063115 58.7035079,14.6920376 C58.3510565,15.8634899 57.671329,17.6290359 56.6643252,19.9886755 L56.6643252,19.9886755 L55.1286445,23.7289554 L53.4922634,27.4943378 C53.3076461,27.0759619 52.9216279,26.1136976 52.3342091,24.6075446 L52.3342091,24.6075446 L51.3523804,22.1474948 L49.3383729,16.901062 L48.3565442,13.8636535 L48.2558439,13.4118076 C48.2558439,13.2444573 48.3103899,13.0980258 48.419482,12.972513 C48.5285741,12.8470003 48.6922122,12.7591414 48.9103963,12.7089363 C49.6656491,12.575056 50.529994,12.5081159 51.503431,12.5081159 L51.503431,12.5081159 L51.503431,10.5250145 C49.4222899,10.5752196 47.307582,10.6003221 45.1593073,10.6003221 C42.8767655,10.6003221 40.5438734,10.5752196 38.1606312,10.5250145 L38.1606312,10.5250145 L38.1606312,12.4830133 C39.1844183,12.4997483 39.9228878,12.6419961 40.3760395,12.9097566 C40.6613572,13.093842 40.9382832,13.4787478 41.2068176,14.0644739 C42.029204,15.9053275 42.5914477,17.2022926 42.8935489,17.9553691 L42.8935489,17.9553691 L46.2166613,26.3396205 C47.4082824,29.3351914 48.4320695,31.9960616 49.2880227,34.3222312 L49.2880227,34.3222312 L53.6936642,34.3222312 Z M75.7824035,35 C77.1754254,35 78.4173967,34.8577522 79.5083174,34.5732567 C80.9684728,34.1716159 82.3866698,33.5524197 83.7629083,32.715668 L84.8706124,30.2556182 L84.2664101,29.5527468 C82.9573053,30.2054131 81.8999513,30.6363402 81.0943483,30.8455281 C80.2887453,31.054716 79.407617,31.15931 78.4509634,31.15931 C76.2355552,31.15931 74.3725982,30.3936822 72.8620926,28.8624267 C71.3515869,27.3311712 70.5292005,25.2434759 70.3949334,22.5993407 L72.0564896,22.5993407 C72.3250239,22.5993407 72.5683832,22.5909731 72.7865673,22.5742381 C73.0047515,22.5575031 74.1460224,22.540768 76.2103801,22.524033 C78.2747378,22.507298 79.936294,22.4487254 81.1950487,22.3483152 C81.5978502,22.3315801 82.3698864,22.2144349 83.5111573,21.9968795 C84.3671105,21.8295292 85.0048796,21.6789139 85.4244645,21.5450336 C85.4580313,21.1099227 85.4748147,20.6580769 85.4748147,20.1894959 C85.4748147,18.1143519 85.1769094,16.3488059 84.5810988,14.892858 C83.9852883,13.4369102 82.965697,12.2403553 81.5223249,11.3031935 C80.0789529,10.3660317 78.2327793,9.89745074 75.9838042,9.89745074 C75.562609,9.89745074 72.725076,9.73615184 70.3949334,10.7008718 C68.2138813,11.6038656 66.5316226,13.6183293 66.1514755,14.1286249 C65.5172315,14.9800106 64.9103824,16.4383888 64.7305372,16.9763696 C64.1431184,18.700078 63.849409,20.6580769 63.849409,22.8503662 C63.849409,24.3565191 64.0004595,25.7455268 64.3025606,27.0173893 C64.6046618,28.2892518 65.0955761,29.410499 65.7753036,30.3811309 C66.4550312,31.3517628 67.2438508,32.1717794 68.1417625,32.8411808 C69.0396742,33.5105821 70.1222032,34.0377356 71.3893496,34.4226414 C72.656496,34.8075471 74.1208473,35 75.7824035,35 Z M75.1782012,20.0890857 C72.8620926,20.0890857 71.2089281,20.0137781 70.2187077,19.8631628 C70.1515741,17.3027028 70.5543756,15.4618492 71.4271122,14.340602 C72.2830654,13.2360898 73.3655945,12.6838337 74.6746994,12.6838337 C75.9502374,12.6838337 76.990808,13.2109872 77.796411,14.2652943 C78.5852306,15.3363364 78.9460736,17.2022926 78.87894,19.8631628 C77.8887197,20.0137781 76.6551401,20.0890857 75.1782012,20.0890857 Z M104.354009,34.0963082 C104.823944,34.0963082 105.663114,34.0544706 106.871519,33.9707955 L107.047744,33.7699751 C107.098094,31.8454463 107.291104,29.2766188 107.626771,26.0634925 L105.562414,26.0634925 C105.042128,28.7410977 104.689677,30.2472507 104.50506,30.5819513 C104.437926,30.7158316 104.337226,30.8078743 104.202959,30.8580794 C103.967991,30.9584896 102.801545,31.0840023 100.703621,31.2346176 C99.7637504,31.2848227 97.9343603,31.3099253 95.2154501,31.3099253 L93.3524932,31.2848227 C93.7049445,30.7325666 95.1483165,28.6616063 97.6826093,25.0719418 C100.216902,21.4822772 103.347005,17.2273951 107.072919,12.3072955 L107.072919,10.5250145 C102.642103,10.6421597 100.065852,10.7007323 99.3441655,10.7007323 L89.7021045,10.6003221 L87.3356457,10.4748094 L86.9580193,10.4999119 L86.7314435,10.7258349 C86.7482269,11.4119712 86.7566186,11.8805521 86.7566186,12.1315776 L86.7563423,12.1749303 C86.7515536,12.6040726 86.6845121,14.4221078 86.5552178,17.6290359 L88.5440502,17.6290359 C88.6951008,16.8257543 88.8377597,15.9639001 88.9720268,15.0434733 C89.0559438,14.4242771 89.1818193,14.0268201 89.3496532,13.8511022 C89.5174872,13.6753844 89.9874223,13.5624229 90.7594585,13.5122178 C92.0182132,13.4118076 93.662986,13.3616025 95.6937769,13.3616025 L98.6392629,13.3616025 C94.8629988,18.7670181 91.3720524,23.5950751 88.1664238,27.8457735 C86.2363333,30.4229685 85.0531039,31.954224 84.6167356,32.43954 L84.6167356,34.1214108 C85.0866707,34.0879407 86.6643099,34.0461031 89.3496532,33.995898 C91.8014885,33.9500586 93.301905,33.9251459 93.8509029,33.9211598 L93.9818705,33.9205904 C94.9720909,33.9205904 96.0294448,33.9456929 97.1539324,33.995898 C99.3189904,34.0795732 100.527395,34.1214108 100.779146,34.1214108 L104.354009,34.0963082 Z M110.708874,10.4748094 L113.075333,10.6003221 L122.717394,10.7007323 L122.874443,10.7000459 C123.768356,10.6931819 126.292257,10.6348381 130.446148,10.5250145 L130.446148,10.5250145 L130.446148,12.3072955 L129.917928,13.0056416 C126.42348,17.6311136 123.46945,21.6532136 121.055838,25.0719418 C118.521545,28.6616063 117.078173,30.7325666 116.725722,31.2848227 L116.725722,31.2848227 L118.588679,31.3099253 L119.341306,31.3092422 C121.647976,31.3049161 123.22649,31.2800413 124.076849,31.2346176 C126.174774,31.0840023 127.34122,30.9584896 127.576187,30.8580794 C127.710454,30.8078743 127.811155,30.7158316 127.878288,30.5819513 C128.062906,30.2472507 128.415357,28.7410977 128.935642,26.0634925 L128.935642,26.0634925 L131,26.0634925 L130.942245,26.6238265 C130.642119,29.5766044 130.468361,31.9586539 130.420973,33.7699751 L130.420973,33.7699751 L130.244747,33.9707955 L129.950338,33.9908427 C128.899045,34.061153 128.158012,34.0963082 127.727238,34.0963082 L127.727238,34.0963082 L124.152374,34.1214108 C123.900624,34.1214108 122.692219,34.0795732 120.527161,33.995898 C119.402673,33.9456929 118.345319,33.9205904 117.355099,33.9205904 L117.355099,33.9205904 L117.224131,33.9211598 C116.675134,33.9251459 115.174717,33.9500586 112.722882,33.995898 C110.037538,34.0461031 108.459899,34.0879407 107.989964,34.1214108 L107.989964,34.1214108 L107.989964,32.43954 L108.041523,32.3813117 C108.515004,31.8393629 109.681047,30.3275168 111.539652,27.8457735 C114.745281,23.5950751 118.236227,18.7670181 122.012491,13.3616025 L122.012491,13.3616025 L119.067005,13.3616025 L118.605214,13.3624938 C116.785457,13.3696235 115.294614,13.4195315 114.132687,13.5122178 C113.360651,13.5624229 112.890716,13.6753844 112.722882,13.8511022 C112.555048,14.0268201 112.429172,14.4242771 112.345255,15.0434733 C112.210988,15.9639001 112.068329,16.8257543 111.917279,17.6290359 L111.917279,17.6290359 L109.928446,17.6290359 L109.942061,17.2907511 C110.06245,14.2940197 110.124953,12.5887461 110.129571,12.1749303 L110.129571,12.1749303 L110.129536,12.0398449 C110.127879,11.7737372 110.119591,11.3357338 110.104672,10.7258349 L110.104672,10.7258349 L110.331248,10.4999119 L110.708874,10.4748094 Z M5.55084746,0 C6.60345261,0 7.49569994,0.367995712 8.22758945,1.10398714 C8.95947897,1.83997856 9.32542373,2.72316827 9.32542373,3.75355626 C9.32542373,4.80029962 8.95947897,5.69166701 8.22758945,6.42765843 C7.49569994,7.16364986 6.60345261,7.53164557 5.55084746,7.53164557 C4.51468927,7.53164557 3.62655367,7.16364986 2.88644068,6.42765843 C2.14632768,5.69166701 1.77627119,4.80029962 1.77627119,3.75355626 C1.77627119,2.72316827 2.14221594,1.83997856 2.87410546,1.10398714 C3.60599498,0.367995712 4.49824231,0 5.55084746,0 Z" id="invezz"></path>
                            </g>
                        </g>
                    </g>
                </g>
            </g>
        </g>
    </g>
</svg>