<svg width="219" height="38" viewBox="0 0 219 38" fill="none" xmlns="http://www.w3.org/2000/svg">
<path d="M24.582 26.7691V30.8874H16.3876V16.4733H22.5334V12.355H16.3876V4.11832H24.582V6.17749H28.6792V2.05916H26.6306V0H14.339V2.05916H12.2903V12.355H6.14453V16.4733H12.2903V28.8283H10.2417V30.8874H8.19636V37.0649H28.6792V35.0057H30.7278V26.7691H24.582Z" fill="#B7B7B7"/>
<path d="M24.5816 26.7695H20.4844V30.8879H24.5816V26.7695Z" fill="#8A8A8A"/>
<path d="M6.14798 16.4688V28.8237H4.09938V30.8829H2.05078V37.0604H6.14798V30.8829H8.1998V28.8237H10.2452V16.4688H6.14798Z" fill="#8A8A8A"/>
<path d="M4.0972 12.3516H0V16.4731H4.0972V12.3516Z" fill="#8A8A8A"/>
<path d="M24.5816 4.11719H20.4844V6.17635H24.5816V4.11719Z" fill="#8A8A8A"/>
<path d="M8.19636 0V2.05916H6.14453V12.355H10.2417V2.05916H12.2903V0H8.19636Z" fill="#8A8A8A"/>
<path d="M10.2517 28.8281H8.20312V30.8873H10.2517V28.8281Z" fill="white"/>
<path d="M12.2908 16.4688H10.2422V28.8205H12.2908V16.4688Z" fill="white"/>
<path d="M12.2908 2.0625H10.2422V12.3583H12.2908V2.0625Z" fill="white"/>
<path d="M14.3416 0H12.293V2.05916H14.3416V0Z" fill="white"/>
<path d="M8.19314 30.8828H6.14453V37.0603H8.19314V30.8828Z" fill="white"/>
<path d="M6.14626 12.3516H4.09766V16.4731H6.14626V12.3516Z" fill="white"/>
<path d="M53.2632 22.9696H51.0375V25.2069H37.6797V9.54297H51.0375V11.7834H53.2632V16.2579H51.0375V18.4887H53.2632V22.9696ZM48.8117 16.2579V11.7834H42.1312V16.2579H48.8117ZM48.8117 22.9696V18.4887H42.1312V22.9631L48.8117 22.9696Z" fill="white"/>
<path d="M71.5596 11.7834H67.0984V22.9696H71.5596V25.2069H58.1953V22.9696H62.6468V11.7834H58.1953V9.54297H71.5596V11.7834Z" fill="white"/>
<path d="M89.9874 11.7834H85.5359V25.2069H81.0843V11.7834H76.6328V9.54297H89.9874V11.7834Z" fill="white"/>
<path d="M108.24 22.9696H106.027V25.2069H97.111V22.9696H94.8852V20.7324H92.6562V14.0207H94.8852V11.7834H97.111V9.54297H106.027V11.7834H108.253V14.0207H103.788V11.7834H99.3368V14.0207H97.111V20.7324H99.3368V22.9696H103.788V20.7324H108.24V22.9696Z" fill="white"/>
<path d="M126.349 22.9696H124.123V25.2069H112.995V22.9696H110.766V11.7834H112.995V9.54297H124.123V11.7834H126.349V22.9696ZM121.898 22.9696V11.7834H115.22V22.9696H121.898Z" fill="white"/>
<path d="M144.782 22.9696H142.557V25.2069H131.424V22.9696H129.215V9.54297H133.67V22.9696H140.347V9.54297H144.798L144.782 22.9696Z" fill="white"/>
<path d="M163.22 25.2069H156.543V22.9696H154.317V20.7324H152.088V25.2069H147.637V9.54297H160.995V11.7834H163.22V18.4887H158.769V20.7259H160.995V22.9631H163.22V25.2069ZM158.769 16.2579V11.7834H152.088V18.4887H156.54V16.2514L158.769 16.2579Z" fill="white"/>
<path d="M181.514 11.7834H177.063V22.9696H181.514V25.2069H168.156V22.9696H172.608V11.7834H168.156V9.54297H181.514V11.7834Z" fill="white"/>
<path d="M199.761 25.2069H184.184V9.54297H199.761V11.7834H188.635V16.2579H197.541V18.4887H188.635V22.9631H199.761V25.2069Z" fill="white"/>
<path d="M218.201 25.2069H211.52V22.9696H209.294V20.7324H207.069V25.2069H202.617V9.54297H215.975V11.7834H218.201V18.4887H213.749V20.7259H215.975V22.9631H218.201V25.2069ZM213.749 16.2579V11.7834H207.069V18.4887H211.52V16.2514L213.749 16.2579Z" fill="white"/>
</svg>
