<svg id="Layer_1" data-name="Layer 1" xmlns="http://www.w3.org/2000/svg" viewBox="0 0 21 21"><defs><style>.cls-1{fill:#44d5a7;}</style></defs><path class="cls-1" d="M20.74.57a.49.49,0,0,0-.52,0L.42,11.84a.5.5,0,0,0-.24.52.49.49,0,0,0,.4.41l9.15,1.51a.51.51,0,0,0,.59-.4.5.5,0,0,0-.4-.58L2.1,12,19.88,1.9,18.37,18.45l-7.63-4.38,7.13-8.75a.5.5,0,0,0-.78-.64L9.59,13.9h0a.51.51,0,0,0-.09.18s0,0,0,.06,0,.08,0,.13l.64,5.48a.51.51,0,0,0,.38.43l.12,0A.52.52,0,0,0,11,20l2.46-3.18a.5.5,0,0,0-.11-.69.51.51,0,0,0-.7.11L11,18.35l-.38-3.21,8,4.57a.54.54,0,0,0,.25.06.59.59,0,0,0,.23-.05.52.52,0,0,0,.27-.4L21,1A.5.5,0,0,0,20.74.57Z"/></svg>