<svg id="Layer_1" data-name="Layer 1" xmlns="http://www.w3.org/2000/svg" viewBox="0 0 21 21"><defs><style>.cls-1{fill:none;stroke:#faa2ab;stroke-linecap:round;stroke-linejoin:round;}.cls-2{fill:#faa2ab;}</style></defs><line class="cls-1" x1="17.36" y1="14.27" x2="18.34" y2="14.27"/><line class="cls-1" x1="6.72" y1="14.27" x2="7.71" y2="14.27"/><path class="cls-2" d="M12.53,12.27a2,2,0,1,1-2,2,2,2,0,0,1,2-2m0-1a3,3,0,1,0,3,3,3,3,0,0,0-3-3Z"/><path class="cls-1" d="M16.44,6.25V1.58A1,1,0,0,0,15.58.5H1.35A1,1,0,0,0,.5,1.58v9.94a1,1,0,0,0,.85,1.08h1.5"/><rect class="cls-1" x="4.56" y="8.04" width="15.94" height="12.46" rx="1"/></svg>