<svg id="Layer_1" data-name="Layer 1" xmlns="http://www.w3.org/2000/svg" viewBox="0 0 300 300"><defs><style>.cls-1{fill:#f5fafe;}.cls-17,.cls-2,.cls-20,.cls-21{fill:none;}.cls-2,.cls-21{stroke:#cde8f9;}.cls-2,.cls-20,.cls-21{stroke-linecap:round;}.cls-2{stroke-linejoin:round;}.cls-19,.cls-3{fill:#fff;}.cls-17,.cls-3{stroke:#81c6ef;}.cls-17,.cls-20,.cls-21,.cls-3{stroke-miterlimit:10;}.cls-4{fill:#cde8f9;}.cls-5{fill:#dce2f3;}.cls-6{fill:#e3c9c9;}.cls-7{fill:#1e3596;}.cls-8{fill:#8a1d1d;}.cls-9{fill:#182a62;}.cls-10{fill:#2659bf;}.cls-11{fill:#f45a6d;}.cls-12{fill:#276bd8;}.cls-13{fill:#0b132c;}.cls-14{fill:#54afdd;}.cls-15{fill:#81c6ef;}.cls-16{fill:#a9d9ed;}.cls-18{fill:#3ee5b1;}.cls-20{stroke:#fff;}</style></defs><circle class="cls-1" cx="150" cy="150" r="135"/><path class="cls-2" d="M124,117.91v-.19a6.94,6.94,0,0,1,6.93-6.94h38.18a6.94,6.94,0,0,1,6.93,6.94v.19a7.1,7.1,0,0,1-2.08,5,7.31,7.31,0,0,1-5.05,2.09H131.83a2.42,2.42,0,0,0-1.27.36l-5,3a.34.34,0,0,1-.51-.39l1.15-3.7a1.64,1.64,0,0,0-.36-1.59A7.11,7.11,0,0,1,124,117.91Z"/><path class="cls-3" d="M125.42,128.76a.64.64,0,0,1-.37-.13.61.61,0,0,1-.21-.65l1.15-3.71a1.39,1.39,0,0,0-.3-1.34,7.36,7.36,0,0,1-2-5v-.19a7.2,7.2,0,0,1,7.19-7.2h38.18a7.2,7.2,0,0,1,7.19,7.2v.19a7.39,7.39,0,0,1-2.16,5.23,7.63,7.63,0,0,1-5.23,2.16H131.83a2.15,2.15,0,0,0-1.13.32l-5,3A.56.56,0,0,1,125.42,128.76Z"/><path class="cls-3" d="M158.27,119.91a1.85,1.85,0,1,1,1.85-1.85A1.85,1.85,0,0,1,158.27,119.91Z"/><path class="cls-3" d="M151,119.91a1.85,1.85,0,1,1,1.85-1.85A1.86,1.86,0,0,1,151,119.91Z"/><path class="cls-3" d="M143.74,119.91a1.85,1.85,0,1,1,1.86-1.85A1.85,1.85,0,0,1,143.74,119.91Z"/><path class="cls-4" d="M94.07,79a.36.36,0,0,1-.14-.39l1.12-4.7a.39.39,0,0,1,.46-.28.39.39,0,0,1,.28.46l-1.13,4.7a.38.38,0,0,1-.45.28A.37.37,0,0,1,94.07,79Z"/><path class="cls-4" d="M102,82.26l0,0a.38.38,0,0,1,0-.53l3.23-3.59a.38.38,0,1,1,.56.5l-3.23,3.59A.37.37,0,0,1,102,82.26Z"/><path class="cls-4" d="M86.81,80.46a.6.6,0,0,1-.08-.08l-2.87-3.9a.38.38,0,0,1,.08-.52.37.37,0,0,1,.53.08l2.87,3.89a.38.38,0,0,1-.53.53Z"/><path class="cls-4" d="M76.66,84.73a.39.39,0,0,1-.12-.47.38.38,0,0,1,.5-.18l4.38,2a.38.38,0,0,1-.32.68l-4.38-2Z"/><ellipse class="cls-5" cx="152.85" cy="282.34" rx="96.88" ry="2.66"/><path class="cls-2" d="M26.61,81.41H54.06a1.81,1.81,0,0,1,1.81,1.81v30a2.22,2.22,0,0,0,2.22,2.22h21a1.81,1.81,0,0,1,1.81,1.81V153.9a2.22,2.22,0,0,0,2.22,2.22H97.39a2.22,2.22,0,0,0,2.22-2.22v-7.14a1.82,1.82,0,0,1,1.81-1.81h24.27a1.82,1.82,0,0,1,1.81,1.81v39.61a2.21,2.21,0,0,0,2.21,2.22h42.67a2.22,2.22,0,0,0,2.22-2.22V135.7a1.81,1.81,0,0,1,1.8-1.8h29.9a1.81,1.81,0,0,1,1.81,1.8v7a2.22,2.22,0,0,0,2.22,2.21H227a2.22,2.22,0,0,0,2.22-2.21V94.42A1.81,1.81,0,0,1,231,92.61h47.81"/><path class="cls-6" d="M163.9,203.18c.07-.14,1.16-2.1,1.74-2.92a17.69,17.69,0,0,1,1.55-1.95,18.3,18.3,0,0,1,3.24,1.57c-.79,1.17-3.54,4.6-3.59,4.7-.81,1.55-1.5,1.65-1.68,1.18,0-.11-.92.74-1.19.33a.57.57,0,0,1-.63-.09,1.85,1.85,0,0,1-.32-1.09A11.79,11.79,0,0,1,163.9,203.18Z"/><path class="cls-6" d="M178.42,151.22c.15-.7,7.36.54,8.58,1.3,2.81,1.75-2.11,18.75-4.9,24.47-1.06,2.17-6.68,4.1-5.61-3.41C177.36,167.46,177.58,155.06,178.42,151.22Z"/><path class="cls-7" d="M179.23,150.4c-1.74,1.36-4,8.07-5.21,15.13a20.51,20.51,0,0,0,10.53,3.06c2-5.71,6.1-12.11,5.83-14.87C190,150.14,187.39,144,179.23,150.4Z"/><path class="cls-6" d="M177.25,175.38c1-.91,2.88-1.56,4.53.58,1.8,2.33-7.34,18.41-11.68,24.38a13.87,13.87,0,0,0-3.09-1.83c2.72-3.58,7.73-18.74,9.73-22.49A2.6,2.6,0,0,1,177.25,175.38Z"/><path class="cls-8" d="M216.87,136c-1.87-1.15-3.19-1.26-5-6.14-5.87-16.19-17.33-5.43-15.79-1.18.38,1.05,1.14,1.51,1.69.14.94-2.32,3.84,1.82,4.13,7.18.15,2.88-4.5,7.17,3.16,12.39,6.2,4.22,5.53,5.22,6.47,7.12C214,160.37,226.12,141.7,216.87,136Z"/><path class="cls-6" d="M179.8,191.38c-.5,3.56,7.06,84.79,7.06,84.79s3.18,1.06,5-.34a378,378,0,0,1,3.18-38.8c2.35-16.45,5.08-43.37,5.08-43.37C193.48,194.1,182,192.36,179.8,191.38Z"/><path class="cls-9" d="M182.2,279.89a7.38,7.38,0,0,0,3.72-.89c1-.72.71-5.63.52-6.57l5.52-.31c.07,1.45,0,7.28.24,7.89a1.46,1.46,0,0,1-.12,1.37c-.75.89-1.67.77-2.58.77l-8.53,0a.82.82,0,0,1-.91-.89C180.06,280.89,180.44,279.89,182.2,279.89Z"/><path class="cls-6" d="M212.87,189.39c-2.22,1-14.28.7-21,.26,0,0,3.14,35.32,4.58,42.57,3.68,18.62,10.51,43.25,10.51,43.25,1.88,1.07,4.15-.61,4.19-.76,0,0-.17-33.74-1.67-41.56C208.27,226.69,214.16,201.38,212.87,189.39Z"/><path class="cls-6" d="M196.43,136c-.46.34-5.28,3-6.65,2.8,0,.38.93,4.6,0,6.77.86,3.39,6,1.85,7.52-1.57C196.69,143,196.16,137.84,196.43,136Z"/><path class="cls-6" d="M191.38,129.29c-2.53-.17-5,.42-5.55,2.81-.2.86.17,8.59,4.3,9.76,1.74.5,5.09-2.49,5.23-4.52,0,0,.19-2.77.19-2.8C195.74,131.85,194.1,129.48,191.38,129.29Z"/><path class="cls-10" d="M209.55,154.15c-.7-5-2.26-7.29-6.55-8.45-1.42-.39-5.66-1.71-5.66-1.71s-3,2.95-5,3.11c-1.36.12-2.52-1.54-2.52-1.54a57.51,57.51,0,0,0-5.8,2.27c-3.45,2.27-5.29,10-5.44,13.21-.3,6.63,2.15,6.28,1.19,14.72a347.11,347.11,0,0,0-1.87,50.49c2.15,4.3,30.32,5.3,37.47,0,0,0,1.29-39.65-5.35-53.25C210.21,163.9,210,157.7,209.55,154.15Z"/><path class="cls-8" d="M197.08,128c-3.7-3.36-9.43.19-9.43.19-4.37.83-3.42,7.22-1.42,8.15-.94-4.7,2.24-6.22,2.24-6.22,5.92-.08,8,7,7.57,8.79C196,138.94,202.64,133.07,197.08,128Z"/><path class="cls-6" d="M195.45,133.47a2.27,2.27,0,0,0-1.13.4c.26.91.88,2.38,1.18,3.1a2.41,2.41,0,0,0,1.39-1.91C196.86,134.36,196.15,133.45,195.45,133.47Z"/><path class="cls-11" d="M197.67,126.17a2.14,2.14,0,0,0-1.44-.48,3,3,0,0,0-1.91,1,13.17,13.17,0,0,1,4.61,3.95A3.37,3.37,0,0,0,197.67,126.17Z"/><path class="cls-6" d="M210.61,201.8c-.29.26-.68.46-.28.81.23.24,1.49-.56,1.64-.85.15-.84-.33-.92-.08-1.68A7.2,7.2,0,0,1,210.61,201.8Z"/><path class="cls-6" d="M212.07,199.5a19.91,19.91,0,0,0-.61,2.42c-.18,1-.36,3.21-.37,3.37a12,12,0,0,0-.08,2,1.89,1.89,0,0,0,.74.85.56.56,0,0,0,.61-.18c.41.26.87-.88.95-.79.35.35.95,0,1-1.78,0-.1,1.09-4.37,1.32-5.76A18.15,18.15,0,0,0,212.07,199.5Z"/><path class="cls-6" d="M199.7,153.28C201,157,207.53,167.34,210,173c3.07,6.94,6.82,2.32,6.57-.08-.66-6.32-5.6-22.29-8.07-23.27C207.18,149.12,199.46,152.61,199.7,153.28Z"/><path class="cls-12" d="M198.82,151.8c-.43,2.74,3.28,9.38,4.92,15.2a20.62,20.62,0,0,0,10.7-2.41c-.81-7.13-2.93-13.19-4.31-14.92C206.56,145.24,199.38,148.25,198.82,151.8Z"/><path class="cls-6" d="M211.72,174.46a2.58,2.58,0,0,0-.19.79c-.28,4.24,1.45,20.12.46,24.5a14.24,14.24,0,0,1,3.57.39c1.48-7.23,3.13-25.65.52-27C213.69,171.84,212.22,173.23,211.72,174.46Z"/><path class="cls-9" d="M202.22,279.82a7.37,7.37,0,0,0,3.66-1.11c.91-.77.37-5.65.14-6.59h5.32c.16,1.44.63,6.64.87,7.23a1.47,1.47,0,0,1,0,1.38c-.7.93-1.62.86-2.53.92-1.48.08-6.39.4-8.52.52a.81.81,0,0,1-1-.84C200.14,280.94,200.46,279.92,202.22,279.82Z"/><path class="cls-13" d="M115.26,130.74c.13,1.11-.71,3.93-11.43,2.54-1.13,1.92-1.29,6-1.29,6-3.36-2.52-4.45-8.65-1.08-12.23C105.87,122.37,114.65,125.67,115.26,130.74Z"/><path class="cls-8" d="M137.7,196.4c-.1-.12-1.49-1.88-2.19-2.59a17.89,17.89,0,0,0-1.85-1.67,17.69,17.69,0,0,0-2.94,2.07c1,1,4.24,4,4.31,4,1.05,1.4,1.75,1.38,1.84.89,0-.12,1,.58,1.23.13a.57.57,0,0,0,.61-.19,1.77,1.77,0,0,0,.14-1.12A11.56,11.56,0,0,0,137.7,196.4Z"/><path class="cls-8" d="M117.33,150.14c-.15-.69-5.52-1.49-6.74-.73-2.81,1.75,2.12,18.75,4.9,24.47,1.06,2.17,6.68,4.11,5.61-3.41C120.23,164.35,118.17,154,117.33,150.14Z"/><path class="cls-14" d="M118,150.43c1.74,1.36,4,8.07,5.21,15.13a20.6,20.6,0,0,1-10.53,3.06c-2-5.71-6.09-12.11-5.83-14.88C107.2,150.17,109.84,144.05,118,150.43Z"/><path class="cls-8" d="M120,171.16c-1.11-.74-3.1-1.08-4.38,1.31-1.39,2.59,10.25,17,15.51,22.14a14.08,14.08,0,0,1,2.74-2.31c-3.26-3.08-10.68-17.23-13.27-20.6A2.92,2.92,0,0,0,120,171.16Z"/><path class="cls-13" d="M100.25,187.58s-.82,12.58,0,17.43c.28,1.64,1,16.63,3.3,33.09,2.72,19.06,4.14,39.26,4.14,39.26a3.47,3.47,0,0,0,4.09-.12s7.56-87.63,7.07-91.19C116.63,187,106.93,188,100.25,187.58Z"/><path class="cls-9" d="M85.79,186.05c-.27,1.93,2.66,43.47,3.55,50,.75,5.49-1.89,39.74-1.89,39.74,0,.15,2.32,1.83,4.19.76,0,0,7.8-24.19,10.52-43.25,1-7.32,3.07-16.12,4.7-24.55,1.86-9.67,3.57-19.21,3.57-19.21C103.75,190,88,187,85.79,186.05Z"/><path class="cls-8" d="M102.21,137.05c.27,1.86-.26,7-.9,8,1.54,3.42,7,4.71,7.51,1.38-.89-2.16,0-6.2.05-6.58C107.49,140.07,102.67,137.39,102.21,137.05Z"/><path class="cls-8" d="M107.26,130.36c-2.72.19-4.35,2.56-4.17,5.25,0,0,.19,2.8.19,2.8.14,2,3.49,5,5.24,4.52,4.12-1.17,4.49-8.91,4.29-9.76C112.25,130.77,109.8,130.19,107.26,130.36Z"/><path class="cls-15" d="M113.56,148.38a34.24,34.24,0,0,0-4.74-1.76s-1.16,1.65-2.52,1.54c-2-.16-5-3.1-5-3.1s-4.24,1.31-5.67,1.7c-4.29,1.16-6.08,3.7-7.62,8.5-.48,1.49-2.26,21.36-4.47,39-.66,5.3,35,8.13,37.19,3.84.88-1.74-.38-8.36-2.4-40C118.13,155,117,150.64,113.56,148.38Z"/><path class="cls-8" d="M101.75,136.13a2.44,2.44,0,0,0,1.39,1.91c.3-.72.92-2.19,1.18-3.11a2.35,2.35,0,0,0-1.13-.39C102.49,134.51,101.78,135.43,101.75,136.13Z"/><path class="cls-8" d="M100.39,203.33c-.07-.15-1.12-2.3-1.69-3.2A18.65,18.65,0,0,0,97.14,198a19.23,19.23,0,0,0-3.54,1.55c.78,1.29,3.53,5.08,3.58,5.19.78,1.7,1.52,1.83,1.73,1.34,0-.12,1,.83,1.25.4a.61.61,0,0,0,.68-.07,2.05,2.05,0,0,0,.4-1.15A13.32,13.32,0,0,0,100.39,203.33Z"/><path class="cls-8" d="M101.3,153.6c.28-.72-6.83-3.89-8.36-3.94-3.54-.1-9.41,18-10.39,24.8-.37,2.57,3.43,7.64,7,.29C92.47,168.75,99.73,157.53,101.3,153.6Z"/><path class="cls-16" d="M91.26,149.07c-1.68,1.44-4.88,7-7,13.87a20.59,20.59,0,0,0,10.07,4.34c2.68-5.42,7.55-11.26,7.63-14C102.08,149.65,95.58,145.37,91.26,149.07Z"/><path class="cls-8" d="M87.64,173c-1-1-3-1.8-4.87.42-2,2.43,6.84,20.07,11.16,26.65a15,15,0,0,1,3.39-1.83c-2.7-3.95-7.24-20.43-9.18-24.54A3,3,0,0,0,87.64,173Z"/><path class="cls-11" d="M96.42,280.89a7.37,7.37,0,0,1-3.66-1.11c-.91-.77-.37-4.66-.13-5.59-.49,0-1.67.33-2.14.42a13.91,13.91,0,0,1-2.9.15,41.33,41.33,0,0,1-1.16,5.66,1.48,1.48,0,0,0,0,1.38c.7.92,1.63.86,2.53.92,1.48.08,6.39.39,8.52.52a.82.82,0,0,0,1-.84C98.5,282,98.18,281,96.42,280.89Z"/><path class="cls-11" d="M116.25,280.89a7.37,7.37,0,0,1-3.66-1.11c-.91-.77-.37-4.66-.14-5.59-.48,0-1.66.33-2.14.42a13.82,13.82,0,0,1-2.89.15,44.6,44.6,0,0,1-1.16,5.66,1.48,1.48,0,0,0,0,1.38c.7.92,1.62.86,2.53.92,1.48.08,6.39.39,8.52.52a.81.81,0,0,0,1-.84C118.33,282,118,281,116.25,280.89Z"/><ellipse class="cls-13" cx="110.71" cy="131.35" rx="3.83" ry="2.23"/><line class="cls-17" x1="239.76" y1="224.37" x2="240.65" y2="245.7"/><path class="cls-17" d="M236.23,242.93a.13.13,0,0,0,.12.12h0a.13.13,0,0,0,.12-.13s-.09-4.74-.66-9.47c-.77-6.4-2-9.83-3.76-10.18a.12.12,0,0,0-.14.1.13.13,0,0,0,.09.15"/><path class="cls-18" d="M240.47,226.15s9.51-22.18-2.2-18.21S240.47,226.15,240.47,226.15Z"/><path class="cls-18" d="M233,224s-.29-16.8-7.81-7S233,224,233,224Z"/><path class="cls-17" d="M227.75,230.67a.12.12,0,0,0,0,.24c3.87.49,4.21,11.9,4.21,12a.13.13,0,0,0,.12.12h0a.12.12,0,0,0,.12-.13"/><path class="cls-18" d="M228.72,231.17s-.29-10.43-7.81-4.37S228.72,231.17,228.72,231.17Z"/><path class="cls-19" d="M233,224.14a.11.11,0,0,0,.09,0,.13.13,0,0,0,0-.18l-6.32-5.37a.14.14,0,0,0-.18,0,.12.12,0,0,0,0,.17l6.32,5.37A.11.11,0,0,0,233,224.14Z"/><path class="cls-19" d="M228.72,220.48h0a.12.12,0,0,0,.12-.13l-.11-3.23a.12.12,0,0,0-.12-.12h0a.13.13,0,0,0-.12.12l.12,3.24A.12.12,0,0,0,228.72,220.48Z"/><path class="cls-19" d="M227.08,223h0l3.62-.79a.12.12,0,1,0-.06-.24l-3.61.79a.13.13,0,0,0-.1.15A.14.14,0,0,0,227.08,223Z"/><path class="cls-19" d="M240.4,226.36h.1a.24.24,0,0,0,.15-.27l-1.63-14c0-.12-.11-.19-.21-.15a.24.24,0,0,0-.15.27l1.64,14A.16.16,0,0,0,240.4,226.36Z"/><path class="cls-19" d="M239.87,221.79a.18.18,0,0,0,.22-.12l2.1-4.41a.23.23,0,0,0-.06-.29.18.18,0,0,0-.25.11l-2.09,4.42a.21.21,0,0,0,.05.28Z"/><path class="cls-19" d="M228.72,231.3a.14.14,0,0,0,.11-.06.13.13,0,0,0-.05-.17l-4.94-3a.12.12,0,0,0-.17,0,.12.12,0,0,0,0,.17l4.95,3Z"/><path class="cls-19" d="M222.19,229.27h3.21a.12.12,0,0,0,.13-.12.13.13,0,0,0-.13-.13h-3.21a.12.12,0,0,0-.12.13A.12.12,0,0,0,222.19,229.27Z"/><path class="cls-19" d="M227.4,230.49h0a.12.12,0,0,0,.11-.14l-.31-2.22a.13.13,0,0,0-.14-.1.12.12,0,0,0-.11.14l.31,2.21A.14.14,0,0,0,227.4,230.49Z"/><path class="cls-17" d="M248.08,223.52a.13.13,0,0,0,.09-.15.12.12,0,0,0-.14-.1c-1.73.35-3,3.78-3.76,10.18-.58,4.73-.66,9.42-.66,9.47a.13.13,0,0,0,.12.13h0a.13.13,0,0,0,.12-.12"/><path class="cls-18" d="M247.06,224s.29-16.8,7.81-7S247.06,224,247.06,224Z"/><path class="cls-17" d="M247.92,242.92a.12.12,0,0,0,.12.13h0a.13.13,0,0,0,.12-.12c0-.12.34-11.53,4.21-12a.12.12,0,1,0,0-.24"/><path class="cls-18" d="M249,233.74s1.15-14.53,9.56-7.53S249,233.74,249,233.74Z"/><path class="cls-19" d="M247.06,224.14a.11.11,0,0,0,.08,0l6.32-5.37a.12.12,0,0,0,0-.17.14.14,0,0,0-.18,0L247,223.92a.13.13,0,0,0,0,.18A.11.11,0,0,0,247.06,224.14Z"/><path class="cls-19" d="M251.37,220.48a.12.12,0,0,0,.12-.12l.11-3.24a.11.11,0,0,0-.11-.12.12.12,0,0,0-.13.12l-.11,3.23a.12.12,0,0,0,.11.13Z"/><path class="cls-19" d="M253,223a.14.14,0,0,0,.12-.09.13.13,0,0,0-.1-.15l-3.61-.79a.12.12,0,1,0-.06.24L253,223Z"/><path class="cls-19" d="M250.35,232.14a.13.13,0,0,0,.08,0l5.94-3.79a.17.17,0,0,0,.05-.22.16.16,0,0,0-.21,0l-5.94,3.8a.16.16,0,0,0-.05.21A.16.16,0,0,0,250.35,232.14Z"/><path class="cls-19" d="M254.69,229.27h3.21a.12.12,0,0,0,.12-.12.12.12,0,0,0-.12-.13h-3.21a.13.13,0,0,0-.13.13A.12.12,0,0,0,254.69,229.27Z"/><path class="cls-19" d="M252.69,230.49a.12.12,0,0,0,.12-.11l.32-2.21a.13.13,0,0,0-.25,0l-.31,2.22a.12.12,0,0,0,.11.14Z"/><path class="cls-19" d="M239.49,217.65a.18.18,0,0,0,.2-.09.23.23,0,0,0,0-.3L236.2,214c-.07-.07-.18,0-.25.05a.24.24,0,0,0,0,.31l3.48,3.31Z"/><path class="cls-11" d="M239.1,281.58c18.24,0,14-38.66,14-38.66H226.62S222.88,281.58,239.1,281.58Z"/><circle class="cls-18" cx="95.16" cy="94.06" r="11.72"/><line class="cls-20" x1="93.41" y1="86.5" x2="96.17" y2="100.91"/><path class="cls-19" d="M94,99.45a5.19,5.19,0,0,1-1.84-.71.8.8,0,0,1-.44-.57.68.68,0,0,1,.12-.54.72.72,0,0,1,.46-.32.66.66,0,0,1,.48.09,4.22,4.22,0,0,0,1.43.59,3.94,3.94,0,0,0,1.53,0,3,3,0,0,0,1.55-.76A1.32,1.32,0,0,0,97.71,96a1.46,1.46,0,0,0-.9-1.11,6.16,6.16,0,0,0-2.13-.35A5.4,5.4,0,0,1,92,93.92,2.61,2.61,0,0,1,90.8,92,2.81,2.81,0,0,1,91,90.36a3.16,3.16,0,0,1,1.12-1.3,4.82,4.82,0,0,1,1.83-.73,5.08,5.08,0,0,1,1.86,0,3.91,3.91,0,0,1,1.52.55.93.93,0,0,1,.48.59.72.72,0,0,1-.11.53.67.67,0,0,1-.46.31.53.53,0,0,1-.38,0,3.29,3.29,0,0,0-1.23-.47,3.88,3.88,0,0,0-1.4,0,2.85,2.85,0,0,0-1.56.73,1.4,1.4,0,0,0,.43,2.27,6,6,0,0,0,1.94.33,9.5,9.5,0,0,1,2.07.24,2.75,2.75,0,0,1,1.36.75,3,3,0,0,1,.73,1.57A2.64,2.64,0,0,1,99,97.3a3.37,3.37,0,0,1-1.16,1.34,4.65,4.65,0,0,1-1.81.74A5.94,5.94,0,0,1,94,99.45Z"/><path class="cls-4" d="M186.52,65.24a3.34,3.34,0,0,0-.79-2.27,3.74,3.74,0,0,0-2.12-1.2l.51-.23a3.66,3.66,0,0,0,.51-.36,2.92,2.92,0,0,0,1.09-2.5,3.7,3.7,0,0,0-1-2.5,3.61,3.61,0,0,0-1.59-1,6.56,6.56,0,0,0-.67-.17V53.24H180v1.64h-1.69V53.24h-2.51v1.64H173v2.71h2.05v8.92H173v2.71h2.75v1.65h2.51V69.22H180v1.65h2.52V69.16a4.5,4.5,0,0,0,3-1.28A3.8,3.8,0,0,0,186.52,65.24Zm-4.7-7.34a1.27,1.27,0,0,1,.6,1.26,1.22,1.22,0,0,1-.65,1.24,5.16,5.16,0,0,1-2,.29h-1.51v-3.1h1.53A4.59,4.59,0,0,1,181.82,57.9Zm.71,8.27a4.77,4.77,0,0,1-2.06.34h-2.19v-3.3h1.88a6.29,6.29,0,0,1,2.33.32,1.29,1.29,0,0,1,.73,1.31A1.33,1.33,0,0,1,182.53,66.17Z"/><polygon class="cls-4" points="51.37 206.43 45.32 201.96 51.37 192.72 57.43 201.97 51.37 206.43"/><polygon class="cls-4" points="51.37 212.58 45.32 203.18 51.37 207.95 57.43 203.18 51.37 212.58"/><polygon class="cls-4" points="255.3 166.88 255.91 163.67 258.11 163.09 258.57 160.63 256.37 161.21 257.45 155.5 253.32 155.5 252.03 162.36 250.12 162.86 249.65 165.32 251.56 164.81 250.5 170.45 262.55 170.45 263.22 166.88 255.3 166.88"/><circle class="cls-21" cx="216.6" cy="40.06" r="18"/></svg>