<svg id="Layer_1" data-name="Layer 1" xmlns="http://www.w3.org/2000/svg" viewBox="0 0 21 21"><defs><style>.cls-1{fill:none;stroke:#44d5a7;stroke-linecap:round;stroke-linejoin:round;}</style></defs><path class="cls-1" d="M4.13,12.39a6,6,0,0,0,3.17,1A7.26,7.26,0,0,0,12,11.17a5.74,5.74,0,0,1,3.58-1.75"/><path id="Vector-2" class="cls-1" d="M13.35,5.76S15.19.87,16.4.54H4.64c1.2.34,3,5.22,3,5.22h0L.91,16.53a3,3,0,0,0,0,2.61,2.85,2.85,0,0,0,2.47,1.32H17.73a2.84,2.84,0,0,0,2.46-1.32,3.47,3.47,0,0,0,0-2.61L13.35,5.76Z"/></svg>