<svg id="Layer_1" data-name="Layer 1" xmlns="http://www.w3.org/2000/svg" viewBox="0 0 21 21"><defs><style>.cls-1{fill:#faa2ab;}</style></defs><path class="cls-1" d="M11.38,21H9.62a1.48,1.48,0,0,1-1.49-1.35l-.06-.6a.46.46,0,0,0-.3-.41,8.75,8.75,0,0,1-1.1-.45.47.47,0,0,0-.5.07l-.46.38a1.48,1.48,0,0,1-2-.09L2.45,17.3a1.49,1.49,0,0,1-.1-2l.39-.46a.47.47,0,0,0,.07-.5,9.41,9.41,0,0,1-.45-1.1.47.47,0,0,0-.41-.3l-.6-.06A1.48,1.48,0,0,1,0,11.38V9.62A1.48,1.48,0,0,1,1.35,8.13L2,8.07a.47.47,0,0,0,.41-.3,9.41,9.41,0,0,1,.45-1.1.47.47,0,0,0-.07-.5l-.39-.46a1.49,1.49,0,0,1,.1-2L3.7,2.45a1.48,1.48,0,0,1,2-.09l.46.38a.47.47,0,0,0,.5.07,8.75,8.75,0,0,1,1.1-.45A.46.46,0,0,0,8.07,2l.06-.6A1.48,1.48,0,0,1,9.62,0h1.76a1.48,1.48,0,0,1,1.49,1.35l.06.6a.46.46,0,0,0,.3.41,8.75,8.75,0,0,1,1.1.45.46.46,0,0,0,.5-.07l.46-.38a1.48,1.48,0,0,1,2,.09L18.55,3.7a1.49,1.49,0,0,1,.1,2l-.39.46a.47.47,0,0,0-.07.5,9.41,9.41,0,0,1,.45,1.1.47.47,0,0,0,.41.3l.6.06A1.48,1.48,0,0,1,21,9.62v1.76a1.48,1.48,0,0,1-1.35,1.49l-.6.06a.47.47,0,0,0-.41.3,9.41,9.41,0,0,1-.45,1.1.47.47,0,0,0,.07.5l.39.46a1.49,1.49,0,0,1-.1,2L17.3,18.55a1.48,1.48,0,0,1-2,.09l-.46-.38a.46.46,0,0,0-.5-.07,8.75,8.75,0,0,1-1.1.45.46.46,0,0,0-.3.41l-.06.6A1.48,1.48,0,0,1,11.38,21ZM6.49,17.14a1.42,1.42,0,0,1,.63.15,6.82,6.82,0,0,0,1,.4,1.48,1.48,0,0,1,1,1.27l.06.59a.48.48,0,0,0,.49.45h1.76a.48.48,0,0,0,.49-.45l.06-.59a1.48,1.48,0,0,1,1-1.27,6.82,6.82,0,0,0,1-.4,1.49,1.49,0,0,1,1.59.2l.46.38a.48.48,0,0,0,.66,0l1.25-1.25a.48.48,0,0,0,0-.66l-.38-.46a1.49,1.49,0,0,1-.2-1.59,6.82,6.82,0,0,0,.4-1,1.49,1.49,0,0,1,1.27-1l.6-.06a.48.48,0,0,0,.44-.49V9.62a.48.48,0,0,0-.44-.49L19,9.07a1.49,1.49,0,0,1-1.27-1,6.82,6.82,0,0,0-.4-1,1.49,1.49,0,0,1,.2-1.59l.38-.46a.48.48,0,0,0,0-.66L16.59,3.16a.48.48,0,0,0-.66,0l-.46.38a1.49,1.49,0,0,1-1.59.2,6.82,6.82,0,0,0-1-.4,1.48,1.48,0,0,1-1-1.27l-.06-.59A.48.48,0,0,0,11.38,1H9.62a.48.48,0,0,0-.49.45L9.07,2a1.48,1.48,0,0,1-1,1.27,6.82,6.82,0,0,0-1,.4,1.49,1.49,0,0,1-1.59-.2l-.46-.38a.48.48,0,0,0-.66,0L3.16,4.41a.48.48,0,0,0,0,.66l.38.46a1.49,1.49,0,0,1,.2,1.59,6.82,6.82,0,0,0-.4,1A1.49,1.49,0,0,1,2,9.07l-.6.06A.48.48,0,0,0,1,9.62v1.76a.48.48,0,0,0,.44.49l.6.06a1.49,1.49,0,0,1,1.27,1,6.82,6.82,0,0,0,.4,1,1.49,1.49,0,0,1-.2,1.59l-.38.46a.48.48,0,0,0,0,.66l1.25,1.25a.48.48,0,0,0,.66,0l.46-.38A1.51,1.51,0,0,1,6.49,17.14Z"/><path class="cls-1" d="M10.5,15.51a5,5,0,1,1,5-5A5,5,0,0,1,10.5,15.51Zm0-9a4,4,0,1,0,4,4A4,4,0,0,0,10.5,6.49Z"/></svg>