<svg id="Layer_1" data-name="Layer 1" xmlns="http://www.w3.org/2000/svg" viewBox="0 0 21 21"><defs><style>.cls-1{fill:#457fc0;}</style></defs><path class="cls-1" d="M13,16.14a.5.5,0,0,1-.5-.5v-5a.5.5,0,0,1,.5-.5.5.5,0,0,1,.5.5v5A.5.5,0,0,1,13,16.14Z"/><path class="cls-1" d="M15.58,13.77h-5a.5.5,0,0,1-.5-.5.5.5,0,0,1,.5-.5h5a.5.5,0,0,1,.5.5A.5.5,0,0,1,15.58,13.77Z"/><path class="cls-1" d="M19.5,21H6.11a1.5,1.5,0,0,1-1.5-1.5V6.1a1.5,1.5,0,0,1,1.5-1.5H19.5A1.5,1.5,0,0,1,21,6.1V19.5A1.5,1.5,0,0,1,19.5,21ZM6.11,5.6a.5.5,0,0,0-.5.5V19.5a.5.5,0,0,0,.5.5H19.5a.5.5,0,0,0,.5-.5V6.1a.5.5,0,0,0-.5-.5Z"/><path class="cls-1" d="M2.83,16.4H1.64A1.64,1.64,0,0,1,0,14.76V1.64A1.65,1.65,0,0,1,1.64,0H14.75a1.64,1.64,0,0,1,1.64,1.64V3.17a.5.5,0,0,1-.5.5.5.5,0,0,1-.5-.5V1.64A.64.64,0,0,0,14.75,1H1.64A.64.64,0,0,0,1,1.64V14.76a.64.64,0,0,0,.64.64H2.83a.5.5,0,0,1,.5.5A.5.5,0,0,1,2.83,16.4Z"/></svg>