<svg id="Layer_1" data-name="Layer 1" xmlns="http://www.w3.org/2000/svg" viewBox="0 0 21 21"><defs><style>.cls-1{fill:#44d5a7;}</style></defs><path class="cls-1" d="M19.43,21H1.56A1.75,1.75,0,0,1,0,19.08V1.92A1.75,1.75,0,0,1,1.56,0H19.43A1.75,1.75,0,0,1,21,1.92V19.08A1.75,1.75,0,0,1,19.43,21ZM1.56,1C1.3,1,1,1.38,1,1.92V19.08c0,.54.3.92.56.92H19.43c.27,0,.57-.38.57-.92V1.92c0-.54-.3-.92-.57-.92Z"/><path class="cls-1" d="M5,15.88a.48.48,0,0,1-.26-.07.49.49,0,0,1-.16-.69l2.37-3.86A.49.49,0,0,1,7.34,11h4.33l3.27-4.78a.52.52,0,0,1,.7-.13.51.51,0,0,1,.13.7l-3.42,5a.51.51,0,0,1-.42.22H7.62L5.4,15.64A.5.5,0,0,1,5,15.88Z"/><path class="cls-1" d="M15.89,9.13a.5.5,0,0,1-.5-.5v-2h-2a.5.5,0,0,1,0-1h2.53a.5.5,0,0,1,.5.5V8.63A.5.5,0,0,1,15.89,9.13Z"/></svg>