<svg id="Layer_1" data-name="Layer 1" xmlns="http://www.w3.org/2000/svg" viewBox="0 0 21 21"><defs><style>.cls-1{fill:#f2949e;}</style></defs><g id="Group_1709" data-name="Group 1709"><g id="Group_1709-2" data-name="Group 1709"><path class="cls-1" d="M1.71,16.3h0A1.77,1.77,0,0,1,0,14.51V1.79A1.75,1.75,0,0,1,1.71,0H19.29A1.75,1.75,0,0,1,21,1.79V14.51a1.74,1.74,0,0,1-1.7,1.78ZM1.71,1A.76.76,0,0,0,1,1.79V14.51a.77.77,0,0,0,.71.79H19.29a.74.74,0,0,0,.71-.78V1.79A.76.76,0,0,0,19.29,1Z"/><path class="cls-1" d="M15.17,21H5.83a.51.51,0,0,1-.5-.43A.51.51,0,0,1,5.68,20a2.27,2.27,0,0,0,1.55-1.77l.5-2.55a.5.5,0,0,1,.49-.4h4.56a.5.5,0,0,1,.49.4l.51,2.55A2.29,2.29,0,0,0,15.32,20a.49.49,0,0,1,.35.55A.51.51,0,0,1,15.17,21ZM7.46,20h6.09a3.42,3.42,0,0,1-.76-1.55l-.42-2.15H8.63l-.42,2.15A3.41,3.41,0,0,1,7.46,20Z"/></g></g><path class="cls-1" d="M20.18,12.26H.82a.51.51,0,0,1-.5-.5.5.5,0,0,1,.5-.5H20.18a.5.5,0,0,1,.5.5A.51.51,0,0,1,20.18,12.26Z"/></svg>