<svg xmlns="http://www.w3.org/2000/svg" xmlns:xlink="http://www.w3.org/1999/xlink" width="65" height="65" viewBox="0 0 65 65">
  <defs>
    <clipPath id="clip-Automation-Icon">
      <rect width="65" height="65"/>
    </clipPath>
  </defs>
  <g id="Automation-Icon" clip-path="url(#clip-Automation-Icon)">
    <rect width="65" height="65" fill="#fff"/>
    <circle id="Oval" cx="32.5" cy="32.5" r="32.5" fill="#ecfdf7"/>
    <path id="Path_1182" data-name="Path 1182" d="M16.05,29.617H13.568a2.087,2.087,0,0,1-2.1-1.9l-.085-.846a.649.649,0,0,0-.423-.578,12.34,12.34,0,0,1-1.551-.635.663.663,0,0,0-.705.1l-.649.536a2.087,2.087,0,0,1-2.821-.127L3.455,24.4a2.1,2.1,0,0,1-.141-2.821l.55-.649a.663.663,0,0,0,.1-.705,13.272,13.272,0,0,1-.635-1.551.663.663,0,0,0-.578-.423L1.9,18.165A2.087,2.087,0,0,1,0,16.05V13.567a2.087,2.087,0,0,1,1.9-2.1l.917-.085a.663.663,0,0,0,.578-.423,13.271,13.271,0,0,1,.635-1.551.663.663,0,0,0-.1-.705l-.55-.649a2.1,2.1,0,0,1,.141-2.821L5.218,3.455a2.087,2.087,0,0,1,2.821-.127l.649.536a.663.663,0,0,0,.705.1,12.341,12.341,0,0,1,1.551-.635.649.649,0,0,0,.437-.508l.085-.846A2.087,2.087,0,0,1,13.568,0H16.05a2.087,2.087,0,0,1,2.1,1.9l.085.846a.649.649,0,0,0,.423.578,12.341,12.341,0,0,1,1.551.635.649.649,0,0,0,.705-.1l.649-.536a2.087,2.087,0,0,1,2.821.127l1.777,1.763A2.1,2.1,0,0,1,26.3,8.039l-.55.649a.663.663,0,0,0-.1.705,13.271,13.271,0,0,1,.635,1.551.663.663,0,0,0,.578.423l.846.085a2.087,2.087,0,0,1,1.9,2.116V16.05a2.087,2.087,0,0,1-1.9,2.1l-.846.085a.663.663,0,0,0-.578.423,13.271,13.271,0,0,1-.635,1.551.663.663,0,0,0,.1.705l.55.649a2.1,2.1,0,0,1-.141,2.821L24.4,26.162a2.087,2.087,0,0,1-2.821.127l-.649-.536a.649.649,0,0,0-.705-.1,12.34,12.34,0,0,1-1.551.635.649.649,0,0,0-.423.578l-.085.846A2.087,2.087,0,0,1,16.05,29.617Zm-6.9-5.444a2,2,0,0,1,.889.212,9.619,9.619,0,0,0,1.41.564,2.087,2.087,0,0,1,1.41,1.791l.085.832a.677.677,0,0,0,.691.635H16.12a.677.677,0,0,0,.691-.635l.085-.832a2.087,2.087,0,0,1,1.41-1.791,9.619,9.619,0,0,0,1.41-.564,2.1,2.1,0,0,1,2.242.282l.649.536a.677.677,0,0,0,.931,0L25.3,23.44a.677.677,0,0,0,0-.931l-.536-.649a2.1,2.1,0,0,1-.282-2.242,9.619,9.619,0,0,0,.564-1.41,2.1,2.1,0,0,1,1.791-1.41l.846-.085a.677.677,0,0,0,.621-.691V13.567a.677.677,0,0,0-.621-.691l-.889-.085a2.1,2.1,0,0,1-1.791-1.41,9.618,9.618,0,0,0-.564-1.41,2.1,2.1,0,0,1,.282-2.242l.536-.649a.677.677,0,0,0,0-.931L23.4,4.457a.677.677,0,0,0-.931,0l-.649.536a2.1,2.1,0,0,1-2.242.282,9.618,9.618,0,0,0-1.41-.564,2.087,2.087,0,0,1-1.41-1.791l-.085-.832a.677.677,0,0,0-.621-.677H13.568a.677.677,0,0,0-.691.635l-.085.776a2.087,2.087,0,0,1-1.41,1.791,9.619,9.619,0,0,0-1.41.564,2.1,2.1,0,0,1-2.242-.282L7.08,4.358a.677.677,0,0,0-.931,0L4.457,6.22a.677.677,0,0,0,0,.931l.536.649a2.1,2.1,0,0,1,.282,2.242,9.618,9.618,0,0,0-.564,1.41,2.1,2.1,0,0,1-1.89,1.34l-.846.085a.677.677,0,0,0-.564.691V16.05a.677.677,0,0,0,.621.691l.846.085a2.1,2.1,0,0,1,1.791,1.41,9.619,9.619,0,0,0,.564,1.41,2.1,2.1,0,0,1-.282,2.242l-.536.649a.677.677,0,0,0,0,.931l1.763,1.763a.677.677,0,0,0,.931,0l.649-.536a2.13,2.13,0,0,1,1.4-.522Z" transform="translate(17.589 18.582)" fill="#55d9af"/>
    <path id="Path_1183" data-name="Path 1183" d="M13.6,19.163a5.552,5.552,0,1,0-5.552-5.552A5.558,5.558,0,0,0,13.6,19.163m0,1.5a7.052,7.052,0,1,1,7.052-7.052A7.052,7.052,0,0,1,13.6,20.663Z" transform="translate(18.799 19.793)" fill="#55d9af"/>
  </g>
</svg>
