<svg xmlns="http://www.w3.org/2000/svg" fill="#fff" width="16" height="16" viewBox="0 0 16 16"><defs><style>.a{fill:#fff;}</style></defs><g transform="translate(5.454 5.454)"><path class="a" d="M10.546,13.092a2.546,2.546,0,1,1,2.546-2.546A2.553,2.553,0,0,1,10.546,13.092Zm0-3.819a1.273,1.273,0,1,0,1.273,1.273A1.277,1.277,0,0,0,10.546,9.273Z" transform="translate(-8 -8)"/></g><path class="a" d="M8.067,16a1.964,1.964,0,0,1-2-2,.561.561,0,0,0-.267-.467.5.5,0,0,0-.533.067,2.075,2.075,0,0,1-2.867.067h0a1.919,1.919,0,0,1-.6-1.4,1.816,1.816,0,0,1,.6-1.4.518.518,0,0,0,.133-.533.45.45,0,0,0-.4-.267H2a2,2,0,0,1,0-4A.561.561,0,0,0,2.467,5.8.5.5,0,0,0,2.4,5.267,1.957,1.957,0,0,1,2.333,2.4a1.933,1.933,0,0,1,2.8,0,.588.588,0,0,0,.533.133c.067,0,.067,0,.133-.067A.367.367,0,0,0,6,2.133V2a2,2,0,0,1,4,0,.561.561,0,0,0,.267.467.4.4,0,0,0,.467-.067A2.068,2.068,0,0,1,12.2,1.8h0a1.919,1.919,0,0,1,1.4.6h0a1.933,1.933,0,0,1,0,2.8.518.518,0,0,0-.133.533c0,.067,0,.067.067.133A.509.509,0,0,0,13.867,6H14a2,2,0,0,1,0,4,.561.561,0,0,0-.467.267h0a.411.411,0,0,0,.067.467,2.075,2.075,0,0,1,.067,2.867,1.933,1.933,0,0,1-2.8,0,.518.518,0,0,0-.533-.133.45.45,0,0,0-.267.4V14A2.006,2.006,0,0,1,8.067,16ZM5.533,12.2a2.835,2.835,0,0,1,.733.133,1.83,1.83,0,0,1,1.133,1.6V14a.667.667,0,0,0,1.333,0v-.133a1.668,1.668,0,0,1,1.067-1.6,1.861,1.861,0,0,1,1.933.333.689.689,0,0,0,.533.267h0a.66.66,0,0,0,.467-1.133,1.862,1.862,0,0,1-.4-2,1.733,1.733,0,0,1,1.6-1.067A.685.685,0,0,0,14.667,8,.63.63,0,0,0,14,7.333h-.133a1.668,1.668,0,0,1-1.6-1.067c0-.067-.067-.133-.067-.2a1.8,1.8,0,0,1,.4-1.8.672.672,0,0,0,.067-1h0a.605.605,0,0,0-.467-.2h0a.605.605,0,0,0-.467.2,1.862,1.862,0,0,1-2,.4,1.733,1.733,0,0,1-1.067-1.6A.65.65,0,0,0,8,1.333.63.63,0,0,0,7.333,2v.133a1.668,1.668,0,0,1-1.067,1.6c-.067,0-.133.067-.2.067a1.8,1.8,0,0,1-1.8-.4.672.672,0,0,0-1-.067.644.644,0,0,0,0,.933,1.862,1.862,0,0,1,.4,2A1.83,1.83,0,0,1,2.067,7.4H2A.667.667,0,1,0,2,8.733h.133A1.668,1.668,0,0,1,3.733,9.8,1.861,1.861,0,0,1,3.4,11.733a.689.689,0,0,0-.267.533.605.605,0,0,0,.2.467h0a.644.644,0,0,0,.933,0A1.766,1.766,0,0,1,5.533,12.2Zm7.4-2.2Z"/></svg>