<svg xmlns="http://www.w3.org/2000/svg" fill="#fff" width="16" height="16" viewBox="0 0 16 16"><defs><style>.a{fill:#fff;}</style></defs><path class="a" d="M8,16a8,8,0,1,1,8-8A7.977,7.977,0,0,1,8,16ZM8,1.455A6.545,6.545,0,1,0,14.545,8,6.518,6.518,0,0,0,8,1.455Z"/><g transform="translate(7.105 2.758)"><path class="a" d="M13.864,11.727c-.155,0-.232,0-.309-.077L10.464,10.1a.743.743,0,0,1-.464-.7V4.773a.773.773,0,1,1,1.545,0V8.945l2.627,1.314a.682.682,0,0,1,.309,1A.588.588,0,0,1,13.864,11.727Z" transform="translate(-10 -4)"/></g></svg>