<svg xmlns="http://www.w3.org/2000/svg" fill="#fff" width="19.28" height="16" viewBox="0 0 19.28 16"><defs><style>.a{fill:#fff;}</style></defs><g transform="translate(0 9.6)"><path class="a" d="M13.6,18.4a.756.756,0,0,1-.8-.8V16a2.357,2.357,0,0,0-2.4-2.4H4A2.357,2.357,0,0,0,1.6,16v1.6a.756.756,0,0,1-.8.8.756.756,0,0,1-.8-.8V16a3.961,3.961,0,0,1,4-4h6.4a3.961,3.961,0,0,1,4,4v1.6A.756.756,0,0,1,13.6,18.4Z" transform="translate(0 -12)"/></g><g transform="translate(3.2)"><path class="a" d="M8,8A3.961,3.961,0,0,1,4,4a4,4,0,0,1,8,0A3.961,3.961,0,0,1,8,8ZM8,1.6A2.357,2.357,0,0,0,5.6,4,2.357,2.357,0,0,0,8,6.4,2.357,2.357,0,0,0,10.4,4,2.357,2.357,0,0,0,8,1.6Z" transform="translate(-4)"/></g><g transform="translate(15.238 9.718)"><path class="a" d="M22.209,18.429a.756.756,0,0,1-.8-.8v-1.6a2.332,2.332,0,0,0-1.76-2.32.786.786,0,1,1,.4-1.52,4.182,4.182,0,0,1,3.04,3.84v1.6A.872.872,0,0,1,22.209,18.429Z" transform="translate(-19.047 -12.147)"/></g><g transform="translate(11.985 0.118)"><path class="a" d="M15.8,7.949a.842.842,0,0,1-.8-.64.823.823,0,0,1,.56-.96,2.451,2.451,0,0,0,1.76-1.76,2.508,2.508,0,0,0-1.76-2.96c-.4,0-.64-.48-.56-.88a.759.759,0,0,1,.96-.56,3.983,3.983,0,0,1,2.88,4.88,3.809,3.809,0,0,1-2.88,2.8C15.956,7.949,15.876,7.949,15.8,7.949Z" transform="translate(-14.981 -0.147)"/></g></svg>