<svg xmlns="http://www.w3.org/2000/svg" width="16.002" height="16.002" viewBox="0 0 16.002 16.002"><defs><style>.a{fill:#2e2e2e;}</style></defs><path class="a" d="M8,16a8,8,0,1,1,8-8A7.978,7.978,0,0,1,8,16ZM8,1.455A6.546,6.546,0,1,0,14.547,8,6.519,6.519,0,0,0,8,1.455Z"/><g transform="translate(4.216 4.19)"><path class="a" d="M6.526,13.354a.66.66,0,0,1-.509-.218.579.579,0,0,1-.145-.727L7.4,7.753c0-.145.218-.364.436-.436l4.655-1.527a.8.8,0,0,1,.727.145.579.579,0,0,1,.145.727l-1.527,4.655a.656.656,0,0,1-.436.436L6.744,13.281A.267.267,0,0,1,6.526,13.354ZM8.636,8.626,7.69,11.535,10.6,10.59l.946-2.909Z" transform="translate(-5.796 -5.761)"/></g></svg>