<svg xmlns="http://www.w3.org/2000/svg" xmlns:xlink="http://www.w3.org/1999/xlink" width="312" height="279" viewBox="0 0 312 279">
  <defs>
    <clipPath id="clip-Artboard_4">
      <rect width="312" height="279"/>
    </clipPath>
  </defs>
  <g id="Artboard_4" data-name="Artboard – 4" clip-path="url(#clip-Artboard_4)">
    <rect width="312" height="279" fill="#fff"/>
    <g id="Group_664" data-name="Group 664" transform="translate(-170.354 -585.834)">
      <circle id="Ellipse_29" data-name="Ellipse 29" cx="135" cy="135" r="135" transform="translate(180.611 594.835)" fill="#f5fafe"/>
      <g id="Group_654" data-name="Group 654">
        <path id="Path_563" data-name="Path 563" d="M378.227,757.729H252.648a3.939,3.939,0,0,1-3.935-3.935V656.148a.5.5,0,0,1,.5-.5H381.662a.5.5,0,0,1,.5.5v97.646A3.939,3.939,0,0,1,378.227,757.729ZM249.713,656.648v97.146a2.938,2.938,0,0,0,2.935,2.935H378.227a2.938,2.938,0,0,0,2.935-2.935V656.648Z" fill="#cde8f9"/>
        <path id="Path_564" data-name="Path 564" d="M252.648,645.076H378.227a3.939,3.939,0,0,1,3.935,3.935v7.637H248.713v-7.637A3.939,3.939,0,0,1,252.648,645.076Zm128.514,10.572v-6.637a2.938,2.938,0,0,0-2.935-2.935H252.648a2.938,2.938,0,0,0-2.935,2.935v6.637Z" fill="#81c6ef"/>
        <path id="Path_565" data-name="Path 565" d="M266.992,679.393a7,7,0,0,1,9.963,0,7.358,7.358,0,0,1,0,10.329,6.839,6.839,0,0,1-9.963,0,7.449,7.449,0,0,1,0-10.329Zm2.846,7.373a2.99,2.99,0,0,0,2.19.912,2.828,2.828,0,0,0,2.117-.912,2.991,2.991,0,0,0,.913-2.19,3.073,3.073,0,0,0-.913-2.263,2.885,2.885,0,0,0-2.117-.876,3.052,3.052,0,0,0-2.19.876,3.139,3.139,0,0,0-.876,2.263A3.052,3.052,0,0,0,269.838,686.766ZM274.17,707.2h-.433a1.777,1.777,0,0,1-1.571-2.608l13.961-26.41a1.777,1.777,0,0,1,1.571-.946h.465a1.777,1.777,0,0,1,1.571,2.609l-13.993,26.41A1.777,1.777,0,0,1,274.17,707.2Zm10.961-12.445a7,7,0,0,1,10,.036,7.269,7.269,0,0,1,0,10.256,6.922,6.922,0,0,1-10,.036,7.131,7.131,0,0,1-2.044-5.146A7.256,7.256,0,0,1,285.131,694.759Zm2.847,7.409a2.868,2.868,0,0,0,2.153.912,3.177,3.177,0,0,0,3.139-3.139,3.013,3.013,0,0,0-.949-2.263,3.049,3.049,0,0,0-2.19-.876,2.926,2.926,0,0,0-2.153.876,3.072,3.072,0,0,0-.913,2.263A3.108,3.108,0,0,0,287.978,702.168Z" fill="#3ee5b1"/>
        <g id="Group_646" data-name="Group 646">
          <path id="Path_566" data-name="Path 566" d="M214.341,759.341V720.578h52.578v38.763a1.365,1.365,0,0,1-1.364,1.363H215.7A1.365,1.365,0,0,1,214.341,759.341Z" fill="#f5fafe"/>
          <path id="Path_566_-_Outline" data-name="Path 566 - Outline" d="M265.555,761.2H215.7a1.865,1.865,0,0,1-1.863-1.863V720.578a.5.5,0,0,1,.5-.5h52.578a.5.5,0,0,1,.5.5v38.763A1.866,1.866,0,0,1,265.555,761.2Zm-50.714-40.126v38.263a.864.864,0,0,0,.863.863h49.851a.864.864,0,0,0,.864-.863V721.078Z" fill="#cde8f9"/>
          <path id="Path_567" data-name="Path 567" d="M214.341,717.745a1.365,1.365,0,0,1,1.363-1.364h49.851a1.366,1.366,0,0,1,1.364,1.364v2.833H214.341Z" fill="#fff"/>
          <path id="Path_567_-_Outline" data-name="Path 567 - Outline" d="M215.7,715.881h49.851a1.866,1.866,0,0,1,1.864,1.864v2.833a.5.5,0,0,1-.5.5H214.341a.5.5,0,0,1-.5-.5v-2.833A1.866,1.866,0,0,1,215.7,715.881Zm50.715,4.2v-2.333a.865.865,0,0,0-.864-.864H215.7a.864.864,0,0,0-.863.864v2.333Z" fill="#cde8f9"/>
          <rect id="Rectangle_41" data-name="Rectangle 41" width="1.23" height="1.355" rx="0.615" transform="translate(220.815 726.177)" fill="#dadef2"/>
          <rect id="Rectangle_42" data-name="Rectangle 42" width="1.23" height="1.355" rx="0.615" transform="translate(220.815 728.866)" fill="#dadef2"/>
          <rect id="Rectangle_43" data-name="Rectangle 43" width="5.685" height="1.355" rx="0.677" transform="translate(222.617 726.177)" fill="#dadef2"/>
          <rect id="Rectangle_44" data-name="Rectangle 44" width="6.427" height="1.355" rx="0.677" transform="translate(222.617 728.866)" fill="#dadef2"/>
          <circle id="Ellipse_30" data-name="Ellipse 30" cx="14.015" cy="14.015" r="14.015" transform="translate(227.738 727.076)" fill="#2659bf"/>
          <path id="Path_568" data-name="Path 568" d="M247.829,753.723a14.015,14.015,0,0,0,7.938-12.633H241.753Z" fill="#bbeafa"/>
          <circle id="Ellipse_31" data-name="Ellipse 31" cx="7.007" cy="7.007" r="7.007" transform="translate(234.746 734.083)" fill="#fff"/>
        </g>
        <path id="Line_10" data-name="Line 10" d="M60.406.5H0A.5.5,0,0,1-.5,0,.5.5,0,0,1,0-.5H60.406a.5.5,0,0,1,.5.5A.5.5,0,0,1,60.406.5Z" transform="translate(309.388 668.95)" fill="#cde8f9"/>
        <path id="Line_11" data-name="Line 11" d="M60.406.5H0A.5.5,0,0,1-.5,0,.5.5,0,0,1,0-.5H60.406a.5.5,0,0,1,.5.5A.5.5,0,0,1,60.406.5Z" transform="translate(309.388 679.285)" fill="#cde8f9"/>
        <path id="Line_12" data-name="Line 12" d="M56.651.5H0A.5.5,0,0,1-.5,0,.5.5,0,0,1,0-.5H56.651a.5.5,0,0,1,.5.5A.5.5,0,0,1,56.651.5Z" transform="translate(309.388 689.62)" fill="#cde8f9"/>
        <path id="Line_13" data-name="Line 13" d="M49.956.5H0A.5.5,0,0,1-.5,0,.5.5,0,0,1,0-.5H49.956a.5.5,0,0,1,.5.5A.5.5,0,0,1,49.956.5Z" transform="translate(309.388 699.956)" fill="#cde8f9"/>
        <path id="Line_14" data-name="Line 14" d="M37.44,1.5H0A1.5,1.5,0,0,1-1.5,0,1.5,1.5,0,0,1,0-1.5H37.44A1.5,1.5,0,0,1,38.94,0,1.5,1.5,0,0,1,37.44,1.5Z" transform="translate(309.388 668.95)" fill="#cde8f9"/>
        <path id="Line_15" data-name="Line 15" d="M30.971,1.5H0A1.5,1.5,0,0,1-1.5,0,1.5,1.5,0,0,1,0-1.5H30.971a1.5,1.5,0,0,1,1.5,1.5A1.5,1.5,0,0,1,30.971,1.5Z" transform="translate(309.388 679.285)" fill="#faa2ab"/>
        <path id="Line_16" data-name="Line 16" d="M19.491,1.5H0A1.5,1.5,0,0,1-1.5,0,1.5,1.5,0,0,1,0-1.5H19.491a1.5,1.5,0,0,1,1.5,1.5A1.5,1.5,0,0,1,19.491,1.5Z" transform="translate(309.388 689.62)" fill="#cde8f9"/>
        <path id="Line_17" data-name="Line 17" d="M15.1,1.5H0A1.5,1.5,0,0,1-1.5,0,1.5,1.5,0,0,1,0-1.5H15.1A1.5,1.5,0,0,1,16.6,0,1.5,1.5,0,0,1,15.1,1.5Z" transform="translate(309.388 699.956)" fill="#cde8f9"/>
        <circle id="Ellipse_32" data-name="Ellipse 32" cx="2.602" cy="2.602" r="2.602" transform="translate(344.227 666.348)" fill="#56cbf2"/>
        <circle id="Ellipse_33" data-name="Ellipse 33" cx="2.602" cy="2.602" r="2.602" transform="translate(338.32 676.683)" fill="#f45a6d"/>
        <circle id="Ellipse_34" data-name="Ellipse 34" cx="2.602" cy="2.602" r="2.602" transform="translate(326.648 687.019)" fill="#56cbf2"/>
        <circle id="Ellipse_35" data-name="Ellipse 35" cx="2.602" cy="2.602" r="2.602" transform="translate(321.445 697.354)" fill="#56cbf2"/>
        <g id="Group_653" data-name="Group 653">
          <g id="Group_649" data-name="Group 649">
            <path id="Path_569" data-name="Path 569" d="M394.354,720.562q-.266-.437-.542-.856l-.015-.023q-.281-.426-.573-.836l-.009-.013c-.173-.241-.351-.477-.53-.711-.029-.037-.056-.076-.085-.113s-.036-.049-.055-.073l0,0a24.775,24.775,0,0,0-9.395-7.317l-10.836,23.506,22.579-12.644Q394.629,721.015,394.354,720.562Z" fill="#81c6ef"/>
            <g id="Group_648" data-name="Group 648">
              <g id="Group_647" data-name="Group 647">
                <path id="Path_570" data-name="Path 570" d="M372.312,734.128l22.579-12.644a25.884,25.884,0,1,1-35.227-9.943,25.109,25.109,0,0,1,23.484-.919Z" fill="#c5e1f9"/>
              </g>
            </g>
          </g>
          <g id="Group_652" data-name="Group 652">
            <g id="Group_651" data-name="Group 651">
              <g id="Group_650" data-name="Group 650">
                <path id="Path_571" data-name="Path 571" d="M372.309,734.123l5.046,25.39A25.885,25.885,0,0,0,397.7,729.079a24.679,24.679,0,0,0-2.808-7.6Z" fill="#2659bf"/>
              </g>
            </g>
          </g>
        </g>
      </g>
      <g id="Group_663" data-name="Group 663">
        <g id="Group_656" data-name="Group 656">
          <path id="Path_572" data-name="Path 572" d="M307.326,725.613c10.124-7.935,26.007-1.519,30.481,8.862,3.34,7.742,6.453,2.366,6.134.313,1.006,5.146-1.166,9.6-11.112,8.853-2.089-.156,4.622,1.917,4.622,1.917s-10.625,22.022-27.031,16.627c-4.873-1.6-9.118-6.369-9.118-6.369s.75,1.173-2.05-3.16C293.814,744.248,298.386,732.621,307.326,725.613Z" fill="#152557"/>
          <g id="Group_655" data-name="Group 655">
            <path id="Path_573" data-name="Path 573" d="M306.612,751.214c1.2,1.012,9,7.226,13.123,8.689-.1,1.033-1.823,14.885.987,17.7-1.414,5.4-16.564,4.49-20.106-5.057C302.534,770.023,305.627,756.411,306.612,751.214Z" fill="#eddec0"/>
            <path id="Path_574" data-name="Path 574" d="M307.207,746.8c.983-7.273,6.066-14.556,13.474-14.556,6.9,0,12.246,3.155,13.32,9.742.386,2.361-3.18,26-13.279,26-4.926,0-14.9-8.946-14.437-14.34C306.285,753.648,306.888,749.161,307.207,746.8Z" fill="#eddec0"/>
          </g>
          <ellipse id="Ellipse_36" data-name="Ellipse 36" cx="6.294" cy="11.619" rx="6.294" ry="11.619" transform="translate(316.371 743.846) rotate(-75.887)" fill="#152557"/>
          <ellipse id="Ellipse_37" data-name="Ellipse 37" cx="6.294" cy="11.329" rx="6.294" ry="11.329" transform="translate(311.336 738.811) rotate(-75.887)" fill="#152557"/>
          <ellipse id="Ellipse_38" data-name="Ellipse 38" cx="6.294" cy="6.428" rx="6.294" ry="6.428" transform="translate(303.783 743.846) rotate(-75.887)" fill="#152557"/>
        </g>
        <path id="Path_575" data-name="Path 575" d="M335.151,855.478c-2.83-20.452,7.117-38.979,9.46-48.8,1.777-7.443.448-16.846-8.552-22.928-2.32-1.568-15.337-6.517-15.337-6.517a12.374,12.374,0,0,1-6.708,2.271c-6.81,0-13.4-7.422-13.4-7.422s-11.709,2.374-15.645,3.039c-11.81,1.993-17.912,12.15-21.288,21.73-3.681,10.442-7.392,34.711-10.469,59.476Z" fill="#2659bf"/>
        <g id="Group_661" data-name="Group 661">
          <g id="Group_660" data-name="Group 660">
            <g id="Group_658" data-name="Group 658">
              <path id="Path_576" data-name="Path 576" d="M304.9,847.278c-.015-.029-.034-.064-.049-.091l.049-2.862H420.509a2.861,2.861,0,0,1,2.861,2.862h0s.019.062,0,.091l-.3.533c-1.523,2.481-4.254,2.927-7.383,2.927h-103.1c-3.129,0-5.856-.446-7.383-2.927Z" fill="#fff"/>
              <path id="Path_576_-_Outline" data-name="Path 576 - Outline" d="M304.9,844.325l-.049,2.862c.015.027.034.062.049.091l.3.533c1.527,2.481,4.254,2.927,7.383,2.927h103.1c3.129,0,5.86-.446,7.383-2.927l.3-.533c.019-.029,0-.091,0-.091a2.861,2.861,0,0,0-2.861-2.862H304.9m-.983-1h116.6a3.866,3.866,0,0,1,3.86,3.766,1.088,1.088,0,0,1-.133.688l-.315.556a6.463,6.463,0,0,1-3.625,2.819,14.386,14.386,0,0,1-4.61.584h-103.1a14.378,14.378,0,0,1-4.609-.585,6.475,6.475,0,0,1-3.626-2.818l-.016-.028-.325-.57-.035-.065-.131-.235Z" fill="#81c6ef"/>
              <g id="Group_657" data-name="Group 657">
                <path id="Path_577" data-name="Path 577" d="M334.106,844.222l15.36-58.215a3.869,3.869,0,0,1,3.514-2.785H436.1a2.071,2.071,0,0,1,2.045,2.785l-15.359,58.215Z" fill="#fff"/>
                <path id="Path_577_-_Outline" data-name="Path 577 - Outline" d="M422.786,844.222l15.359-58.215a2.071,2.071,0,0,0-2.045-2.785H352.98a3.869,3.869,0,0,0-3.514,2.785l-15.36,58.215h88.68m.77,1H332.808l15.691-59.47a4.865,4.865,0,0,1,4.481-3.53H436.1a3.127,3.127,0,0,1,2.517,1.171,3.283,3.283,0,0,1,.495,2.869Z" fill="#81c6ef"/>
                <path id="Path_578" data-name="Path 578" d="M381.11,813.725c-.785,2.968,1,5.379,3.962,5.379a7.493,7.493,0,0,0,6.8-5.379c.782-2.978-.988-5.389-3.963-5.389A7.489,7.489,0,0,0,381.11,813.725Z" fill="#81c6ef"/>
                <path id="Path_578_-_Outline" data-name="Path 578 - Outline" d="M385.072,819.1a7.493,7.493,0,0,0,6.8-5.379c.782-2.978-.988-5.389-3.963-5.389a7.489,7.489,0,0,0-6.8,5.389c-.785,2.968,1,5.379,3.962,5.379m0,1a5.063,5.063,0,0,1-4.134-1.905,5.412,5.412,0,0,1-.795-4.73,8.341,8.341,0,0,1,2.926-4.339,7.907,7.907,0,0,1,4.842-1.794,5.063,5.063,0,0,1,4.131,1.9,5.435,5.435,0,0,1,.8,4.744,8.342,8.342,0,0,1-2.927,4.333A7.913,7.913,0,0,1,385.072,820.1Z" fill="#fff"/>
              </g>
            </g>
            <g id="Group_659" data-name="Group 659">
              <rect id="Rectangle_45" data-name="Rectangle 45" width="273.322" height="5.662" transform="translate(198.774 851.07)" fill="#dce2f3"/>
            </g>
          </g>
          <path id="Path_579" data-name="Path 579" d="M262.424,823.533l-9.26,14.66,64.941,5.272s4.393,6.039.535,7.2-81.678.409-81.678.409-11.573-4.39-5.4-14.42,18.9-30.477,18.9-30.477Z" fill="#eddec0"/>
          <path id="Path_580" data-name="Path 580" d="M291.363,773.919c-3.007-1.966-9.252-1.472-14.646,1.829-16.183,9.9-38.166,36.528-36.293,37.97,6.638,5.111,16.074,12.566,25.224,12.566,4.2,0,14.312-13.844,22.107-25.636C302.369,778.54,298.128,778.342,291.363,773.919Z" fill="#2b69cc"/>
          <path id="Path_581" data-name="Path 581" d="M317.489,843.365l16.069-4.892,2.955-.9s2.13,7.7-1.012,11.336-16.7,2.279-18.689,1.235S317.489,843.365,317.489,843.365Z" fill="#eddec0"/>
          <path id="Path_582" data-name="Path 582" d="M342.606,844.139l-3.009,6.508-7.954.112,4.87-13.186,5,3.009A2.786,2.786,0,0,1,342.606,844.139Z" fill="#eddec0"/>
        </g>
        <g id="Group_662" data-name="Group 662">
          <path id="Path_583" data-name="Path 583" d="M439.325,843.082l-2.659-14.843a1.661,1.661,0,0,1,1.636-1.955h23.764a1.661,1.661,0,0,1,1.636,1.955l-2.659,14.843a11.031,11.031,0,0,1-10.859,9.086h0A11.031,11.031,0,0,1,439.325,843.082Z" fill="#f45a6d"/>
          <path id="Path_584" data-name="Path 584" d="M440.38,845.816h-4.011a6.589,6.589,0,1,1,0-13.179h3.382v2h-3.382a4.589,4.589,0,1,0,0,9.179h4.011Z" fill="#f45a6d"/>
        </g>
      </g>
    </g>
  </g>
</svg>
