<svg id="Layer_1" data-name="Layer 1" xmlns="http://www.w3.org/2000/svg" viewBox="0 0 394.68 375.78"><defs><style>.cls-1,.cls-22,.cls-6{fill:#f5fafe;}.cls-2,.cls-21,.cls-23,.cls-25{fill:none;}.cls-2,.cls-21,.cls-22,.cls-23,.cls-5,.cls-6{stroke:#cde8f9;}.cls-19,.cls-2,.cls-21,.cls-22,.cls-25,.cls-5,.cls-6{stroke-linecap:round;}.cls-2,.cls-5,.cls-6{stroke-linejoin:round;}.cls-3{fill:#3ee5b1;}.cls-4,.cls-5{fill:#fff;}.cls-7{fill:#dce2f3;}.cls-8{fill:#182a62;}.cls-9{fill:#0b132c;}.cls-10{fill:#c79292;}.cls-11{fill:#4bb4dd;}.cls-12,.cls-19{fill:#81c6ef;}.cls-13{fill:#a9d9ed;}.cls-14{fill:#f45a6d;}.cls-15{fill:#e3c9c9;}.cls-16{fill:#276bd8;}.cls-17{fill:#2659bf;}.cls-18{fill:#1e3596;}.cls-19{stroke:#ecfff7;stroke-width:3px;}.cls-19,.cls-21,.cls-22,.cls-23,.cls-25{stroke-miterlimit:10;}.cls-20{fill:#8a1d1d;}.cls-24{fill:#cde8f9;}.cls-25{stroke:#81c6ef;}</style></defs><circle class="cls-1" cx="197.29" cy="192.15" r="182.49"/><path class="cls-2" d="M9,219.14v-22a1,1,0,0,1,1-1H64.47a1,1,0,0,0,1-1v-32a1,1,0,0,1,1-1h48.81a1.85,1.85,0,0,1,1.89,1.81v48.31a2.26,2.26,0,0,0,2.31,2.22h17.35a2.27,2.27,0,0,0,2.31-2.22v-7a1.84,1.84,0,0,1,1.88-1.81h31.17a1.85,1.85,0,0,1,1.89,1.81v50.67a2.26,2.26,0,0,0,2.31,2.22H221a2.26,2.26,0,0,0,2.31-2.22V216.31a1.85,1.85,0,0,1,1.89-1.81h25.3a1.84,1.84,0,0,1,1.88,1.81v7.14a2.27,2.27,0,0,0,2.32,2.22h14.87a2.27,2.27,0,0,0,2.32-2.22V186.81a1.84,1.84,0,0,1,1.88-1.81h21.9a2.27,2.27,0,0,0,2.31-2.22v-30a1.84,1.84,0,0,1,1.88-1.81H339.5a1,1,0,0,1,1,1v36.23a1,1,0,0,0,1,1h44.93a1,1,0,0,1,1,1V206.6"/><circle class="cls-3" cx="160.7" cy="71.5" r="12.17"/><path class="cls-4" d="M159.4,77.62a1.63,1.63,0,0,1-1.14-.47L154,72.88a1.62,1.62,0,1,1,2.28-2.29l3,3L165,66a1.62,1.62,0,0,1,2.58,2l-6.86,9a1.58,1.58,0,0,1-1.18.64Z"/><path class="cls-5" d="M249.84,137.75a.94.94,0,0,1-.57-.2.92.92,0,0,1-.31-1l1.75-5.67a2.06,2.06,0,0,0-.46-2,11.31,11.31,0,0,1-3-7.7v-.3a11,11,0,0,1,11-11h58.46a11,11,0,0,1,11,11v.3a11.2,11.2,0,0,1-3.31,8,11.62,11.62,0,0,1-8,3.32H259.66a3.3,3.3,0,0,0-1.73.49l-7.61,4.66A1,1,0,0,1,249.84,137.75Z"/><circle class="cls-6" cx="300.14" cy="121.37" r="2.44"/><path class="cls-5" d="M300.14,124.21a2.84,2.84,0,1,1,2.84-2.84A2.84,2.84,0,0,1,300.14,124.21Z"/><path class="cls-5" d="M289,124.21a2.84,2.84,0,1,1,2.84-2.84A2.84,2.84,0,0,1,289,124.21Z"/><circle class="cls-6" cx="277.9" cy="121.37" r="2.44"/><path class="cls-5" d="M277.9,124.21a2.84,2.84,0,1,1,2.84-2.84A2.84,2.84,0,0,1,277.9,124.21Z"/><path class="cls-5" d="M129.17,112l-8-4.9a3.47,3.47,0,0,0-1.83-.52H59.66a12.25,12.25,0,0,1-8.42-3.48,11.86,11.86,0,0,1-3.48-8.42v-.31A11.6,11.6,0,0,1,59.34,82.78h61.49a11.6,11.6,0,0,1,11.58,11.59v.31a11.83,11.83,0,0,1-3.17,8.09,2.23,2.23,0,0,0-.49,2.15l1.85,6a1,1,0,0,1-.33,1,1,1,0,0,1-.6.21A.91.91,0,0,1,129.17,112Z"/><path class="cls-2" d="M73.78,94.92a3,3,0,1,1,3,3A3,3,0,0,1,73.78,94.92Z"/><path class="cls-2" d="M85.48,94.92a3,3,0,1,1,3,3A3,3,0,0,1,85.48,94.92Z"/><path class="cls-2" d="M97.18,94.92a3,3,0,1,1,3,3A3,3,0,0,1,97.18,94.92Z"/><ellipse class="cls-7" cx="209.07" cy="372.19" rx="155" ry="3.59"/><path class="cls-8" d="M180.08,132a.26.26,0,0,0,0-.29l-1.43-3.16a.26.26,0,0,0-.35-.14.27.27,0,0,0-.14.36l1.43,3.16a.25.25,0,0,0,.44.07Z"/><path class="cls-8" d="M175.09,135.59v0a.27.27,0,0,0,0-.38l-2.76-2.09a.27.27,0,0,0-.33.43l2.76,2.09A.28.28,0,0,0,175.09,135.59Z"/><path class="cls-8" d="M185.4,132.08a.16.16,0,0,0,0-.07l1.5-3.13a.28.28,0,0,0-.13-.36.28.28,0,0,0-.36.13L185,131.78a.27.27,0,0,0,.12.36A.29.29,0,0,0,185.4,132.08Z"/><path class="cls-8" d="M193.13,133.72a.29.29,0,0,0,0-.34.27.27,0,0,0-.38-.06l-2.81,2a.27.27,0,0,0,.32.44l2.81-2Z"/><path class="cls-9" d="M147.57,167.25c.19,1.51-.95,5.31-15.45,3.43-1.52,2.6-1.74,8.12-1.74,8.12-4.55-3.41-6-11.7-1.46-16.54C134.88,155.94,146.75,160.4,147.57,167.25Z"/><path class="cls-9" d="M127.29,244.08s-1.11,17,0,23.57c.37,2.21,1.29,22.49,4.46,44.73,3.68,25.76,5.59,53.07,5.59,53.07a4.69,4.69,0,0,0,5.53-.16S153.09,246.83,152.42,242C149.43,243.34,136.32,244.67,127.29,244.08Z"/><path class="cls-10" d="M182.27,143.7c-.15.06-.22-1.27-.86-1.14a.72.72,0,0,0-.69-.39,1.45,1.45,0,0,0-1.34.63,21,21,0,0,0-.76,2c-.06.16-.84,2.53-1,3.61a15.15,15.15,0,0,0-.32,2.71,29,29,0,0,0,4.62,1.11c.33-1.52.87-6.29.91-6.4C183.46,144,182.87,143.45,182.27,143.7Z"/><path class="cls-10" d="M165.41,179.73c-7.63,3.41-24.33,7.35-29,9.87-.85.46,4.12,10.34,5.56,11.64,3.32,3,23.58-9.74,30-15.49C174.35,183.57,174.77,175.54,165.41,179.73Z"/><path class="cls-11" d="M156.51,181.72c-7.5,3.27-16.81,6.1-20.11,7.88-.85.46,2.12,13,6.74,13,3,0,11.86-2.34,20-7.61-.36-1-1.81-4.08-2.26-5.1A65.1,65.1,0,0,0,156.51,181.72Z"/><path class="cls-10" d="M166.15,181.49a3.33,3.33,0,0,0-.09,1.08c.11,1.81,1.38,4.22,5,3.64,3.93-.64,9.62-24.23,10.87-34.13-1.25-.05-2.65-1.14-4.53-1.75C176.75,156.36,167.65,175.94,166.15,181.49Z"/><path class="cls-8" d="M107.73,242c-.36,2.6,3.6,58.76,4.8,67.57,1,7.42-2.55,53.72-2.55,53.72.06.2,3.13,2.47,5.66,1,0,0,10.54-32.7,14.22-58.46,1.41-9.89,4.16-21.8,6.36-33.19,2.52-13.07,4.82-26,4.82-26C132,247.32,110.73,243.34,107.73,242Z"/><path class="cls-10" d="M129.93,175.79c.37,2.51-.35,9.5-1.22,10.82,2.09,4.62,9.43,6.36,10.16,1.87-1.2-2.93,0-8.38.06-8.9C137.07,179.86,130.56,176.25,129.93,175.79Z"/><path class="cls-10" d="M136.77,166.74c-3.68.25-5.89,3.45-5.65,7.1,0,0,.26,3.78.26,3.78.19,2.75,4.72,6.78,7.08,6.11,5.58-1.59,6.07-12,5.8-13.2C143.5,167.3,140.19,166.51,136.77,166.74Z"/><path class="cls-12" d="M146.71,191.78c-1.21-.79-7.84-3.06-7.84-3.06s-1.56,2.23-3.41,2.08c-2.68-.22-6.75-4.19-6.75-4.19s-5.73,1.78-7.66,2.3c-5.8,1.57-8.21,5-10.3,11.49-.65,2-3,26.16-6,50-.89,7.16,47.36,11,50.27,5.19,1.19-2.35-.52-8.6-3.25-51.3C151.46,200,151.38,194.84,146.71,191.78Z"/><path class="cls-10" d="M129.32,174.54a3.25,3.25,0,0,0,1.87,2.58c.41-1,1.25-3,1.6-4.2a3.19,3.19,0,0,0-1.53-.53C130.31,172.36,129.35,173.59,129.32,174.54Z"/><path class="cls-10" d="M128.83,260.28c-.09-.19-1.44-2.91-2.17-4a24.48,24.48,0,0,0-2-2.73,24.62,24.62,0,0,0-4.47,1.92c1,1.63,4.5,6.43,4.56,6.56,1,2.15,1.93,2.32,2.2,1.7.06-.15,1.2,1.05,1.59.51a.78.78,0,0,0,.86-.07,2.62,2.62,0,0,0,.5-1.45A17.7,17.7,0,0,0,128.83,260.28Z"/><path class="cls-10" d="M129.62,197.67c.36-.89-8.66-4.94-10.6-5-4.48-.16-11.78,22.63-13,31.14-.45,3.24,4.39,9.65,8.86.42C118.56,216.69,127.66,202.61,129.62,197.67Z"/><path class="cls-13" d="M115.13,192c-2.27,1.94-6.59,9.47-9.44,18.74a27.79,27.79,0,0,0,13.62,5.86c3.63-7.32,10.2-15.22,10.31-19C129.76,192.82,121,187,115.13,192Z"/><path class="cls-10" d="M112.48,221.94c-1.25-1.29-3.8-2.29-6.15.5-2.57,3,8.79,25.31,14.3,33.63a18.81,18.81,0,0,1,4.28-2.29c-3.45-5-9.3-25.77-11.79-30.95A3.24,3.24,0,0,0,112.48,221.94Z"/><path class="cls-14" d="M122.11,370.22c-.47,0-3.45-.24-5-1.5-1.23-1-.5-6.29-.18-7.56-.66,0-2.25.45-2.89.58-1.54.05-3.24.46-3.92.2a58.25,58.25,0,0,1-1.56,7.65,2,2,0,0,0,0,1.86c1,1.25,2.2,1.17,3.42,1.24l11.51.71a1.12,1.12,0,0,0,1.3-1.14C124.92,371.74,124.48,370.36,122.11,370.22Z"/><path class="cls-14" d="M148.92,370.22c-.47,0-3.46-.24-5-1.5-1.23-1-.5-6.29-.18-7.56-.66,0-2.25.45-2.89.58-1.54.05-3.23.46-3.91.2a58.05,58.05,0,0,1-1.57,7.65,2,2,0,0,0,.05,1.86c.95,1.25,2.2,1.17,3.42,1.24l11.52.71a1.11,1.11,0,0,0,1.29-1.14C151.72,371.74,151.29,370.36,148.92,370.22Z"/><path class="cls-15" d="M226.22,249.23c-.67,4.81,9.55,114.62,9.55,114.62,0,.19,4.3,1.42,6.83-.47a512,512,0,0,1,4.29-52.45c3.18-22.24,6.86-58.62,6.86-58.62C244.72,252.9,229.22,250.54,226.22,249.23Z"/><path class="cls-9" d="M229.47,368.87c.47,0,3.46,0,5-1.21,1.29-1,.95-7.6.71-8.88l7.46-.41c.09,2,0,9.84.32,10.67a2,2,0,0,1-.16,1.85c-1,1.19-2.26,1-3.49,1l-11.53,0a1.12,1.12,0,0,1-1.23-1.21C226.58,370.22,227.1,368.87,229.47,368.87Z"/><path class="cls-15" d="M186.15,144.1a13.77,13.77,0,0,0-1.36-2,2.23,2.23,0,0,0-1.44-.12,1,1,0,0,0-.52.79c-.64.14-.28,1.72-.44,1.72-.64,0-1,.94.2,2.77.07.12,2.08,5.41,2.86,7a31.72,31.72,0,0,0,4-3.45,21.46,21.46,0,0,0-1.14-3C187.73,146.65,186.25,144.27,186.15,144.1Z"/><path class="cls-15" d="M241.28,188.86c-4.63-2.37-21.56-4.76-29.17-7.79-9.33-3.72-9.53,5.85-7.2,8.13,6.13,6,26,18.48,29.71,14.41C236.21,201.84,242.12,189.29,241.28,188.86Z"/><path class="cls-16" d="M241.28,188.86c-3.27-1.67-12.66-3.77-20.14-6.64A102.53,102.53,0,0,0,216,192.61c-.54,1.28-2.28,5.14-2.73,6.44,8,5.18,18.93,7.27,21.38,4.56C236.21,201.84,242.12,189.29,241.28,188.86Z"/><path class="cls-15" d="M209.3,180.81c-3.14-5.74-17.79-24.21-20.28-30.92a20.35,20.35,0,0,1-4.08,3.44c4.29,10.91,17.42,36.36,21.29,35.26,3.54-1,4-4.41,3.5-6.56A5.07,5.07,0,0,0,209.3,180.81Z"/><path class="cls-15" d="M270.92,246.54c-3,1.31-19.29.94-28.32.35,0,0,4.25,47.74,6.18,57.54,5,25.17,14.22,58.47,14.22,58.47,2.53,1.44,5.61-.83,5.66-1,0,0-.23-45.6-2.27-56.18C264.71,297,272.67,262.75,270.92,246.54Z"/><path class="cls-17" d="M266.44,198.9c-.94-6.77-3.05-9.85-8.85-11.43-1.93-.52-7.66-2.31-7.66-2.31s-4.06,4-6.75,4.21c-1.84.15-3.41-2.09-3.41-2.09s-6.63,2.28-7.83,3.07c-4.68,3.07-7.17,13.57-7.36,17.87-.41,8.95,2.9,8.48,1.61,19.89a467.13,467.13,0,0,0-2.53,68.25c2.91,5.81,41,7.16,50.65,0,0,0,0-53.16-9-71.54C265.6,212.53,267.1,203.7,266.44,198.9Z"/><path class="cls-15" d="M285.42,259.25c-.2.49-.55,1,.13,1.15.44.15,1.49-1.56,1.5-2-.31-1.09-.95-.91-1.09-2A9.28,9.28,0,0,1,285.42,259.25Z"/><path class="cls-15" d="M285.83,255.59a25.12,25.12,0,0,0,.7,3.29c.35,1.31,1.47,4.13,1.55,4.32a17.74,17.74,0,0,0,1.05,2.42,2.58,2.58,0,0,0,1.41.6.79.79,0,0,0,.63-.59c.66.07.53-1.58.69-1.53.63.23,1.13-.58.2-2.76-.05-.14-1.27-6-1.81-7.79A24.83,24.83,0,0,0,285.83,255.59Z"/><path class="cls-15" d="M251.27,197.9c2.3,4.79,12.5,17.8,16.66,25,5.09,8.9,9.48,2.17,8.81-1-1.77-8.41-10.66-29.19-14.12-30.16C260.75,191.25,250.86,197,251.27,197.9Z"/><path class="cls-18" d="M249.8,198.28c.36,3.73,7.47,11.16,11.6,18.21a27.81,27.81,0,0,0,13.18-6.79c-3.48-9-8.32-16.27-10.71-18C257.7,187.07,249.33,193.45,249.8,198.28Z"/><path class="cls-15" d="M270.56,225.38a3.53,3.53,0,0,0,.23,1.07c2.19,5.32,13.7,23.58,15.09,29.49a19.22,19.22,0,0,1,4.57-1.65c-2.5-9.66-11.41-33-15.39-33.14C271.41,221,270.44,223.58,270.56,225.38Z"/><path class="cls-9" d="M256.53,368.77c.47,0,3.45-.23,5-1.5,1.24-1,.51-7.64.18-8.9h7.2c.21,1.95.85,9,1.18,9.78A2,2,0,0,1,270,370c-.95,1.25-2.2,1.17-3.43,1.24-2,.11-8.63.54-11.51.71a1.12,1.12,0,0,1-1.29-1.14C253.73,370.29,254.16,368.91,256.53,368.77Z"/><ellipse class="cls-9" cx="141.42" cy="168.08" rx="5.17" ry="3.01"/><path class="cls-4" d="M285.38,328.52a.17.17,0,0,0,.1,0c.12,0,.2-.07.18-.15l-.87-5.68c0-.08-.11-.13-.22-.12s-.19.07-.18.15l.87,5.68A.15.15,0,0,0,285.38,328.52Z"/><path class="cls-4" d="M288.3,331.48a.26.26,0,0,0,.26-.05c.06-.07,0-.15-.07-.19l-8.29-3.3a.26.26,0,0,0-.28.05c-.05.06,0,.15.08.19l8.28,3.3Z"/><path class="cls-2" d="M222,59.63l1.23-4.91-2.49-1.23a15.89,15.89,0,0,0-.13-2.17l2.45-1.3-1.39-4.87-3.06.2a16,16,0,0,0-1.06-1.61l1.61-2.57-3.63-3.53-2.72,1.82a15.21,15.21,0,0,0-1.55-.81l.11-3.21-4.91-1.23-1.47,3a16.55,16.55,0,0,0-1.72.05l-1.51-2.85-4.88,1.38L197.1,39a14.41,14.41,0,0,0-1.57.93l-2.63-1.64-3.52,3.64,1.67,2.49a15.6,15.6,0,0,0-1,1.77l-2.85-.1L186,51l2.42,1.19a16.32,16.32,0,0,0,0,2.32l-2.24,1.19,1.39,4.87,2.41-.16a16.38,16.38,0,0,0,1.29,2.23L190,64.54l3.64,3.53,1.83-1.23a16.18,16.18,0,0,0,2.41,1.33l-.08,2.09,4.91,1.24.95-1.92a16.22,16.22,0,0,0,2.78-.09l1,1.83,4.88-1.39-.15-2.23a15.38,15.38,0,0,0,2.25-1.44l1.88,1.17,3.52-3.64-1.37-2a16.13,16.13,0,0,0,1.1-2.2Zm-15.14,1.95a8.51,8.51,0,1,1,5.86-10.51A8.51,8.51,0,0,1,206.86,61.58Z"/><circle class="cls-14" cx="208.29" cy="91.78" r="9"/><line class="cls-19" x1="204.78" y1="92.07" x2="212.16" y2="92.07"/><path class="cls-20" d="M234.51,174.34c.62.57.17,6.31-2.17,8-.27.19,7.93,2.38,7.93,2.38l2.93-8.86Z"/><path class="cls-15" d="M248.71,174.34c-.63.46-7.14,4.08-9,3.8,0,.51,1.27,6.21.06,9.14,1.16,4.59,8.08,2.5,10.16-2.12C249.06,183.85,248.34,176.86,248.71,174.34Z"/><path class="cls-15" d="M241.88,165.3c-3.43-.24-6.74.56-7.5,3.79-.27,1.16.23,11.61,5.8,13.2,2.36.66,6.89-3.37,7.08-6.11,0,0,.26-3.75.26-3.79C247.77,168.75,245.55,165.55,241.88,165.3Z"/><path class="cls-20" d="M249.58,163.58c-5.16-4.35-12.75.27-12.75.27-5.89,1.12-4.61,9.75-1.91,11-1.28-6.35,3-8.4,3-8.4,10.88-.07,11.42,15.65,10.88,18.11C248.83,184.57,270.13,180.92,249.58,163.58Z"/><path class="cls-15" d="M247.38,171a3.08,3.08,0,0,0-1.53.53c.35,1.24,1.19,3.22,1.6,4.2a3.31,3.31,0,0,0,1.88-2.58C249.29,172.15,248.33,170.91,247.38,171Z"/><path class="cls-21" d="M79.23,298.07s0,0,0-.06a7.46,7.46,0,0,0-6.11-9.36,0,0,0,0,1,0-.06,4.69,4.69,0,1,0-8.84.29,4.73,4.73,0,0,0,2.07,2.39,7.46,7.46,0,0,0,1.77,11.07,0,0,0,0,1,0,.06,9.93,9.93,0,1,0,11.16-4.33Z"/><path class="cls-21" d="M72.42,316.93a10.17,10.17,0,0,1-4.63-14.5A7.67,7.67,0,0,1,66,291.32a4.91,4.91,0,0,1,.7-8.65,4.91,4.91,0,0,1,6.57,2.92,4.8,4.8,0,0,1,.1,2.88,7.73,7.73,0,0,1,5.85,4.78,7.59,7.59,0,0,1,.28,4.66,10.16,10.16,0,1,1-7,19Zm6.81-18.86Zm-6-9.41Z"/><path class="cls-21" d="M79.91,317a.21.21,0,0,0,.2.14h.08a.23.23,0,0,0,.13-.29l-12.4-32"/><line class="cls-21" x1="69.51" y1="289.13" x2="66.04" y2="287.58"/><path class="cls-21" d="M73.82,300.89a.22.22,0,0,0,0-.43l-5.7-.65a.23.23,0,0,0-.25.19.24.24,0,0,0,.2.25l5.7.64Z"/><path class="cls-21" d="M76.38,307.5a.2.2,0,0,0,.17-.09L81,301.67a.21.21,0,0,0,0-.31.2.2,0,0,0-.3,0l-4.42,5.75a.2.2,0,0,0,0,.3A.17.17,0,0,0,76.38,307.5Z"/><path class="cls-21" d="M78.39,312.68a.22.22,0,0,0,.22-.19.23.23,0,0,0-.19-.25l-7.61-1a.22.22,0,0,0-.06.44l7.61,1Z"/><path class="cls-22" d="M70.78,302.56a14.31,14.31,0,0,1,5.61-11.41,10.71,10.71,0,0,1-2.06-6.36,10.87,10.87,0,0,1,5.35-9.35,6.91,6.91,0,1,1,11,0A10.87,10.87,0,0,1,94,291.15a14.41,14.41,0,1,1-23.2,11.41Zm5.73-11.5h0Z"/><path class="cls-21" d="M85.18,317a.22.22,0,0,0,.22-.22V267.82"/><path class="cls-21" d="M85.37,283.24a.22.22,0,0,0-.07-.3l-5.77-3.7"/><line class="cls-21" x1="88.85" y1="270.54" x2="85.8" y2="273.52"/><line class="cls-21" x1="92.19" y1="287.58" x2="85.8" y2="291.42"/><path class="cls-21" d="M85.37,302.13a.22.22,0,0,0-.07-.3l-8.85-5.37"/><path class="cls-21" d="M85.18,310.16l.11,0,9.6-5.27a.22.22,0,0,0,.09-.3.22.22,0,0,0-.3-.08l-9.6,5.26a.22.22,0,0,0-.09.3A.21.21,0,0,0,85.18,310.16Z"/><path class="cls-22" d="M90.77,317.11a10.16,10.16,0,0,1,.74-19.2,7.59,7.59,0,0,1,.29-4.66,7.7,7.7,0,0,1,5.84-4.78,4.88,4.88,0,0,1,.1-2.88,4.91,4.91,0,0,1,6.57-2.92,4.91,4.91,0,0,1,.7,8.65,7.72,7.72,0,0,1,1.09,7.48,7.58,7.58,0,0,1-2.93,3.63,10.17,10.17,0,0,1-8.72,15.37A10.21,10.21,0,0,1,90.77,317.11Z"/><path class="cls-21" d="M103,284.86l-12.4,32a.23.23,0,0,0,.13.29h.08"/><line class="cls-21" x1="98.58" y1="295.25" x2="96.72" y2="290.93"/><line class="cls-21" x1="104.93" y1="287.58" x2="101.45" y2="289.13"/><line class="cls-21" x1="102.83" y1="299.81" x2="97.12" y2="300.46"/><line class="cls-21" x1="94.53" y1="306.48" x2="90.34" y2="301.4"/><path class="cls-21" d="M100.15,311.23l-7.6,1a.22.22,0,0,0-.19.25"/><path class="cls-23" d="M79.35,369.05,76.12,325.4l-.5-6.74a.5.5,0,0,1,.5-.54H94.24a.51.51,0,0,1,.37.16.52.52,0,0,1,.13.38l-.5,6.74L91,369.05a.51.51,0,0,1-.5.47H79.85A.51.51,0,0,1,79.35,369.05Z"/><path class="cls-23" d="M76.12,325.4,76,324a.19.19,0,0,1,.06-.17.24.24,0,0,1,.16-.07H94.13a.24.24,0,0,1,.16.07.22.22,0,0,1,0,.17l-.1,1.38a21.59,21.59,0,0,1-.22,2.76H76.34A21.59,21.59,0,0,1,76.12,325.4Z"/><path class="cls-22" d="M338.3,268a14.67,14.67,0,0,0,.71-4.58,11.85,11.85,0,0,0-2.58-7.91,9.5,9.5,0,0,0,.88-4.13c0-3.59-1.73-6.5-3.85-6.5s-3.85,2.91-3.85,6.5a9.5,9.5,0,0,0,.87,4.13c-1.55,1.66-2.57,4.58-2.57,7.91a14.67,14.67,0,0,0,.7,4.58A20.47,20.47,0,0,0,326,278.6c0,7.69,2.73,20.11,6.85,20.11s8.08-12.42,8.08-20.11A20.47,20.47,0,0,0,338.3,268Z"/><path class="cls-22" d="M332.84,299c-2.57,0-4.29-4-5.29-7.41a49.87,49.87,0,0,1-1.89-13A21,21,0,0,1,328.25,268a15.18,15.18,0,0,1-.68-4.53,12.39,12.39,0,0,1,2.52-8,10,10,0,0,1-.82-4.07c0-3.77,1.88-6.83,4.19-6.83s4.18,3.06,4.18,6.83a10.19,10.19,0,0,1-.81,4.07,12.44,12.44,0,0,1,2.51,8,14.86,14.86,0,0,1-.68,4.53,21,21,0,0,1,2.59,10.64C341.25,286.3,337.32,299,332.84,299Z"/><path class="cls-22" d="M351.37,289.84a11.39,11.39,0,0,0,2.17-2.91,9.3,9.3,0,0,0,1.11-6.44,7.49,7.49,0,0,0,2.13-2.55c1.31-2.49,1.19-5.14-.29-5.92s-3.74.6-5.06,3.1a7.57,7.57,0,0,0-.91,3.19,9.29,9.29,0,0,0-4.69,4.54,11.76,11.76,0,0,0-1.19,3.44,16.18,16.18,0,0,0-5.7,6.4c-2.82,5.34-3.65,13.32-.79,14.83s8.33-4,11.15-9.36A16,16,0,0,0,351.37,289.84Z"/><path class="cls-22" d="M333.47,252.79h0a.34.34,0,0,1,.33.34c0,7.08-.08,14.27-.22,21.37-.22,12-.61,24.2-1.18,36.26"/><path class="cls-22" d="M354.44,276.31a.34.34,0,0,1,.13.46c-1.28,2.24-2.46,4.16-3.6,6a111.25,111.25,0,0,0-6.18,11c-2.67,5.53-5.22,11.17-7.61,16.86"/><path class="cls-22" d="M327.08,303.76a5.88,5.88,0,0,1-3.55-1.49,15.12,15.12,0,0,1-4.19-5.87,14.92,14.92,0,0,1-1.25-7.57,10.59,10.59,0,0,1-1.66-2.72,8.88,8.88,0,0,1-.58-5.83,7,7,0,0,1-1.61-2.39c-1.07-2.52-.68-5,.88-5.67s3.62.79,4.69,3.31a7.12,7.12,0,0,1,.6,2.82,8.81,8.81,0,0,1,3.78,4.47,10.65,10.65,0,0,1,.81,3.08,15,15,0,0,1,4.56,6.16,15.26,15.26,0,0,1,1.31,7.1c-.2,2.21-1.09,3.75-2.49,4.34A3.18,3.18,0,0,1,327.08,303.76Z"/><path class="cls-22" d="M320.34,284.64l.46,1c3.84,8.23,7.76,16.55,11.66,24.75"/><path class="cls-2" d="M337.44,317.87c3.19-5.32,4.22-6.69,4.22-6.69H323s1,1.37,4.22,6.69c-7,16.86-16.82,44.69-1.24,50.38l-1.34,3.35h16.25L339.39,368C354,361.69,344.29,334.47,337.44,317.87Z"/><path class="cls-2" d="M340.84,371.93H324.59a.32.32,0,0,1-.27-.14.34.34,0,0,1,0-.31l1.21-3a11.72,11.72,0,0,1-6.64-6.41c-2.12-4.8-2.06-12,.16-21.27a159.92,159.92,0,0,1,7.79-22.86c-3.07-5.11-4.11-6.5-4.12-6.52a.33.33,0,0,1,.27-.53h18.71a.34.34,0,0,1,.3.18.36.36,0,0,1,0,.35s-1.05,1.41-4.12,6.52c3.15,7.63,7.47,18.87,9,28.84,1.7,11.3-.64,18.49-6.95,21.4l1.33,3.34a.33.33,0,0,1-.31.45Z"/><path class="cls-21" d="M294.65,335s2.61-9.54-4-21.37-8.07-12.64-8.07-12.64-2.43,13.65.69,21.56S294.65,335,294.65,335Z"/><path class="cls-24" d="M294.38,334.12a.16.16,0,0,1-.1.11.14.14,0,0,1-.19-.09l-10.6-28.38a.16.16,0,0,1,.09-.2.14.14,0,0,1,.19.09L294.37,334A.19.19,0,0,1,294.38,334.12Z"/><path class="cls-24" d="M288.32,318a.15.15,0,0,1,0,.07.16.16,0,0,1-.22,0l-4.63-4.14a.15.15,0,0,1,0-.21.16.16,0,0,1,.22,0l4.63,4.15A.16.16,0,0,1,288.32,318Z"/><path class="cls-24" d="M289.67,321.64a.14.14,0,0,1-.16.12.15.15,0,0,1-.14-.16l.68-7.07a.15.15,0,0,1,.3,0l-.68,7.08Z"/><path class="cls-24" d="M291.67,327.05a.09.09,0,0,1,0,.06.15.15,0,0,1-.21,0L286.26,323a.17.17,0,0,1,0-.22.16.16,0,0,1,.21,0l5.17,4.11A.17.17,0,0,1,291.67,327.05Z"/><path class="cls-21" d="M292.2,356.57c.67-1.11.87-.67,1.75-3.87,2.18-7.92,1.7-15.59.47-17.75"/><path class="cls-25" d="M300.46,330.09c-.56,1.18-.8.76-1.36,4-1.39,8.1-.14,15.68,1.29,17.71"/><path class="cls-3" d="M298.06,336.9s9.26-3.47,15-15.74,5.53-13.94,5.53-13.94-12.5,6-17.09,13.18S298.06,336.9,298.06,336.9Z"/><path class="cls-4" d="M299.46,334.72a.16.16,0,0,1-.15,0,.16.16,0,0,1,0-.21l15.92-23.74a.15.15,0,0,1,.21,0,.17.17,0,0,1,0,.21l-15.92,23.74A.1.1,0,0,1,299.46,334.72Z"/><path class="cls-4" d="M308.09,321.85H308a.15.15,0,0,1-.13-.17l.64-6.18a.15.15,0,0,1,.17-.14.16.16,0,0,1,.13.17l-.64,6.18A.18.18,0,0,1,308.09,321.85Z"/><path class="cls-4" d="M305.93,325.07a.16.16,0,0,1-.2-.06.15.15,0,0,1,.06-.2l6.13-3.6a.16.16,0,0,1,.21.05.16.16,0,0,1-.06.21l-6.13,3.6Z"/><path class="cls-4" d="M302.72,329.86h-.07a.14.14,0,0,1-.14-.15l.3-6.6A.15.15,0,0,1,303,323a.14.14,0,0,1,.14.15l-.3,6.6A.16.16,0,0,1,302.72,329.86Z"/><path class="cls-25" d="M295,341h0a19.43,19.43,0,0,1,1.57,6l.52,5.32"/><path class="cls-3" d="M296.13,342.6s-6.38.42-13.11-5.19-7.07-6.64-7.07-6.64,9,.09,13.63,3S296.13,342.6,296.13,342.6Z"/><path class="cls-4" d="M294.77,341.8h0l-15.85-9.52a.1.1,0,0,1,0-.14.09.09,0,0,1,.13,0l15.85,9.52a.11.11,0,0,1,0,.14A.11.11,0,0,1,294.77,341.8Z"/><path class="cls-4" d="M286.18,336.64a.11.11,0,0,1-.09-.05L284,333.15a.1.1,0,0,1,.17-.1l2.08,3.44a.11.11,0,0,1,0,.14Z"/><path class="cls-4" d="M288.33,337.94h0l-4.58-.41a.1.1,0,1,1,0-.2l4.58.42a.11.11,0,0,1,.09.11A.11.11,0,0,1,288.33,337.94Z"/><path class="cls-4" d="M291.53,339.86a.1.1,0,0,1-.09-.06l-2-3.77a.1.1,0,0,1,0-.14.11.11,0,0,1,.13.05l2,3.77a.09.09,0,0,1,0,.13Z"/><polygon class="cls-14" points="292.72 369.68 288.42 350.49 306.02 350.49 302.47 369.68 292.72 369.68"/><path class="cls-24" d="M189.83,98.11a3.3,3.3,0,0,0-.79-2.26,3.71,3.71,0,0,0-2.12-1.2l.52-.24a5.5,5.5,0,0,0,.51-.36,3,3,0,0,0,1.09-2.5,3.73,3.73,0,0,0-1-2.5,3.64,3.64,0,0,0-1.59-1,6.56,6.56,0,0,0-.67-.17V86.11H183.3v1.65h-1.69V86.11h-2.52v1.65h-2.75v2.7h2v8.92h-2v2.71h2.75v1.65h2.52v-1.65h1.69v1.65h2.51V102a4.55,4.55,0,0,0,3-1.27A3.88,3.88,0,0,0,189.83,98.11Zm-4.69-7.34a1.28,1.28,0,0,1,.59,1.26,1.2,1.2,0,0,1-.64,1.24,5.16,5.16,0,0,1-2,.29h-1.52v-3.1h1.54A4.81,4.81,0,0,1,185.14,90.77Zm.71,8.27a4.8,4.8,0,0,1-2.06.34h-2.2v-3.3h1.89a6.23,6.23,0,0,1,2.32.32,1.27,1.27,0,0,1,.73,1.31A1.34,1.34,0,0,1,185.85,99Z"/></svg>