<svg xmlns="http://www.w3.org/2000/svg" xmlns:xlink="http://www.w3.org/1999/xlink" width="437" height="415" viewBox="0 0 437 415">
  <defs>
    <clipPath id="clip-Social">
      <rect width="437" height="415"/>
    </clipPath>
  </defs>
  <g id="Social" clip-path="url(#clip-Social)">
    <rect width="437" height="415" fill="#fff"/>
    <g id="Group_741" data-name="Group 741" transform="translate(-2521.371 -180.675)">
      <circle id="Ellipse_19" data-name="Ellipse 19" cx="204.175" cy="204.175" r="204.175" transform="translate(2542.496 184)" fill="#f5fafe"/>
      <g id="Group_459" data-name="Group 459" transform="translate(2630.664 265.628)">
        <path id="Path_371" data-name="Path 371" d="M2821.554,401.918H2601.38a5.7,5.7,0,0,1-5.7-5.7V248.044H2827.25V396.223A5.7,5.7,0,0,1,2821.554,401.918Zm-224.87-152.874V396.223a4.7,4.7,0,0,0,4.7,4.7h220.174a4.7,4.7,0,0,0,4.7-4.7V249.044Z" transform="translate(-2596.185 -232.555)" fill="#81c6ef"/>
        <path id="Path_372" data-name="Path 372" d="M2601.38,237.472h220.174a5.7,5.7,0,0,1,5.7,5.7v11.294H2595.685V243.167A5.7,5.7,0,0,1,2601.38,237.472Zm224.87,15.989V243.167a4.7,4.7,0,0,0-4.7-4.7H2601.38a4.7,4.7,0,0,0-4.7,4.7v10.294Z" transform="translate(-2596.185 -237.972)" fill="#81c6ef"/>
        <path id="Path_373" data-name="Path 373" d="M2741.857,241.674a3.318,3.318,0,1,1-3.316,3.318A3.321,3.321,0,0,1,2741.857,241.674Zm0,5.635a2.318,2.318,0,1,0-2.316-2.318A2.32,2.32,0,0,0,2741.857,247.309Z" transform="translate(-2522.985 -235.819)" fill="#81c6ef"/>
        <path id="Path_374" data-name="Path 374" d="M2733.965,241.674a3.318,3.318,0,1,1-3.317,3.318A3.321,3.321,0,0,1,2733.965,241.674Zm0,5.635a2.318,2.318,0,1,0-2.317-2.318A2.32,2.32,0,0,0,2733.965,247.309Z" transform="translate(-2527.029 -235.819)" fill="#81c6ef"/>
        <path id="Path_375" data-name="Path 375" d="M2726.01,241.674a3.318,3.318,0,1,1-3.317,3.318A3.321,3.321,0,0,1,2726.01,241.674Zm0,5.635a2.318,2.318,0,1,0-2.317-2.318A2.32,2.32,0,0,0,2726.01,247.309Z" transform="translate(-2531.106 -235.819)" fill="#81c6ef"/>
      </g>
      <g id="Group_461" data-name="Group 461" transform="translate(2694.721 299.663)">
        <circle id="Ellipse_20" data-name="Ellipse 20" cx="13.611" cy="13.611" r="13.611" fill="#3ee5b1"/>
        <g id="Group_460" data-name="Group 460" transform="translate(5.578 6.758)">
          <path id="Path_376" data-name="Path 376" d="M2648.81,278.651a1.811,1.811,0,0,1-1.28-.529l-4.771-4.772a1.811,1.811,0,0,1,2.56-2.562l3.3,3.306,6.417-8.435a1.811,1.811,0,0,1,2.883,2.193l-7.672,10.085a1.814,1.814,0,0,1-1.319.711C2648.892,278.649,2648.85,278.651,2648.81,278.651Z" transform="translate(-2642.228 -264.945)" fill="#fff"/>
        </g>
      </g>
      <g id="Group_462" data-name="Group 462" transform="translate(2766.115 387.969)">
        <path id="Path_377" data-name="Path 377" d="M2685.745,387.33V323.438h86.629V387.33a2.251,2.251,0,0,1-2.247,2.247h-82.136A2.249,2.249,0,0,1,2685.745,387.33Z" transform="translate(-2685.745 -316.52)" fill="#fff"/>
        <path id="Path_377_-_Outline" data-name="Path 377 - Outline" d="M2770.127,390.077h-82.136a2.75,2.75,0,0,1-2.746-2.747V322.938h87.629V387.33A2.75,2.75,0,0,1,2770.127,390.077Zm-83.882-66.139V387.33a1.749,1.749,0,0,0,1.746,1.747h82.136a1.749,1.749,0,0,0,1.747-1.747V323.938Z" transform="translate(-2685.745 -316.52)" fill="#81c6ef"/>
        <path id="Path_378" data-name="Path 378" d="M2685.745,321.111a2.248,2.248,0,0,1,2.246-2.247h82.136a2.25,2.25,0,0,1,2.247,2.247v4.67h-86.629Z" transform="translate(-2685.745 -318.864)" fill="#fff"/>
        <path id="Path_378_-_Outline" data-name="Path 378 - Outline" d="M2687.991,318.364h82.136a2.75,2.75,0,0,1,2.747,2.747v5.17h-87.629v-5.17A2.75,2.75,0,0,1,2687.991,318.364Zm83.883,6.918v-4.17a1.749,1.749,0,0,0-1.747-1.747h-82.136a1.749,1.749,0,0,0-1.746,1.747v4.17Z" transform="translate(-2685.745 -318.864)" fill="#81c6ef"/>
      </g>
      <g id="Group_474" data-name="Group 474" transform="translate(2825.728 311.267)">
        <g id="Group_464" data-name="Group 464">
          <g id="Group_463" data-name="Group 463">
            <path id="Path_379" data-name="Path 379" d="M2728.074,299.385a1.032,1.032,0,0,1-.983-1.335l1.964-6.349a2.351,2.351,0,0,0-.516-2.287,12.614,12.614,0,0,1-3.378-8.606v-.336a12.337,12.337,0,0,1,12.324-12.323h65.405a12.336,12.336,0,0,1,12.323,12.323v.336a12.582,12.582,0,0,1-3.707,8.95,13.01,13.01,0,0,1-8.951,3.707h-63.491a3.7,3.7,0,0,0-1.942.549l-8.508,5.218A1.033,1.033,0,0,1,2728.074,299.385Z" transform="translate(-2725.161 -268.149)" fill="#fff"/>
            <path id="Path_379_-_Outline" data-name="Path 379 - Outline" d="M2728.074,299.885a1.532,1.532,0,0,1-1.461-1.984l1.964-6.349a1.848,1.848,0,0,0-.4-1.8,13.108,13.108,0,0,1-3.511-8.946v-.336a12.838,12.838,0,0,1,12.824-12.823h65.405a12.838,12.838,0,0,1,12.823,12.823v.336a13.078,13.078,0,0,1-3.853,9.3,13.523,13.523,0,0,1-9.3,3.853h-63.491a3.2,3.2,0,0,0-1.68.475l-8.509,5.218A1.538,1.538,0,0,1,2728.074,299.885Zm9.411-31.236a11.837,11.837,0,0,0-11.824,11.823v.336a12.111,12.111,0,0,0,3.244,8.265,2.851,2.851,0,0,1,.627,2.775l-1.964,6.349a.532.532,0,0,0,.505.688.53.53,0,0,0,.28-.079l8.507-5.217a4.2,4.2,0,0,1,2.2-.623h63.491a12.5,12.5,0,0,0,8.6-3.561,12.084,12.084,0,0,0,3.56-8.6v-.336a11.836,11.836,0,0,0-11.823-11.823Z" transform="translate(-2725.161 -268.149)" fill="#cde8f9"/>
          </g>
        </g>
        <g id="Group_473" data-name="Group 473" transform="translate(31.133 9.741)">
          <g id="Group_467" data-name="Group 467" transform="translate(24.886)">
            <g id="Group_465" data-name="Group 465" transform="translate(0.444 0.444)">
              <circle id="Ellipse_21" data-name="Ellipse 21" cx="2.73" cy="2.73" r="2.73" fill="#f5fafe"/>
              <path id="Ellipse_21_-_Outline" data-name="Ellipse 21 - Outline" d="M2.73-.5A3.23,3.23,0,1,1-.5,2.73,3.234,3.234,0,0,1,2.73-.5Zm0,5.46A2.23,2.23,0,1,0,.5,2.73,2.233,2.233,0,0,0,2.73,4.96Z" fill="#cde8f9"/>
            </g>
            <g id="Group_466" data-name="Group 466">
              <path id="Path_380" data-name="Path 380" d="M2765.375,280.938a3.174,3.174,0,1,1,3.173-3.175A3.177,3.177,0,0,1,2765.375,280.938Z" transform="translate(-2762.201 -274.59)" fill="#fff"/>
              <path id="Path_380_-_Outline" data-name="Path 380 - Outline" d="M2765.375,281.438a3.674,3.674,0,1,1,3.673-3.675A3.679,3.679,0,0,1,2765.375,281.438Zm0-6.348a2.674,2.674,0,1,0,2.673,2.673A2.677,2.677,0,0,0,2765.375,275.09Z" transform="translate(-2762.201 -274.59)" fill="#cde8f9"/>
            </g>
          </g>
          <g id="Group_469" data-name="Group 469" transform="translate(12.444)">
            <g id="Group_468" data-name="Group 468">
              <path id="Path_381" data-name="Path 381" d="M2757.147,280.938a3.174,3.174,0,1,1,3.173-3.175A3.177,3.177,0,0,1,2757.147,280.938Z" transform="translate(-2753.974 -274.59)" fill="#fff"/>
              <path id="Path_381_-_Outline" data-name="Path 381 - Outline" d="M2757.147,281.438a3.674,3.674,0,1,1,3.673-3.675A3.678,3.678,0,0,1,2757.147,281.438Zm0-6.348a2.674,2.674,0,1,0,2.673,2.673A2.676,2.676,0,0,0,2757.147,275.09Z" transform="translate(-2753.974 -274.59)" fill="#cde8f9"/>
            </g>
          </g>
          <g id="Group_472" data-name="Group 472">
            <g id="Group_470" data-name="Group 470" transform="translate(0.444 0.444)">
              <circle id="Ellipse_22" data-name="Ellipse 22" cx="2.73" cy="2.73" r="2.73" fill="#f5fafe"/>
              <path id="Ellipse_22_-_Outline" data-name="Ellipse 22 - Outline" d="M2.73-.5A3.23,3.23,0,1,1-.5,2.73,3.234,3.234,0,0,1,2.73-.5Zm0,5.46A2.23,2.23,0,1,0,.5,2.73,2.233,2.233,0,0,0,2.73,4.96Z" fill="#cde8f9"/>
            </g>
            <g id="Group_471" data-name="Group 471">
              <path id="Path_382" data-name="Path 382" d="M2748.92,280.938a3.174,3.174,0,1,1,3.174-3.175A3.178,3.178,0,0,1,2748.92,280.938Z" transform="translate(-2745.746 -274.59)" fill="#fff"/>
              <path id="Path_382_-_Outline" data-name="Path 382 - Outline" d="M2748.92,281.438a3.674,3.674,0,1,1,3.674-3.675A3.678,3.678,0,0,1,2748.92,281.438Zm0-6.348a2.674,2.674,0,1,0,2.674,2.673A2.677,2.677,0,0,0,2748.92,275.09Z" transform="translate(-2745.746 -274.59)" fill="#cde8f9"/>
            </g>
          </g>
        </g>
      </g>
      <g id="Group_485" data-name="Group 485" transform="translate(2528.896 388.712)">
        <g id="Group_477" data-name="Group 477">
          <g id="Group_475" data-name="Group 475" transform="translate(0.466 0.466)">
            <path id="Path_383" data-name="Path 383" d="M2541.7,319.163h68.792a12.995,12.995,0,0,1,12.995,12.994v.352a13.306,13.306,0,0,1-3.56,9.076,2.435,2.435,0,0,0-.536,2.371l2.064,6.679a1.1,1.1,0,0,1-.165.989,1.112,1.112,0,0,1-1.487.293l-8.948-5.488a3.877,3.877,0,0,0-2.027-.57h-66.776a13.473,13.473,0,0,1-3.62-.522,13.283,13.283,0,0,1-9.727-12.826v-.352a12.995,12.995,0,0,1,13-12.994Zm78.688,31.921a.128.128,0,0,0,.1-.053.1.1,0,0,0,.014-.1l-2.064-6.679a3.438,3.438,0,0,1,.758-3.346,12.309,12.309,0,0,0,3.293-8.4v-.352a12.008,12.008,0,0,0-11.995-11.994H2541.7a12.008,12.008,0,0,0-12,11.994v.352a12.273,12.273,0,0,0,3.616,8.732,12.69,12.69,0,0,0,8.732,3.616h66.776a4.876,4.876,0,0,1,2.55.718l8.949,5.489A.116.116,0,0,0,2620.387,351.083Z" transform="translate(-2529.204 -319.663)" fill="#cde8f9"/>
          </g>
          <g id="Group_476" data-name="Group 476">
            <path id="Path_384" data-name="Path 384" d="M2619.979,352.046l-8.949-5.489a3.913,3.913,0,0,0-2.044-.576h-66.776a13.681,13.681,0,0,1-9.415-3.9,13.23,13.23,0,0,1-3.9-9.415v-.352a12.975,12.975,0,0,1,12.961-12.96h68.792a12.975,12.975,0,0,1,12.961,12.96v.352a13.267,13.267,0,0,1-3.551,9.052,2.472,2.472,0,0,0-.543,2.4l2.064,6.679a1.082,1.082,0,0,1-1.6,1.243Z" transform="translate(-2528.896 -319.355)" fill="#fff"/>
            <path id="Path_384_-_Outline" data-name="Path 384 - Outline" d="M2620.546,352.707a1.576,1.576,0,0,1-.831-.237l-8.948-5.487a3.414,3.414,0,0,0-1.783-.5h-66.776a14.2,14.2,0,0,1-9.768-4.045,13.728,13.728,0,0,1-4.045-9.768v-.352a13.476,13.476,0,0,1,13.461-13.46h68.792a13.476,13.476,0,0,1,13.461,13.46v.352a13.767,13.767,0,0,1-3.685,9.392,1.971,1.971,0,0,0-.432,1.917l2.064,6.679a1.586,1.586,0,0,1-1.512,2.053Zm-78.689-32.852a12.475,12.475,0,0,0-12.461,12.46v.352a12.735,12.735,0,0,0,3.753,9.061,13.168,13.168,0,0,0,9.061,3.752h66.776a4.414,4.414,0,0,1,2.305.65l8.95,5.489a.575.575,0,0,0,.664-.037.57.57,0,0,0,.2-.632l-2.065-6.679a2.974,2.974,0,0,1,.654-2.892,12.771,12.771,0,0,0,3.418-8.712v-.352a12.475,12.475,0,0,0-12.461-12.46Z" transform="translate(-2528.896 -319.355)" fill="#cde8f9"/>
          </g>
        </g>
        <g id="Group_484" data-name="Group 484" transform="translate(29.118 10.245)">
          <g id="Group_479" data-name="Group 479">
            <g id="Group_478" data-name="Group 478">
              <path id="Path_385" data-name="Path 385" d="M2551.487,333.3a3.838,3.838,0,1,1,3.838-3.838A3.842,3.842,0,0,1,2551.487,333.3Zm0-6.676a2.838,2.838,0,1,0,2.838,2.838A2.841,2.841,0,0,0,2551.487,326.629Z" transform="translate(-2548.149 -326.129)" fill="#cde8f9"/>
            </g>
          </g>
          <g id="Group_481" data-name="Group 481" transform="translate(13.087)">
            <g id="Group_480" data-name="Group 480">
              <path id="Path_386" data-name="Path 386" d="M2560.14,333.3a3.838,3.838,0,1,1,3.838-3.838A3.842,3.842,0,0,1,2560.14,333.3Zm0-6.676a2.838,2.838,0,1,0,2.838,2.838A2.841,2.841,0,0,0,2560.14,326.629Z" transform="translate(-2556.802 -326.129)" fill="#cde8f9"/>
            </g>
          </g>
          <g id="Group_483" data-name="Group 483" transform="translate(26.175)">
            <g id="Group_482" data-name="Group 482">
              <path id="Path_387" data-name="Path 387" d="M2568.793,333.3a3.838,3.838,0,1,1,3.838-3.838A3.842,3.842,0,0,1,2568.793,333.3Zm0-6.676a2.838,2.838,0,1,0,2.838,2.838A2.841,2.841,0,0,0,2568.793,326.629Z" transform="translate(-2565.456 -326.129)" fill="#cde8f9"/>
            </g>
          </g>
        </g>
      </g>
      <g id="Group_490" data-name="Group 490" transform="translate(2741.843 315.585)">
        <g id="Group_486" data-name="Group 486" transform="translate(14.592)">
          <path id="Path_388" data-name="Path 388" d="M2679.425,275.048a.3.3,0,0,1-.054-.331l1.6-3.535a.3.3,0,1,1,.552.248l-1.6,3.536a.3.3,0,0,1-.4.151A.291.291,0,0,1,2679.425,275.048Z" transform="translate(-2679.344 -271.004)" fill="#182a62"/>
        </g>
        <g id="Group_487" data-name="Group 487" transform="translate(20.183 5.184)">
          <path id="Path_389" data-name="Path 389" d="M2683.122,277.283l-.019-.024a.3.3,0,0,1,.058-.423l3.093-2.343a.3.3,0,1,1,.365.482l-3.091,2.343A.3.3,0,0,1,2683.122,277.283Z" transform="translate(-2683.041 -274.431)" fill="#182a62"/>
        </g>
        <g id="Group_488" data-name="Group 488" transform="translate(6.974 0.099)">
          <path id="Path_390" data-name="Path 390" d="M2676.058,275.078a.305.305,0,0,1-.05-.076l-1.671-3.5a.3.3,0,0,1,.546-.26l1.671,3.5a.3.3,0,0,1-.5.336Z" transform="translate(-2674.307 -271.069)" fill="#182a62"/>
        </g>
        <g id="Group_489" data-name="Group 489" transform="translate(0 5.434)">
          <path id="Path_391" data-name="Path 391" d="M2669.777,275.105a.3.3,0,0,1,.4-.451l3.141,2.276a.3.3,0,1,1-.354.49l-3.141-2.276A.378.378,0,0,1,2669.777,275.105Z" transform="translate(-2669.696 -274.597)" fill="#182a62"/>
        </g>
      </g>
      <ellipse id="Ellipse_23" data-name="Ellipse 23" cx="146.518" cy="4.016" rx="146.518" ry="4.016" transform="translate(2604.469 584.317)" fill="#dce2f3"/>
      <g id="Group_498" data-name="Group 498" transform="translate(2630.656 330.678)">
        <path id="Path_392" data-name="Path 392" d="M2703.453,302.779c-.206,1.691,1.064,5.944,17.288,3.84,1.7,2.908,1.951,9.082,1.951,9.082,5.085-3.816,6.723-13.085,1.627-18.5C2717.654,290.123,2704.374,295.117,2703.453,302.779Z" transform="translate(-2541.221 -274.417)" fill="#b97777"/>
        <g id="Group_497" data-name="Group 497">
          <g id="Group_493" data-name="Group 493" transform="translate(122.497 0.3)">
            <path id="Path_393" data-name="Path 393" d="M2727.992,357.354s1.242,19.04,0,26.373c-.417,2.473-1.439,25.153-4.992,50.038-4.114,28.826-6.255,59.38-6.255,59.38a5.253,5.253,0,0,1-6.186-.181s-11.438-132.534-10.688-137.91C2703.222,356.523,2717.89,358.017,2727.992,357.354Z" transform="translate(-2665.563 -243.33)" fill="#0b132c"/>
            <g id="Group_491" data-name="Group 491">
              <path id="Path_394" data-name="Path 394" d="M2678.093,282.9c.165.07.239-1.422.958-1.269a.809.809,0,0,1,.777-.443,1.6,1.6,0,0,1,1.49.712,24.047,24.047,0,0,1,.857,2.282c.062.186.941,2.84,1.166,4.046a17.711,17.711,0,0,1,.351,3.026,31.529,31.529,0,0,1-5.169,1.249c-.367-1.7-.971-7.039-1.015-7.163C2676.758,283.271,2677.413,282.617,2678.093,282.9Z" transform="translate(-2677.174 -281.182)" fill="#e3c9c9"/>
              <path id="Path_395" data-name="Path 395" d="M2693.282,309.421c8.539,3.822,27.222,8.228,32.46,11.045.948.511-4.609,11.564-6.22,13.019-3.718,3.359-26.383-10.894-33.529-17.326C2683.279,313.716,2682.809,304.735,2693.282,309.421Z" transform="translate(-2673.502 -267.396)" fill="#e3c9c9"/>
              <path id="Path_396" data-name="Path 396" d="M2699.356,310.446c8.38,3.651,18.8,6.822,22.5,8.811.948.511-2.372,14.522-7.541,14.522-3.344,0-13.273-2.624-22.387-8.51.4-1.169,2.025-4.569,2.526-5.708A71.39,71.39,0,0,1,2699.356,310.446Z" transform="translate(-2669.615 -266.187)" fill="#1e3596"/>
              <path id="Path_397" data-name="Path 397" d="M2695.684,322.081a3.92,3.92,0,0,1,.1,1.216c-.121,2.016-1.55,4.717-5.582,4.065-4.4-.709-10.768-27.107-12.168-38.179,1.4-.063,2.971-1.276,5.071-1.963C2683.821,293.967,2694.01,315.871,2695.684,322.081Z" transform="translate(-2676.733 -278.088)" fill="#e3c9c9"/>
            </g>
            <path id="Path_398" data-name="Path 398" d="M2745.545,355.054c.407,2.919-4.028,65.744-5.372,75.6-1.128,8.3,2.854,60.1,2.854,60.1-.057.224-3.5,2.762-6.331,1.149,0,0-11.792-36.59-15.907-65.415-1.579-11.062-4.654-24.383-7.113-37.134-2.819-14.623-5.4-29.046-5.4-29.046C2718.384,360.974,2742.195,356.523,2745.545,355.054Z" transform="translate(-2661.236 -243.33)" fill="#182a62"/>
            <path id="Path_399" data-name="Path 399" d="M2719.91,306.053c-.411,2.813.393,10.635,1.362,12.107-2.331,5.169-10.548,7.123-11.362,2.1,1.346-3.279-.056-9.38-.071-9.956C2711.918,310.614,2719.207,306.569,2719.91,306.053Z" transform="translate(-2660.437 -268.438)" fill="#e3c9c9"/>
            <path id="Path_400" data-name="Path 400" d="M2714.3,299.375c4.116.281,6.591,3.864,6.314,7.939l-.29,4.233c-.209,3.073-5.28,7.585-7.918,6.836-6.24-1.774-6.8-13.468-6.492-14.764C2706.766,300,2710.475,299.114,2714.3,299.375Z" transform="translate(-2662.479 -271.882)" fill="#e3c9c9"/>
            <path id="Path_401" data-name="Path 401" d="M2707.37,319.841c1.349-.88,8.769-3.421,8.769-3.421s1.747,2.5,3.811,2.334c3-.247,7.551-4.7,7.551-4.7s6.414,1.992,8.574,2.576c6.484,1.756,9.186,5.6,11.525,12.86.723,2.24,3.409,29.268,6.75,55.929,1,8.005-52.987,12.284-56.242,5.809-1.328-2.641.584-9.632,3.637-57.4C2702.053,329.041,2702.139,323.264,2707.37,319.841Z" transform="translate(-2666.666 -264.336)" fill="#2659bf"/>
            <path id="Path_402" data-name="Path 402" d="M2718.269,305.944a3.673,3.673,0,0,1-2.1,2.892c-.459-1.1-1.394-3.312-1.786-4.7a3.509,3.509,0,0,1,1.711-.591C2717.158,303.5,2718.227,304.881,2718.269,305.944Z" transform="translate(-2658.108 -269.725)" fill="#e3c9c9"/>
            <g id="Group_492" data-name="Group 492" transform="translate(59.485 53.643)">
              <path id="Path_403" data-name="Path 403" d="M2717.725,371.126c.106-.215,1.611-3.255,2.429-4.525a26.991,26.991,0,0,1,2.216-3.049,26.979,26.979,0,0,1,5,2.149c-1.115,1.819-5.038,7.191-5.106,7.335-1.121,2.409-2.161,2.6-2.456,1.9-.071-.169-1.35,1.175-1.779.572a.859.859,0,0,1-.962-.085,2.873,2.873,0,0,1-.559-1.62A18.853,18.853,0,0,1,2717.725,371.126Z" transform="translate(-2716.506 -292.619)" fill="#e3c9c9"/>
              <path id="Path_404" data-name="Path 404" d="M2716.731,324.142c-.4-1,9.694-5.531,11.866-5.607,5.006-.177,13.172,25.321,14.5,34.843.5,3.618-4.918,10.793-9.915.463C2729.105,345.42,2718.924,329.67,2716.731,324.142Z" transform="translate(-2716.396 -315.686)" fill="#e3c9c9"/>
              <path id="Path_405" data-name="Path 405" d="M2732.942,318.8c2.538,2.175,7.373,10.6,10.555,20.973a31.12,31.12,0,0,1-15.228,6.561c-4.061-8.191-11.422-17.033-11.541-21.228C2716.575,319.68,2726.411,313.207,2732.942,318.8Z" transform="translate(-2716.393 -316.651)" fill="#276bd8"/>
              <path id="Path_406" data-name="Path 406" d="M2734.115,340.684c1.4-1.449,4.25-2.565,6.884.558,2.875,3.407-9.841,28.317-16,37.626a21.31,21.31,0,0,0-4.787-2.556c3.855-5.584,10.405-28.836,13.184-34.637A3.882,3.882,0,0,1,2734.115,340.684Z" transform="translate(-2714.605 -305.075)" fill="#e3c9c9"/>
            </g>
            <path id="Path_407" data-name="Path 407" d="M2723.333,453.318c.526-.03,3.864-.266,5.544-1.68,1.378-1.159.561-7.036.2-8.448a32.89,32.89,0,0,1,3.235.641c1.718.06,3.616.516,4.378.222a65.337,65.337,0,0,0,1.753,8.565,2.23,2.23,0,0,1-.054,2.08c-1.066,1.4-2.462,1.307-3.829,1.388-2.237.132-9.666.6-12.883.791a1.245,1.245,0,0,1-1.447-1.273C2720.2,455.019,2720.68,453.473,2723.333,453.318Z" transform="translate(-2655.113 -198.169)" fill="#8a1d1d"/>
            <path id="Path_408" data-name="Path 408" d="M2703.5,453.318c.527-.03,3.863-.266,5.543-1.68,1.379-1.159.563-7.036.2-8.448a32.98,32.98,0,0,1,3.235.641c1.718.06,3.616.516,4.378.222a65.257,65.257,0,0,0,1.753,8.565,2.229,2.229,0,0,1-.054,2.08c-1.066,1.4-2.462,1.307-3.831,1.388-2.235.132-9.664.6-12.881.791a1.247,1.247,0,0,1-1.449-1.273C2700.368,455.019,2700.852,453.473,2703.5,453.318Z" transform="translate(-2665.273 -198.169)" fill="#8a1d1d"/>
          </g>
          <g id="Group_496" data-name="Group 496">
            <path id="Path_409" data-name="Path 409" d="M2610.144,312.56c2.834-1.747,4.818-1.91,7.492-9.291,8.878-24.481,26.205-8.2,23.873-1.773-.573,1.581-1.724,2.278-2.56.2-1.411-3.5-8.68-8.326-8.341,8.214.088,4.363,3.854,11.021-9.566,15.065-12.14,3.66-4.371,8.572-5.8,11.447C2611.583,343.8,2596.153,321.191,2610.144,312.56Z" transform="translate(-2591.976 -276.252)" fill="#8a1d1d"/>
            <path id="Path_410" data-name="Path 410" d="M2655.7,360.385c.75,5.375-10.686,128.232-10.686,128.232-.057.224-4.809,1.6-7.639-.523a570.6,570.6,0,0,0-4.8-58.675c-3.553-24.885-7.679-65.587-7.679-65.587C2635,364.494,2652.353,361.852,2655.7,360.385Z" transform="translate(-2581.465 -240.298)" fill="#b97777"/>
            <path id="Path_411" data-name="Path 411" d="M2648.043,452.869c-.525,0-3.872-.041-5.632-1.352-1.443-1.077-1.062-8.5-.788-9.932l-8.344-.464c-.106,2.191-.048,11.012-.363,11.937a2.225,2.225,0,0,0,.178,2.074c1.145,1.332,2.535,1.158,3.905,1.158,2.24,0,9.682.035,12.9.035a1.247,1.247,0,0,0,1.372-1.357C2651.275,454.383,2650.7,452.869,2648.043,452.869Z" transform="translate(-2577.441 -198.928)" fill="#2659bf"/>
            <g id="Group_494" data-name="Group 494" transform="translate(57.299)">
              <path id="Path_412" data-name="Path 412" d="M2676.143,283.448a15.056,15.056,0,0,1,1.519-2.25,2.453,2.453,0,0,1,1.609-.13,1.105,1.105,0,0,1,.585.88c.717.159.316,1.922.491,1.921.72-.006,1.126,1.06-.224,3.108-.08.124-2.324,6.042-3.2,7.84a34.52,34.52,0,0,1-4.419-3.867,23.391,23.391,0,0,1,1.28-3.35C2674.372,286.3,2676.027,283.634,2676.143,283.448Z" transform="translate(-2614.37 -280.983)" fill="#b97777"/>
              <path id="Path_413" data-name="Path 413" d="M2634.157,319c5.183-2.651,24.121-5.331,32.635-8.724,10.443-4.162,10.668,6.552,8.061,9.1-6.868,6.724-29.138,20.667-33.242,16.116C2639.83,333.528,2633.216,319.485,2634.157,319Z" transform="translate(-2634.066 -266.458)" fill="#b97777"/>
              <path id="Path_414" data-name="Path 414" d="M2634.157,318.246c3.658-1.871,14.165-4.223,22.529-7.435a115.037,115.037,0,0,1,5.785,11.626c.608,1.438,2.556,5.746,3.061,7.207-8.943,5.792-21.183,8.137-23.922,5.1C2639.83,332.77,2633.216,318.727,2634.157,318.246Z" transform="translate(-2634.066 -265.7)" fill="#54afdd"/>
              <path id="Path_415" data-name="Path 415" d="M2658,321.493c3.516-6.428,19.9-27.093,22.694-34.595a22.885,22.885,0,0,0,4.56,3.849c-4.791,12.2-19.49,40.676-23.814,39.441-3.959-1.13-4.439-4.932-3.917-7.331A5.26,5.26,0,0,1,2658,321.493Z" transform="translate(-2622.134 -277.953)" fill="#b97777"/>
            </g>
            <path id="Path_416" data-name="Path 416" d="M2612.291,358.392c3.353,1.469,21.588,1.053,31.692.392,0,0-4.752,53.421-6.917,64.383-5.564,28.156-15.909,65.416-15.909,65.416-2.828,1.611-6.272-.926-6.328-1.151,0,0,.253-51.027,2.532-62.86C2619.243,414.8,2610.335,376.529,2612.291,358.392Z" transform="translate(-2588.069 -241.319)" fill="#b97777"/>
            <path id="Path_417" data-name="Path 417" d="M2629.09,304.985c.7.516,7.992,4.561,10.072,4.247-.017.576-1.417,6.951-.07,10.23-1.3,5.129-9.033,2.8-11.364-2.368C2628.695,315.622,2629.5,307.8,2629.09,304.985Z" transform="translate(-2580.015 -268.685)" fill="#b97777"/>
            <path id="Path_418" data-name="Path 418" d="M2635.83,298.307c3.831-.262,7.537.625,8.388,4.244.3,1.3-.253,12.99-6.493,14.764-2.639.749-7.707-3.763-7.919-6.836,0,0-.286-4.191-.289-4.233C2629.239,302.172,2631.716,298.589,2635.83,298.307Z" transform="translate(-2579.108 -272.128)" fill="#b97777"/>
            <path id="Path_419" data-name="Path 419" d="M2618.5,328.362c1.05-7.577,3.409-11.027,9.891-12.789,2.161-.585,8.575-2.582,8.575-2.582s4.548,4.463,7.551,4.71c2.063.168,3.813-2.341,3.813-2.341s7.417,2.548,8.768,3.433c5.23,3.432,8.012,15.18,8.233,19.989.458,10.021-3.25,9.493-1.8,22.261a523.316,523.316,0,0,1,2.829,76.358c-3.254,6.5-45.854,8.01-56.67,0,0,0,0-59.478,10.033-80.044C2619.441,343.6,2617.758,333.731,2618.5,328.362Z" transform="translate(-2589.256 -264.583)" fill="#81c6ef"/>
            <path id="Path_420" data-name="Path 420" d="M2629.132,297.765c5.591-5.073,14.26.3,14.26.3,6.6,1.258,5.165,10.914,2.137,12.319,1.431-7.1-3.388-9.4-3.388-9.4-8.942-.129-12.051,10.532-11.452,13.293C2630.689,314.273,2620.709,305.4,2629.132,297.765Z" transform="translate(-2581.026 -273.502)" fill="#8a1d1d"/>
            <path id="Path_421" data-name="Path 421" d="M2630.348,302.475a3.478,3.478,0,0,1,1.71.591c-.392,1.388-1.326,3.6-1.786,4.7a3.673,3.673,0,0,1-2.1-2.892C2628.216,303.812,2629.285,302.433,2630.348,302.475Z" transform="translate(-2579.787 -269.971)" fill="#b97777"/>
            <path id="Path_422" data-name="Path 422" d="M2628.235,295.421a3.279,3.279,0,0,1,2.176-.733,4.6,4.6,0,0,1,2.885,1.5c-3.89,1.649-6.972,5.976-6.972,5.976C2625.376,299.991,2625.358,297.608,2628.235,295.421Z" transform="translate(-2581.026 -273.964)" fill="#f45a6d"/>
            <g id="Group_495" data-name="Group 495" transform="translate(0 53.898)">
              <path id="Path_423" data-name="Path 423" d="M2602.086,368.88c.223.544.623,1.077-.146,1.28-.483.172-1.662-1.741-1.673-2.251.344-1.23,1.063-1.022,1.219-2.223A10.817,10.817,0,0,0,2602.086,368.88Z" transform="translate(-2594.085 -291.48)" fill="#b97777"/>
              <path id="Path_424" data-name="Path 424" d="M2603.722,365.858a26.742,26.742,0,0,1-.779,3.687c-.4,1.458-1.644,4.613-1.733,4.834a18.763,18.763,0,0,1-1.175,2.7,2.871,2.871,0,0,1-1.577.671.863.863,0,0,1-.708-.658c-.734.085-.593-1.765-.767-1.7-.714.246-1.269-.653-.231-3.1.06-.147,1.42-6.661,2.025-8.705A26.95,26.95,0,0,1,2603.722,365.858Z" transform="translate(-2596.179 -292.557)" fill="#b97777"/>
              <path id="Path_425" data-name="Path 425" d="M2636.414,324.746c-2.571,5.363-13.987,19.912-18.635,28.031-5.7,9.959-10.611,2.427-9.858-1.146,1.981-9.409,11.926-32.651,15.794-33.739C2625.807,317.3,2636.878,323.775,2636.414,324.746Z" transform="translate(-2590.202 -315.989)" fill="#b97777"/>
              <path id="Path_426" data-name="Path 426" d="M2637.216,325.8c-.409,4.177-8.364,12.488-12.984,20.377a31.088,31.088,0,0,1-14.737-7.6c3.893-10.126,9.3-18.2,11.981-20.191C2628.379,313.259,2637.744,320.4,2637.216,325.8Z" transform="translate(-2589.357 -316.621)" fill="#a9d9ed"/>
              <path id="Path_427" data-name="Path 427" d="M2620,344.347a3.939,3.939,0,0,1-.254,1.195c-2.447,5.948-15.322,26.388-16.885,32.992a21.34,21.34,0,0,0-5.1-1.841c2.788-10.808,12.762-36.936,17.218-37.083C2619.057,339.473,2620.133,342.333,2620,344.347Z" transform="translate(-2595.372 -304.843)" fill="#b97777"/>
            </g>
            <path id="Path_428" data-name="Path 428" d="M2628.04,452.762c-.523-.03-3.863-.266-5.543-1.68-1.377-1.158-.559-8.548-.2-9.961h-8.052c-.235,2.182-.946,10.036-1.316,10.941a2.229,2.229,0,0,0,.057,2.08c1.063,1.4,2.461,1.308,3.83,1.388,2.235.132,9.664.6,12.88.792a1.247,1.247,0,0,0,1.449-1.275C2631.178,454.463,2630.694,452.918,2628.04,452.762Z" transform="translate(-2587.713 -198.928)" fill="#2659bf"/>
          </g>
        </g>
        <ellipse id="Ellipse_24" data-name="Ellipse 24" cx="5.787" cy="3.371" rx="5.787" ry="3.371" transform="translate(163.324 25.921)" fill="#b97777"/>
      </g>
      <g id="Group_518" data-name="Group 518" transform="translate(2590.099 517.992)">
        <g id="Group_504" data-name="Group 504" transform="translate(8.696)">
          <g id="Group_499" data-name="Group 499">
            <path id="Path_429" data-name="Path 429" d="M2594.974,440.423l-.457-.171a48.456,48.456,0,0,1-6.9-3.382,39.537,39.537,0,0,1-5.756-4.067,22.254,22.254,0,0,1-4.781-5.556,18.907,18.907,0,0,1-2.216-7.08,36.728,36.728,0,0,1-.136-7.337,50.348,50.348,0,0,1,1.269-8.122l.141-.537.52.2c.241.091,2.634,1.234,12.4,13.145a32.586,32.586,0,0,1,5.223,8.691,23.749,23.749,0,0,1,1.634,7.127,16.251,16.251,0,0,1-.766,6.64Zm-18.169-34.782a51.064,51.064,0,0,0-1.078,7.279c-.3,4.052-.15,9.739,2.221,13.825,2.381,4.1,6.842,7.3,10.164,9.254a50.381,50.381,0,0,0,6.271,3.124,16.9,16.9,0,0,0,.536-5.788c-.24-3.535-1.585-9.04-6.629-15.188C2581.008,409.266,2577.908,406.482,2576.805,405.641Z" transform="translate(-2575.113 -404.835)" fill="#cde8f9"/>
          </g>
          <g id="Group_500" data-name="Group 500" transform="translate(2.694 4.745)">
            <path id="Path_430" data-name="Path 430" d="M2593.375,437.322a.186.186,0,0,1-.145.116.267.267,0,0,1-.292-.091l-16.03-29.167c-.044-.08.017-.169.134-.2a.269.269,0,0,1,.294.091l16.029,29.167A.106.106,0,0,1,2593.375,437.322Z" transform="translate(-2576.894 -407.972)" fill="#cde8f9"/>
          </g>
          <g id="Group_501" data-name="Group 501" transform="translate(2.551 13.091)">
            <path id="Path_431" data-name="Path 431" d="M2584.264,417.933a.147.147,0,0,1-.054.076.309.309,0,0,1-.321.012l-7.013-4.259a.124.124,0,0,1-.018-.219.308.308,0,0,1,.322-.012l7.013,4.259A.129.129,0,0,1,2584.264,417.933Z" transform="translate(-2576.799 -413.491)" fill="#cde8f9"/>
          </g>
          <g id="Group_502" data-name="Group 502" transform="translate(11.604 13.824)">
            <path id="Path_432" data-name="Path 432" d="M2583.237,421.428a.229.229,0,0,1-.245.125c-.125-.008-.218-.083-.206-.168l1.024-7.27c.011-.083.123-.147.248-.139s.216.083.2.169l-1.023,7.269Z" transform="translate(-2582.785 -413.976)" fill="#cde8f9"/>
          </g>
          <g id="Group_503" data-name="Group 503" transform="translate(6.819 22.422)">
            <path id="Path_433" data-name="Path 433" d="M2587.885,424.069a.129.129,0,0,1-.045.066.308.308,0,0,1-.32.026l-7.812-4.226c-.1-.053-.115-.15-.038-.216a.308.308,0,0,1,.32-.026l7.813,4.226A.133.133,0,0,1,2587.885,424.069Z" transform="translate(-2579.621 -419.66)" fill="#cde8f9"/>
          </g>
        </g>
        <path id="Path_434" data-name="Path 434" d="M2585.611,450.663a.5.5,0,0,1-.372-.834,7.775,7.775,0,0,1,.7-.685c.524-.464.9-.8,1.857-3.153a30.363,30.363,0,0,0,2.253-11.148c0-3.568-.758-5.738-1.464-6.58a.5.5,0,1,1,.766-.643c1.06,1.264,1.695,3.964,1.7,7.222a31.383,31.383,0,0,1-2.326,11.524c-.995,2.453-1.433,2.917-2.121,3.526a6.807,6.807,0,0,0-.619.6A.5.5,0,0,1,2585.611,450.663Z" transform="translate(-2561.037 -392.994)" fill="#cde8f9"/>
        <path id="Path_435" data-name="Path 435" d="M2594.78,447.481a.5.5,0,0,1-.346-.139c-1.231-1.179-2.251-3.814-2.729-7.048a30.515,30.515,0,0,1,.632-11.629c.634-2.517,1.006-3.013,1.608-3.672a5.975,5.975,0,0,0,.524-.637.5.5,0,0,1,.817.576,6.933,6.933,0,0,1-.6.735c-.449.491-.773.846-1.376,3.241a29.5,29.5,0,0,0-.613,11.239c.439,2.977,1.371,5.456,2.431,6.472a.5.5,0,0,1-.346.861Z" transform="translate(-2557.809 -394.685)" fill="#81c6ef"/>
        <g id="Group_510" data-name="Group 510" transform="translate(33.241 6.456)">
          <g id="Group_505" data-name="Group 505">
            <path id="Path_436" data-name="Path 436" d="M2591.535,439.6s14.013-3.565,22.673-16.169,8.362-14.325,8.362-14.325-18.9,6.184-25.835,13.545S2591.535,439.6,2591.535,439.6Z" transform="translate(-2591.342 -409.104)" fill="#3ee5b1"/>
          </g>
          <g id="Group_506" data-name="Group 506" transform="translate(1.994 3.568)">
            <path id="Path_437" data-name="Path 437" d="M2592.985,436.151a.318.318,0,0,1-.224-.011c-.1-.048-.132-.144-.062-.215l24.07-24.394a.3.3,0,0,1,.316-.042c.1.047.131.144.062.215l-24.07,24.394A.216.216,0,0,1,2592.985,436.151Z" transform="translate(-2592.661 -411.463)" fill="#fff"/>
          </g>
          <g id="Group_507" data-name="Group 507" transform="translate(15.047 8.378)">
            <path id="Path_438" data-name="Path 438" d="M2601.614,421.294a.308.308,0,0,1-.119.014c-.125-.009-.216-.085-.2-.169l.974-6.357c.014-.085.125-.147.251-.138s.215.085.2.169l-.976,6.357A.175.175,0,0,1,2601.614,421.294Z" transform="translate(-2601.291 -414.643)" fill="#fff"/>
          </g>
          <g id="Group_508" data-name="Group 508" transform="translate(11.775 14.356)">
            <path id="Path_439" data-name="Path 439" d="M2599.452,422.584a.293.293,0,0,1-.293-.062c-.063-.074-.027-.168.082-.212l9.272-3.693a.3.3,0,0,1,.312.056c.063.073.027.168-.082.212l-9.272,3.693Z" transform="translate(-2599.127 -418.596)" fill="#fff"/>
          </g>
          <g id="Group_509" data-name="Group 509" transform="translate(6.922 16.192)">
            <path id="Path_440" data-name="Path 440" d="M2596.244,426.881a.354.354,0,0,1-.107.015c-.125,0-.224-.077-.218-.162l.466-6.777c.006-.085.112-.151.238-.147s.222.076.218.162l-.466,6.776A.168.168,0,0,1,2596.244,426.881Z" transform="translate(-2595.919 -419.81)" fill="#fff"/>
          </g>
        </g>
        <path id="Path_441" data-name="Path 441" d="M2591.551,444.146a.5.5,0,0,1-.494-.429l-.786-5.463a14.8,14.8,0,0,0-2.3-5.955.5.5,0,1,1,.839-.544,15.791,15.791,0,0,1,2.447,6.356l.786,5.463a.5.5,0,0,1-.5.571Z" transform="translate(-2559.611 -390.901)" fill="#81c6ef"/>
        <g id="Group_516" data-name="Group 516" transform="translate(0 30.655)">
          <g id="Group_511" data-name="Group 511">
            <path id="Path_442" data-name="Path 442" d="M2599.887,437.256a40.6,40.6,0,0,1-19.826-5.328c-10.177-5.761-10.7-6.824-10.7-6.824s13.571.088,20.615,3.1A20.543,20.543,0,0,1,2599.887,437.256Z" transform="translate(-2569.363 -425.104)" fill="#3ee5b1"/>
          </g>
          <g id="Group_512" data-name="Group 512" transform="translate(4.346 1.354)">
            <path id="Path_443" data-name="Path 443" d="M2596.357,435.984a.216.216,0,0,1-.076-.014l-23.973-9.785c-.07-.027-.092-.089-.05-.136a.186.186,0,0,1,.2-.035l23.975,9.784c.07.029.092.091.05.138A.17.17,0,0,1,2596.357,435.984Z" transform="translate(-2572.237 -425.999)" fill="#fff"/>
          </g>
          <g id="Group_513" data-name="Group 513" transform="translate(12.175 2.293)">
            <path id="Path_444" data-name="Path 444" d="M2580.706,430.36a.17.17,0,0,1-.127-.048l-3.145-3.539c-.042-.048-.019-.109.05-.138a.19.19,0,0,1,.2.033l3.146,3.54c.042.047.019.109-.051.138A.214.214,0,0,1,2580.706,430.36Z" transform="translate(-2577.413 -426.62)" fill="#fff"/>
          </g>
          <g id="Group_514" data-name="Group 514" transform="translate(11.652 6.733)">
            <path id="Path_445" data-name="Path 445" d="M2584.14,430.185h-.013l-6.926-.43c-.08,0-.141-.053-.133-.109s.079-.1.16-.091l6.925.429c.08.006.141.055.133.109S2584.216,430.185,2584.14,430.185Z" transform="translate(-2577.067 -429.556)" fill="#fff"/>
          </g>
          <g id="Group_515" data-name="Group 515" transform="translate(20.394 5.255)">
            <path id="Path_446" data-name="Path 446" d="M2586.012,432.66a.164.164,0,0,1-.13-.054l-3.017-3.881c-.038-.048-.01-.109.062-.135a.184.184,0,0,1,.2.042l3.017,3.881c.038.048.01.109-.062.135A.211.211,0,0,1,2586.012,432.66Z" transform="translate(-2582.848 -428.578)" fill="#fff"/>
          </g>
        </g>
        <g id="Group_517" data-name="Group 517" transform="translate(18.866 50.917)">
          <path id="Path_447" data-name="Path 447" d="M2588.331,458.223l-6.494-19.721h26.612l-5.365,19.721Z" transform="translate(-2581.837 -438.501)" fill="#f45a6d"/>
        </g>
      </g>
      <g id="Group_539" data-name="Group 539" transform="translate(2856.628 438.291)">
        <g id="Group_521" data-name="Group 521" transform="translate(14.126)">
          <g id="Group_519" data-name="Group 519" transform="translate(0.392 0.392)">
            <path id="Path_448" data-name="Path 448" d="M2769.646,379.553a17.16,17.16,0,0,0,.83-5.374c0-3.91-1.207-7.34-3.025-9.294a11.219,11.219,0,0,0,1.028-4.85c0-4.218-2.025-7.639-4.524-7.639s-4.522,3.421-4.522,7.639a11.233,11.233,0,0,0,1.027,4.85c-1.816,1.954-3.024,5.384-3.024,9.294a17.154,17.154,0,0,0,.829,5.374A24.05,24.05,0,0,0,2755.191,392c0,9.037,3.2,23.625,8.04,23.625s9.492-14.589,9.492-23.625A24.052,24.052,0,0,0,2769.646,379.553Z" transform="translate(-2755.191 -352.396)" fill="#f5fafe"/>
            <path id="Path_448_-_Outline" data-name="Path 448 - Outline" d="M2763.957,351.9a4.365,4.365,0,0,1,3.629,2.483,11.267,11.267,0,0,1,1.395,5.656,12.021,12.021,0,0,1-.937,4.763c1.842,2.152,2.933,5.626,2.933,9.381a17.884,17.884,0,0,1-.784,5.308,24.885,24.885,0,0,1,3.03,12.511,47.771,47.771,0,0,1-2.961,15.375c-1.209,3.268-3.731,8.75-7.03,8.75-3.085,0-5.137-4.776-6.315-8.783A58.439,58.439,0,0,1,2754.691,392a24.885,24.885,0,0,1,3.03-12.511,17.88,17.88,0,0,1-.782-5.308c0-3.755,1.091-7.229,2.932-9.382a12.04,12.04,0,0,1-.936-4.763,11.268,11.268,0,0,1,1.394-5.656A4.363,4.363,0,0,1,2763.957,351.9Zm-.726,63.228c1.938,0,4.216-3.027,6.092-8.1a47.415,47.415,0,0,0,2.9-15.028,23.642,23.642,0,0,0-3-12.18l-.125-.2.074-.224a16.759,16.759,0,0,0,.8-5.216c0-3.66-1.081-7.007-2.891-8.953l-.234-.251.15-.308a10.793,10.793,0,0,0,.978-4.631,10.26,10.26,0,0,0-1.255-5.147,2.919,2.919,0,0,0-5.536,0,10.26,10.26,0,0,0-1.255,5.147,10.808,10.808,0,0,0,.977,4.632l.15.308-.233.251c-1.81,1.947-2.89,5.294-2.89,8.953a16.751,16.751,0,0,0,.8,5.216l.074.224-.125.2a23.641,23.641,0,0,0-3,12.18,58.247,58.247,0,0,0,2.184,15.06C2759.382,412.184,2761.334,415.124,2763.231,415.124Z" transform="translate(-2755.191 -352.396)" fill="#cde8f9"/>
          </g>
          <g id="Group_520" data-name="Group 520">
            <path id="Path_449" data-name="Path 449" d="M2763.364,416.147c-3.017,0-5.044-4.732-6.212-8.7a58.294,58.294,0,0,1-2.22-15.312,24.715,24.715,0,0,1,3.04-12.5,17.791,17.791,0,0,1-.792-5.322c0-3.761,1.1-7.235,2.951-9.363a11.872,11.872,0,0,1-.954-4.781c0-4.428,2.2-8.031,4.914-8.031s4.916,3.6,4.916,8.031a11.873,11.873,0,0,1-.956,4.781c1.853,2.128,2.952,5.6,2.952,9.363a17.783,17.783,0,0,1-.792,5.322,24.727,24.727,0,0,1,3.038,12.5C2773.247,401.18,2768.628,416.147,2763.364,416.147Z" transform="translate(-2754.932 -352.137)" fill="#f5fafe"/>
            <path id="Path_449_-_Outline" data-name="Path 449 - Outline" d="M2763.364,416.647c-1.542,0-2.964-1.043-4.226-3.1a25.249,25.249,0,0,1-2.466-5.962,58.834,58.834,0,0,1-2.24-15.453,25.485,25.485,0,0,1,3-12.563,18.425,18.425,0,0,1-.749-5.257,15.41,15.41,0,0,1,2.87-9.449,12.618,12.618,0,0,1-.873-4.7,11.524,11.524,0,0,1,1.514-5.937,4.229,4.229,0,0,1,7.8,0,11.521,11.521,0,0,1,1.515,5.937,12.612,12.612,0,0,1-.875,4.7,15.4,15.4,0,0,1,2.872,9.449,18.418,18.418,0,0,1-.749,5.257,25.5,25.5,0,0,1,2.995,12.562,48.858,48.858,0,0,1-3,15.575C2769.506,411.045,2766.9,416.647,2763.364,416.647Zm.726-64.01a3.763,3.763,0,0,0-3.047,2.116,10.518,10.518,0,0,0-1.367,5.415,11.407,11.407,0,0,0,.91,4.576l.131.292-.21.241c-1.771,2.036-2.828,5.414-2.828,9.035a17.3,17.3,0,0,0,.769,5.171l.069.217-.119.195a24.252,24.252,0,0,0-2.967,12.237,57.753,57.753,0,0,0,2.2,15.17c1.583,5.381,3.618,8.345,5.732,8.345,1.084,0,2.217-.768,3.367-2.282a24.114,24.114,0,0,0,3.08-6.006,47.774,47.774,0,0,0,2.936-15.227,24.262,24.262,0,0,0-2.965-12.237l-.118-.195.069-.217a17.3,17.3,0,0,0,.769-5.171c0-3.623-1.058-7-2.829-9.035l-.21-.241.131-.292a11.41,11.41,0,0,0,.912-4.576,10.513,10.513,0,0,0-1.368-5.415A3.765,3.765,0,0,0,2764.09,352.637Z" transform="translate(-2754.932 -352.137)" fill="#cde8f9"/>
          </g>
        </g>
        <g id="Group_523" data-name="Group 523" transform="translate(26.707 32.005)">
          <g id="Group_522" data-name="Group 522">
            <path id="Path_450" data-name="Path 450" d="M2780.874,394.5a13.476,13.476,0,0,0,2.547-3.427,10.951,10.951,0,0,0,1.31-7.564,8.821,8.821,0,0,0,2.494-2.99c1.547-2.929,1.4-6.048-.337-6.965s-4.4.715-5.944,3.646a8.814,8.814,0,0,0-1.066,3.743,10.969,10.969,0,0,0-5.509,5.345,13.521,13.521,0,0,0-1.4,4.035,18.875,18.875,0,0,0-6.7,7.514c-3.316,6.273-4.293,15.649-.93,17.424s9.788-4.717,13.1-10.992A18.885,18.885,0,0,0,2780.874,394.5Z" transform="translate(-2763.25 -373.298)" fill="#f5fafe"/>
            <path id="Path_450_-_Outline" data-name="Path 450 - Outline" d="M2785.82,372.8h0a2.754,2.754,0,0,1,1.3.313,3.528,3.528,0,0,1,1.665,3.145,8.963,8.963,0,0,1-1.119,4.495,9.45,9.45,0,0,1-2.374,2.955,11.736,11.736,0,0,1-1.43,7.6,14.183,14.183,0,0,1-2.475,3.391,19.692,19.692,0,0,1-2.5,9.807,33.457,33.457,0,0,1-5.791,7.852c-1.71,1.69-4.225,3.7-6.493,3.7a3.16,3.16,0,0,1-1.495-.356,4.338,4.338,0,0,1-1.989-2.9,14.353,14.353,0,0,1-.316-4.6,28.124,28.124,0,0,1,3.026-10.6,19.684,19.684,0,0,1,6.691-7.593,14.237,14.237,0,0,1,1.406-3.955,11.75,11.75,0,0,1,5.471-5.464,9.593,9.593,0,0,1,1.1-3.625C2781.817,374.473,2783.955,372.8,2785.82,372.8Zm-19.219,42.26c1.505,0,3.562-1.213,5.791-3.416a32.413,32.413,0,0,0,5.609-7.608,18.451,18.451,0,0,0,2.375-9.5l-.018-.235.17-.163a13.053,13.053,0,0,0,2.45-3.3,10.447,10.447,0,0,0,1.269-7.2l-.09-.331.277-.2a8.38,8.38,0,0,0,2.347-2.82c1.392-2.636,1.333-5.516-.129-6.289a1.763,1.763,0,0,0-.833-.2c-1.481,0-3.305,1.495-4.435,3.635a8.371,8.371,0,0,0-1.009,3.527l-.011.342-.323.113a10.461,10.461,0,0,0-5.232,5.106,13.1,13.1,0,0,0-1.345,3.884l-.039.232-.2.118a18.442,18.442,0,0,0-6.509,7.314,27.074,27.074,0,0,0-2.913,10.2c-.241,3.386.422,5.834,1.774,6.548A2.174,2.174,0,0,0,2766.6,415.059Z" transform="translate(-2763.25 -373.298)" fill="#cde8f9"/>
          </g>
        </g>
        <g id="Group_525" data-name="Group 525" transform="translate(22.047 9.676)">
          <g id="Group_524" data-name="Group 524">
            <path id="Path_451" data-name="Path 451" d="M2761.42,358.535h0a.391.391,0,0,1,.391.392c-.015,8.324-.1,16.773-.254,25.107-.262,14.135-.728,28.435-1.388,42.6" transform="translate(-2760.169 -358.535)" fill="#f5fafe"/>
            <path id="Path_451_-_Outline" data-name="Path 451 - Outline" d="M2760.169,427.134h-.024a.5.5,0,0,1-.476-.523c.66-14.135,1.126-28.463,1.388-42.586.153-8.35.239-16.761.253-25a.5.5,0,0,1,.109-.988.893.893,0,0,1,.891.892c-.015,8.278-.1,16.729-.254,25.117-.262,14.132-.729,28.469-1.389,42.614A.5.5,0,0,1,2760.169,427.134Z" transform="translate(-2760.169 -358.535)" fill="#cde8f9"/>
          </g>
        </g>
        <g id="Group_527" data-name="Group 527" transform="translate(27.664 37.308)">
          <g id="Group_526" data-name="Group 526">
            <path id="Path_452" data-name="Path 452" d="M2784.16,376.8a.391.391,0,0,1,.146.534c-1.5,2.639-2.889,4.893-4.233,7.07a132.817,132.817,0,0,0-7.255,12.919c-3.14,6.49-6.132,13.119-8.936,19.8" transform="translate(-2763.883 -376.805)" fill="#f5fafe"/>
            <path id="Path_452_-_Outline" data-name="Path 452 - Outline" d="M2763.883,417.633a.5.5,0,0,1-.461-.693c2.793-6.659,5.8-13.331,8.947-19.829a133.191,133.191,0,0,1,7.279-12.964c1.25-2.024,2.664-4.315,4.177-6.971a.5.5,0,0,1,.582-.806.891.891,0,0,1,.335,1.217c-1.539,2.708-2.975,5.034-4.242,7.086a132.327,132.327,0,0,0-7.23,12.874c-3.136,6.482-6.139,13.138-8.924,19.78A.5.5,0,0,1,2763.883,417.633Z" transform="translate(-2763.883 -376.805)" fill="#cde8f9"/>
          </g>
        </g>
        <g id="Group_532" data-name="Group 532" transform="translate(0 32.31)">
          <g id="Group_529" data-name="Group 529">
            <g id="Group_528" data-name="Group 528">
              <path id="Path_453" data-name="Path 453" d="M2761.389,410.746a6.866,6.866,0,0,1-4.173-1.753,17.878,17.878,0,0,1-4.926-6.9,17.462,17.462,0,0,1-1.47-8.887,12.611,12.611,0,0,1-1.947-3.2,10.376,10.376,0,0,1-.682-6.844,8.456,8.456,0,0,1-1.892-2.807c-1.256-2.961-.8-5.889,1.034-6.667s4.256.932,5.511,3.891a8.515,8.515,0,0,1,.7,3.314,10.38,10.38,0,0,1,4.445,5.25,12.547,12.547,0,0,1,.945,3.625A17.455,17.455,0,0,1,2764.3,397a17.879,17.879,0,0,1,1.533,8.338c-.236,2.592-1.273,4.4-2.92,5.1A3.861,3.861,0,0,1,2761.389,410.746Z" transform="translate(-2745.591 -373.5)" fill="#f5fafe"/>
              <path id="Path_453_-_Outline" data-name="Path 453 - Outline" d="M2761.389,411.246a7.37,7.37,0,0,1-4.486-1.863,19.9,19.9,0,0,1-6.606-16.025,13.242,13.242,0,0,1-1.883-3.158,11.018,11.018,0,0,1-.783-6.892,9.172,9.172,0,0,1-1.791-2.759,8.343,8.343,0,0,1-.676-4.424,3.529,3.529,0,0,1,1.975-2.9,2.883,2.883,0,0,1,1.131-.227c1.9,0,3.924,1.762,5.036,4.384a9.24,9.24,0,0,1,.736,3.207,11.022,11.022,0,0,1,4.409,5.357,13.169,13.169,0,0,1,.958,3.549,19.9,19.9,0,0,1,6.923,15.89c-.253,2.785-1.4,4.744-3.224,5.516A4.363,4.363,0,0,1,2761.389,411.246ZM2748.27,374a1.887,1.887,0,0,0-.741.148,2.578,2.578,0,0,0-1.377,2.131,7.335,7.335,0,0,0,.609,3.881,7.987,7.987,0,0,0,1.776,2.64l.226.214-.093.3a9.926,9.926,0,0,0,.665,6.5,12.125,12.125,0,0,0,1.868,3.074l.145.171-.031.222a16.99,16.99,0,0,0,1.435,8.621,17.373,17.373,0,0,0,4.779,6.705,6.4,6.4,0,0,0,3.859,1.642,3.373,3.373,0,0,0,1.329-.264c1.47-.622,2.4-2.287,2.618-4.687a17.372,17.372,0,0,0-1.5-8.1,16.985,16.985,0,0,0-5.2-7.026l-.182-.132-.022-.224a12.064,12.064,0,0,0-.908-3.479,9.933,9.933,0,0,0-4.209-5l-.278-.14,0-.311a8.048,8.048,0,0,0-.661-3.115C2751.443,375.552,2749.751,374,2748.27,374Z" transform="translate(-2745.591 -373.5)" fill="#cde8f9"/>
            </g>
          </g>
          <g id="Group_531" data-name="Group 531" transform="translate(7.871 14.787)">
            <g id="Group_530" data-name="Group 530">
              <path id="Path_454" data-name="Path 454" d="M2750.8,383.277l.546,1.171c4.51,9.663,9.115,19.443,13.692,29.071" transform="translate(-2750.796 -383.277)" fill="#f5fafe"/>
              <path id="Path_454_-_Outline" data-name="Path 454 - Outline" d="M2765.034,414.019a.5.5,0,0,1-.452-.285c-4.522-9.514-9.129-19.3-13.693-29.075l-.546-1.171a.5.5,0,1,1,.906-.423l.546,1.171c4.563,9.776,9.169,19.556,13.69,29.068a.5.5,0,0,1-.451.715Z" transform="translate(-2750.796 -383.277)" fill="#cde8f9"/>
            </g>
          </g>
        </g>
        <g id="Group_538" data-name="Group 538" transform="translate(4.308 77.883)">
          <g id="Group_537" data-name="Group 537">
            <g id="Group_536" data-name="Group 536">
              <g id="Group_535" data-name="Group 535">
                <g id="Group_533" data-name="Group 533" transform="translate(0.382 0.392)">
                  <path id="Path_455" data-name="Path 455" d="M2754.944,403.392h21.981a.5.5,0,0,1,.4.8c-.012.016-1.221,1.645-4.8,7.594,3.7,8.975,8.755,22.152,10.513,33.861.936,6.229.832,11.452-.309,15.524a14.381,14.381,0,0,1-7.828,9.686l1.52,3.828a.5.5,0,0,1-.465.685h-19.084a.5.5,0,0,1-.465-.684l1.377-3.471a13.877,13.877,0,0,1-7.764-7.545,26.607,26.607,0,0,1-1.814-11.421,68.356,68.356,0,0,1,2-13.64,188.5,188.5,0,0,1,9.128-26.822c-3.579-5.949-4.787-7.579-4.8-7.595a.5.5,0,0,1,.4-.8Zm21.026,1H2755.9c.675,1.005,2.032,3.1,4.43,7.095a.5.5,0,0,1,.033.448,188.608,188.608,0,0,0-9.175,26.9c-2.565,10.754-2.649,18.972-.248,24.426a12.948,12.948,0,0,0,7.672,7.193.5.5,0,0,1,.293.654l-1.292,3.257h17.612l-1.425-3.588a.5.5,0,0,1,.267-.644,13.392,13.392,0,0,0,7.7-9.236c1.1-3.935,1.2-9.017.283-15.106-1.758-11.7-6.86-24.929-10.545-33.861a.5.5,0,0,1,.033-.448C2773.937,407.5,2775.294,405.4,2775.97,404.392Z" transform="translate(-2748.692 -403.892)" fill="#cde8f9"/>
                </g>
                <g id="Group_534" data-name="Group 534">
                  <path id="Path_456" data-name="Path 456" d="M2776.09,475.894H2757a.9.9,0,0,1-.737-.388l0,0a.891.891,0,0,1-.089-.83l1.235-3.111a14.24,14.24,0,0,1-7.616-7.6c-2.525-5.738-2.468-14.254.168-25.31a187.975,187.975,0,0,1,9.072-26.7c-3.424-5.685-4.627-7.328-4.677-7.4a.892.892,0,0,1,.716-1.424h21.981a.9.9,0,0,1,.8.494.885.885,0,0,1-.083.93c-.129.176-1.339,1.855-4.675,7.4,3.676,8.939,8.706,22.066,10.464,33.769,1,6.682.81,12.232-.575,16.5a14.579,14.579,0,0,1-7.449,8.966l1.384,3.49a.892.892,0,0,1-.828,1.221Zm-18.926-1h18.766l-1.5-3.776a.5.5,0,0,1,.256-.639c7.185-3.306,9.837-11.586,7.881-24.609-1.757-11.7-6.832-24.875-10.5-33.769a.5.5,0,0,1,.034-.448c2.988-4.97,4.338-6.955,4.736-7.52h-21.56c.393.558,1.759,2.565,4.738,7.52a.5.5,0,0,1,.034.448,188.062,188.062,0,0,0-9.12,26.781c-2.585,10.84-2.661,19.141-.226,24.675a13.3,13.3,0,0,0,7.531,7.263.5.5,0,0,1,.282.65Z" transform="translate(-2748.44 -403.633)" fill="#cde8f9"/>
                </g>
              </g>
            </g>
          </g>
        </g>
      </g>
    </g>
  </g>
</svg>
