<?xml version="1.0" encoding="utf-8"?>
<!-- Generator: Adobe Illustrator 25.3.1, SVG Export Plug-In . SVG Version: 6.00 Build 0)  -->
<svg version="1.1" id="Layer_1" xmlns:serif="http://www.serif.com/"
	 xmlns="http://www.w3.org/2000/svg" xmlns:xlink="http://www.w3.org/1999/xlink" x="0px" y="0px" viewBox="0 0 612 522"
	 style="enable-background:new 0 0 612 522;" xml:space="preserve">
<style type="text/css">
	.st0{fill:none;}
	.st1{fill:#1DA1F2;}
</style>
<rect x="66.9" y="23.9" class="st0" width="478.1" height="478.1"/>
<path class="st1" d="M192.5,511.6c230.9,0,357.3-191.3,357.3-357.3c0-5.4,0-10.8-0.4-16.2c24.6-17.8,45.8-39.8,62.6-65
	c-22.9,10.2-47.2,16.8-72.1,19.8c26.2-15.7,45.8-40.4,55.2-69.5c-24.6,14.6-51.6,24.9-79.7,30.5c-23.7-25.2-56.9-39.6-91.6-39.6
	c-68.9,0-125.7,56.7-125.7,125.7c0,9.6,1.1,19.1,3.3,28.4c-100.9-5.1-195.1-52.8-258.8-131.2c-33.1,57-16,131,38.9,167.6
	c-20-0.6-39.5-6-57-15.7v1.6c0,59.5,42.4,111.3,100.7,123.1c-18.5,5-37.9,5.8-56.7,2.2c16.4,51,63.7,86.2,117.3,87.2
	c-44.5,34.9-99.4,53.9-155.9,53.9c-10,0-20-0.6-29.9-1.8C57.4,492.1,124.2,511.6,192.5,511.6"/>
</svg>
